<?xml version="1.0" encoding="UTF-8"?>
<!DOCTYPE svg PUBLIC "-//W3C//DTD SVG 1.1//EN"
    "http://www.w3.org/Graphics/SVG/1.1/DTD/svg11.dtd">
<svg xmlns="http://www.w3.org/2000/svg" height="500.0000" stroke-opacity="1" viewBox="0 0 500 500" font-size="1" width="500.0000" xmlns:xlink="http://www.w3.org/1999/xlink" stroke="rgb(0,0,0)" version="1.1">
  <defs>
  </defs>
  <defs>
  </defs>
  <g stroke-linejoin="miter" stroke-opacity="1.0" fill-opacity="0.0" stroke="rgb(0,0,0)" stroke-width="0.5" fill="rgb(0,0,0)" stroke-linecap="butt" stroke-miterlimit="10.0">
    <path d="M 500.0000,500.0000 l -0.0000,-500.0000 h -500.0000 l -0.0000,500.0000 Z"/>
  </g>
  <defs>
  </defs>
  <g stroke-linejoin="miter" stroke-opacity="1.0" fill-opacity="1.0" stroke="rgb(0,0,0)" stroke-width="0.5" fill="rgb(2684,2473,2227)" stroke-linecap="butt" stroke-miterlimit="10.0">
    <path d="M 71.4286,397.5164 l 39.6825,-4.1051 l 39.6825,-41.0509 l 39.6825,-41.0509 l 39.6825,-205.2545 l 39.6825,123.1527 l 39.6825,41.0509 l 39.6825,82.1018 l 39.6825,49.2611 l 39.6825,41.0509 v 20.5255 l -39.6825,-28.7356 l -39.6825,-41.0509 l -39.6825,-82.1018 l -39.6825,-41.0509 l -39.6825,-41.0509 l -39.6825,123.1527 l -39.6825,41.0509 l -39.6825,20.5255 l -39.6825,12.3153 Z"/>
  </g>
  <defs>
  </defs>
  <g stroke-linejoin="miter" stroke-opacity="1.0" fill-opacity="1.0" stroke="rgb(0,0,0)" stroke-width="1.9999999999999996" fill="rgb(0,0,255)" stroke-linecap="butt" stroke-miterlimit="10.0">
    <path d="M 432.1429,376.9910 c 0.0000,-1.9724 -1.5990,-3.5714 -3.5714 -3.5714c -1.9724,-0.0000 -3.5714,1.5990 -3.5714 3.5714c -0.0000,1.9724 1.5990,3.5714 3.5714 3.5714c 1.9724,0.0000 3.5714,-1.5990 3.5714 -3.5714Z"/>
  </g>
  <defs>
  </defs>
  <g stroke-linejoin="miter" stroke-opacity="1.0" fill-opacity="1.0" stroke="rgb(0,0,0)" stroke-width="0.0" fill="rgb(255,0,0)" stroke-linecap="butt" stroke-miterlimit="10.0">
    <path d="M 428.7143,376.9910 c 0.0000,-0.0789 -0.0640,-0.1429 -0.1429 -0.1429c -0.0789,-0.0000 -0.1429,0.0640 -0.1429 0.1429c -0.0000,0.0789 0.0640,0.1429 0.1429 0.1429c 0.0789,0.0000 0.1429,-0.0640 0.1429 -0.1429Z"/>
  </g>
  <defs>
  </defs>
  <g stroke-linejoin="miter" stroke-opacity="1.0" fill-opacity="1.0" stroke="rgb(0,0,0)" stroke-width="1.9999999999999996" fill="rgb(0,0,255)" stroke-linecap="butt" stroke-miterlimit="10.0">
    <path d="M 392.4603,335.9401 c 0.0000,-1.9724 -1.5990,-3.5714 -3.5714 -3.5714c -1.9724,-0.0000 -3.5714,1.5990 -3.5714 3.5714c -0.0000,1.9724 1.5990,3.5714 3.5714 3.5714c 1.9724,0.0000 3.5714,-1.5990 3.5714 -3.5714Z"/>
  </g>
  <defs>
  </defs>
  <g stroke-linejoin="miter" stroke-opacity="1.0" fill-opacity="1.0" stroke="rgb(0,0,0)" stroke-width="0.0" fill="rgb(255,0,0)" stroke-linecap="butt" stroke-miterlimit="10.0">
    <path d="M 389.0317,335.9401 c 0.0000,-0.0789 -0.0640,-0.1429 -0.1429 -0.1429c -0.0789,-0.0000 -0.1429,0.0640 -0.1429 0.1429c -0.0000,0.0789 0.0640,0.1429 0.1429 0.1429c 0.0789,0.0000 0.1429,-0.0640 0.1429 -0.1429Z"/>
  </g>
  <defs>
  </defs>
  <g stroke-linejoin="miter" stroke-opacity="1.0" fill-opacity="1.0" stroke="rgb(0,0,0)" stroke-width="1.9999999999999996" fill="rgb(0,0,255)" stroke-linecap="butt" stroke-miterlimit="10.0">
    <path d="M 352.7778,286.6790 c 0.0000,-1.9724 -1.5990,-3.5714 -3.5714 -3.5714c -1.9724,-0.0000 -3.5714,1.5990 -3.5714 3.5714c -0.0000,1.9724 1.5990,3.5714 3.5714 3.5714c 1.9724,0.0000 3.5714,-1.5990 3.5714 -3.5714Z"/>
  </g>
  <defs>
  </defs>
  <g stroke-linejoin="miter" stroke-opacity="1.0" fill-opacity="1.0" stroke="rgb(0,0,0)" stroke-width="0.0" fill="rgb(255,0,0)" stroke-linecap="butt" stroke-miterlimit="10.0">
    <path d="M 349.3492,286.6790 c 0.0000,-0.0789 -0.0640,-0.1429 -0.1429 -0.1429c -0.0789,-0.0000 -0.1429,0.0640 -0.1429 0.1429c -0.0000,0.0789 0.0640,0.1429 0.1429 0.1429c 0.0789,0.0000 0.1429,-0.0640 0.1429 -0.1429Z"/>
  </g>
  <defs>
  </defs>
  <g stroke-linejoin="miter" stroke-opacity="1.0" fill-opacity="1.0" stroke="rgb(0,0,0)" stroke-width="1.9999999999999996" fill="rgb(0,0,255)" stroke-linecap="butt" stroke-miterlimit="10.0">
    <path d="M 313.0952,204.5772 c 0.0000,-1.9724 -1.5990,-3.5714 -3.5714 -3.5714c -1.9724,-0.0000 -3.5714,1.5990 -3.5714 3.5714c -0.0000,1.9724 1.5990,3.5714 3.5714 3.5714c 1.9724,0.0000 3.5714,-1.5990 3.5714 -3.5714Z"/>
  </g>
  <defs>
  </defs>
  <g stroke-linejoin="miter" stroke-opacity="1.0" fill-opacity="1.0" stroke="rgb(0,0,0)" stroke-width="0.0" fill="rgb(255,0,0)" stroke-linecap="butt" stroke-miterlimit="10.0">
    <path d="M 309.6667,204.5772 c 0.0000,-0.0789 -0.0640,-0.1429 -0.1429 -0.1429c -0.0789,-0.0000 -0.1429,0.0640 -0.1429 0.1429c -0.0000,0.0789 0.0640,0.1429 0.1429 0.1429c 0.0789,0.0000 0.1429,-0.0640 0.1429 -0.1429Z"/>
  </g>
  <defs>
  </defs>
  <g stroke-linejoin="miter" stroke-opacity="1.0" fill-opacity="1.0" stroke="rgb(0,0,0)" stroke-width="1.9999999999999996" fill="rgb(0,0,255)" stroke-linecap="butt" stroke-miterlimit="10.0">
    <path d="M 273.4127,163.5263 c 0.0000,-1.9724 -1.5990,-3.5714 -3.5714 -3.5714c -1.9724,-0.0000 -3.5714,1.5990 -3.5714 3.5714c -0.0000,1.9724 1.5990,3.5714 3.5714 3.5714c 1.9724,0.0000 3.5714,-1.5990 3.5714 -3.5714Z"/>
  </g>
  <defs>
  </defs>
  <g stroke-linejoin="miter" stroke-opacity="1.0" fill-opacity="1.0" stroke="rgb(0,0,0)" stroke-width="0.0" fill="rgb(255,0,0)" stroke-linecap="butt" stroke-miterlimit="10.0">
    <path d="M 269.9841,163.5263 c 0.0000,-0.0789 -0.0640,-0.1429 -0.1429 -0.1429c -0.0789,-0.0000 -0.1429,0.0640 -0.1429 0.1429c -0.0000,0.0789 0.0640,0.1429 0.1429 0.1429c 0.0789,0.0000 0.1429,-0.0640 0.1429 -0.1429Z"/>
  </g>
  <defs>
  </defs>
  <g stroke-linejoin="miter" stroke-opacity="1.0" fill-opacity="1.0" stroke="rgb(0,0,0)" stroke-width="1.9999999999999996" fill="rgb(0,0,255)" stroke-linecap="butt" stroke-miterlimit="10.0">
    <path d="M 233.7302,40.3736 c 0.0000,-1.9724 -1.5990,-3.5714 -3.5714 -3.5714c -1.9724,-0.0000 -3.5714,1.5990 -3.5714 3.5714c -0.0000,1.9724 1.5990,3.5714 3.5714 3.5714c 1.9724,0.0000 3.5714,-1.5990 3.5714 -3.5714Z"/>
  </g>
  <defs>
  </defs>
  <g stroke-linejoin="miter" stroke-opacity="1.0" fill-opacity="1.0" stroke="rgb(0,0,0)" stroke-width="0.0" fill="rgb(255,0,0)" stroke-linecap="butt" stroke-miterlimit="10.0">
    <path d="M 230.3016,40.3736 c 0.0000,-0.0789 -0.0640,-0.1429 -0.1429 -0.1429c -0.0789,-0.0000 -0.1429,0.0640 -0.1429 0.1429c -0.0000,0.0789 0.0640,0.1429 0.1429 0.1429c 0.0789,0.0000 0.1429,-0.0640 0.1429 -0.1429Z"/>
  </g>
  <defs>
  </defs>
  <g stroke-linejoin="miter" stroke-opacity="1.0" fill-opacity="1.0" stroke="rgb(0,0,0)" stroke-width="1.9999999999999996" fill="rgb(0,0,255)" stroke-linecap="butt" stroke-miterlimit="10.0">
    <path d="M 194.0476,245.6281 c 0.0000,-1.9724 -1.5990,-3.5714 -3.5714 -3.5714c -1.9724,-0.0000 -3.5714,1.5990 -3.5714 3.5714c -0.0000,1.9724 1.5990,3.5714 3.5714 3.5714c 1.9724,0.0000 3.5714,-1.5990 3.5714 -3.5714Z"/>
  </g>
  <defs>
  </defs>
  <g stroke-linejoin="miter" stroke-opacity="1.0" fill-opacity="1.0" stroke="rgb(0,0,0)" stroke-width="0.0" fill="rgb(255,0,0)" stroke-linecap="butt" stroke-miterlimit="10.0">
    <path d="M 190.6190,245.6281 c 0.0000,-0.0789 -0.0640,-0.1429 -0.1429 -0.1429c -0.0789,-0.0000 -0.1429,0.0640 -0.1429 0.1429c -0.0000,0.0789 0.0640,0.1429 0.1429 0.1429c 0.0789,0.0000 0.1429,-0.0640 0.1429 -0.1429Z"/>
  </g>
  <defs>
  </defs>
  <g stroke-linejoin="miter" stroke-opacity="1.0" fill-opacity="1.0" stroke="rgb(0,0,0)" stroke-width="1.9999999999999996" fill="rgb(0,0,255)" stroke-linecap="butt" stroke-miterlimit="10.0">
    <path d="M 154.3651,286.6790 c 0.0000,-1.9724 -1.5990,-3.5714 -3.5714 -3.5714c -1.9724,-0.0000 -3.5714,1.5990 -3.5714 3.5714c -0.0000,1.9724 1.5990,3.5714 3.5714 3.5714c 1.9724,0.0000 3.5714,-1.5990 3.5714 -3.5714Z"/>
  </g>
  <defs>
  </defs>
  <g stroke-linejoin="miter" stroke-opacity="1.0" fill-opacity="1.0" stroke="rgb(0,0,0)" stroke-width="0.0" fill="rgb(255,0,0)" stroke-linecap="butt" stroke-miterlimit="10.0">
    <path d="M 150.9365,286.6790 c 0.0000,-0.0789 -0.0640,-0.1429 -0.1429 -0.1429c -0.0789,-0.0000 -0.1429,0.0640 -0.1429 0.1429c -0.0000,0.0789 0.0640,0.1429 0.1429 0.1429c 0.0789,0.0000 0.1429,-0.0640 0.1429 -0.1429Z"/>
  </g>
  <defs>
  </defs>
  <g stroke-linejoin="miter" stroke-opacity="1.0" fill-opacity="1.0" stroke="rgb(0,0,0)" stroke-width="1.9999999999999996" fill="rgb(0,0,255)" stroke-linecap="butt" stroke-miterlimit="10.0">
    <path d="M 114.6825,327.7299 c 0.0000,-1.9724 -1.5990,-3.5714 -3.5714 -3.5714c -1.9724,-0.0000 -3.5714,1.5990 -3.5714 3.5714c -0.0000,1.9724 1.5990,3.5714 3.5714 3.5714c 1.9724,0.0000 3.5714,-1.5990 3.5714 -3.5714Z"/>
  </g>
  <defs>
  </defs>
  <g stroke-linejoin="miter" stroke-opacity="1.0" fill-opacity="1.0" stroke="rgb(0,0,0)" stroke-width="0.0" fill="rgb(255,0,0)" stroke-linecap="butt" stroke-miterlimit="10.0">
    <path d="M 111.2540,327.7299 c 0.0000,-0.0789 -0.0640,-0.1429 -0.1429 -0.1429c -0.0789,-0.0000 -0.1429,0.0640 -0.1429 0.1429c -0.0000,0.0789 0.0640,0.1429 0.1429 0.1429c 0.0789,0.0000 0.1429,-0.0640 0.1429 -0.1429Z"/>
  </g>
  <defs>
  </defs>
  <g stroke-linejoin="miter" stroke-opacity="1.0" fill-opacity="1.0" stroke="rgb(0,0,0)" stroke-width="1.9999999999999996" fill="rgb(0,0,255)" stroke-linecap="butt" stroke-miterlimit="10.0">
    <path d="M 75.0000,331.8350 c 0.0000,-1.9724 -1.5990,-3.5714 -3.5714 -3.5714c -1.9724,-0.0000 -3.5714,1.5990 -3.5714 3.5714c -0.0000,1.9724 1.5990,3.5714 3.5714 3.5714c 1.9724,0.0000 3.5714,-1.5990 3.5714 -3.5714Z"/>
  </g>
  <defs>
  </defs>
  <g stroke-linejoin="miter" stroke-opacity="1.0" fill-opacity="1.0" stroke="rgb(0,0,0)" stroke-width="0.0" fill="rgb(255,0,0)" stroke-linecap="butt" stroke-miterlimit="10.0">
    <path d="M 71.5714,331.8350 c 0.0000,-0.0789 -0.0640,-0.1429 -0.1429 -0.1429c -0.0789,-0.0000 -0.1429,0.0640 -0.1429 0.1429c -0.0000,0.0789 0.0640,0.1429 0.1429 0.1429c 0.0789,0.0000 0.1429,-0.0640 0.1429 -0.1429Z"/>
  </g>
  <defs>
  </defs>
  <g stroke-linejoin="miter" stroke-opacity="1.0" fill-opacity="1.0" stroke="rgb(0,0,0)" stroke-width="1.9999999999999996" fill="rgb(0,0,255)" stroke-linecap="butt" stroke-miterlimit="10.0">
    <path d="M 432.1429,397.5164 c 0.0000,-1.9724 -1.5990,-3.5714 -3.5714 -3.5714c -1.9724,-0.0000 -3.5714,1.5990 -3.5714 3.5714c -0.0000,1.9724 1.5990,3.5714 3.5714 3.5714c 1.9724,0.0000 3.5714,-1.5990 3.5714 -3.5714Z"/>
  </g>
  <defs>
  </defs>
  <g stroke-linejoin="miter" stroke-opacity="1.0" fill-opacity="1.0" stroke="rgb(0,0,0)" stroke-width="0.0" fill="rgb(255,0,0)" stroke-linecap="butt" stroke-miterlimit="10.0">
    <path d="M 428.7143,397.5164 c 0.0000,-0.0789 -0.0640,-0.1429 -0.1429 -0.1429c -0.0789,-0.0000 -0.1429,0.0640 -0.1429 0.1429c -0.0000,0.0789 0.0640,0.1429 0.1429 0.1429c 0.0789,0.0000 0.1429,-0.0640 0.1429 -0.1429Z"/>
  </g>
  <defs>
  </defs>
  <g stroke-linejoin="miter" stroke-opacity="1.0" fill-opacity="1.0" stroke="rgb(0,0,0)" stroke-width="1.9999999999999996" fill="rgb(0,0,255)" stroke-linecap="butt" stroke-miterlimit="10.0">
    <path d="M 392.4603,368.7808 c 0.0000,-1.9724 -1.5990,-3.5714 -3.5714 -3.5714c -1.9724,-0.0000 -3.5714,1.5990 -3.5714 3.5714c -0.0000,1.9724 1.5990,3.5714 3.5714 3.5714c 1.9724,0.0000 3.5714,-1.5990 3.5714 -3.5714Z"/>
  </g>
  <defs>
  </defs>
  <g stroke-linejoin="miter" stroke-opacity="1.0" fill-opacity="1.0" stroke="rgb(0,0,0)" stroke-width="0.0" fill="rgb(255,0,0)" stroke-linecap="butt" stroke-miterlimit="10.0">
    <path d="M 389.0317,368.7808 c 0.0000,-0.0789 -0.0640,-0.1429 -0.1429 -0.1429c -0.0789,-0.0000 -0.1429,0.0640 -0.1429 0.1429c -0.0000,0.0789 0.0640,0.1429 0.1429 0.1429c 0.0789,0.0000 0.1429,-0.0640 0.1429 -0.1429Z"/>
  </g>
  <defs>
  </defs>
  <g stroke-linejoin="miter" stroke-opacity="1.0" fill-opacity="1.0" stroke="rgb(0,0,0)" stroke-width="1.9999999999999996" fill="rgb(0,0,255)" stroke-linecap="butt" stroke-miterlimit="10.0">
    <path d="M 352.7778,327.7299 c 0.0000,-1.9724 -1.5990,-3.5714 -3.5714 -3.5714c -1.9724,-0.0000 -3.5714,1.5990 -3.5714 3.5714c -0.0000,1.9724 1.5990,3.5714 3.5714 3.5714c 1.9724,0.0000 3.5714,-1.5990 3.5714 -3.5714Z"/>
  </g>
  <defs>
  </defs>
  <g stroke-linejoin="miter" stroke-opacity="1.0" fill-opacity="1.0" stroke="rgb(0,0,0)" stroke-width="0.0" fill="rgb(255,0,0)" stroke-linecap="butt" stroke-miterlimit="10.0">
    <path d="M 349.3492,327.7299 c 0.0000,-0.0789 -0.0640,-0.1429 -0.1429 -0.1429c -0.0789,-0.0000 -0.1429,0.0640 -0.1429 0.1429c -0.0000,0.0789 0.0640,0.1429 0.1429 0.1429c 0.0789,0.0000 0.1429,-0.0640 0.1429 -0.1429Z"/>
  </g>
  <defs>
  </defs>
  <g stroke-linejoin="miter" stroke-opacity="1.0" fill-opacity="1.0" stroke="rgb(0,0,0)" stroke-width="1.9999999999999996" fill="rgb(0,0,255)" stroke-linecap="butt" stroke-miterlimit="10.0">
    <path d="M 313.0952,245.6281 c 0.0000,-1.9724 -1.5990,-3.5714 -3.5714 -3.5714c -1.9724,-0.0000 -3.5714,1.5990 -3.5714 3.5714c -0.0000,1.9724 1.5990,3.5714 3.5714 3.5714c 1.9724,0.0000 3.5714,-1.5990 3.5714 -3.5714Z"/>
  </g>
  <defs>
  </defs>
  <g stroke-linejoin="miter" stroke-opacity="1.0" fill-opacity="1.0" stroke="rgb(0,0,0)" stroke-width="0.0" fill="rgb(255,0,0)" stroke-linecap="butt" stroke-miterlimit="10.0">
    <path d="M 309.6667,245.6281 c 0.0000,-0.0789 -0.0640,-0.1429 -0.1429 -0.1429c -0.0789,-0.0000 -0.1429,0.0640 -0.1429 0.1429c -0.0000,0.0789 0.0640,0.1429 0.1429 0.1429c 0.0789,0.0000 0.1429,-0.0640 0.1429 -0.1429Z"/>
  </g>
  <defs>
  </defs>
  <g stroke-linejoin="miter" stroke-opacity="1.0" fill-opacity="1.0" stroke="rgb(0,0,0)" stroke-width="1.9999999999999996" fill="rgb(0,0,255)" stroke-linecap="butt" stroke-miterlimit="10.0">
    <path d="M 273.4127,204.5772 c 0.0000,-1.9724 -1.5990,-3.5714 -3.5714 -3.5714c -1.9724,-0.0000 -3.5714,1.5990 -3.5714 3.5714c -0.0000,1.9724 1.5990,3.5714 3.5714 3.5714c 1.9724,0.0000 3.5714,-1.5990 3.5714 -3.5714Z"/>
  </g>
  <defs>
  </defs>
  <g stroke-linejoin="miter" stroke-opacity="1.0" fill-opacity="1.0" stroke="rgb(0,0,0)" stroke-width="0.0" fill="rgb(255,0,0)" stroke-linecap="butt" stroke-miterlimit="10.0">
    <path d="M 269.9841,204.5772 c 0.0000,-0.0789 -0.0640,-0.1429 -0.1429 -0.1429c -0.0789,-0.0000 -0.1429,0.0640 -0.1429 0.1429c -0.0000,0.0789 0.0640,0.1429 0.1429 0.1429c 0.0789,0.0000 0.1429,-0.0640 0.1429 -0.1429Z"/>
  </g>
  <defs>
  </defs>
  <g stroke-linejoin="miter" stroke-opacity="1.0" fill-opacity="1.0" stroke="rgb(0,0,0)" stroke-width="1.9999999999999996" fill="rgb(0,0,255)" stroke-linecap="butt" stroke-miterlimit="10.0">
    <path d="M 233.7302,163.5263 c 0.0000,-1.9724 -1.5990,-3.5714 -3.5714 -3.5714c -1.9724,-0.0000 -3.5714,1.5990 -3.5714 3.5714c -0.0000,1.9724 1.5990,3.5714 3.5714 3.5714c 1.9724,0.0000 3.5714,-1.5990 3.5714 -3.5714Z"/>
  </g>
  <defs>
  </defs>
  <g stroke-linejoin="miter" stroke-opacity="1.0" fill-opacity="1.0" stroke="rgb(0,0,0)" stroke-width="0.0" fill="rgb(255,0,0)" stroke-linecap="butt" stroke-miterlimit="10.0">
    <path d="M 230.3016,163.5263 c 0.0000,-0.0789 -0.0640,-0.1429 -0.1429 -0.1429c -0.0789,-0.0000 -0.1429,0.0640 -0.1429 0.1429c -0.0000,0.0789 0.0640,0.1429 0.1429 0.1429c 0.0789,0.0000 0.1429,-0.0640 0.1429 -0.1429Z"/>
  </g>
  <defs>
  </defs>
  <g stroke-linejoin="miter" stroke-opacity="1.0" fill-opacity="1.0" stroke="rgb(0,0,0)" stroke-width="1.9999999999999996" fill="rgb(0,0,255)" stroke-linecap="butt" stroke-miterlimit="10.0">
    <path d="M 194.0476,286.6790 c 0.0000,-1.9724 -1.5990,-3.5714 -3.5714 -3.5714c -1.9724,-0.0000 -3.5714,1.5990 -3.5714 3.5714c -0.0000,1.9724 1.5990,3.5714 3.5714 3.5714c 1.9724,0.0000 3.5714,-1.5990 3.5714 -3.5714Z"/>
  </g>
  <defs>
  </defs>
  <g stroke-linejoin="miter" stroke-opacity="1.0" fill-opacity="1.0" stroke="rgb(0,0,0)" stroke-width="0.0" fill="rgb(255,0,0)" stroke-linecap="butt" stroke-miterlimit="10.0">
    <path d="M 190.6190,286.6790 c 0.0000,-0.0789 -0.0640,-0.1429 -0.1429 -0.1429c -0.0789,-0.0000 -0.1429,0.0640 -0.1429 0.1429c -0.0000,0.0789 0.0640,0.1429 0.1429 0.1429c 0.0789,0.0000 0.1429,-0.0640 0.1429 -0.1429Z"/>
  </g>
  <defs>
  </defs>
  <g stroke-linejoin="miter" stroke-opacity="1.0" fill-opacity="1.0" stroke="rgb(0,0,0)" stroke-width="1.9999999999999996" fill="rgb(0,0,255)" stroke-linecap="butt" stroke-miterlimit="10.0">
    <path d="M 154.3651,327.7299 c 0.0000,-1.9724 -1.5990,-3.5714 -3.5714 -3.5714c -1.9724,-0.0000 -3.5714,1.5990 -3.5714 3.5714c -0.0000,1.9724 1.5990,3.5714 3.5714 3.5714c 1.9724,0.0000 3.5714,-1.5990 3.5714 -3.5714Z"/>
  </g>
  <defs>
  </defs>
  <g stroke-linejoin="miter" stroke-opacity="1.0" fill-opacity="1.0" stroke="rgb(0,0,0)" stroke-width="0.0" fill="rgb(255,0,0)" stroke-linecap="butt" stroke-miterlimit="10.0">
    <path d="M 150.9365,327.7299 c 0.0000,-0.0789 -0.0640,-0.1429 -0.1429 -0.1429c -0.0789,-0.0000 -0.1429,0.0640 -0.1429 0.1429c -0.0000,0.0789 0.0640,0.1429 0.1429 0.1429c 0.0789,0.0000 0.1429,-0.0640 0.1429 -0.1429Z"/>
  </g>
  <defs>
  </defs>
  <g stroke-linejoin="miter" stroke-opacity="1.0" fill-opacity="1.0" stroke="rgb(0,0,0)" stroke-width="1.9999999999999996" fill="rgb(0,0,255)" stroke-linecap="butt" stroke-miterlimit="10.0">
    <path d="M 114.6825,348.2553 c 0.0000,-1.9724 -1.5990,-3.5714 -3.5714 -3.5714c -1.9724,-0.0000 -3.5714,1.5990 -3.5714 3.5714c -0.0000,1.9724 1.5990,3.5714 3.5714 3.5714c 1.9724,0.0000 3.5714,-1.5990 3.5714 -3.5714Z"/>
  </g>
  <defs>
  </defs>
  <g stroke-linejoin="miter" stroke-opacity="1.0" fill-opacity="1.0" stroke="rgb(0,0,0)" stroke-width="0.0" fill="rgb(255,0,0)" stroke-linecap="butt" stroke-miterlimit="10.0">
    <path d="M 111.2540,348.2553 c 0.0000,-0.0789 -0.0640,-0.1429 -0.1429 -0.1429c -0.0789,-0.0000 -0.1429,0.0640 -0.1429 0.1429c -0.0000,0.0789 0.0640,0.1429 0.1429 0.1429c 0.0789,0.0000 0.1429,-0.0640 0.1429 -0.1429Z"/>
  </g>
  <defs>
  </defs>
  <g stroke-linejoin="miter" stroke-opacity="1.0" fill-opacity="1.0" stroke="rgb(0,0,0)" stroke-width="1.9999999999999996" fill="rgb(0,0,255)" stroke-linecap="butt" stroke-miterlimit="10.0">
    <path d="M 75.0000,360.5706 c 0.0000,-1.9724 -1.5990,-3.5714 -3.5714 -3.5714c -1.9724,-0.0000 -3.5714,1.5990 -3.5714 3.5714c -0.0000,1.9724 1.5990,3.5714 3.5714 3.5714c 1.9724,0.0000 3.5714,-1.5990 3.5714 -3.5714Z"/>
  </g>
  <defs>
  </defs>
  <g stroke-linejoin="miter" stroke-opacity="1.0" fill-opacity="1.0" stroke="rgb(0,0,0)" stroke-width="0.0" fill="rgb(255,0,0)" stroke-linecap="butt" stroke-miterlimit="10.0">
    <path d="M 71.5714,360.5706 c 0.0000,-0.0789 -0.0640,-0.1429 -0.1429 -0.1429c -0.0789,-0.0000 -0.1429,0.0640 -0.1429 0.1429c -0.0000,0.0789 0.0640,0.1429 0.1429 0.1429c 0.0789,0.0000 0.1429,-0.0640 0.1429 -0.1429Z"/>
  </g>
  <defs>
  </defs>
  <g stroke-linejoin="miter" stroke-opacity="1.0" fill-opacity="0.0" stroke="rgb(0,0,0)" stroke-width="0.5" fill="rgb(0,0,0)" stroke-linecap="butt" stroke-miterlimit="10.0">
    <path d="M 71.4286,397.5164 v -357.1429 "/>
  </g>
  <defs>
  </defs>
  <g stroke-linejoin="miter" stroke-opacity="1.0" fill-opacity="0.0" stroke="rgb(0,0,0)" stroke-width="0.5" fill="rgb(0,0,0)" stroke-linecap="butt" stroke-miterlimit="10.0">
    <path d="M 71.4286,397.5164 h 357.1429 "/>
  </g>
</svg>