<?xml version="1.0" encoding="UTF-8"?>
<!DOCTYPE svg PUBLIC "-//W3C//DTD SVG 1.1//EN"
    "http://www.w3.org/Graphics/SVG/1.1/DTD/svg11.dtd">
<svg xmlns="http://www.w3.org/2000/svg" height="500.0000" stroke-opacity="1" viewBox="0 0 500 500" font-size="1" width="500.0000" xmlns:xlink="http://www.w3.org/1999/xlink" stroke="rgb(0,0,0)" version="1.1">
  <defs>
  </defs>
  <defs>
  </defs>
  <g stroke-linejoin="miter" stroke-opacity="1.0" fill-opacity="1.0" stroke="rgb(0,0,0)" stroke-width="0.0" fill="rgb(211,211,211)" stroke-linecap="butt" stroke-miterlimit="10.0">
    <path d="M 460.7547,336.0611 h -0.0000 h -31.2264 h -0.0000 Z"/>
  </g>
  <defs>
  </defs>
  <g stroke-linejoin="miter" stroke-opacity="1.0" fill-opacity="1.0" stroke="rgb(0,0,0)" stroke-width="0.0" fill="rgb(255,0,0)" stroke-linecap="butt" stroke-miterlimit="10.0">
    <path d="M 445.7660,336.0611 c 0.0000,-0.3449 -0.2796,-0.6245 -0.6245 -0.6245c -0.3449,-0.0000 -0.6245,0.2796 -0.6245 0.6245c -0.0000,0.3449 0.2796,0.6245 0.6245 0.6245c 0.3449,0.0000 0.6245,-0.2796 0.6245 -0.6245Z"/>
  </g>
  <defs>
  </defs>
  <g stroke-linejoin="miter" stroke-opacity="1.0" fill-opacity="1.0" stroke="rgb(0,0,0)" stroke-width="0.0" fill="rgb(211,211,211)" stroke-linecap="butt" stroke-miterlimit="10.0">
    <path d="M 426.0587,336.0611 l -0.0000,-124.9057 h -31.2264 l -0.0000,124.9057 Z"/>
  </g>
  <defs>
  </defs>
  <g stroke-linejoin="miter" stroke-opacity="1.0" fill-opacity="1.0" stroke="rgb(0,0,0)" stroke-width="0.0" fill="rgb(255,0,0)" stroke-linecap="butt" stroke-miterlimit="10.0">
    <path d="M 412.9436,273.6082 c 0.0000,-1.3797 -1.1184,-2.4981 -2.4981 -2.4981c -1.3797,-0.0000 -2.4981,1.1184 -2.4981 2.4981c -0.0000,1.3797 1.1184,2.4981 2.4981 2.4981c 1.3797,0.0000 2.4981,-1.1184 2.4981 -2.4981Z"/>
  </g>
  <defs>
  </defs>
  <g stroke-linejoin="miter" stroke-opacity="1.0" fill-opacity="1.0" stroke="rgb(0,0,0)" stroke-width="0.0" fill="rgb(211,211,211)" stroke-linecap="butt" stroke-miterlimit="10.0">
    <path d="M 391.3626,336.0611 l -0.0000,-12.4906 h -31.2264 l -0.0000,12.4906 Z"/>
  </g>
  <defs>
  </defs>
  <g stroke-linejoin="miter" stroke-opacity="1.0" fill-opacity="1.0" stroke="rgb(0,0,0)" stroke-width="0.0" fill="rgb(255,0,0)" stroke-linecap="butt" stroke-miterlimit="10.0">
    <path d="M 376.3739,329.8158 c 0.0000,-0.3449 -0.2796,-0.6245 -0.6245 -0.6245c -0.3449,-0.0000 -0.6245,0.2796 -0.6245 0.6245c -0.0000,0.3449 0.2796,0.6245 0.6245 0.6245c 0.3449,0.0000 0.6245,-0.2796 0.6245 -0.6245Z"/>
  </g>
  <defs>
  </defs>
  <g stroke-linejoin="miter" stroke-opacity="1.0" fill-opacity="1.0" stroke="rgb(0,0,0)" stroke-width="0.0" fill="rgb(211,211,211)" stroke-linecap="butt" stroke-miterlimit="10.0">
    <path d="M 356.6666,336.0611 l -0.0000,-24.9811 h -31.2264 l -0.0000,24.9811 Z"/>
  </g>
  <defs>
  </defs>
  <g stroke-linejoin="miter" stroke-opacity="1.0" fill-opacity="1.0" stroke="rgb(0,0,0)" stroke-width="0.0" fill="rgb(255,0,0)" stroke-linecap="butt" stroke-miterlimit="10.0">
    <path d="M 341.6779,323.5705 c 0.0000,-0.3449 -0.2796,-0.6245 -0.6245 -0.6245c -0.3449,-0.0000 -0.6245,0.2796 -0.6245 0.6245c -0.0000,0.3449 0.2796,0.6245 0.6245 0.6245c 0.3449,0.0000 0.6245,-0.2796 0.6245 -0.6245Z"/>
  </g>
  <defs>
  </defs>
  <g stroke-linejoin="miter" stroke-opacity="1.0" fill-opacity="1.0" stroke="rgb(0,0,0)" stroke-width="0.0" fill="rgb(211,211,211)" stroke-linecap="butt" stroke-miterlimit="10.0">
    <path d="M 321.9706,336.0611 l -0.0000,-24.9811 h -31.2264 l -0.0000,24.9811 Z"/>
  </g>
  <defs>
  </defs>
  <g stroke-linejoin="miter" stroke-opacity="1.0" fill-opacity="1.0" stroke="rgb(0,0,0)" stroke-width="0.0" fill="rgb(255,0,0)" stroke-linecap="butt" stroke-miterlimit="10.0">
    <path d="M 306.9819,323.5705 c 0.0000,-0.3449 -0.2796,-0.6245 -0.6245 -0.6245c -0.3449,-0.0000 -0.6245,0.2796 -0.6245 0.6245c -0.0000,0.3449 0.2796,0.6245 0.6245 0.6245c 0.3449,0.0000 0.6245,-0.2796 0.6245 -0.6245Z"/>
  </g>
  <defs>
  </defs>
  <g stroke-linejoin="miter" stroke-opacity="1.0" fill-opacity="1.0" stroke="rgb(0,0,0)" stroke-width="0.0" fill="rgb(211,211,211)" stroke-linecap="butt" stroke-miterlimit="10.0">
    <path d="M 287.2745,336.0611 l -0.0000,-74.9434 h -31.2264 l -0.0000,74.9434 Z"/>
  </g>
  <defs>
  </defs>
  <g stroke-linejoin="miter" stroke-opacity="1.0" fill-opacity="1.0" stroke="rgb(0,0,0)" stroke-width="0.0" fill="rgb(255,0,0)" stroke-linecap="butt" stroke-miterlimit="10.0">
    <path d="M 273.1602,298.5894 c 0.0000,-0.8278 -0.6711,-1.4989 -1.4989 -1.4989c -0.8278,-0.0000 -1.4989,0.6711 -1.4989 1.4989c -0.0000,0.8278 0.6711,1.4989 1.4989 1.4989c 0.8278,0.0000 1.4989,-0.6711 1.4989 -1.4989Z"/>
  </g>
  <defs>
  </defs>
  <g stroke-linejoin="miter" stroke-opacity="1.0" fill-opacity="1.0" stroke="rgb(0,0,0)" stroke-width="0.0" fill="rgb(211,211,211)" stroke-linecap="butt" stroke-miterlimit="10.0">
    <path d="M 252.5785,336.0611 h -0.0000 h -31.2264 h -0.0000 Z"/>
  </g>
  <defs>
  </defs>
  <g stroke-linejoin="miter" stroke-opacity="1.0" fill-opacity="1.0" stroke="rgb(0,0,0)" stroke-width="0.0" fill="rgb(255,0,0)" stroke-linecap="butt" stroke-miterlimit="10.0">
    <path d="M 237.5898,336.0611 c 0.0000,-0.3449 -0.2796,-0.6245 -0.6245 -0.6245c -0.3449,-0.0000 -0.6245,0.2796 -0.6245 0.6245c -0.0000,0.3449 0.2796,0.6245 0.6245 0.6245c 0.3449,0.0000 0.6245,-0.2796 0.6245 -0.6245Z"/>
  </g>
  <defs>
  </defs>
  <g stroke-linejoin="miter" stroke-opacity="1.0" fill-opacity="1.0" stroke="rgb(0,0,0)" stroke-width="0.0" fill="rgb(211,211,211)" stroke-linecap="butt" stroke-miterlimit="10.0">
    <path d="M 217.8824,336.0611 l -0.0000,-24.9811 h -31.2264 l -0.0000,24.9811 Z"/>
  </g>
  <defs>
  </defs>
  <g stroke-linejoin="miter" stroke-opacity="1.0" fill-opacity="1.0" stroke="rgb(0,0,0)" stroke-width="0.0" fill="rgb(255,0,0)" stroke-linecap="butt" stroke-miterlimit="10.0">
    <path d="M 202.8937,323.5705 c 0.0000,-0.3449 -0.2796,-0.6245 -0.6245 -0.6245c -0.3449,-0.0000 -0.6245,0.2796 -0.6245 0.6245c -0.0000,0.3449 0.2796,0.6245 0.6245 0.6245c 0.3449,0.0000 0.6245,-0.2796 0.6245 -0.6245Z"/>
  </g>
  <defs>
  </defs>
  <g stroke-linejoin="miter" stroke-opacity="1.0" fill-opacity="1.0" stroke="rgb(0,0,0)" stroke-width="0.0" fill="rgb(211,211,211)" stroke-linecap="butt" stroke-miterlimit="10.0">
    <path d="M 183.1864,336.0611 l -0.0000,-49.9623 h -31.2264 l -0.0000,49.9623 Z"/>
  </g>
  <defs>
  </defs>
  <g stroke-linejoin="miter" stroke-opacity="1.0" fill-opacity="1.0" stroke="rgb(0,0,0)" stroke-width="0.0" fill="rgb(255,0,0)" stroke-linecap="butt" stroke-miterlimit="10.0">
    <path d="M 168.5724,311.0799 c 0.0000,-0.5519 -0.4474,-0.9992 -0.9992 -0.9992c -0.5519,-0.0000 -0.9992,0.4474 -0.9992 0.9992c -0.0000,0.5519 0.4474,0.9992 0.9992 0.9992c 0.5519,0.0000 0.9992,-0.4474 0.9992 -0.9992Z"/>
  </g>
  <defs>
  </defs>
  <g stroke-linejoin="miter" stroke-opacity="1.0" fill-opacity="1.0" stroke="rgb(0,0,0)" stroke-width="0.0" fill="rgb(211,211,211)" stroke-linecap="butt" stroke-miterlimit="10.0">
    <path d="M 148.4904,336.0611 l -0.0000,-24.9811 h -31.2264 l -0.0000,24.9811 Z"/>
  </g>
  <defs>
  </defs>
  <g stroke-linejoin="miter" stroke-opacity="1.0" fill-opacity="1.0" stroke="rgb(0,0,0)" stroke-width="0.0" fill="rgb(255,0,0)" stroke-linecap="butt" stroke-miterlimit="10.0">
    <path d="M 133.5017,323.5705 c 0.0000,-0.3449 -0.2796,-0.6245 -0.6245 -0.6245c -0.3449,-0.0000 -0.6245,0.2796 -0.6245 0.6245c -0.0000,0.3449 0.2796,0.6245 0.6245 0.6245c 0.3449,0.0000 0.6245,-0.2796 0.6245 -0.6245Z"/>
  </g>
  <defs>
  </defs>
  <g stroke-linejoin="miter" stroke-opacity="1.0" fill-opacity="1.0" stroke="rgb(0,0,0)" stroke-width="1.8365279976314905" fill="rgb(0,0,255)" stroke-linecap="butt" stroke-miterlimit="10.0">
    <path d="M 445.1852,336.0611 c 0.0000,-0.0241 -0.0196,-0.0437 -0.0437 -0.0437c -0.0241,-0.0000 -0.0437,0.0196 -0.0437 0.0437c -0.0000,0.0241 0.0196,0.0437 0.0437 0.0437c 0.0241,0.0000 0.0437,-0.0196 0.0437 -0.0437Z"/>
  </g>
  <defs>
  </defs>
  <g stroke-linejoin="miter" stroke-opacity="1.0" fill-opacity="1.0" stroke="rgb(0,0,0)" stroke-width="0.0" fill="rgb(255,0,0)" stroke-linecap="butt" stroke-miterlimit="10.0">
    <path d="M 445.1432,336.0611 c 0.0000,-0.0010 -0.0008,-0.0017 -0.0017 -0.0017c -0.0010,-0.0000 -0.0017,0.0008 -0.0017 0.0017c -0.0000,0.0010 0.0008,0.0017 0.0017 0.0017c 0.0010,0.0000 0.0017,-0.0008 0.0017 -0.0017Z"/>
  </g>
  <defs>
  </defs>
  <g stroke-linejoin="miter" stroke-opacity="1.0" fill-opacity="1.0" stroke="rgb(0,0,0)" stroke-width="1.8365279976314905" fill="rgb(0,0,255)" stroke-linecap="butt" stroke-miterlimit="10.0">
    <path d="M 410.4892,211.1553 c 0.0000,-0.0241 -0.0196,-0.0437 -0.0437 -0.0437c -0.0241,-0.0000 -0.0437,0.0196 -0.0437 0.0437c -0.0000,0.0241 0.0196,0.0437 0.0437 0.0437c 0.0241,0.0000 0.0437,-0.0196 0.0437 -0.0437Z"/>
  </g>
  <defs>
  </defs>
  <g stroke-linejoin="miter" stroke-opacity="1.0" fill-opacity="1.0" stroke="rgb(0,0,0)" stroke-width="0.0" fill="rgb(255,0,0)" stroke-linecap="butt" stroke-miterlimit="10.0">
    <path d="M 410.4472,211.1553 c 0.0000,-0.0010 -0.0008,-0.0017 -0.0017 -0.0017c -0.0010,-0.0000 -0.0017,0.0008 -0.0017 0.0017c -0.0000,0.0010 0.0008,0.0017 0.0017 0.0017c 0.0010,0.0000 0.0017,-0.0008 0.0017 -0.0017Z"/>
  </g>
  <defs>
  </defs>
  <g stroke-linejoin="miter" stroke-opacity="1.0" fill-opacity="1.0" stroke="rgb(0,0,0)" stroke-width="1.8365279976314905" fill="rgb(0,0,255)" stroke-linecap="butt" stroke-miterlimit="10.0">
    <path d="M 375.7931,323.5705 c 0.0000,-0.0241 -0.0196,-0.0437 -0.0437 -0.0437c -0.0241,-0.0000 -0.0437,0.0196 -0.0437 0.0437c -0.0000,0.0241 0.0196,0.0437 0.0437 0.0437c 0.0241,0.0000 0.0437,-0.0196 0.0437 -0.0437Z"/>
  </g>
  <defs>
  </defs>
  <g stroke-linejoin="miter" stroke-opacity="1.0" fill-opacity="1.0" stroke="rgb(0,0,0)" stroke-width="0.0" fill="rgb(255,0,0)" stroke-linecap="butt" stroke-miterlimit="10.0">
    <path d="M 375.7512,323.5705 c 0.0000,-0.0010 -0.0008,-0.0017 -0.0017 -0.0017c -0.0010,-0.0000 -0.0017,0.0008 -0.0017 0.0017c -0.0000,0.0010 0.0008,0.0017 0.0017 0.0017c 0.0010,0.0000 0.0017,-0.0008 0.0017 -0.0017Z"/>
  </g>
  <defs>
  </defs>
  <g stroke-linejoin="miter" stroke-opacity="1.0" fill-opacity="1.0" stroke="rgb(0,0,0)" stroke-width="1.8365279976314905" fill="rgb(0,0,255)" stroke-linecap="butt" stroke-miterlimit="10.0">
    <path d="M 341.0971,311.0799 c 0.0000,-0.0241 -0.0196,-0.0437 -0.0437 -0.0437c -0.0241,-0.0000 -0.0437,0.0196 -0.0437 0.0437c -0.0000,0.0241 0.0196,0.0437 0.0437 0.0437c 0.0241,0.0000 0.0437,-0.0196 0.0437 -0.0437Z"/>
  </g>
  <defs>
  </defs>
  <g stroke-linejoin="miter" stroke-opacity="1.0" fill-opacity="1.0" stroke="rgb(0,0,0)" stroke-width="0.0" fill="rgb(255,0,0)" stroke-linecap="butt" stroke-miterlimit="10.0">
    <path d="M 341.0551,311.0799 c 0.0000,-0.0010 -0.0008,-0.0017 -0.0017 -0.0017c -0.0010,-0.0000 -0.0017,0.0008 -0.0017 0.0017c -0.0000,0.0010 0.0008,0.0017 0.0017 0.0017c 0.0010,0.0000 0.0017,-0.0008 0.0017 -0.0017Z"/>
  </g>
  <defs>
  </defs>
  <g stroke-linejoin="miter" stroke-opacity="1.0" fill-opacity="1.0" stroke="rgb(0,0,0)" stroke-width="1.8365279976314905" fill="rgb(0,0,255)" stroke-linecap="butt" stroke-miterlimit="10.0">
    <path d="M 306.4011,311.0799 c 0.0000,-0.0241 -0.0196,-0.0437 -0.0437 -0.0437c -0.0241,-0.0000 -0.0437,0.0196 -0.0437 0.0437c -0.0000,0.0241 0.0196,0.0437 0.0437 0.0437c 0.0241,0.0000 0.0437,-0.0196 0.0437 -0.0437Z"/>
  </g>
  <defs>
  </defs>
  <g stroke-linejoin="miter" stroke-opacity="1.0" fill-opacity="1.0" stroke="rgb(0,0,0)" stroke-width="0.0" fill="rgb(255,0,0)" stroke-linecap="butt" stroke-miterlimit="10.0">
    <path d="M 306.3591,311.0799 c 0.0000,-0.0010 -0.0008,-0.0017 -0.0017 -0.0017c -0.0010,-0.0000 -0.0017,0.0008 -0.0017 0.0017c -0.0000,0.0010 0.0008,0.0017 0.0017 0.0017c 0.0010,0.0000 0.0017,-0.0008 0.0017 -0.0017Z"/>
  </g>
  <defs>
  </defs>
  <g stroke-linejoin="miter" stroke-opacity="1.0" fill-opacity="1.0" stroke="rgb(0,0,0)" stroke-width="1.8365279976314905" fill="rgb(0,0,255)" stroke-linecap="butt" stroke-miterlimit="10.0">
    <path d="M 271.7050,261.1176 c 0.0000,-0.0241 -0.0196,-0.0437 -0.0437 -0.0437c -0.0241,-0.0000 -0.0437,0.0196 -0.0437 0.0437c -0.0000,0.0241 0.0196,0.0437 0.0437 0.0437c 0.0241,0.0000 0.0437,-0.0196 0.0437 -0.0437Z"/>
  </g>
  <defs>
  </defs>
  <g stroke-linejoin="miter" stroke-opacity="1.0" fill-opacity="1.0" stroke="rgb(0,0,0)" stroke-width="0.0" fill="rgb(255,0,0)" stroke-linecap="butt" stroke-miterlimit="10.0">
    <path d="M 271.6630,261.1176 c 0.0000,-0.0010 -0.0008,-0.0017 -0.0017 -0.0017c -0.0010,-0.0000 -0.0017,0.0008 -0.0017 0.0017c -0.0000,0.0010 0.0008,0.0017 0.0017 0.0017c 0.0010,0.0000 0.0017,-0.0008 0.0017 -0.0017Z"/>
  </g>
  <defs>
  </defs>
  <g stroke-linejoin="miter" stroke-opacity="1.0" fill-opacity="1.0" stroke="rgb(0,0,0)" stroke-width="1.8365279976314905" fill="rgb(0,0,255)" stroke-linecap="butt" stroke-miterlimit="10.0">
    <path d="M 237.0090,336.0611 c 0.0000,-0.0241 -0.0196,-0.0437 -0.0437 -0.0437c -0.0241,-0.0000 -0.0437,0.0196 -0.0437 0.0437c -0.0000,0.0241 0.0196,0.0437 0.0437 0.0437c 0.0241,0.0000 0.0437,-0.0196 0.0437 -0.0437Z"/>
  </g>
  <defs>
  </defs>
  <g stroke-linejoin="miter" stroke-opacity="1.0" fill-opacity="1.0" stroke="rgb(0,0,0)" stroke-width="0.0" fill="rgb(255,0,0)" stroke-linecap="butt" stroke-miterlimit="10.0">
    <path d="M 236.9670,336.0611 c 0.0000,-0.0010 -0.0008,-0.0017 -0.0017 -0.0017c -0.0010,-0.0000 -0.0017,0.0008 -0.0017 0.0017c -0.0000,0.0010 0.0008,0.0017 0.0017 0.0017c 0.0010,0.0000 0.0017,-0.0008 0.0017 -0.0017Z"/>
  </g>
  <defs>
  </defs>
  <g stroke-linejoin="miter" stroke-opacity="1.0" fill-opacity="1.0" stroke="rgb(0,0,0)" stroke-width="1.8365279976314905" fill="rgb(0,0,255)" stroke-linecap="butt" stroke-miterlimit="10.0">
    <path d="M 202.3129,311.0799 c 0.0000,-0.0241 -0.0196,-0.0437 -0.0437 -0.0437c -0.0241,-0.0000 -0.0437,0.0196 -0.0437 0.0437c -0.0000,0.0241 0.0196,0.0437 0.0437 0.0437c 0.0241,0.0000 0.0437,-0.0196 0.0437 -0.0437Z"/>
  </g>
  <defs>
  </defs>
  <g stroke-linejoin="miter" stroke-opacity="1.0" fill-opacity="1.0" stroke="rgb(0,0,0)" stroke-width="0.0" fill="rgb(255,0,0)" stroke-linecap="butt" stroke-miterlimit="10.0">
    <path d="M 202.2710,311.0799 c 0.0000,-0.0010 -0.0008,-0.0017 -0.0017 -0.0017c -0.0010,-0.0000 -0.0017,0.0008 -0.0017 0.0017c -0.0000,0.0010 0.0008,0.0017 0.0017 0.0017c 0.0010,0.0000 0.0017,-0.0008 0.0017 -0.0017Z"/>
  </g>
  <defs>
  </defs>
  <g stroke-linejoin="miter" stroke-opacity="1.0" fill-opacity="1.0" stroke="rgb(0,0,0)" stroke-width="1.8365279976314905" fill="rgb(0,0,255)" stroke-linecap="butt" stroke-miterlimit="10.0">
    <path d="M 167.6169,286.0988 c 0.0000,-0.0241 -0.0196,-0.0437 -0.0437 -0.0437c -0.0241,-0.0000 -0.0437,0.0196 -0.0437 0.0437c -0.0000,0.0241 0.0196,0.0437 0.0437 0.0437c 0.0241,0.0000 0.0437,-0.0196 0.0437 -0.0437Z"/>
  </g>
  <defs>
  </defs>
  <g stroke-linejoin="miter" stroke-opacity="1.0" fill-opacity="1.0" stroke="rgb(0,0,0)" stroke-width="0.0" fill="rgb(255,0,0)" stroke-linecap="butt" stroke-miterlimit="10.0">
    <path d="M 167.5749,286.0988 c 0.0000,-0.0010 -0.0008,-0.0017 -0.0017 -0.0017c -0.0010,-0.0000 -0.0017,0.0008 -0.0017 0.0017c -0.0000,0.0010 0.0008,0.0017 0.0017 0.0017c 0.0010,0.0000 0.0017,-0.0008 0.0017 -0.0017Z"/>
  </g>
  <defs>
  </defs>
  <g stroke-linejoin="miter" stroke-opacity="1.0" fill-opacity="1.0" stroke="rgb(0,0,0)" stroke-width="1.8365279976314905" fill="rgb(0,0,255)" stroke-linecap="butt" stroke-miterlimit="10.0">
    <path d="M 132.9209,311.0799 c 0.0000,-0.0241 -0.0196,-0.0437 -0.0437 -0.0437c -0.0241,-0.0000 -0.0437,0.0196 -0.0437 0.0437c -0.0000,0.0241 0.0196,0.0437 0.0437 0.0437c 0.0241,0.0000 0.0437,-0.0196 0.0437 -0.0437Z"/>
  </g>
  <defs>
  </defs>
  <g stroke-linejoin="miter" stroke-opacity="1.0" fill-opacity="1.0" stroke="rgb(0,0,0)" stroke-width="0.0" fill="rgb(255,0,0)" stroke-linecap="butt" stroke-miterlimit="10.0">
    <path d="M 132.8789,311.0799 c 0.0000,-0.0010 -0.0008,-0.0017 -0.0017 -0.0017c -0.0010,-0.0000 -0.0017,0.0008 -0.0017 0.0017c -0.0000,0.0010 0.0008,0.0017 0.0017 0.0017c 0.0010,0.0000 0.0017,-0.0008 0.0017 -0.0017Z"/>
  </g>
  <defs>
  </defs>
  <g stroke-linejoin="miter" stroke-opacity="1.0" fill-opacity="0.0" stroke="rgb(0,0,0)" stroke-width="0.5" fill="rgb(0,0,0)" stroke-linecap="butt" stroke-miterlimit="10.0">
    <path d="M 132.8771,211.1553 v 124.9057 "/>
  </g>
  <defs>
  </defs>
  <g stroke-linejoin="miter" stroke-opacity="1.0" fill-opacity="1.0" stroke="rgb(0,0,0)" stroke-width="0.0" fill="rgb(255,0,0)" stroke-linecap="butt" stroke-miterlimit="10.0">
    <path d="M 135.3753,273.6082 c 0.0000,-1.3797 -1.1184,-2.4981 -2.4981 -2.4981c -1.3797,-0.0000 -2.4981,1.1184 -2.4981 2.4981c -0.0000,1.3797 1.1184,2.4981 2.4981 2.4981c 1.3797,0.0000 2.4981,-1.1184 2.4981 -2.4981Z"/>
  </g>
  <defs>
  </defs>
  <g stroke-linejoin="miter" stroke-opacity="1.0" fill-opacity="0.0" stroke="rgb(0,0,0)" stroke-width="0.5" fill="rgb(0,0,0)" stroke-linecap="butt" stroke-miterlimit="10.0">
    <path d="M 132.8771,336.0611 h 312.2644 "/>
  </g>
  <defs>
  </defs>
  <g stroke-linejoin="miter" stroke-opacity="1.0" fill-opacity="1.0" stroke="rgb(0,0,0)" stroke-width="0.0" fill="rgb(255,0,0)" stroke-linecap="butt" stroke-miterlimit="10.0">
    <path d="M 295.2546,336.0611 c 0.0000,-3.4492 -2.7961,-6.2453 -6.2453 -6.2453c -3.4492,-0.0000 -6.2453,2.7961 -6.2453 6.2453c -0.0000,3.4492 2.7961,6.2453 6.2453 6.2453c 3.4492,0.0000 6.2453,-2.7961 6.2453 -6.2453Z"/>
  </g>
  <defs>
  </defs>
  <g stroke-linejoin="miter" stroke-opacity="1.0" fill-opacity="1.0" stroke="rgb(0,0,0)" stroke-width="0.0" fill="rgb(255,0,0)" stroke-linecap="butt" stroke-miterlimit="10.0">
    <path d="M 139.7470,336.0611 c 0.0000,-3.7941 -3.0757,-6.8698 -6.8698 -6.8698c -3.7941,-0.0000 -6.8698,3.0757 -6.8698 6.8698c -0.0000,3.7941 3.0757,6.8698 6.8698 6.8698c 3.7941,0.0000 6.8698,-3.0757 6.8698 -6.8698Z"/>
  </g>
  <defs>
  </defs>
  <g stroke-linejoin="miter" stroke-opacity="1.0" fill-opacity="0.0" stroke="rgb(255,0,0)" stroke-width="1.8365279976314905" fill="rgb(0,0,0)" stroke-linecap="butt" stroke-miterlimit="10.0">
    <path d="M 460.7547,336.0611 c -0.5757,-21.2962 -6.4168,-42.3139 -12.4791 -62.7367c -6.0623,-20.4227 -12.3459,-40.2505 -20.9915 -59.2107c -8.6456,-18.9602 -19.6533,-37.0528 -34.0194 -52.0381c -14.3661,-14.9852 -32.0905,-26.8630 -51.3439 -35.0582c -19.2534,-8.1952 -40.0358,-12.7078 -60.8518 -12.7411c -20.8160,-0.0333 -41.6656,4.4126 -61.0955 11.5157c -19.4300,7.1032 -37.4404,16.8636 -52.0381 34.0194c -14.5976,17.1558 -25.7825,41.7070 -35.0582 51.3002c -9.2757,9.5932 -16.6424,4.2285 -23.8997 4.7977c -7.2573,0.5692 -14.4053,7.0722 -20.2612 13.5381c -5.8559,6.4658 -10.4198,12.8945 -13.5381 20.2612c -3.1183,7.3667 -4.7910,15.6714 -4.7539 23.8997c 0.0370,8.2282 1.7838,16.3800 4.7539 23.8997c 2.9702,7.5197 7.1638,14.4074 13.5381 20.2612c 6.3743,5.8538 14.9294,10.6737 20.2612 13.5381c 5.3318,2.8644 7.4402,3.7733 8.2865 4.7539c 0.8462,0.9807 0.4303,2.0331 0.5942 2.9875c 0.1640,0.9543 0.9078,1.8106 1.6923 2.5326c 0.7845,0.7220 1.6095,1.3099 2.5326 1.6923c 0.9232,0.3824 1.9444,0.5592 2.9875 0.5942c 1.0430,0.0350 2.1079,-0.0719 2.9875 -0.5942c 0.8796,-0.5224 1.5740,-1.4603 2.1895 -0.8638c 0.6155,0.5965 1.1521,2.7273 1.2892 0.3906c 0.1370,-2.3367 -0.1256,-9.1410 1.3405 0.1307c 1.4661,9.2717 4.6608,34.6193 12.4791 55.8668c 7.8183,21.2475 20.2603,38.3950 35.5375 53.1856c 15.2772,14.7906 33.3896,27.2243 53.1856 35.5375c 19.7960,8.3131 41.2754,12.5057 62.7367 12.4791c 21.4612,-0.0266 42.9042,-4.2722 62.7367 -12.4791c 19.8324,-8.2069 38.0542,-20.3749 53.1856 -35.5375c 15.1313,-15.1626 27.1722,-33.3197 35.5375 -53.1856c 8.3652,-19.8659 13.0548,-41.4405 12.4791 -62.7367Z"/>
  </g>
  <defs>
  </defs>
  <g stroke-linejoin="miter" stroke-opacity="1.0" fill-opacity="1.0" stroke="rgb(0,0,0)" stroke-width="1.8365279976314905" fill="rgb(0,0,255)" stroke-linecap="butt" stroke-miterlimit="10.0">
    <path d="M 445.7660,200.3876 c 0.0000,-0.3449 -0.2796,-0.6245 -0.6245 -0.6245c -0.3449,-0.0000 -0.6245,0.2796 -0.6245 0.6245c -0.0000,0.3449 0.2796,0.6245 0.6245 0.6245c 0.3449,0.0000 0.6245,-0.2796 0.6245 -0.6245Z"/>
  </g>
  <defs>
  </defs>
  <g stroke-linejoin="miter" stroke-opacity="1.0" fill-opacity="1.0" stroke="rgb(0,0,0)" stroke-width="0.0" fill="rgb(255,0,0)" stroke-linecap="butt" stroke-miterlimit="10.0">
    <path d="M 445.1665,200.3876 c 0.0000,-0.0138 -0.0112,-0.0250 -0.0250 -0.0250c -0.0138,-0.0000 -0.0250,0.0112 -0.0250 0.0250c -0.0000,0.0138 0.0112,0.0250 0.0250 0.0250c 0.0138,0.0000 0.0250,-0.0112 0.0250 -0.0250Z"/>
  </g>
  <defs>
  </defs>
  <g stroke-linejoin="miter" stroke-opacity="1.0" fill-opacity="1.0" stroke="rgb(0,0,0)" stroke-width="1.8365279976314905" fill="rgb(0,0,255)" stroke-linecap="butt" stroke-miterlimit="10.0">
    <path d="M 411.0700,178.8521 c 0.0000,-0.3449 -0.2796,-0.6245 -0.6245 -0.6245c -0.3449,-0.0000 -0.6245,0.2796 -0.6245 0.6245c -0.0000,0.3449 0.2796,0.6245 0.6245 0.6245c 0.3449,0.0000 0.6245,-0.2796 0.6245 -0.6245Z"/>
  </g>
  <defs>
  </defs>
  <g stroke-linejoin="miter" stroke-opacity="1.0" fill-opacity="1.0" stroke="rgb(0,0,0)" stroke-width="0.0" fill="rgb(255,0,0)" stroke-linecap="butt" stroke-miterlimit="10.0">
    <path d="M 410.4704,178.8521 c 0.0000,-0.0138 -0.0112,-0.0250 -0.0250 -0.0250c -0.0138,-0.0000 -0.0250,0.0112 -0.0250 0.0250c -0.0000,0.0138 0.0112,0.0250 0.0250 0.0250c 0.0138,0.0000 0.0250,-0.0112 0.0250 -0.0250Z"/>
  </g>
  <defs>
  </defs>
  <g stroke-linejoin="miter" stroke-opacity="1.0" fill-opacity="1.0" stroke="rgb(0,0,0)" stroke-width="1.8365279976314905" fill="rgb(0,0,255)" stroke-linecap="butt" stroke-miterlimit="10.0">
    <path d="M 376.3739,153.0096 c 0.0000,-0.3449 -0.2796,-0.6245 -0.6245 -0.6245c -0.3449,-0.0000 -0.6245,0.2796 -0.6245 0.6245c -0.0000,0.3449 0.2796,0.6245 0.6245 0.6245c 0.3449,0.0000 0.6245,-0.2796 0.6245 -0.6245Z"/>
  </g>
  <defs>
  </defs>
  <g stroke-linejoin="miter" stroke-opacity="1.0" fill-opacity="1.0" stroke="rgb(0,0,0)" stroke-width="0.0" fill="rgb(255,0,0)" stroke-linecap="butt" stroke-miterlimit="10.0">
    <path d="M 375.7744,153.0096 c 0.0000,-0.0138 -0.0112,-0.0250 -0.0250 -0.0250c -0.0138,-0.0000 -0.0250,0.0112 -0.0250 0.0250c -0.0000,0.0138 0.0112,0.0250 0.0250 0.0250c 0.0138,0.0000 0.0250,-0.0112 0.0250 -0.0250Z"/>
  </g>
  <defs>
  </defs>
  <g stroke-linejoin="miter" stroke-opacity="1.0" fill-opacity="1.0" stroke="rgb(0,0,0)" stroke-width="1.8365279976314905" fill="rgb(0,0,255)" stroke-linecap="butt" stroke-miterlimit="10.0">
    <path d="M 341.6779,109.9386 c 0.0000,-0.3449 -0.2796,-0.6245 -0.6245 -0.6245c -0.3449,-0.0000 -0.6245,0.2796 -0.6245 0.6245c -0.0000,0.3449 0.2796,0.6245 0.6245 0.6245c 0.3449,0.0000 0.6245,-0.2796 0.6245 -0.6245Z"/>
  </g>
  <defs>
  </defs>
  <g stroke-linejoin="miter" stroke-opacity="1.0" fill-opacity="1.0" stroke="rgb(0,0,0)" stroke-width="0.0" fill="rgb(255,0,0)" stroke-linecap="butt" stroke-miterlimit="10.0">
    <path d="M 341.0784,109.9386 c 0.0000,-0.0138 -0.0112,-0.0250 -0.0250 -0.0250c -0.0138,-0.0000 -0.0250,0.0112 -0.0250 0.0250c -0.0000,0.0138 0.0112,0.0250 0.0250 0.0250c 0.0138,0.0000 0.0250,-0.0112 0.0250 -0.0250Z"/>
  </g>
  <defs>
  </defs>
  <g stroke-linejoin="miter" stroke-opacity="1.0" fill-opacity="1.0" stroke="rgb(0,0,0)" stroke-width="1.8365279976314905" fill="rgb(0,0,255)" stroke-linecap="butt" stroke-miterlimit="10.0">
    <path d="M 306.9819,88.4031 c 0.0000,-0.3449 -0.2796,-0.6245 -0.6245 -0.6245c -0.3449,-0.0000 -0.6245,0.2796 -0.6245 0.6245c -0.0000,0.3449 0.2796,0.6245 0.6245 0.6245c 0.3449,0.0000 0.6245,-0.2796 0.6245 -0.6245Z"/>
  </g>
  <defs>
  </defs>
  <g stroke-linejoin="miter" stroke-opacity="1.0" fill-opacity="1.0" stroke="rgb(0,0,0)" stroke-width="0.0" fill="rgb(255,0,0)" stroke-linecap="butt" stroke-miterlimit="10.0">
    <path d="M 306.3823,88.4031 c 0.0000,-0.0138 -0.0112,-0.0250 -0.0250 -0.0250c -0.0138,-0.0000 -0.0250,0.0112 -0.0250 0.0250c -0.0000,0.0138 0.0112,0.0250 0.0250 0.0250c 0.0138,0.0000 0.0250,-0.0112 0.0250 -0.0250Z"/>
  </g>
  <defs>
  </defs>
  <g stroke-linejoin="miter" stroke-opacity="1.0" fill-opacity="1.0" stroke="rgb(0,0,0)" stroke-width="1.8365279976314905" fill="rgb(0,0,255)" stroke-linecap="butt" stroke-miterlimit="10.0">
    <path d="M 272.2858,23.7967 c 0.0000,-0.3449 -0.2796,-0.6245 -0.6245 -0.6245c -0.3449,-0.0000 -0.6245,0.2796 -0.6245 0.6245c -0.0000,0.3449 0.2796,0.6245 0.6245 0.6245c 0.3449,0.0000 0.6245,-0.2796 0.6245 -0.6245Z"/>
  </g>
  <defs>
  </defs>
  <g stroke-linejoin="miter" stroke-opacity="1.0" fill-opacity="1.0" stroke="rgb(0,0,0)" stroke-width="0.0" fill="rgb(255,0,0)" stroke-linecap="butt" stroke-miterlimit="10.0">
    <path d="M 271.6863,23.7967 c 0.0000,-0.0138 -0.0112,-0.0250 -0.0250 -0.0250c -0.0138,-0.0000 -0.0250,0.0112 -0.0250 0.0250c -0.0000,0.0138 0.0112,0.0250 0.0250 0.0250c 0.0138,0.0000 0.0250,-0.0112 0.0250 -0.0250Z"/>
  </g>
  <defs>
  </defs>
  <g stroke-linejoin="miter" stroke-opacity="1.0" fill-opacity="1.0" stroke="rgb(0,0,0)" stroke-width="1.8365279976314905" fill="rgb(0,0,255)" stroke-linecap="butt" stroke-miterlimit="10.0">
    <path d="M 237.5898,131.4741 c 0.0000,-0.3449 -0.2796,-0.6245 -0.6245 -0.6245c -0.3449,-0.0000 -0.6245,0.2796 -0.6245 0.6245c -0.0000,0.3449 0.2796,0.6245 0.6245 0.6245c 0.3449,0.0000 0.6245,-0.2796 0.6245 -0.6245Z"/>
  </g>
  <defs>
  </defs>
  <g stroke-linejoin="miter" stroke-opacity="1.0" fill-opacity="1.0" stroke="rgb(0,0,0)" stroke-width="0.0" fill="rgb(255,0,0)" stroke-linecap="butt" stroke-miterlimit="10.0">
    <path d="M 236.9902,131.4741 c 0.0000,-0.0138 -0.0112,-0.0250 -0.0250 -0.0250c -0.0138,-0.0000 -0.0250,0.0112 -0.0250 0.0250c -0.0000,0.0138 0.0112,0.0250 0.0250 0.0250c 0.0138,0.0000 0.0250,-0.0112 0.0250 -0.0250Z"/>
  </g>
  <defs>
  </defs>
  <g stroke-linejoin="miter" stroke-opacity="1.0" fill-opacity="1.0" stroke="rgb(0,0,0)" stroke-width="1.8365279976314905" fill="rgb(0,0,255)" stroke-linecap="butt" stroke-miterlimit="10.0">
    <path d="M 202.8937,153.0096 c 0.0000,-0.3449 -0.2796,-0.6245 -0.6245 -0.6245c -0.3449,-0.0000 -0.6245,0.2796 -0.6245 0.6245c -0.0000,0.3449 0.2796,0.6245 0.6245 0.6245c 0.3449,0.0000 0.6245,-0.2796 0.6245 -0.6245Z"/>
  </g>
  <defs>
  </defs>
  <g stroke-linejoin="miter" stroke-opacity="1.0" fill-opacity="1.0" stroke="rgb(0,0,0)" stroke-width="0.0" fill="rgb(255,0,0)" stroke-linecap="butt" stroke-miterlimit="10.0">
    <path d="M 202.2942,153.0096 c 0.0000,-0.0138 -0.0112,-0.0250 -0.0250 -0.0250c -0.0138,-0.0000 -0.0250,0.0112 -0.0250 0.0250c -0.0000,0.0138 0.0112,0.0250 0.0250 0.0250c 0.0138,0.0000 0.0250,-0.0112 0.0250 -0.0250Z"/>
  </g>
  <defs>
  </defs>
  <g stroke-linejoin="miter" stroke-opacity="1.0" fill-opacity="1.0" stroke="rgb(0,0,0)" stroke-width="1.8365279976314905" fill="rgb(0,0,255)" stroke-linecap="butt" stroke-miterlimit="10.0">
    <path d="M 168.1977,174.5450 c 0.0000,-0.3449 -0.2796,-0.6245 -0.6245 -0.6245c -0.3449,-0.0000 -0.6245,0.2796 -0.6245 0.6245c -0.0000,0.3449 0.2796,0.6245 0.6245 0.6245c 0.3449,0.0000 0.6245,-0.2796 0.6245 -0.6245Z"/>
  </g>
  <defs>
  </defs>
  <g stroke-linejoin="miter" stroke-opacity="1.0" fill-opacity="1.0" stroke="rgb(0,0,0)" stroke-width="0.0" fill="rgb(255,0,0)" stroke-linecap="butt" stroke-miterlimit="10.0">
    <path d="M 167.5982,174.5450 c 0.0000,-0.0138 -0.0112,-0.0250 -0.0250 -0.0250c -0.0138,-0.0000 -0.0250,0.0112 -0.0250 0.0250c -0.0000,0.0138 0.0112,0.0250 0.0250 0.0250c 0.0138,0.0000 0.0250,-0.0112 0.0250 -0.0250Z"/>
  </g>
  <defs>
  </defs>
  <g stroke-linejoin="miter" stroke-opacity="1.0" fill-opacity="1.0" stroke="rgb(0,0,0)" stroke-width="1.8365279976314905" fill="rgb(0,0,255)" stroke-linecap="butt" stroke-miterlimit="10.0">
    <path d="M 133.5017,176.6986 c 0.0000,-0.3449 -0.2796,-0.6245 -0.6245 -0.6245c -0.3449,-0.0000 -0.6245,0.2796 -0.6245 0.6245c -0.0000,0.3449 0.2796,0.6245 0.6245 0.6245c 0.3449,0.0000 0.6245,-0.2796 0.6245 -0.6245Z"/>
  </g>
  <defs>
  </defs>
  <g stroke-linejoin="miter" stroke-opacity="1.0" fill-opacity="1.0" stroke="rgb(0,0,0)" stroke-width="0.0" fill="rgb(255,0,0)" stroke-linecap="butt" stroke-miterlimit="10.0">
    <path d="M 132.9021,176.6986 c 0.0000,-0.0138 -0.0112,-0.0250 -0.0250 -0.0250c -0.0138,-0.0000 -0.0250,0.0112 -0.0250 0.0250c -0.0000,0.0138 0.0112,0.0250 0.0250 0.0250c 0.0138,0.0000 0.0250,-0.0112 0.0250 -0.0250Z"/>
  </g>
  <defs>
  </defs>
  <g stroke-linejoin="miter" stroke-opacity="1.0" fill-opacity="1.0" stroke="rgb(0,0,0)" stroke-width="1.8365279976314905" fill="rgb(0,0,255)" stroke-linecap="butt" stroke-miterlimit="10.0">
    <path d="M 445.7660,211.1553 c 0.0000,-0.3449 -0.2796,-0.6245 -0.6245 -0.6245c -0.3449,-0.0000 -0.6245,0.2796 -0.6245 0.6245c -0.0000,0.3449 0.2796,0.6245 0.6245 0.6245c 0.3449,0.0000 0.6245,-0.2796 0.6245 -0.6245Z"/>
  </g>
  <defs>
  </defs>
  <g stroke-linejoin="miter" stroke-opacity="1.0" fill-opacity="1.0" stroke="rgb(0,0,0)" stroke-width="0.0" fill="rgb(255,0,0)" stroke-linecap="butt" stroke-miterlimit="10.0">
    <path d="M 445.1665,211.1553 c 0.0000,-0.0138 -0.0112,-0.0250 -0.0250 -0.0250c -0.0138,-0.0000 -0.0250,0.0112 -0.0250 0.0250c -0.0000,0.0138 0.0112,0.0250 0.0250 0.0250c 0.0138,0.0000 0.0250,-0.0112 0.0250 -0.0250Z"/>
  </g>
  <defs>
  </defs>
  <g stroke-linejoin="miter" stroke-opacity="1.0" fill-opacity="1.0" stroke="rgb(0,0,0)" stroke-width="1.8365279976314905" fill="rgb(0,0,255)" stroke-linecap="butt" stroke-miterlimit="10.0">
    <path d="M 411.0700,196.0805 c 0.0000,-0.3449 -0.2796,-0.6245 -0.6245 -0.6245c -0.3449,-0.0000 -0.6245,0.2796 -0.6245 0.6245c -0.0000,0.3449 0.2796,0.6245 0.6245 0.6245c 0.3449,0.0000 0.6245,-0.2796 0.6245 -0.6245Z"/>
  </g>
  <defs>
  </defs>
  <g stroke-linejoin="miter" stroke-opacity="1.0" fill-opacity="1.0" stroke="rgb(0,0,0)" stroke-width="0.0" fill="rgb(255,0,0)" stroke-linecap="butt" stroke-miterlimit="10.0">
    <path d="M 410.4704,196.0805 c 0.0000,-0.0138 -0.0112,-0.0250 -0.0250 -0.0250c -0.0138,-0.0000 -0.0250,0.0112 -0.0250 0.0250c -0.0000,0.0138 0.0112,0.0250 0.0250 0.0250c 0.0138,0.0000 0.0250,-0.0112 0.0250 -0.0250Z"/>
  </g>
  <defs>
  </defs>
  <g stroke-linejoin="miter" stroke-opacity="1.0" fill-opacity="1.0" stroke="rgb(0,0,0)" stroke-width="1.8365279976314905" fill="rgb(0,0,255)" stroke-linecap="butt" stroke-miterlimit="10.0">
    <path d="M 376.3739,174.5450 c 0.0000,-0.3449 -0.2796,-0.6245 -0.6245 -0.6245c -0.3449,-0.0000 -0.6245,0.2796 -0.6245 0.6245c -0.0000,0.3449 0.2796,0.6245 0.6245 0.6245c 0.3449,0.0000 0.6245,-0.2796 0.6245 -0.6245Z"/>
  </g>
  <defs>
  </defs>
  <g stroke-linejoin="miter" stroke-opacity="1.0" fill-opacity="1.0" stroke="rgb(0,0,0)" stroke-width="0.0" fill="rgb(255,0,0)" stroke-linecap="butt" stroke-miterlimit="10.0">
    <path d="M 375.7744,174.5450 c 0.0000,-0.0138 -0.0112,-0.0250 -0.0250 -0.0250c -0.0138,-0.0000 -0.0250,0.0112 -0.0250 0.0250c -0.0000,0.0138 0.0112,0.0250 0.0250 0.0250c 0.0138,0.0000 0.0250,-0.0112 0.0250 -0.0250Z"/>
  </g>
  <defs>
  </defs>
  <g stroke-linejoin="miter" stroke-opacity="1.0" fill-opacity="1.0" stroke="rgb(0,0,0)" stroke-width="1.8365279976314905" fill="rgb(0,0,255)" stroke-linecap="butt" stroke-miterlimit="10.0">
    <path d="M 341.6779,131.4741 c 0.0000,-0.3449 -0.2796,-0.6245 -0.6245 -0.6245c -0.3449,-0.0000 -0.6245,0.2796 -0.6245 0.6245c -0.0000,0.3449 0.2796,0.6245 0.6245 0.6245c 0.3449,0.0000 0.6245,-0.2796 0.6245 -0.6245Z"/>
  </g>
  <defs>
  </defs>
  <g stroke-linejoin="miter" stroke-opacity="1.0" fill-opacity="1.0" stroke="rgb(0,0,0)" stroke-width="0.0" fill="rgb(255,0,0)" stroke-linecap="butt" stroke-miterlimit="10.0">
    <path d="M 341.0784,131.4741 c 0.0000,-0.0138 -0.0112,-0.0250 -0.0250 -0.0250c -0.0138,-0.0000 -0.0250,0.0112 -0.0250 0.0250c -0.0000,0.0138 0.0112,0.0250 0.0250 0.0250c 0.0138,0.0000 0.0250,-0.0112 0.0250 -0.0250Z"/>
  </g>
  <defs>
  </defs>
  <g stroke-linejoin="miter" stroke-opacity="1.0" fill-opacity="1.0" stroke="rgb(0,0,0)" stroke-width="1.8365279976314905" fill="rgb(0,0,255)" stroke-linecap="butt" stroke-miterlimit="10.0">
    <path d="M 306.9819,109.9386 c 0.0000,-0.3449 -0.2796,-0.6245 -0.6245 -0.6245c -0.3449,-0.0000 -0.6245,0.2796 -0.6245 0.6245c -0.0000,0.3449 0.2796,0.6245 0.6245 0.6245c 0.3449,0.0000 0.6245,-0.2796 0.6245 -0.6245Z"/>
  </g>
  <defs>
  </defs>
  <g stroke-linejoin="miter" stroke-opacity="1.0" fill-opacity="1.0" stroke="rgb(0,0,0)" stroke-width="0.0" fill="rgb(255,0,0)" stroke-linecap="butt" stroke-miterlimit="10.0">
    <path d="M 306.3823,109.9386 c 0.0000,-0.0138 -0.0112,-0.0250 -0.0250 -0.0250c -0.0138,-0.0000 -0.0250,0.0112 -0.0250 0.0250c -0.0000,0.0138 0.0112,0.0250 0.0250 0.0250c 0.0138,0.0000 0.0250,-0.0112 0.0250 -0.0250Z"/>
  </g>
  <defs>
  </defs>
  <g stroke-linejoin="miter" stroke-opacity="1.0" fill-opacity="1.0" stroke="rgb(0,0,0)" stroke-width="1.8365279976314905" fill="rgb(0,0,255)" stroke-linecap="butt" stroke-miterlimit="10.0">
    <path d="M 272.2858,88.4031 c 0.0000,-0.3449 -0.2796,-0.6245 -0.6245 -0.6245c -0.3449,-0.0000 -0.6245,0.2796 -0.6245 0.6245c -0.0000,0.3449 0.2796,0.6245 0.6245 0.6245c 0.3449,0.0000 0.6245,-0.2796 0.6245 -0.6245Z"/>
  </g>
  <defs>
  </defs>
  <g stroke-linejoin="miter" stroke-opacity="1.0" fill-opacity="1.0" stroke="rgb(0,0,0)" stroke-width="0.0" fill="rgb(255,0,0)" stroke-linecap="butt" stroke-miterlimit="10.0">
    <path d="M 271.6863,88.4031 c 0.0000,-0.0138 -0.0112,-0.0250 -0.0250 -0.0250c -0.0138,-0.0000 -0.0250,0.0112 -0.0250 0.0250c -0.0000,0.0138 0.0112,0.0250 0.0250 0.0250c 0.0138,0.0000 0.0250,-0.0112 0.0250 -0.0250Z"/>
  </g>
  <defs>
  </defs>
  <g stroke-linejoin="miter" stroke-opacity="1.0" fill-opacity="1.0" stroke="rgb(0,0,0)" stroke-width="1.8365279976314905" fill="rgb(0,0,255)" stroke-linecap="butt" stroke-miterlimit="10.0">
    <path d="M 237.5898,153.0096 c 0.0000,-0.3449 -0.2796,-0.6245 -0.6245 -0.6245c -0.3449,-0.0000 -0.6245,0.2796 -0.6245 0.6245c -0.0000,0.3449 0.2796,0.6245 0.6245 0.6245c 0.3449,0.0000 0.6245,-0.2796 0.6245 -0.6245Z"/>
  </g>
  <defs>
  </defs>
  <g stroke-linejoin="miter" stroke-opacity="1.0" fill-opacity="1.0" stroke="rgb(0,0,0)" stroke-width="0.0" fill="rgb(255,0,0)" stroke-linecap="butt" stroke-miterlimit="10.0">
    <path d="M 236.9902,153.0096 c 0.0000,-0.0138 -0.0112,-0.0250 -0.0250 -0.0250c -0.0138,-0.0000 -0.0250,0.0112 -0.0250 0.0250c -0.0000,0.0138 0.0112,0.0250 0.0250 0.0250c 0.0138,0.0000 0.0250,-0.0112 0.0250 -0.0250Z"/>
  </g>
  <defs>
  </defs>
  <g stroke-linejoin="miter" stroke-opacity="1.0" fill-opacity="1.0" stroke="rgb(0,0,0)" stroke-width="1.8365279976314905" fill="rgb(0,0,255)" stroke-linecap="butt" stroke-miterlimit="10.0">
    <path d="M 202.8937,174.5450 c 0.0000,-0.3449 -0.2796,-0.6245 -0.6245 -0.6245c -0.3449,-0.0000 -0.6245,0.2796 -0.6245 0.6245c -0.0000,0.3449 0.2796,0.6245 0.6245 0.6245c 0.3449,0.0000 0.6245,-0.2796 0.6245 -0.6245Z"/>
  </g>
  <defs>
  </defs>
  <g stroke-linejoin="miter" stroke-opacity="1.0" fill-opacity="1.0" stroke="rgb(0,0,0)" stroke-width="0.0" fill="rgb(255,0,0)" stroke-linecap="butt" stroke-miterlimit="10.0">
    <path d="M 202.2942,174.5450 c 0.0000,-0.0138 -0.0112,-0.0250 -0.0250 -0.0250c -0.0138,-0.0000 -0.0250,0.0112 -0.0250 0.0250c -0.0000,0.0138 0.0112,0.0250 0.0250 0.0250c 0.0138,0.0000 0.0250,-0.0112 0.0250 -0.0250Z"/>
  </g>
  <defs>
  </defs>
  <g stroke-linejoin="miter" stroke-opacity="1.0" fill-opacity="1.0" stroke="rgb(0,0,0)" stroke-width="1.8365279976314905" fill="rgb(0,0,255)" stroke-linecap="butt" stroke-miterlimit="10.0">
    <path d="M 168.1977,185.3128 c 0.0000,-0.3449 -0.2796,-0.6245 -0.6245 -0.6245c -0.3449,-0.0000 -0.6245,0.2796 -0.6245 0.6245c -0.0000,0.3449 0.2796,0.6245 0.6245 0.6245c 0.3449,0.0000 0.6245,-0.2796 0.6245 -0.6245Z"/>
  </g>
  <defs>
  </defs>
  <g stroke-linejoin="miter" stroke-opacity="1.0" fill-opacity="1.0" stroke="rgb(0,0,0)" stroke-width="0.0" fill="rgb(255,0,0)" stroke-linecap="butt" stroke-miterlimit="10.0">
    <path d="M 167.5982,185.3128 c 0.0000,-0.0138 -0.0112,-0.0250 -0.0250 -0.0250c -0.0138,-0.0000 -0.0250,0.0112 -0.0250 0.0250c -0.0000,0.0138 0.0112,0.0250 0.0250 0.0250c 0.0138,0.0000 0.0250,-0.0112 0.0250 -0.0250Z"/>
  </g>
  <defs>
  </defs>
  <g stroke-linejoin="miter" stroke-opacity="1.0" fill-opacity="1.0" stroke="rgb(0,0,0)" stroke-width="1.8365279976314905" fill="rgb(0,0,255)" stroke-linecap="butt" stroke-miterlimit="10.0">
    <path d="M 133.5017,191.7734 c 0.0000,-0.3449 -0.2796,-0.6245 -0.6245 -0.6245c -0.3449,-0.0000 -0.6245,0.2796 -0.6245 0.6245c -0.0000,0.3449 0.2796,0.6245 0.6245 0.6245c 0.3449,0.0000 0.6245,-0.2796 0.6245 -0.6245Z"/>
  </g>
  <defs>
  </defs>
  <g stroke-linejoin="miter" stroke-opacity="1.0" fill-opacity="1.0" stroke="rgb(0,0,0)" stroke-width="0.0" fill="rgb(255,0,0)" stroke-linecap="butt" stroke-miterlimit="10.0">
    <path d="M 132.9021,191.7734 c 0.0000,-0.0138 -0.0112,-0.0250 -0.0250 -0.0250c -0.0138,-0.0000 -0.0250,0.0112 -0.0250 0.0250c -0.0000,0.0138 0.0112,0.0250 0.0250 0.0250c 0.0138,0.0000 0.0250,-0.0112 0.0250 -0.0250Z"/>
  </g>
  <defs>
  </defs>
  <g stroke-linejoin="miter" stroke-opacity="1.0" fill-opacity="1.0" stroke="rgb(255,182,193)" stroke-width="1.8365279976314905" fill="rgb(255,182,193)" stroke-linecap="butt" stroke-miterlimit="10.0">
    <path d="M 132.8771,191.7734 l 34.6960,-6.4606 l 34.6960,-10.7677 l 34.6960,-21.5355 l 34.6960,-64.6064 l 34.6960,21.5355 l 34.6960,21.5355 l 34.6960,43.0709 l 34.6960,21.5355 l 34.6960,15.0748 v -10.7677 l -34.6960,-21.5355 l -34.6960,-25.8426 l -34.6960,-43.0709 l -34.6960,-21.5355 l -34.6960,-64.6064 l -34.6960,107.6774 l -34.6960,21.5355 l -34.6960,21.5355 l -34.6960,2.1535 Z"/>
  </g>
  <defs>
  </defs>
  <g stroke-linejoin="miter" stroke-opacity="1.0" fill-opacity="1.0" stroke="rgb(0,0,0)" stroke-width="0.0" fill="rgb(255,0,0)" stroke-linecap="butt" stroke-miterlimit="10.0">
    <path d="M 139.1224,191.7734 c 0.0000,-3.4492 -2.7961,-6.2453 -6.2453 -6.2453c -3.4492,-0.0000 -6.2453,2.7961 -6.2453 6.2453c -0.0000,3.4492 2.7961,6.2453 6.2453 6.2453c 3.4492,0.0000 6.2453,-2.7961 6.2453 -6.2453Z"/>
  </g>
  <defs>
  </defs>
  <g stroke-linejoin="miter" stroke-opacity="1.0" fill-opacity="0.0" stroke="rgb(0,0,0)" stroke-width="0.5" fill="rgb(0,0,0)" stroke-linecap="butt" stroke-miterlimit="10.0">
    <path d="M 132.8771,23.7967 v 187.3586 "/>
  </g>
  <defs>
  </defs>
  <g stroke-linejoin="miter" stroke-opacity="1.0" fill-opacity="1.0" stroke="rgb(0,0,0)" stroke-width="0.0" fill="rgb(255,0,0)" stroke-linecap="butt" stroke-miterlimit="10.0">
    <path d="M 136.6243,117.4760 c 0.0000,-2.0695 -1.6777,-3.7472 -3.7472 -3.7472c -2.0695,-0.0000 -3.7472,1.6777 -3.7472 3.7472c -0.0000,2.0695 1.6777,3.7472 3.7472 3.7472c 2.0695,0.0000 3.7472,-1.6777 3.7472 -3.7472Z"/>
  </g>
  <defs>
  </defs>
  <g stroke-linejoin="miter" stroke-opacity="1.0" fill-opacity="0.0" stroke="rgb(0,0,0)" stroke-width="0.5" fill="rgb(0,0,0)" stroke-linecap="butt" stroke-miterlimit="10.0">
    <path d="M 132.8771,211.1553 h 312.2644 "/>
  </g>
  <defs>
  </defs>
  <g stroke-linejoin="miter" stroke-opacity="1.0" fill-opacity="1.0" stroke="rgb(0,0,0)" stroke-width="0.0" fill="rgb(255,0,0)" stroke-linecap="butt" stroke-miterlimit="10.0">
    <path d="M 295.2546,211.1553 c 0.0000,-3.4492 -2.7961,-6.2453 -6.2453 -6.2453c -3.4492,-0.0000 -6.2453,2.7961 -6.2453 6.2453c -0.0000,3.4492 2.7961,6.2453 6.2453 6.2453c 3.4492,0.0000 6.2453,-2.7961 6.2453 -6.2453Z"/>
  </g>
  <defs>
  </defs>
  <g stroke-linejoin="miter" stroke-opacity="1.0" fill-opacity="1.0" stroke="rgb(0,0,0)" stroke-width="0.0" fill="rgb(255,0,0)" stroke-linecap="butt" stroke-miterlimit="10.0">
    <path d="M 139.2598,211.1553 c 0.0000,-3.5251 -2.8576,-6.3827 -6.3827 -6.3827c -3.5251,-0.0000 -6.3827,2.8576 -6.3827 6.3827c -0.0000,3.5251 2.8576,6.3827 6.3827 6.3827c 3.5251,0.0000 6.3827,-2.8576 6.3827 -6.3827Z"/>
  </g>
  <defs>
  </defs>
  <g stroke-linejoin="miter" stroke-opacity="1.0" fill-opacity="0.0" stroke="rgb(255,0,0)" stroke-width="1.8365279976314905" fill="rgb(0,0,0)" stroke-linecap="butt" stroke-miterlimit="10.0">
    <path d="M 445.7660,211.1553 c 0.3719,-20.5433 -2.6810,-41.2032 -9.8364 -60.2809c -7.1554,-19.0777 -18.4134,-36.5734 -32.1341 -51.9372c -13.7207,-15.3638 -29.9042,-28.5958 -49.5437 -35.6998c -19.6395,-7.1040 -42.7350,-8.0799 -57.8618 -15.5951c -15.1267,-7.5152 -22.2847,-21.5697 -33.7807 -30.6451c -11.4960,-9.0754 -27.3301,-13.1717 -42.9275 -15.4073c -15.5973,-2.2356 -30.9579,-2.6105 -45.5513 2.1698c -14.5934,4.7803 -28.4196,14.7157 -41.2535 19.4124c -12.8339,4.6967 -24.6755,4.1546 -35.8495 7.7554c -11.1740,3.6008 -21.6804,11.3446 -30.3918 20.3071c -8.7113,8.9625 -15.6276,19.1437 -20.3071 30.3918c -4.6795,11.2480 -7.1224,23.5629 -7.1309 35.8495c -0.0085,12.2866 2.4172,24.5451 7.1309 35.8495c 4.7137,11.3044 11.7154,21.6549 20.3071 30.3918c 8.5917,8.7369 18.7734,15.8601 30.3918 20.3071c 11.6184,4.4470 24.6735,6.2176 29.4668 7.1309c 4.7933,0.9133 1.3248,0.9692 0.1214 1.2454c -1.2034,0.2763 -0.1417,0.7729 0.3629 1.1977c 0.5046,0.4249 0.4520,0.7780 0.5908 1.1032c 0.1389,0.3252 0.4691,0.6224 0.7943 0.9668c 0.3252,0.3444 0.6452,0.7359 0.9668 0.7943c 0.3216,0.0584 0.6447,-0.2164 1.1032 0.5908c 0.4585,0.8072 1.0523,2.6964 1.1977 0.3629c 0.1455,-2.3335 -0.1574,-8.8897 1.2454 0.1214c 1.4029,9.0111 4.5115,33.5896 12.0067 53.9792c 7.4952,20.3896 19.3770,36.5902 33.9624 50.6174c 14.5854,14.0272 31.8742,25.8809 50.7609 33.7874c 18.8866,7.9064 39.3711,11.8656 59.8438 11.8071c 20.4727,-0.0585 40.9338,-4.1345 59.8269 -11.9795c 18.8931,-7.8449 36.2182,-19.4588 50.7107 -33.9531c 14.4925,-14.4944 26.1524,-31.8693 33.8807 -50.7701c 7.7283,-18.9009 11.5249,-39.3277 11.8967 -59.8711Z"/>
  </g>
  <defs>
  </defs>
  <g stroke-linejoin="miter" stroke-opacity="1.0" fill-opacity="0.0" stroke="rgb(0,0,0)" stroke-width="0.5" fill="rgb(0,0,0)" stroke-linecap="butt" stroke-miterlimit="10.0">
    <path d="M 457.6321,348.5517 l -0.0000,-337.2455 h -337.2455 l -0.0000,337.2455 Z"/>
  </g>
  <defs>
  </defs>
  <g stroke-linejoin="miter" stroke-opacity="1.0" fill-opacity="1.0" stroke="rgb(0,0,0)" stroke-width="0.0" fill="rgb(255,0,0)" stroke-linecap="butt" stroke-miterlimit="10.0">
    <path d="M 295.7542,179.9289 c 0.0000,-3.7251 -3.0198,-6.7449 -6.7449 -6.7449c -3.7251,-0.0000 -6.7449,3.0198 -6.7449 6.7449c -0.0000,3.7251 3.0198,6.7449 6.7449 6.7449c 3.7251,0.0000 6.7449,-3.0198 6.7449 -6.7449Z"/>
  </g>
</svg>