<?xml version="1.0" encoding="UTF-8"?>
<!DOCTYPE svg PUBLIC "-//W3C//DTD SVG 1.1//EN"
    "http://www.w3.org/Graphics/SVG/1.1/DTD/svg11.dtd">
<svg xmlns="http://www.w3.org/2000/svg" height="500.0000" stroke-opacity="1" viewBox="0 0 500 500" font-size="1" width="500.0000" xmlns:xlink="http://www.w3.org/1999/xlink" stroke="rgb(0,0,0)" version="1.1">
  <defs>
  </defs>
  <defs>
  </defs>
  <g stroke-linejoin="miter" stroke-opacity="1.0" fill-opacity="1.0" stroke="rgb(0,0,0)" stroke-width="0.0" fill="rgb(211,211,211)" stroke-linecap="butt" stroke-miterlimit="10.0">
    <path d="M 372.0539,481.4815 h -0.0000 h -33.6700 h -0.0000 Z"/>
  </g>
  <defs>
  </defs>
  <g stroke-linejoin="miter" stroke-opacity="1.0" fill-opacity="1.0" stroke="rgb(0,0,0)" stroke-width="0.0" fill="rgb(255,0,0)" stroke-linecap="butt" stroke-miterlimit="10.0">
    <path d="M 355.8923,481.4815 c 0.0000,-0.2000 -0.3015,-0.3621 -0.6734 -0.3621c -0.3719,-0.0000 -0.6734,0.1621 -0.6734 0.3621c -0.0000,0.2000 0.3015,0.3621 0.6734 0.3621c 0.3719,0.0000 0.6734,-0.1621 0.6734 -0.3621Z"/>
  </g>
  <defs>
  </defs>
  <g stroke-linejoin="miter" stroke-opacity="1.0" fill-opacity="1.0" stroke="rgb(0,0,0)" stroke-width="0.0" fill="rgb(211,211,211)" stroke-linecap="butt" stroke-miterlimit="10.0">
    <path d="M 334.6427,481.4815 l -0.0000,-181.0748 h -33.6700 l -0.0000,181.0748 Z"/>
  </g>
  <defs>
  </defs>
  <g stroke-linejoin="miter" stroke-opacity="1.0" fill-opacity="1.0" stroke="rgb(0,0,0)" stroke-width="0.0" fill="rgb(255,0,0)" stroke-linecap="butt" stroke-miterlimit="10.0">
    <path d="M 324.5417,390.9441 c 0.0000,-2.0001 -3.0149,-3.6215 -6.7340 -3.6215c -3.7191,-0.0000 -6.7340,1.6214 -6.7340 3.6215c -0.0000,2.0001 3.0149,3.6215 6.7340 3.6215c 3.7191,0.0000 6.7340,-1.6214 6.7340 -3.6215Z"/>
  </g>
  <defs>
  </defs>
  <g stroke-linejoin="miter" stroke-opacity="1.0" fill-opacity="1.0" stroke="rgb(0,0,0)" stroke-width="0.0" fill="rgb(211,211,211)" stroke-linecap="butt" stroke-miterlimit="10.0">
    <path d="M 297.2316,481.4815 l -0.0000,-18.1075 h -33.6700 l -0.0000,18.1075 Z"/>
  </g>
  <defs>
  </defs>
  <g stroke-linejoin="miter" stroke-opacity="1.0" fill-opacity="1.0" stroke="rgb(0,0,0)" stroke-width="0.0" fill="rgb(255,0,0)" stroke-linecap="butt" stroke-miterlimit="10.0">
    <path d="M 281.0700,472.4277 c 0.0000,-0.2000 -0.3015,-0.3621 -0.6734 -0.3621c -0.3719,-0.0000 -0.6734,0.1621 -0.6734 0.3621c -0.0000,0.2000 0.3015,0.3621 0.6734 0.3621c 0.3719,0.0000 0.6734,-0.1621 0.6734 -0.3621Z"/>
  </g>
  <defs>
  </defs>
  <g stroke-linejoin="miter" stroke-opacity="1.0" fill-opacity="1.0" stroke="rgb(0,0,0)" stroke-width="0.0" fill="rgb(211,211,211)" stroke-linecap="butt" stroke-miterlimit="10.0">
    <path d="M 259.8204,481.4815 l -0.0000,-36.2150 h -33.6700 l -0.0000,36.2150 Z"/>
  </g>
  <defs>
  </defs>
  <g stroke-linejoin="miter" stroke-opacity="1.0" fill-opacity="1.0" stroke="rgb(0,0,0)" stroke-width="0.0" fill="rgb(255,0,0)" stroke-linecap="butt" stroke-miterlimit="10.0">
    <path d="M 244.3322,463.3740 c 0.0000,-0.4000 -0.6030,-0.7243 -1.3468 -0.7243c -0.7438,-0.0000 -1.3468,0.3243 -1.3468 0.7243c -0.0000,0.4000 0.6030,0.7243 1.3468 0.7243c 0.7438,0.0000 1.3468,-0.3243 1.3468 -0.7243Z"/>
  </g>
  <defs>
  </defs>
  <g stroke-linejoin="miter" stroke-opacity="1.0" fill-opacity="1.0" stroke="rgb(0,0,0)" stroke-width="0.0" fill="rgb(211,211,211)" stroke-linecap="butt" stroke-miterlimit="10.0">
    <path d="M 222.4093,481.4815 l -0.0000,-36.2150 h -33.6700 l -0.0000,36.2150 Z"/>
  </g>
  <defs>
  </defs>
  <g stroke-linejoin="miter" stroke-opacity="1.0" fill-opacity="1.0" stroke="rgb(0,0,0)" stroke-width="0.0" fill="rgb(255,0,0)" stroke-linecap="butt" stroke-miterlimit="10.0">
    <path d="M 206.9211,463.3740 c 0.0000,-0.4000 -0.6030,-0.7243 -1.3468 -0.7243c -0.7438,-0.0000 -1.3468,0.3243 -1.3468 0.7243c -0.0000,0.4000 0.6030,0.7243 1.3468 0.7243c 0.7438,0.0000 1.3468,-0.3243 1.3468 -0.7243Z"/>
  </g>
  <defs>
  </defs>
  <g stroke-linejoin="miter" stroke-opacity="1.0" fill-opacity="1.0" stroke="rgb(0,0,0)" stroke-width="0.0" fill="rgb(211,211,211)" stroke-linecap="butt" stroke-miterlimit="10.0">
    <path d="M 184.9981,481.4815 l -0.0000,-108.6449 h -33.6700 l -0.0000,108.6449 Z"/>
  </g>
  <defs>
  </defs>
  <g stroke-linejoin="miter" stroke-opacity="1.0" fill-opacity="1.0" stroke="rgb(0,0,0)" stroke-width="0.0" fill="rgb(255,0,0)" stroke-linecap="butt" stroke-miterlimit="10.0">
    <path d="M 172.2035,427.1590 c 0.0000,-1.2001 -1.8090,-2.1729 -4.0404 -2.1729c -2.2315,-0.0000 -4.0404,0.9728 -4.0404 2.1729c -0.0000,1.2001 1.8090,2.1729 4.0404 2.1729c 2.2315,0.0000 4.0404,-0.9728 4.0404 -2.1729Z"/>
  </g>
  <defs>
  </defs>
  <g stroke-linejoin="miter" stroke-opacity="1.0" fill-opacity="1.0" stroke="rgb(0,0,0)" stroke-width="0.0" fill="rgb(211,211,211)" stroke-linecap="butt" stroke-miterlimit="10.0">
    <path d="M 147.5870,481.4815 h -0.0000 h -33.6700 h -0.0000 Z"/>
  </g>
  <defs>
  </defs>
  <g stroke-linejoin="miter" stroke-opacity="1.0" fill-opacity="1.0" stroke="rgb(0,0,0)" stroke-width="0.0" fill="rgb(255,0,0)" stroke-linecap="butt" stroke-miterlimit="10.0">
    <path d="M 131.4254,481.4815 c 0.0000,-0.2000 -0.3015,-0.3621 -0.6734 -0.3621c -0.3719,-0.0000 -0.6734,0.1621 -0.6734 0.3621c -0.0000,0.2000 0.3015,0.3621 0.6734 0.3621c 0.3719,0.0000 0.6734,-0.1621 0.6734 -0.3621Z"/>
  </g>
  <defs>
  </defs>
  <g stroke-linejoin="miter" stroke-opacity="1.0" fill-opacity="1.0" stroke="rgb(0,0,0)" stroke-width="0.0" fill="rgb(211,211,211)" stroke-linecap="butt" stroke-miterlimit="10.0">
    <path d="M 110.1758,481.4815 l -0.0000,-36.2150 h -33.6700 l -0.0000,36.2150 Z"/>
  </g>
  <defs>
  </defs>
  <g stroke-linejoin="miter" stroke-opacity="1.0" fill-opacity="1.0" stroke="rgb(0,0,0)" stroke-width="0.0" fill="rgb(255,0,0)" stroke-linecap="butt" stroke-miterlimit="10.0">
    <path d="M 94.6876,463.3740 c 0.0000,-0.4000 -0.6030,-0.7243 -1.3468 -0.7243c -0.7438,-0.0000 -1.3468,0.3243 -1.3468 0.7243c -0.0000,0.4000 0.6030,0.7243 1.3468 0.7243c 0.7438,0.0000 1.3468,-0.3243 1.3468 -0.7243Z"/>
  </g>
  <defs>
  </defs>
  <g stroke-linejoin="miter" stroke-opacity="1.0" fill-opacity="1.0" stroke="rgb(0,0,0)" stroke-width="0.0" fill="rgb(211,211,211)" stroke-linecap="butt" stroke-miterlimit="10.0">
    <path d="M 72.7647,481.4815 l -0.0000,-72.4299 h -33.6700 l -0.0000,72.4299 Z"/>
  </g>
  <defs>
  </defs>
  <g stroke-linejoin="miter" stroke-opacity="1.0" fill-opacity="1.0" stroke="rgb(0,0,0)" stroke-width="0.0" fill="rgb(255,0,0)" stroke-linecap="butt" stroke-miterlimit="10.0">
    <path d="M 58.6233,445.2665 c 0.0000,-0.8000 -1.2060,-1.4486 -2.6936 -1.4486c -1.4876,-0.0000 -2.6936,0.6486 -2.6936 1.4486c -0.0000,0.8000 1.2060,1.4486 2.6936 1.4486c 1.4876,0.0000 2.6936,-0.6486 2.6936 -1.4486Z"/>
  </g>
  <defs>
  </defs>
  <g stroke-linejoin="miter" stroke-opacity="1.0" fill-opacity="1.0" stroke="rgb(0,0,0)" stroke-width="0.0" fill="rgb(211,211,211)" stroke-linecap="butt" stroke-miterlimit="10.0">
    <path d="M 35.3535,481.4815 l -0.0000,-36.2150 h -33.6700 l -0.0000,36.2150 Z"/>
  </g>
  <defs>
  </defs>
  <g stroke-linejoin="miter" stroke-opacity="1.0" fill-opacity="1.0" stroke="rgb(0,0,0)" stroke-width="0.0" fill="rgb(255,0,0)" stroke-linecap="butt" stroke-miterlimit="10.0">
    <path d="M 19.8653,463.3740 c 0.0000,-0.4000 -0.6030,-0.7243 -1.3468 -0.7243c -0.7438,-0.0000 -1.3468,0.3243 -1.3468 0.7243c -0.0000,0.4000 0.6030,0.7243 1.3468 0.7243c 0.7438,0.0000 1.3468,-0.3243 1.3468 -0.7243Z"/>
  </g>
  <defs>
  </defs>
  <g stroke-linejoin="miter" stroke-opacity="1.0" fill-opacity="1.0" stroke="rgb(0,0,0)" stroke-width="1.9999999999999993" fill="rgb(0,0,255)" stroke-linecap="butt" stroke-miterlimit="10.0">
    <path d="M 355.4545,481.4815 c 0.0000,-0.0700 -0.1055,-0.1268 -0.2357 -0.1268c -0.1302,-0.0000 -0.2357,0.0567 -0.2357 0.1268c -0.0000,0.0700 0.1055,0.1268 0.2357 0.1268c 0.1302,0.0000 0.2357,-0.0567 0.2357 -0.1268Z"/>
  </g>
  <defs>
  </defs>
  <g stroke-linejoin="miter" stroke-opacity="1.0" fill-opacity="1.0" stroke="rgb(0,0,0)" stroke-width="0.0" fill="rgb(255,0,0)" stroke-linecap="butt" stroke-miterlimit="10.0">
    <path d="M 355.2283,481.4815 c 0.0000,-0.0028 -0.0042,-0.0051 -0.0094 -0.0051c -0.0052,-0.0000 -0.0094,0.0023 -0.0094 0.0051c -0.0000,0.0028 0.0042,0.0051 0.0094 0.0051c 0.0052,0.0000 0.0094,-0.0023 0.0094 -0.0051Z"/>
  </g>
  <defs>
  </defs>
  <g stroke-linejoin="miter" stroke-opacity="1.0" fill-opacity="1.0" stroke="rgb(0,0,0)" stroke-width="1.9999999999999993" fill="rgb(0,0,255)" stroke-linecap="butt" stroke-miterlimit="10.0">
    <path d="M 318.0434,300.4067 c 0.0000,-0.0700 -0.1055,-0.1268 -0.2357 -0.1268c -0.1302,-0.0000 -0.2357,0.0567 -0.2357 0.1268c -0.0000,0.0700 0.1055,0.1268 0.2357 0.1268c 0.1302,0.0000 0.2357,-0.0567 0.2357 -0.1268Z"/>
  </g>
  <defs>
  </defs>
  <g stroke-linejoin="miter" stroke-opacity="1.0" fill-opacity="1.0" stroke="rgb(0,0,0)" stroke-width="0.0" fill="rgb(255,0,0)" stroke-linecap="butt" stroke-miterlimit="10.0">
    <path d="M 317.8171,300.4067 c 0.0000,-0.0028 -0.0042,-0.0051 -0.0094 -0.0051c -0.0052,-0.0000 -0.0094,0.0023 -0.0094 0.0051c -0.0000,0.0028 0.0042,0.0051 0.0094 0.0051c 0.0052,0.0000 0.0094,-0.0023 0.0094 -0.0051Z"/>
  </g>
  <defs>
  </defs>
  <g stroke-linejoin="miter" stroke-opacity="1.0" fill-opacity="1.0" stroke="rgb(0,0,0)" stroke-width="1.9999999999999993" fill="rgb(0,0,255)" stroke-linecap="butt" stroke-miterlimit="10.0">
    <path d="M 280.6322,463.3740 c 0.0000,-0.0700 -0.1055,-0.1268 -0.2357 -0.1268c -0.1302,-0.0000 -0.2357,0.0567 -0.2357 0.1268c -0.0000,0.0700 0.1055,0.1268 0.2357 0.1268c 0.1302,0.0000 0.2357,-0.0567 0.2357 -0.1268Z"/>
  </g>
  <defs>
  </defs>
  <g stroke-linejoin="miter" stroke-opacity="1.0" fill-opacity="1.0" stroke="rgb(0,0,0)" stroke-width="0.0" fill="rgb(255,0,0)" stroke-linecap="butt" stroke-miterlimit="10.0">
    <path d="M 280.4060,463.3740 c 0.0000,-0.0028 -0.0042,-0.0051 -0.0094 -0.0051c -0.0052,-0.0000 -0.0094,0.0023 -0.0094 0.0051c -0.0000,0.0028 0.0042,0.0051 0.0094 0.0051c 0.0052,0.0000 0.0094,-0.0023 0.0094 -0.0051Z"/>
  </g>
  <defs>
  </defs>
  <g stroke-linejoin="miter" stroke-opacity="1.0" fill-opacity="1.0" stroke="rgb(0,0,0)" stroke-width="1.9999999999999993" fill="rgb(0,0,255)" stroke-linecap="butt" stroke-miterlimit="10.0">
    <path d="M 243.2211,445.2665 c 0.0000,-0.0700 -0.1055,-0.1268 -0.2357 -0.1268c -0.1302,-0.0000 -0.2357,0.0567 -0.2357 0.1268c -0.0000,0.0700 0.1055,0.1268 0.2357 0.1268c 0.1302,0.0000 0.2357,-0.0567 0.2357 -0.1268Z"/>
  </g>
  <defs>
  </defs>
  <g stroke-linejoin="miter" stroke-opacity="1.0" fill-opacity="1.0" stroke="rgb(0,0,0)" stroke-width="0.0" fill="rgb(255,0,0)" stroke-linecap="butt" stroke-miterlimit="10.0">
    <path d="M 242.9948,445.2665 c 0.0000,-0.0028 -0.0042,-0.0051 -0.0094 -0.0051c -0.0052,-0.0000 -0.0094,0.0023 -0.0094 0.0051c -0.0000,0.0028 0.0042,0.0051 0.0094 0.0051c 0.0052,0.0000 0.0094,-0.0023 0.0094 -0.0051Z"/>
  </g>
  <defs>
  </defs>
  <g stroke-linejoin="miter" stroke-opacity="1.0" fill-opacity="1.0" stroke="rgb(0,0,0)" stroke-width="1.9999999999999993" fill="rgb(0,0,255)" stroke-linecap="butt" stroke-miterlimit="10.0">
    <path d="M 205.8100,445.2665 c 0.0000,-0.0700 -0.1055,-0.1268 -0.2357 -0.1268c -0.1302,-0.0000 -0.2357,0.0567 -0.2357 0.1268c -0.0000,0.0700 0.1055,0.1268 0.2357 0.1268c 0.1302,0.0000 0.2357,-0.0567 0.2357 -0.1268Z"/>
  </g>
  <defs>
  </defs>
  <g stroke-linejoin="miter" stroke-opacity="1.0" fill-opacity="1.0" stroke="rgb(0,0,0)" stroke-width="0.0" fill="rgb(255,0,0)" stroke-linecap="butt" stroke-miterlimit="10.0">
    <path d="M 205.5837,445.2665 c 0.0000,-0.0028 -0.0042,-0.0051 -0.0094 -0.0051c -0.0052,-0.0000 -0.0094,0.0023 -0.0094 0.0051c -0.0000,0.0028 0.0042,0.0051 0.0094 0.0051c 0.0052,0.0000 0.0094,-0.0023 0.0094 -0.0051Z"/>
  </g>
  <defs>
  </defs>
  <g stroke-linejoin="miter" stroke-opacity="1.0" fill-opacity="1.0" stroke="rgb(0,0,0)" stroke-width="1.9999999999999993" fill="rgb(0,0,255)" stroke-linecap="butt" stroke-miterlimit="10.0">
    <path d="M 168.3988,372.8366 c 0.0000,-0.0700 -0.1055,-0.1268 -0.2357 -0.1268c -0.1302,-0.0000 -0.2357,0.0567 -0.2357 0.1268c -0.0000,0.0700 0.1055,0.1268 0.2357 0.1268c 0.1302,0.0000 0.2357,-0.0567 0.2357 -0.1268Z"/>
  </g>
  <defs>
  </defs>
  <g stroke-linejoin="miter" stroke-opacity="1.0" fill-opacity="1.0" stroke="rgb(0,0,0)" stroke-width="0.0" fill="rgb(255,0,0)" stroke-linecap="butt" stroke-miterlimit="10.0">
    <path d="M 168.1725,372.8366 c 0.0000,-0.0028 -0.0042,-0.0051 -0.0094 -0.0051c -0.0052,-0.0000 -0.0094,0.0023 -0.0094 0.0051c -0.0000,0.0028 0.0042,0.0051 0.0094 0.0051c 0.0052,0.0000 0.0094,-0.0023 0.0094 -0.0051Z"/>
  </g>
  <defs>
  </defs>
  <g stroke-linejoin="miter" stroke-opacity="1.0" fill-opacity="1.0" stroke="rgb(0,0,0)" stroke-width="1.9999999999999993" fill="rgb(0,0,255)" stroke-linecap="butt" stroke-miterlimit="10.0">
    <path d="M 130.9877,481.4815 c 0.0000,-0.0700 -0.1055,-0.1268 -0.2357 -0.1268c -0.1302,-0.0000 -0.2357,0.0567 -0.2357 0.1268c -0.0000,0.0700 0.1055,0.1268 0.2357 0.1268c 0.1302,0.0000 0.2357,-0.0567 0.2357 -0.1268Z"/>
  </g>
  <defs>
  </defs>
  <g stroke-linejoin="miter" stroke-opacity="1.0" fill-opacity="1.0" stroke="rgb(0,0,0)" stroke-width="0.0" fill="rgb(255,0,0)" stroke-linecap="butt" stroke-miterlimit="10.0">
    <path d="M 130.7614,481.4815 c 0.0000,-0.0028 -0.0042,-0.0051 -0.0094 -0.0051c -0.0052,-0.0000 -0.0094,0.0023 -0.0094 0.0051c -0.0000,0.0028 0.0042,0.0051 0.0094 0.0051c 0.0052,0.0000 0.0094,-0.0023 0.0094 -0.0051Z"/>
  </g>
  <defs>
  </defs>
  <g stroke-linejoin="miter" stroke-opacity="1.0" fill-opacity="1.0" stroke="rgb(0,0,0)" stroke-width="1.9999999999999993" fill="rgb(0,0,255)" stroke-linecap="butt" stroke-miterlimit="10.0">
    <path d="M 93.5765,445.2665 c 0.0000,-0.0700 -0.1055,-0.1268 -0.2357 -0.1268c -0.1302,-0.0000 -0.2357,0.0567 -0.2357 0.1268c -0.0000,0.0700 0.1055,0.1268 0.2357 0.1268c 0.1302,0.0000 0.2357,-0.0567 0.2357 -0.1268Z"/>
  </g>
  <defs>
  </defs>
  <g stroke-linejoin="miter" stroke-opacity="1.0" fill-opacity="1.0" stroke="rgb(0,0,0)" stroke-width="0.0" fill="rgb(255,0,0)" stroke-linecap="butt" stroke-miterlimit="10.0">
    <path d="M 93.3502,445.2665 c 0.0000,-0.0028 -0.0042,-0.0051 -0.0094 -0.0051c -0.0052,-0.0000 -0.0094,0.0023 -0.0094 0.0051c -0.0000,0.0028 0.0042,0.0051 0.0094 0.0051c 0.0052,0.0000 0.0094,-0.0023 0.0094 -0.0051Z"/>
  </g>
  <defs>
  </defs>
  <g stroke-linejoin="miter" stroke-opacity="1.0" fill-opacity="1.0" stroke="rgb(0,0,0)" stroke-width="1.9999999999999993" fill="rgb(0,0,255)" stroke-linecap="butt" stroke-miterlimit="10.0">
    <path d="M 56.1654,409.0516 c 0.0000,-0.0700 -0.1055,-0.1268 -0.2357 -0.1268c -0.1302,-0.0000 -0.2357,0.0567 -0.2357 0.1268c -0.0000,0.0700 0.1055,0.1268 0.2357 0.1268c 0.1302,0.0000 0.2357,-0.0567 0.2357 -0.1268Z"/>
  </g>
  <defs>
  </defs>
  <g stroke-linejoin="miter" stroke-opacity="1.0" fill-opacity="1.0" stroke="rgb(0,0,0)" stroke-width="0.0" fill="rgb(255,0,0)" stroke-linecap="butt" stroke-miterlimit="10.0">
    <path d="M 55.9391,409.0516 c 0.0000,-0.0028 -0.0042,-0.0051 -0.0094 -0.0051c -0.0052,-0.0000 -0.0094,0.0023 -0.0094 0.0051c -0.0000,0.0028 0.0042,0.0051 0.0094 0.0051c 0.0052,0.0000 0.0094,-0.0023 0.0094 -0.0051Z"/>
  </g>
  <defs>
  </defs>
  <g stroke-linejoin="miter" stroke-opacity="1.0" fill-opacity="1.0" stroke="rgb(0,0,0)" stroke-width="1.9999999999999993" fill="rgb(0,0,255)" stroke-linecap="butt" stroke-miterlimit="10.0">
    <path d="M 18.7542,445.2665 c 0.0000,-0.0700 -0.1055,-0.1268 -0.2357 -0.1268c -0.1302,-0.0000 -0.2357,0.0567 -0.2357 0.1268c -0.0000,0.0700 0.1055,0.1268 0.2357 0.1268c 0.1302,0.0000 0.2357,-0.0567 0.2357 -0.1268Z"/>
  </g>
  <defs>
  </defs>
  <g stroke-linejoin="miter" stroke-opacity="1.0" fill-opacity="1.0" stroke="rgb(0,0,0)" stroke-width="0.0" fill="rgb(255,0,0)" stroke-linecap="butt" stroke-miterlimit="10.0">
    <path d="M 18.5279,445.2665 c 0.0000,-0.0028 -0.0042,-0.0051 -0.0094 -0.0051c -0.0052,-0.0000 -0.0094,0.0023 -0.0094 0.0051c -0.0000,0.0028 0.0042,0.0051 0.0094 0.0051c 0.0052,0.0000 0.0094,-0.0023 0.0094 -0.0051Z"/>
  </g>
  <defs>
  </defs>
  <g stroke-linejoin="miter" stroke-opacity="1.0" fill-opacity="0.0" stroke="rgb(0,0,0)" stroke-width="0.5" fill="rgb(0,0,0)" stroke-linecap="butt" stroke-miterlimit="10.0">
    <path d="M 18.5185,300.4067 v 181.0748 "/>
  </g>
  <defs>
  </defs>
  <g stroke-linejoin="miter" stroke-opacity="1.0" fill-opacity="1.0" stroke="rgb(0,0,0)" stroke-width="0.0" fill="rgb(255,0,0)" stroke-linecap="butt" stroke-miterlimit="10.0">
    <path d="M 25.2525,390.9441 c 0.0000,-2.0001 -3.0149,-3.6215 -6.7340 -3.6215c -3.7191,-0.0000 -6.7340,1.6214 -6.7340 3.6215c -0.0000,2.0001 3.0149,3.6215 6.7340 3.6215c 3.7191,0.0000 6.7340,-1.6214 6.7340 -3.6215Z"/>
  </g>
  <defs>
  </defs>
  <g stroke-linejoin="miter" stroke-opacity="1.0" fill-opacity="0.0" stroke="rgb(0,0,0)" stroke-width="0.5" fill="rgb(0,0,0)" stroke-linecap="butt" stroke-miterlimit="10.0">
    <path d="M 18.5185,481.4815 h 336.7003 "/>
  </g>
  <defs>
  </defs>
  <g stroke-linejoin="miter" stroke-opacity="1.0" fill-opacity="1.0" stroke="rgb(0,0,0)" stroke-width="0.0" fill="rgb(255,0,0)" stroke-linecap="butt" stroke-miterlimit="10.0">
    <path d="M 193.6027,481.4815 c 0.0000,-2.0001 -3.0149,-3.6215 -6.7340 -3.6215c -3.7191,-0.0000 -6.7340,1.6214 -6.7340 3.6215c -0.0000,2.0001 3.0149,3.6215 6.7340 3.6215c 3.7191,0.0000 6.7340,-1.6214 6.7340 -3.6215Z"/>
  </g>
  <defs>
  </defs>
  <g stroke-linejoin="miter" stroke-opacity="1.0" fill-opacity="1.0" stroke="rgb(0,0,0)" stroke-width="0.0" fill="rgb(255,0,0)" stroke-linecap="butt" stroke-miterlimit="10.0">
    <path d="M 25.9259,481.4815 c 0.0000,-2.2001 -3.3164,-3.9836 -7.4074 -3.9836c -4.0910,-0.0000 -7.4074,1.7835 -7.4074 3.9836c -0.0000,2.2001 3.3164,3.9836 7.4074 3.9836c 4.0910,0.0000 7.4074,-1.7835 7.4074 -3.9836Z"/>
  </g>
  <defs>
  </defs>
  <g stroke-linejoin="miter" stroke-opacity="1.0" fill-opacity="1.0" stroke="rgb(0,0,0)" stroke-width="1.9999999999999993" fill="rgb(0,0,255)" stroke-linecap="butt" stroke-miterlimit="10.0">
    <path d="M 381.4858,280.8061 c 0.0000,-1.4886 -1.6090,-2.6953 -3.5937 -2.6953c -1.9848,-0.0000 -3.5937,1.2067 -3.5937 2.6953c -0.0000,1.4886 1.6090,2.6953 3.5937 2.6953c 1.9848,0.0000 3.5937,-1.2067 3.5937 -2.6953Z"/>
  </g>
  <defs>
  </defs>
  <g stroke-linejoin="miter" stroke-opacity="1.0" fill-opacity="1.0" stroke="rgb(0,0,0)" stroke-width="0.0" fill="rgb(255,0,0)" stroke-linecap="butt" stroke-miterlimit="10.0">
    <path d="M 378.0358,280.8061 c 0.0000,-0.0595 -0.0644,-0.1078 -0.1437 -0.1078c -0.0794,-0.0000 -0.1437,0.0483 -0.1437 0.1078c -0.0000,0.0595 0.0644,0.1078 0.1437 0.1078c 0.0794,0.0000 0.1437,-0.0483 0.1437 -0.1078Z"/>
  </g>
  <defs>
  </defs>
  <g stroke-linejoin="miter" stroke-opacity="1.0" fill-opacity="1.0" stroke="rgb(0,0,0)" stroke-width="1.9999999999999993" fill="rgb(0,0,255)" stroke-linecap="butt" stroke-miterlimit="10.0">
    <path d="M 341.5554,249.8256 c 0.0000,-1.4886 -1.6090,-2.6953 -3.5937 -2.6953c -1.9848,-0.0000 -3.5937,1.2067 -3.5937 2.6953c -0.0000,1.4886 1.6090,2.6953 3.5937 2.6953c 1.9848,0.0000 3.5937,-1.2067 3.5937 -2.6953Z"/>
  </g>
  <defs>
  </defs>
  <g stroke-linejoin="miter" stroke-opacity="1.0" fill-opacity="1.0" stroke="rgb(0,0,0)" stroke-width="0.0" fill="rgb(255,0,0)" stroke-linecap="butt" stroke-miterlimit="10.0">
    <path d="M 338.1054,249.8256 c 0.0000,-0.0595 -0.0644,-0.1078 -0.1437 -0.1078c -0.0794,-0.0000 -0.1437,0.0483 -0.1437 0.1078c -0.0000,0.0595 0.0644,0.1078 0.1437 0.1078c 0.0794,0.0000 0.1437,-0.0483 0.1437 -0.1078Z"/>
  </g>
  <defs>
  </defs>
  <g stroke-linejoin="miter" stroke-opacity="1.0" fill-opacity="1.0" stroke="rgb(0,0,0)" stroke-width="1.9999999999999993" fill="rgb(0,0,255)" stroke-linecap="butt" stroke-miterlimit="10.0">
    <path d="M 301.6250,212.6490 c 0.0000,-1.4886 -1.6090,-2.6953 -3.5937 -2.6953c -1.9848,-0.0000 -3.5937,1.2067 -3.5937 2.6953c -0.0000,1.4886 1.6090,2.6953 3.5937 2.6953c 1.9848,0.0000 3.5937,-1.2067 3.5937 -2.6953Z"/>
  </g>
  <defs>
  </defs>
  <g stroke-linejoin="miter" stroke-opacity="1.0" fill-opacity="1.0" stroke="rgb(0,0,0)" stroke-width="0.0" fill="rgb(255,0,0)" stroke-linecap="butt" stroke-miterlimit="10.0">
    <path d="M 298.1750,212.6490 c 0.0000,-0.0595 -0.0644,-0.1078 -0.1437 -0.1078c -0.0794,-0.0000 -0.1437,0.0483 -0.1437 0.1078c -0.0000,0.0595 0.0644,0.1078 0.1437 0.1078c 0.0794,0.0000 0.1437,-0.0483 0.1437 -0.1078Z"/>
  </g>
  <defs>
  </defs>
  <g stroke-linejoin="miter" stroke-opacity="1.0" fill-opacity="1.0" stroke="rgb(0,0,0)" stroke-width="1.9999999999999993" fill="rgb(0,0,255)" stroke-linecap="butt" stroke-miterlimit="10.0">
    <path d="M 261.6946,150.6881 c 0.0000,-1.4886 -1.6090,-2.6953 -3.5937 -2.6953c -1.9848,-0.0000 -3.5937,1.2067 -3.5937 2.6953c -0.0000,1.4886 1.6090,2.6953 3.5937 2.6953c 1.9848,0.0000 3.5937,-1.2067 3.5937 -2.6953Z"/>
  </g>
  <defs>
  </defs>
  <g stroke-linejoin="miter" stroke-opacity="1.0" fill-opacity="1.0" stroke="rgb(0,0,0)" stroke-width="0.0" fill="rgb(255,0,0)" stroke-linecap="butt" stroke-miterlimit="10.0">
    <path d="M 258.2446,150.6881 c 0.0000,-0.0595 -0.0644,-0.1078 -0.1437 -0.1078c -0.0794,-0.0000 -0.1437,0.0483 -0.1437 0.1078c -0.0000,0.0595 0.0644,0.1078 0.1437 0.1078c 0.0794,0.0000 0.1437,-0.0483 0.1437 -0.1078Z"/>
  </g>
  <defs>
  </defs>
  <g stroke-linejoin="miter" stroke-opacity="1.0" fill-opacity="1.0" stroke="rgb(0,0,0)" stroke-width="1.9999999999999993" fill="rgb(0,0,255)" stroke-linecap="butt" stroke-miterlimit="10.0">
    <path d="M 221.7642,119.7076 c 0.0000,-1.4886 -1.6090,-2.6953 -3.5937 -2.6953c -1.9848,-0.0000 -3.5937,1.2067 -3.5937 2.6953c -0.0000,1.4886 1.6090,2.6953 3.5937 2.6953c 1.9848,0.0000 3.5937,-1.2067 3.5937 -2.6953Z"/>
  </g>
  <defs>
  </defs>
  <g stroke-linejoin="miter" stroke-opacity="1.0" fill-opacity="1.0" stroke="rgb(0,0,0)" stroke-width="0.0" fill="rgb(255,0,0)" stroke-linecap="butt" stroke-miterlimit="10.0">
    <path d="M 218.3142,119.7076 c 0.0000,-0.0595 -0.0644,-0.1078 -0.1437 -0.1078c -0.0794,-0.0000 -0.1437,0.0483 -0.1437 0.1078c -0.0000,0.0595 0.0644,0.1078 0.1437 0.1078c 0.0794,0.0000 0.1437,-0.0483 0.1437 -0.1078Z"/>
  </g>
  <defs>
  </defs>
  <g stroke-linejoin="miter" stroke-opacity="1.0" fill-opacity="1.0" stroke="rgb(0,0,0)" stroke-width="1.9999999999999993" fill="rgb(0,0,255)" stroke-linecap="butt" stroke-miterlimit="10.0">
    <path d="M 181.8338,26.7661 c 0.0000,-1.4886 -1.6090,-2.6953 -3.5937 -2.6953c -1.9848,-0.0000 -3.5937,1.2067 -3.5937 2.6953c -0.0000,1.4886 1.6090,2.6953 3.5937 2.6953c 1.9848,0.0000 3.5937,-1.2067 3.5937 -2.6953Z"/>
  </g>
  <defs>
  </defs>
  <g stroke-linejoin="miter" stroke-opacity="1.0" fill-opacity="1.0" stroke="rgb(0,0,0)" stroke-width="0.0" fill="rgb(255,0,0)" stroke-linecap="butt" stroke-miterlimit="10.0">
    <path d="M 178.3838,26.7661 c 0.0000,-0.0595 -0.0644,-0.1078 -0.1437 -0.1078c -0.0794,-0.0000 -0.1437,0.0483 -0.1437 0.1078c -0.0000,0.0595 0.0644,0.1078 0.1437 0.1078c 0.0794,0.0000 0.1437,-0.0483 0.1437 -0.1078Z"/>
  </g>
  <defs>
  </defs>
  <g stroke-linejoin="miter" stroke-opacity="1.0" fill-opacity="1.0" stroke="rgb(0,0,0)" stroke-width="1.9999999999999993" fill="rgb(0,0,255)" stroke-linecap="butt" stroke-miterlimit="10.0">
    <path d="M 141.9034,181.6685 c 0.0000,-1.4886 -1.6090,-2.6953 -3.5937 -2.6953c -1.9848,-0.0000 -3.5937,1.2067 -3.5937 2.6953c -0.0000,1.4886 1.6090,2.6953 3.5937 2.6953c 1.9848,0.0000 3.5937,-1.2067 3.5937 -2.6953Z"/>
  </g>
  <defs>
  </defs>
  <g stroke-linejoin="miter" stroke-opacity="1.0" fill-opacity="1.0" stroke="rgb(0,0,0)" stroke-width="0.0" fill="rgb(255,0,0)" stroke-linecap="butt" stroke-miterlimit="10.0">
    <path d="M 138.4534,181.6685 c 0.0000,-0.0595 -0.0644,-0.1078 -0.1437 -0.1078c -0.0794,-0.0000 -0.1437,0.0483 -0.1437 0.1078c -0.0000,0.0595 0.0644,0.1078 0.1437 0.1078c 0.0794,0.0000 0.1437,-0.0483 0.1437 -0.1078Z"/>
  </g>
  <defs>
  </defs>
  <g stroke-linejoin="miter" stroke-opacity="1.0" fill-opacity="1.0" stroke="rgb(0,0,0)" stroke-width="1.9999999999999993" fill="rgb(0,0,255)" stroke-linecap="butt" stroke-miterlimit="10.0">
    <path d="M 101.9730,212.6490 c 0.0000,-1.4886 -1.6090,-2.6953 -3.5937 -2.6953c -1.9848,-0.0000 -3.5937,1.2067 -3.5937 2.6953c -0.0000,1.4886 1.6090,2.6953 3.5937 2.6953c 1.9848,0.0000 3.5937,-1.2067 3.5937 -2.6953Z"/>
  </g>
  <defs>
  </defs>
  <g stroke-linejoin="miter" stroke-opacity="1.0" fill-opacity="1.0" stroke="rgb(0,0,0)" stroke-width="0.0" fill="rgb(255,0,0)" stroke-linecap="butt" stroke-miterlimit="10.0">
    <path d="M 98.5231,212.6490 c 0.0000,-0.0595 -0.0644,-0.1078 -0.1437 -0.1078c -0.0794,-0.0000 -0.1437,0.0483 -0.1437 0.1078c -0.0000,0.0595 0.0644,0.1078 0.1437 0.1078c 0.0794,0.0000 0.1437,-0.0483 0.1437 -0.1078Z"/>
  </g>
  <defs>
  </defs>
  <g stroke-linejoin="miter" stroke-opacity="1.0" fill-opacity="1.0" stroke="rgb(0,0,0)" stroke-width="1.9999999999999993" fill="rgb(0,0,255)" stroke-linecap="butt" stroke-miterlimit="10.0">
    <path d="M 62.0426,243.6295 c 0.0000,-1.4886 -1.6090,-2.6953 -3.5937 -2.6953c -1.9848,-0.0000 -3.5937,1.2067 -3.5937 2.6953c -0.0000,1.4886 1.6090,2.6953 3.5937 2.6953c 1.9848,0.0000 3.5937,-1.2067 3.5937 -2.6953Z"/>
  </g>
  <defs>
  </defs>
  <g stroke-linejoin="miter" stroke-opacity="1.0" fill-opacity="1.0" stroke="rgb(0,0,0)" stroke-width="0.0" fill="rgb(255,0,0)" stroke-linecap="butt" stroke-miterlimit="10.0">
    <path d="M 58.5927,243.6295 c 0.0000,-0.0595 -0.0644,-0.1078 -0.1437 -0.1078c -0.0794,-0.0000 -0.1437,0.0483 -0.1437 0.1078c -0.0000,0.0595 0.0644,0.1078 0.1437 0.1078c 0.0794,0.0000 0.1437,-0.0483 0.1437 -0.1078Z"/>
  </g>
  <defs>
  </defs>
  <g stroke-linejoin="miter" stroke-opacity="1.0" fill-opacity="1.0" stroke="rgb(0,0,0)" stroke-width="1.9999999999999993" fill="rgb(0,0,255)" stroke-linecap="butt" stroke-miterlimit="10.0">
    <path d="M 22.1123,246.7275 c 0.0000,-1.4886 -1.6090,-2.6953 -3.5937 -2.6953c -1.9848,-0.0000 -3.5937,1.2067 -3.5937 2.6953c -0.0000,1.4886 1.6090,2.6953 3.5937 2.6953c 1.9848,0.0000 3.5937,-1.2067 3.5937 -2.6953Z"/>
  </g>
  <defs>
  </defs>
  <g stroke-linejoin="miter" stroke-opacity="1.0" fill-opacity="1.0" stroke="rgb(0,0,0)" stroke-width="0.0" fill="rgb(255,0,0)" stroke-linecap="butt" stroke-miterlimit="10.0">
    <path d="M 18.6623,246.7275 c 0.0000,-0.0595 -0.0644,-0.1078 -0.1437 -0.1078c -0.0794,-0.0000 -0.1437,0.0483 -0.1437 0.1078c -0.0000,0.0595 0.0644,0.1078 0.1437 0.1078c 0.0794,0.0000 0.1437,-0.0483 0.1437 -0.1078Z"/>
  </g>
  <defs>
  </defs>
  <g stroke-linejoin="miter" stroke-opacity="1.0" fill-opacity="1.0" stroke="rgb(0,0,0)" stroke-width="1.9999999999999993" fill="rgb(0,0,255)" stroke-linecap="butt" stroke-miterlimit="10.0">
    <path d="M 381.4858,296.2963 c 0.0000,-1.4886 -1.6090,-2.6953 -3.5937 -2.6953c -1.9848,-0.0000 -3.5937,1.2067 -3.5937 2.6953c -0.0000,1.4886 1.6090,2.6953 3.5937 2.6953c 1.9848,0.0000 3.5937,-1.2067 3.5937 -2.6953Z"/>
  </g>
  <defs>
  </defs>
  <g stroke-linejoin="miter" stroke-opacity="1.0" fill-opacity="1.0" stroke="rgb(0,0,0)" stroke-width="0.0" fill="rgb(255,0,0)" stroke-linecap="butt" stroke-miterlimit="10.0">
    <path d="M 378.0358,296.2963 c 0.0000,-0.0595 -0.0644,-0.1078 -0.1437 -0.1078c -0.0794,-0.0000 -0.1437,0.0483 -0.1437 0.1078c -0.0000,0.0595 0.0644,0.1078 0.1437 0.1078c 0.0794,0.0000 0.1437,-0.0483 0.1437 -0.1078Z"/>
  </g>
  <defs>
  </defs>
  <g stroke-linejoin="miter" stroke-opacity="1.0" fill-opacity="1.0" stroke="rgb(0,0,0)" stroke-width="1.9999999999999993" fill="rgb(0,0,255)" stroke-linecap="butt" stroke-miterlimit="10.0">
    <path d="M 341.5554,274.6100 c 0.0000,-1.4886 -1.6090,-2.6953 -3.5937 -2.6953c -1.9848,-0.0000 -3.5937,1.2067 -3.5937 2.6953c -0.0000,1.4886 1.6090,2.6953 3.5937 2.6953c 1.9848,0.0000 3.5937,-1.2067 3.5937 -2.6953Z"/>
  </g>
  <defs>
  </defs>
  <g stroke-linejoin="miter" stroke-opacity="1.0" fill-opacity="1.0" stroke="rgb(0,0,0)" stroke-width="0.0" fill="rgb(255,0,0)" stroke-linecap="butt" stroke-miterlimit="10.0">
    <path d="M 338.1054,274.6100 c 0.0000,-0.0595 -0.0644,-0.1078 -0.1437 -0.1078c -0.0794,-0.0000 -0.1437,0.0483 -0.1437 0.1078c -0.0000,0.0595 0.0644,0.1078 0.1437 0.1078c 0.0794,0.0000 0.1437,-0.0483 0.1437 -0.1078Z"/>
  </g>
  <defs>
  </defs>
  <g stroke-linejoin="miter" stroke-opacity="1.0" fill-opacity="1.0" stroke="rgb(0,0,0)" stroke-width="1.9999999999999993" fill="rgb(0,0,255)" stroke-linecap="butt" stroke-miterlimit="10.0">
    <path d="M 301.6250,243.6295 c 0.0000,-1.4886 -1.6090,-2.6953 -3.5937 -2.6953c -1.9848,-0.0000 -3.5937,1.2067 -3.5937 2.6953c -0.0000,1.4886 1.6090,2.6953 3.5937 2.6953c 1.9848,0.0000 3.5937,-1.2067 3.5937 -2.6953Z"/>
  </g>
  <defs>
  </defs>
  <g stroke-linejoin="miter" stroke-opacity="1.0" fill-opacity="1.0" stroke="rgb(0,0,0)" stroke-width="0.0" fill="rgb(255,0,0)" stroke-linecap="butt" stroke-miterlimit="10.0">
    <path d="M 298.1750,243.6295 c 0.0000,-0.0595 -0.0644,-0.1078 -0.1437 -0.1078c -0.0794,-0.0000 -0.1437,0.0483 -0.1437 0.1078c -0.0000,0.0595 0.0644,0.1078 0.1437 0.1078c 0.0794,0.0000 0.1437,-0.0483 0.1437 -0.1078Z"/>
  </g>
  <defs>
  </defs>
  <g stroke-linejoin="miter" stroke-opacity="1.0" fill-opacity="1.0" stroke="rgb(0,0,0)" stroke-width="1.9999999999999993" fill="rgb(0,0,255)" stroke-linecap="butt" stroke-miterlimit="10.0">
    <path d="M 261.6946,181.6685 c 0.0000,-1.4886 -1.6090,-2.6953 -3.5937 -2.6953c -1.9848,-0.0000 -3.5937,1.2067 -3.5937 2.6953c -0.0000,1.4886 1.6090,2.6953 3.5937 2.6953c 1.9848,0.0000 3.5937,-1.2067 3.5937 -2.6953Z"/>
  </g>
  <defs>
  </defs>
  <g stroke-linejoin="miter" stroke-opacity="1.0" fill-opacity="1.0" stroke="rgb(0,0,0)" stroke-width="0.0" fill="rgb(255,0,0)" stroke-linecap="butt" stroke-miterlimit="10.0">
    <path d="M 258.2446,181.6685 c 0.0000,-0.0595 -0.0644,-0.1078 -0.1437 -0.1078c -0.0794,-0.0000 -0.1437,0.0483 -0.1437 0.1078c -0.0000,0.0595 0.0644,0.1078 0.1437 0.1078c 0.0794,0.0000 0.1437,-0.0483 0.1437 -0.1078Z"/>
  </g>
  <defs>
  </defs>
  <g stroke-linejoin="miter" stroke-opacity="1.0" fill-opacity="1.0" stroke="rgb(0,0,0)" stroke-width="1.9999999999999993" fill="rgb(0,0,255)" stroke-linecap="butt" stroke-miterlimit="10.0">
    <path d="M 221.7642,150.6881 c 0.0000,-1.4886 -1.6090,-2.6953 -3.5937 -2.6953c -1.9848,-0.0000 -3.5937,1.2067 -3.5937 2.6953c -0.0000,1.4886 1.6090,2.6953 3.5937 2.6953c 1.9848,0.0000 3.5937,-1.2067 3.5937 -2.6953Z"/>
  </g>
  <defs>
  </defs>
  <g stroke-linejoin="miter" stroke-opacity="1.0" fill-opacity="1.0" stroke="rgb(0,0,0)" stroke-width="0.0" fill="rgb(255,0,0)" stroke-linecap="butt" stroke-miterlimit="10.0">
    <path d="M 218.3142,150.6881 c 0.0000,-0.0595 -0.0644,-0.1078 -0.1437 -0.1078c -0.0794,-0.0000 -0.1437,0.0483 -0.1437 0.1078c -0.0000,0.0595 0.0644,0.1078 0.1437 0.1078c 0.0794,0.0000 0.1437,-0.0483 0.1437 -0.1078Z"/>
  </g>
  <defs>
  </defs>
  <g stroke-linejoin="miter" stroke-opacity="1.0" fill-opacity="1.0" stroke="rgb(0,0,0)" stroke-width="1.9999999999999993" fill="rgb(0,0,255)" stroke-linecap="butt" stroke-miterlimit="10.0">
    <path d="M 181.8338,119.7076 c 0.0000,-1.4886 -1.6090,-2.6953 -3.5937 -2.6953c -1.9848,-0.0000 -3.5937,1.2067 -3.5937 2.6953c -0.0000,1.4886 1.6090,2.6953 3.5937 2.6953c 1.9848,0.0000 3.5937,-1.2067 3.5937 -2.6953Z"/>
  </g>
  <defs>
  </defs>
  <g stroke-linejoin="miter" stroke-opacity="1.0" fill-opacity="1.0" stroke="rgb(0,0,0)" stroke-width="0.0" fill="rgb(255,0,0)" stroke-linecap="butt" stroke-miterlimit="10.0">
    <path d="M 178.3838,119.7076 c 0.0000,-0.0595 -0.0644,-0.1078 -0.1437 -0.1078c -0.0794,-0.0000 -0.1437,0.0483 -0.1437 0.1078c -0.0000,0.0595 0.0644,0.1078 0.1437 0.1078c 0.0794,0.0000 0.1437,-0.0483 0.1437 -0.1078Z"/>
  </g>
  <defs>
  </defs>
  <g stroke-linejoin="miter" stroke-opacity="1.0" fill-opacity="1.0" stroke="rgb(0,0,0)" stroke-width="1.9999999999999993" fill="rgb(0,0,255)" stroke-linecap="butt" stroke-miterlimit="10.0">
    <path d="M 141.9034,212.6490 c 0.0000,-1.4886 -1.6090,-2.6953 -3.5937 -2.6953c -1.9848,-0.0000 -3.5937,1.2067 -3.5937 2.6953c -0.0000,1.4886 1.6090,2.6953 3.5937 2.6953c 1.9848,0.0000 3.5937,-1.2067 3.5937 -2.6953Z"/>
  </g>
  <defs>
  </defs>
  <g stroke-linejoin="miter" stroke-opacity="1.0" fill-opacity="1.0" stroke="rgb(0,0,0)" stroke-width="0.0" fill="rgb(255,0,0)" stroke-linecap="butt" stroke-miterlimit="10.0">
    <path d="M 138.4534,212.6490 c 0.0000,-0.0595 -0.0644,-0.1078 -0.1437 -0.1078c -0.0794,-0.0000 -0.1437,0.0483 -0.1437 0.1078c -0.0000,0.0595 0.0644,0.1078 0.1437 0.1078c 0.0794,0.0000 0.1437,-0.0483 0.1437 -0.1078Z"/>
  </g>
  <defs>
  </defs>
  <g stroke-linejoin="miter" stroke-opacity="1.0" fill-opacity="1.0" stroke="rgb(0,0,0)" stroke-width="1.9999999999999993" fill="rgb(0,0,255)" stroke-linecap="butt" stroke-miterlimit="10.0">
    <path d="M 101.9730,243.6295 c 0.0000,-1.4886 -1.6090,-2.6953 -3.5937 -2.6953c -1.9848,-0.0000 -3.5937,1.2067 -3.5937 2.6953c -0.0000,1.4886 1.6090,2.6953 3.5937 2.6953c 1.9848,0.0000 3.5937,-1.2067 3.5937 -2.6953Z"/>
  </g>
  <defs>
  </defs>
  <g stroke-linejoin="miter" stroke-opacity="1.0" fill-opacity="1.0" stroke="rgb(0,0,0)" stroke-width="0.0" fill="rgb(255,0,0)" stroke-linecap="butt" stroke-miterlimit="10.0">
    <path d="M 98.5231,243.6295 c 0.0000,-0.0595 -0.0644,-0.1078 -0.1437 -0.1078c -0.0794,-0.0000 -0.1437,0.0483 -0.1437 0.1078c -0.0000,0.0595 0.0644,0.1078 0.1437 0.1078c 0.0794,0.0000 0.1437,-0.0483 0.1437 -0.1078Z"/>
  </g>
  <defs>
  </defs>
  <g stroke-linejoin="miter" stroke-opacity="1.0" fill-opacity="1.0" stroke="rgb(0,0,0)" stroke-width="1.9999999999999993" fill="rgb(0,0,255)" stroke-linecap="butt" stroke-miterlimit="10.0">
    <path d="M 62.0426,259.1197 c 0.0000,-1.4886 -1.6090,-2.6953 -3.5937 -2.6953c -1.9848,-0.0000 -3.5937,1.2067 -3.5937 2.6953c -0.0000,1.4886 1.6090,2.6953 3.5937 2.6953c 1.9848,0.0000 3.5937,-1.2067 3.5937 -2.6953Z"/>
  </g>
  <defs>
  </defs>
  <g stroke-linejoin="miter" stroke-opacity="1.0" fill-opacity="1.0" stroke="rgb(0,0,0)" stroke-width="0.0" fill="rgb(255,0,0)" stroke-linecap="butt" stroke-miterlimit="10.0">
    <path d="M 58.5927,259.1197 c 0.0000,-0.0595 -0.0644,-0.1078 -0.1437 -0.1078c -0.0794,-0.0000 -0.1437,0.0483 -0.1437 0.1078c -0.0000,0.0595 0.0644,0.1078 0.1437 0.1078c 0.0794,0.0000 0.1437,-0.0483 0.1437 -0.1078Z"/>
  </g>
  <defs>
  </defs>
  <g stroke-linejoin="miter" stroke-opacity="1.0" fill-opacity="1.0" stroke="rgb(0,0,0)" stroke-width="1.9999999999999993" fill="rgb(0,0,255)" stroke-linecap="butt" stroke-miterlimit="10.0">
    <path d="M 22.1123,268.4139 c 0.0000,-1.4886 -1.6090,-2.6953 -3.5937 -2.6953c -1.9848,-0.0000 -3.5937,1.2067 -3.5937 2.6953c -0.0000,1.4886 1.6090,2.6953 3.5937 2.6953c 1.9848,0.0000 3.5937,-1.2067 3.5937 -2.6953Z"/>
  </g>
  <defs>
  </defs>
  <g stroke-linejoin="miter" stroke-opacity="1.0" fill-opacity="1.0" stroke="rgb(0,0,0)" stroke-width="0.0" fill="rgb(255,0,0)" stroke-linecap="butt" stroke-miterlimit="10.0">
    <path d="M 18.6623,268.4139 c 0.0000,-0.0595 -0.0644,-0.1078 -0.1437 -0.1078c -0.0794,-0.0000 -0.1437,0.0483 -0.1437 0.1078c -0.0000,0.0595 0.0644,0.1078 0.1437 0.1078c 0.0794,0.0000 0.1437,-0.0483 0.1437 -0.1078Z"/>
  </g>
  <defs>
  </defs>
  <g stroke-linejoin="miter" stroke-opacity="1.0" fill-opacity="1.0" stroke="rgb(255,182,193)" stroke-width="1.9999999999999993" fill="rgb(255,182,193)" stroke-linecap="butt" stroke-miterlimit="10.0">
    <path d="M 18.5185,268.4139 l 39.9304,-9.2941 l 39.9304,-15.4902 l 39.9304,-30.9805 l 39.9304,-92.9414 l 39.9304,30.9805 l 39.9304,30.9805 l 39.9304,61.9610 l 39.9304,30.9805 l 39.9304,21.6863 v -15.4902 l -39.9304,-30.9805 l -39.9304,-37.1766 l -39.9304,-61.9610 l -39.9304,-30.9805 l -39.9304,-92.9414 l -39.9304,154.9024 l -39.9304,30.9805 l -39.9304,30.9805 l -39.9304,3.0980 Z"/>
  </g>
  <defs>
  </defs>
  <g stroke-linejoin="miter" stroke-opacity="1.0" fill-opacity="1.0" stroke="rgb(0,0,0)" stroke-width="0.0" fill="rgb(255,0,0)" stroke-linecap="butt" stroke-miterlimit="10.0">
    <path d="M 25.7060,268.4139 c 0.0000,-2.9771 -3.2179,-5.3906 -7.1875 -5.3906c -3.9695,-0.0000 -7.1875,2.4135 -7.1875 5.3906c -0.0000,2.9771 3.2179,5.3906 7.1875 5.3906c 3.9695,0.0000 7.1875,-2.4135 7.1875 -5.3906Z"/>
  </g>
  <defs>
  </defs>
  <g stroke-linejoin="miter" stroke-opacity="1.0" fill-opacity="0.0" stroke="rgb(0,0,0)" stroke-width="0.5" fill="rgb(0,0,0)" stroke-linecap="butt" stroke-miterlimit="10.0">
    <path d="M 18.5185,26.7661 v 269.5302 "/>
  </g>
  <defs>
  </defs>
  <g stroke-linejoin="miter" stroke-opacity="1.0" fill-opacity="1.0" stroke="rgb(0,0,0)" stroke-width="0.0" fill="rgb(255,0,0)" stroke-linecap="butt" stroke-miterlimit="10.0">
    <path d="M 25.7060,161.5312 c 0.0000,-2.9771 -3.2179,-5.3906 -7.1875 -5.3906c -3.9695,-0.0000 -7.1875,2.4135 -7.1875 5.3906c -0.0000,2.9771 3.2179,5.3906 7.1875 5.3906c 3.9695,0.0000 7.1875,-2.4135 7.1875 -5.3906Z"/>
  </g>
  <defs>
  </defs>
  <g stroke-linejoin="miter" stroke-opacity="1.0" fill-opacity="0.0" stroke="rgb(0,0,0)" stroke-width="0.5" fill="rgb(0,0,0)" stroke-linecap="butt" stroke-miterlimit="10.0">
    <path d="M 18.5185,296.2963 h 359.3735 "/>
  </g>
  <defs>
  </defs>
  <g stroke-linejoin="miter" stroke-opacity="1.0" fill-opacity="1.0" stroke="rgb(0,0,0)" stroke-width="0.0" fill="rgb(255,0,0)" stroke-linecap="butt" stroke-miterlimit="10.0">
    <path d="M 205.3928,296.2963 c 0.0000,-2.9771 -3.2179,-5.3906 -7.1875 -5.3906c -3.9695,-0.0000 -7.1875,2.4135 -7.1875 5.3906c -0.0000,2.9771 3.2179,5.3906 7.1875 5.3906c 3.9695,0.0000 7.1875,-2.4135 7.1875 -5.3906Z"/>
  </g>
  <defs>
  </defs>
  <g stroke-linejoin="miter" stroke-opacity="1.0" fill-opacity="1.0" stroke="rgb(0,0,0)" stroke-width="0.0" fill="rgb(255,0,0)" stroke-linecap="butt" stroke-miterlimit="10.0">
    <path d="M 25.9216,296.2963 c 0.0000,-3.0665 -3.3145,-5.5523 -7.4031 -5.5523c -4.0886,-0.0000 -7.4031,2.4859 -7.4031 5.5523c -0.0000,3.0665 3.3145,5.5523 7.4031 5.5523c 4.0886,0.0000 7.4031,-2.4859 7.4031 -5.5523Z"/>
  </g>
  <defs>
  </defs>
  <g stroke-linejoin="miter" stroke-opacity="1.0" fill-opacity="0.0" stroke="rgb(0,0,0)" stroke-width="0.5" fill="rgb(0,0,0)" stroke-linecap="butt" stroke-miterlimit="10.0">
    <path d="M 500.0000,500.0000 l -0.0000,-500.0000 h -500.0000 l -0.0000,500.0000 Z"/>
  </g>
  <defs>
  </defs>
  <g stroke-linejoin="miter" stroke-opacity="1.0" fill-opacity="1.0" stroke="rgb(0,0,0)" stroke-width="0.0" fill="rgb(255,0,0)" stroke-linecap="butt" stroke-miterlimit="10.0">
    <path d="M 260.0000,250.0000 c 0.0000,-5.5228 -4.4772,-10.0000 -10.0000 -10.0000c -5.5228,-0.0000 -10.0000,4.4772 -10.0000 10.0000c -0.0000,5.5228 4.4772,10.0000 10.0000 10.0000c 5.5228,0.0000 10.0000,-4.4772 10.0000 -10.0000Z"/>
  </g>
</svg>