<?xml version="1.0" encoding="UTF-8"?>
<!DOCTYPE svg PUBLIC "-//W3C//DTD SVG 1.1//EN"
    "http://www.w3.org/Graphics/SVG/1.1/DTD/svg11.dtd">
<svg xmlns="http://www.w3.org/2000/svg" height="500.0000" stroke-opacity="1" viewBox="0 0 500 500" font-size="1" width="500.0000" xmlns:xlink="http://www.w3.org/1999/xlink" stroke="rgb(0,0,0)" version="1.1">
  <defs>
  </defs>
  <defs>
  </defs>
  <g stroke-linejoin="miter" stroke-opacity="1.0" fill-opacity="0.0" stroke="rgb(0,0,0)" stroke-width="0.5" fill="rgb(0,0,0)" stroke-linecap="butt" stroke-miterlimit="10.0">
    <path d="M 500.0000,500.0000 l -0.0000,-500.0000 h -500.0000 l -0.0000,500.0000 Z"/>
  </g>
  <defs>
  </defs>
  <g stroke-linejoin="miter" stroke-opacity="1.0" fill-opacity="1.0" stroke="rgb(0,0,0)" stroke-width="1.9999999999999996" fill="rgb(0,128,0)" stroke-linecap="butt" stroke-miterlimit="10.0">
    <path d="M 71.4286,399.3021 l 39.6825,-4.1051 l 39.6825,-41.0509 l 39.6825,-41.0509 l 39.6825,-205.2545 l 39.6825,123.1527 l 39.6825,41.0509 l 39.6825,82.1018 l 39.6825,49.2611 l 39.6825,41.0509 v 20.5255 l -39.6825,-28.7356 l -39.6825,-41.0509 l -39.6825,-82.1018 l -39.6825,-41.0509 l -39.6825,-41.0509 l -39.6825,123.1527 l -39.6825,41.0509 l -39.6825,20.5255 l -39.6825,12.3153 Z"/>
  </g>
  <defs>
  </defs>
  <g stroke-linejoin="miter" stroke-opacity="1.0" fill-opacity="1.0" stroke="rgb(0,0,0)" stroke-width="1.9999999999999996" fill="rgb(0,0,255)" stroke-linecap="butt" stroke-miterlimit="10.0">
    <path d="M 435.7143,378.7767 c 0.0000,-3.9449 -3.1980,-7.1429 -7.1429 -7.1429c -3.9449,-0.0000 -7.1429,3.1980 -7.1429 7.1429c -0.0000,3.9449 3.1980,7.1429 7.1429 7.1429c 3.9449,0.0000 7.1429,-3.1980 7.1429 -7.1429Z"/>
  </g>
  <defs>
  </defs>
  <g stroke-linejoin="miter" stroke-opacity="1.0" fill-opacity="1.0" stroke="rgb(0,0,0)" stroke-width="0.0" fill="rgb(255,0,0)" stroke-linecap="butt" stroke-miterlimit="10.0">
    <path d="M 428.8571,378.7767 c 0.0000,-0.1578 -0.1279,-0.2857 -0.2857 -0.2857c -0.1578,-0.0000 -0.2857,0.1279 -0.2857 0.2857c -0.0000,0.1578 0.1279,0.2857 0.2857 0.2857c 0.1578,0.0000 0.2857,-0.1279 0.2857 -0.2857Z"/>
  </g>
  <defs>
  </defs>
  <g stroke-linejoin="miter" stroke-opacity="1.0" fill-opacity="1.0" stroke="rgb(0,0,0)" stroke-width="1.9999999999999996" fill="rgb(0,0,255)" stroke-linecap="butt" stroke-miterlimit="10.0">
    <path d="M 396.0317,337.7258 c 0.0000,-3.9449 -3.1980,-7.1429 -7.1429 -7.1429c -3.9449,-0.0000 -7.1429,3.1980 -7.1429 7.1429c -0.0000,3.9449 3.1980,7.1429 7.1429 7.1429c 3.9449,0.0000 7.1429,-3.1980 7.1429 -7.1429Z"/>
  </g>
  <defs>
  </defs>
  <g stroke-linejoin="miter" stroke-opacity="1.0" fill-opacity="1.0" stroke="rgb(0,0,0)" stroke-width="0.0" fill="rgb(255,0,0)" stroke-linecap="butt" stroke-miterlimit="10.0">
    <path d="M 389.1746,337.7258 c 0.0000,-0.1578 -0.1279,-0.2857 -0.2857 -0.2857c -0.1578,-0.0000 -0.2857,0.1279 -0.2857 0.2857c -0.0000,0.1578 0.1279,0.2857 0.2857 0.2857c 0.1578,0.0000 0.2857,-0.1279 0.2857 -0.2857Z"/>
  </g>
  <defs>
  </defs>
  <g stroke-linejoin="miter" stroke-opacity="1.0" fill-opacity="1.0" stroke="rgb(0,0,0)" stroke-width="1.9999999999999996" fill="rgb(0,0,255)" stroke-linecap="butt" stroke-miterlimit="10.0">
    <path d="M 356.3492,288.4647 c 0.0000,-3.9449 -3.1980,-7.1429 -7.1429 -7.1429c -3.9449,-0.0000 -7.1429,3.1980 -7.1429 7.1429c -0.0000,3.9449 3.1980,7.1429 7.1429 7.1429c 3.9449,0.0000 7.1429,-3.1980 7.1429 -7.1429Z"/>
  </g>
  <defs>
  </defs>
  <g stroke-linejoin="miter" stroke-opacity="1.0" fill-opacity="1.0" stroke="rgb(0,0,0)" stroke-width="0.0" fill="rgb(255,0,0)" stroke-linecap="butt" stroke-miterlimit="10.0">
    <path d="M 349.4921,288.4647 c 0.0000,-0.1578 -0.1279,-0.2857 -0.2857 -0.2857c -0.1578,-0.0000 -0.2857,0.1279 -0.2857 0.2857c -0.0000,0.1578 0.1279,0.2857 0.2857 0.2857c 0.1578,0.0000 0.2857,-0.1279 0.2857 -0.2857Z"/>
  </g>
  <defs>
  </defs>
  <g stroke-linejoin="miter" stroke-opacity="1.0" fill-opacity="1.0" stroke="rgb(0,0,0)" stroke-width="1.9999999999999996" fill="rgb(0,0,255)" stroke-linecap="butt" stroke-miterlimit="10.0">
    <path d="M 316.6667,206.3629 c 0.0000,-3.9449 -3.1980,-7.1429 -7.1429 -7.1429c -3.9449,-0.0000 -7.1429,3.1980 -7.1429 7.1429c -0.0000,3.9449 3.1980,7.1429 7.1429 7.1429c 3.9449,0.0000 7.1429,-3.1980 7.1429 -7.1429Z"/>
  </g>
  <defs>
  </defs>
  <g stroke-linejoin="miter" stroke-opacity="1.0" fill-opacity="1.0" stroke="rgb(0,0,0)" stroke-width="0.0" fill="rgb(255,0,0)" stroke-linecap="butt" stroke-miterlimit="10.0">
    <path d="M 309.8095,206.3629 c 0.0000,-0.1578 -0.1279,-0.2857 -0.2857 -0.2857c -0.1578,-0.0000 -0.2857,0.1279 -0.2857 0.2857c -0.0000,0.1578 0.1279,0.2857 0.2857 0.2857c 0.1578,0.0000 0.2857,-0.1279 0.2857 -0.2857Z"/>
  </g>
  <defs>
  </defs>
  <g stroke-linejoin="miter" stroke-opacity="1.0" fill-opacity="1.0" stroke="rgb(0,0,0)" stroke-width="1.9999999999999996" fill="rgb(0,0,255)" stroke-linecap="butt" stroke-miterlimit="10.0">
    <path d="M 276.9841,165.3120 c 0.0000,-3.9449 -3.1980,-7.1429 -7.1429 -7.1429c -3.9449,-0.0000 -7.1429,3.1980 -7.1429 7.1429c -0.0000,3.9449 3.1980,7.1429 7.1429 7.1429c 3.9449,0.0000 7.1429,-3.1980 7.1429 -7.1429Z"/>
  </g>
  <defs>
  </defs>
  <g stroke-linejoin="miter" stroke-opacity="1.0" fill-opacity="1.0" stroke="rgb(0,0,0)" stroke-width="0.0" fill="rgb(255,0,0)" stroke-linecap="butt" stroke-miterlimit="10.0">
    <path d="M 270.1270,165.3120 c 0.0000,-0.1578 -0.1279,-0.2857 -0.2857 -0.2857c -0.1578,-0.0000 -0.2857,0.1279 -0.2857 0.2857c -0.0000,0.1578 0.1279,0.2857 0.2857 0.2857c 0.1578,0.0000 0.2857,-0.1279 0.2857 -0.2857Z"/>
  </g>
  <defs>
  </defs>
  <g stroke-linejoin="miter" stroke-opacity="1.0" fill-opacity="1.0" stroke="rgb(0,0,0)" stroke-width="1.9999999999999996" fill="rgb(0,0,255)" stroke-linecap="butt" stroke-miterlimit="10.0">
    <path d="M 237.3016,42.1593 c 0.0000,-3.9449 -3.1980,-7.1429 -7.1429 -7.1429c -3.9449,-0.0000 -7.1429,3.1980 -7.1429 7.1429c -0.0000,3.9449 3.1980,7.1429 7.1429 7.1429c 3.9449,0.0000 7.1429,-3.1980 7.1429 -7.1429Z"/>
  </g>
  <defs>
  </defs>
  <g stroke-linejoin="miter" stroke-opacity="1.0" fill-opacity="1.0" stroke="rgb(0,0,0)" stroke-width="0.0" fill="rgb(255,0,0)" stroke-linecap="butt" stroke-miterlimit="10.0">
    <path d="M 230.4444,42.1593 c 0.0000,-0.1578 -0.1279,-0.2857 -0.2857 -0.2857c -0.1578,-0.0000 -0.2857,0.1279 -0.2857 0.2857c -0.0000,0.1578 0.1279,0.2857 0.2857 0.2857c 0.1578,0.0000 0.2857,-0.1279 0.2857 -0.2857Z"/>
  </g>
  <defs>
  </defs>
  <g stroke-linejoin="miter" stroke-opacity="1.0" fill-opacity="1.0" stroke="rgb(0,0,0)" stroke-width="1.9999999999999996" fill="rgb(0,0,255)" stroke-linecap="butt" stroke-miterlimit="10.0">
    <path d="M 197.6190,247.4138 c 0.0000,-3.9449 -3.1980,-7.1429 -7.1429 -7.1429c -3.9449,-0.0000 -7.1429,3.1980 -7.1429 7.1429c -0.0000,3.9449 3.1980,7.1429 7.1429 7.1429c 3.9449,0.0000 7.1429,-3.1980 7.1429 -7.1429Z"/>
  </g>
  <defs>
  </defs>
  <g stroke-linejoin="miter" stroke-opacity="1.0" fill-opacity="1.0" stroke="rgb(0,0,0)" stroke-width="0.0" fill="rgb(255,0,0)" stroke-linecap="butt" stroke-miterlimit="10.0">
    <path d="M 190.7619,247.4138 c 0.0000,-0.1578 -0.1279,-0.2857 -0.2857 -0.2857c -0.1578,-0.0000 -0.2857,0.1279 -0.2857 0.2857c -0.0000,0.1578 0.1279,0.2857 0.2857 0.2857c 0.1578,0.0000 0.2857,-0.1279 0.2857 -0.2857Z"/>
  </g>
  <defs>
  </defs>
  <g stroke-linejoin="miter" stroke-opacity="1.0" fill-opacity="1.0" stroke="rgb(0,0,0)" stroke-width="1.9999999999999996" fill="rgb(0,0,255)" stroke-linecap="butt" stroke-miterlimit="10.0">
    <path d="M 157.9365,288.4647 c 0.0000,-3.9449 -3.1980,-7.1429 -7.1429 -7.1429c -3.9449,-0.0000 -7.1429,3.1980 -7.1429 7.1429c -0.0000,3.9449 3.1980,7.1429 7.1429 7.1429c 3.9449,0.0000 7.1429,-3.1980 7.1429 -7.1429Z"/>
  </g>
  <defs>
  </defs>
  <g stroke-linejoin="miter" stroke-opacity="1.0" fill-opacity="1.0" stroke="rgb(0,0,0)" stroke-width="0.0" fill="rgb(255,0,0)" stroke-linecap="butt" stroke-miterlimit="10.0">
    <path d="M 151.0794,288.4647 c 0.0000,-0.1578 -0.1279,-0.2857 -0.2857 -0.2857c -0.1578,-0.0000 -0.2857,0.1279 -0.2857 0.2857c -0.0000,0.1578 0.1279,0.2857 0.2857 0.2857c 0.1578,0.0000 0.2857,-0.1279 0.2857 -0.2857Z"/>
  </g>
  <defs>
  </defs>
  <g stroke-linejoin="miter" stroke-opacity="1.0" fill-opacity="1.0" stroke="rgb(0,0,0)" stroke-width="1.9999999999999996" fill="rgb(0,0,255)" stroke-linecap="butt" stroke-miterlimit="10.0">
    <path d="M 118.2540,329.5156 c 0.0000,-3.9449 -3.1980,-7.1429 -7.1429 -7.1429c -3.9449,-0.0000 -7.1429,3.1980 -7.1429 7.1429c -0.0000,3.9449 3.1980,7.1429 7.1429 7.1429c 3.9449,0.0000 7.1429,-3.1980 7.1429 -7.1429Z"/>
  </g>
  <defs>
  </defs>
  <g stroke-linejoin="miter" stroke-opacity="1.0" fill-opacity="1.0" stroke="rgb(0,0,0)" stroke-width="0.0" fill="rgb(255,0,0)" stroke-linecap="butt" stroke-miterlimit="10.0">
    <path d="M 111.3968,329.5156 c 0.0000,-0.1578 -0.1279,-0.2857 -0.2857 -0.2857c -0.1578,-0.0000 -0.2857,0.1279 -0.2857 0.2857c -0.0000,0.1578 0.1279,0.2857 0.2857 0.2857c 0.1578,0.0000 0.2857,-0.1279 0.2857 -0.2857Z"/>
  </g>
  <defs>
  </defs>
  <g stroke-linejoin="miter" stroke-opacity="1.0" fill-opacity="1.0" stroke="rgb(0,0,0)" stroke-width="1.9999999999999996" fill="rgb(0,0,255)" stroke-linecap="butt" stroke-miterlimit="10.0">
    <path d="M 78.5714,333.6207 c 0.0000,-3.9449 -3.1980,-7.1429 -7.1429 -7.1429c -3.9449,-0.0000 -7.1429,3.1980 -7.1429 7.1429c -0.0000,3.9449 3.1980,7.1429 7.1429 7.1429c 3.9449,0.0000 7.1429,-3.1980 7.1429 -7.1429Z"/>
  </g>
  <defs>
  </defs>
  <g stroke-linejoin="miter" stroke-opacity="1.0" fill-opacity="1.0" stroke="rgb(0,0,0)" stroke-width="0.0" fill="rgb(255,0,0)" stroke-linecap="butt" stroke-miterlimit="10.0">
    <path d="M 71.7143,333.6207 c 0.0000,-0.1578 -0.1279,-0.2857 -0.2857 -0.2857c -0.1578,-0.0000 -0.2857,0.1279 -0.2857 0.2857c -0.0000,0.1578 0.1279,0.2857 0.2857 0.2857c 0.1578,0.0000 0.2857,-0.1279 0.2857 -0.2857Z"/>
  </g>
  <defs>
  </defs>
  <g stroke-linejoin="miter" stroke-opacity="1.0" fill-opacity="1.0" stroke="rgb(0,0,0)" stroke-width="1.9999999999999996" fill="rgb(0,0,255)" stroke-linecap="butt" stroke-miterlimit="10.0">
    <path d="M 435.7143,399.3021 c 0.0000,-3.9449 -3.1980,-7.1429 -7.1429 -7.1429c -3.9449,-0.0000 -7.1429,3.1980 -7.1429 7.1429c -0.0000,3.9449 3.1980,7.1429 7.1429 7.1429c 3.9449,0.0000 7.1429,-3.1980 7.1429 -7.1429Z"/>
  </g>
  <defs>
  </defs>
  <g stroke-linejoin="miter" stroke-opacity="1.0" fill-opacity="1.0" stroke="rgb(0,0,0)" stroke-width="0.0" fill="rgb(255,0,0)" stroke-linecap="butt" stroke-miterlimit="10.0">
    <path d="M 428.8571,399.3021 c 0.0000,-0.1578 -0.1279,-0.2857 -0.2857 -0.2857c -0.1578,-0.0000 -0.2857,0.1279 -0.2857 0.2857c -0.0000,0.1578 0.1279,0.2857 0.2857 0.2857c 0.1578,0.0000 0.2857,-0.1279 0.2857 -0.2857Z"/>
  </g>
  <defs>
  </defs>
  <g stroke-linejoin="miter" stroke-opacity="1.0" fill-opacity="1.0" stroke="rgb(0,0,0)" stroke-width="1.9999999999999996" fill="rgb(0,0,255)" stroke-linecap="butt" stroke-miterlimit="10.0">
    <path d="M 396.0317,370.5665 c 0.0000,-3.9449 -3.1980,-7.1429 -7.1429 -7.1429c -3.9449,-0.0000 -7.1429,3.1980 -7.1429 7.1429c -0.0000,3.9449 3.1980,7.1429 7.1429 7.1429c 3.9449,0.0000 7.1429,-3.1980 7.1429 -7.1429Z"/>
  </g>
  <defs>
  </defs>
  <g stroke-linejoin="miter" stroke-opacity="1.0" fill-opacity="1.0" stroke="rgb(0,0,0)" stroke-width="0.0" fill="rgb(255,0,0)" stroke-linecap="butt" stroke-miterlimit="10.0">
    <path d="M 389.1746,370.5665 c 0.0000,-0.1578 -0.1279,-0.2857 -0.2857 -0.2857c -0.1578,-0.0000 -0.2857,0.1279 -0.2857 0.2857c -0.0000,0.1578 0.1279,0.2857 0.2857 0.2857c 0.1578,0.0000 0.2857,-0.1279 0.2857 -0.2857Z"/>
  </g>
  <defs>
  </defs>
  <g stroke-linejoin="miter" stroke-opacity="1.0" fill-opacity="1.0" stroke="rgb(0,0,0)" stroke-width="1.9999999999999996" fill="rgb(0,0,255)" stroke-linecap="butt" stroke-miterlimit="10.0">
    <path d="M 356.3492,329.5156 c 0.0000,-3.9449 -3.1980,-7.1429 -7.1429 -7.1429c -3.9449,-0.0000 -7.1429,3.1980 -7.1429 7.1429c -0.0000,3.9449 3.1980,7.1429 7.1429 7.1429c 3.9449,0.0000 7.1429,-3.1980 7.1429 -7.1429Z"/>
  </g>
  <defs>
  </defs>
  <g stroke-linejoin="miter" stroke-opacity="1.0" fill-opacity="1.0" stroke="rgb(0,0,0)" stroke-width="0.0" fill="rgb(255,0,0)" stroke-linecap="butt" stroke-miterlimit="10.0">
    <path d="M 349.4921,329.5156 c 0.0000,-0.1578 -0.1279,-0.2857 -0.2857 -0.2857c -0.1578,-0.0000 -0.2857,0.1279 -0.2857 0.2857c -0.0000,0.1578 0.1279,0.2857 0.2857 0.2857c 0.1578,0.0000 0.2857,-0.1279 0.2857 -0.2857Z"/>
  </g>
  <defs>
  </defs>
  <g stroke-linejoin="miter" stroke-opacity="1.0" fill-opacity="1.0" stroke="rgb(0,0,0)" stroke-width="1.9999999999999996" fill="rgb(0,0,255)" stroke-linecap="butt" stroke-miterlimit="10.0">
    <path d="M 316.6667,247.4138 c 0.0000,-3.9449 -3.1980,-7.1429 -7.1429 -7.1429c -3.9449,-0.0000 -7.1429,3.1980 -7.1429 7.1429c -0.0000,3.9449 3.1980,7.1429 7.1429 7.1429c 3.9449,0.0000 7.1429,-3.1980 7.1429 -7.1429Z"/>
  </g>
  <defs>
  </defs>
  <g stroke-linejoin="miter" stroke-opacity="1.0" fill-opacity="1.0" stroke="rgb(0,0,0)" stroke-width="0.0" fill="rgb(255,0,0)" stroke-linecap="butt" stroke-miterlimit="10.0">
    <path d="M 309.8095,247.4138 c 0.0000,-0.1578 -0.1279,-0.2857 -0.2857 -0.2857c -0.1578,-0.0000 -0.2857,0.1279 -0.2857 0.2857c -0.0000,0.1578 0.1279,0.2857 0.2857 0.2857c 0.1578,0.0000 0.2857,-0.1279 0.2857 -0.2857Z"/>
  </g>
  <defs>
  </defs>
  <g stroke-linejoin="miter" stroke-opacity="1.0" fill-opacity="1.0" stroke="rgb(0,0,0)" stroke-width="1.9999999999999996" fill="rgb(0,0,255)" stroke-linecap="butt" stroke-miterlimit="10.0">
    <path d="M 276.9841,206.3629 c 0.0000,-3.9449 -3.1980,-7.1429 -7.1429 -7.1429c -3.9449,-0.0000 -7.1429,3.1980 -7.1429 7.1429c -0.0000,3.9449 3.1980,7.1429 7.1429 7.1429c 3.9449,0.0000 7.1429,-3.1980 7.1429 -7.1429Z"/>
  </g>
  <defs>
  </defs>
  <g stroke-linejoin="miter" stroke-opacity="1.0" fill-opacity="1.0" stroke="rgb(0,0,0)" stroke-width="0.0" fill="rgb(255,0,0)" stroke-linecap="butt" stroke-miterlimit="10.0">
    <path d="M 270.1270,206.3629 c 0.0000,-0.1578 -0.1279,-0.2857 -0.2857 -0.2857c -0.1578,-0.0000 -0.2857,0.1279 -0.2857 0.2857c -0.0000,0.1578 0.1279,0.2857 0.2857 0.2857c 0.1578,0.0000 0.2857,-0.1279 0.2857 -0.2857Z"/>
  </g>
  <defs>
  </defs>
  <g stroke-linejoin="miter" stroke-opacity="1.0" fill-opacity="1.0" stroke="rgb(0,0,0)" stroke-width="1.9999999999999996" fill="rgb(0,0,255)" stroke-linecap="butt" stroke-miterlimit="10.0">
    <path d="M 237.3016,165.3120 c 0.0000,-3.9449 -3.1980,-7.1429 -7.1429 -7.1429c -3.9449,-0.0000 -7.1429,3.1980 -7.1429 7.1429c -0.0000,3.9449 3.1980,7.1429 7.1429 7.1429c 3.9449,0.0000 7.1429,-3.1980 7.1429 -7.1429Z"/>
  </g>
  <defs>
  </defs>
  <g stroke-linejoin="miter" stroke-opacity="1.0" fill-opacity="1.0" stroke="rgb(0,0,0)" stroke-width="0.0" fill="rgb(255,0,0)" stroke-linecap="butt" stroke-miterlimit="10.0">
    <path d="M 230.4444,165.3120 c 0.0000,-0.1578 -0.1279,-0.2857 -0.2857 -0.2857c -0.1578,-0.0000 -0.2857,0.1279 -0.2857 0.2857c -0.0000,0.1578 0.1279,0.2857 0.2857 0.2857c 0.1578,0.0000 0.2857,-0.1279 0.2857 -0.2857Z"/>
  </g>
  <defs>
  </defs>
  <g stroke-linejoin="miter" stroke-opacity="1.0" fill-opacity="1.0" stroke="rgb(0,0,0)" stroke-width="1.9999999999999996" fill="rgb(0,0,255)" stroke-linecap="butt" stroke-miterlimit="10.0">
    <path d="M 197.6190,288.4647 c 0.0000,-3.9449 -3.1980,-7.1429 -7.1429 -7.1429c -3.9449,-0.0000 -7.1429,3.1980 -7.1429 7.1429c -0.0000,3.9449 3.1980,7.1429 7.1429 7.1429c 3.9449,0.0000 7.1429,-3.1980 7.1429 -7.1429Z"/>
  </g>
  <defs>
  </defs>
  <g stroke-linejoin="miter" stroke-opacity="1.0" fill-opacity="1.0" stroke="rgb(0,0,0)" stroke-width="0.0" fill="rgb(255,0,0)" stroke-linecap="butt" stroke-miterlimit="10.0">
    <path d="M 190.7619,288.4647 c 0.0000,-0.1578 -0.1279,-0.2857 -0.2857 -0.2857c -0.1578,-0.0000 -0.2857,0.1279 -0.2857 0.2857c -0.0000,0.1578 0.1279,0.2857 0.2857 0.2857c 0.1578,0.0000 0.2857,-0.1279 0.2857 -0.2857Z"/>
  </g>
  <defs>
  </defs>
  <g stroke-linejoin="miter" stroke-opacity="1.0" fill-opacity="1.0" stroke="rgb(0,0,0)" stroke-width="1.9999999999999996" fill="rgb(0,0,255)" stroke-linecap="butt" stroke-miterlimit="10.0">
    <path d="M 157.9365,329.5156 c 0.0000,-3.9449 -3.1980,-7.1429 -7.1429 -7.1429c -3.9449,-0.0000 -7.1429,3.1980 -7.1429 7.1429c -0.0000,3.9449 3.1980,7.1429 7.1429 7.1429c 3.9449,0.0000 7.1429,-3.1980 7.1429 -7.1429Z"/>
  </g>
  <defs>
  </defs>
  <g stroke-linejoin="miter" stroke-opacity="1.0" fill-opacity="1.0" stroke="rgb(0,0,0)" stroke-width="0.0" fill="rgb(255,0,0)" stroke-linecap="butt" stroke-miterlimit="10.0">
    <path d="M 151.0794,329.5156 c 0.0000,-0.1578 -0.1279,-0.2857 -0.2857 -0.2857c -0.1578,-0.0000 -0.2857,0.1279 -0.2857 0.2857c -0.0000,0.1578 0.1279,0.2857 0.2857 0.2857c 0.1578,0.0000 0.2857,-0.1279 0.2857 -0.2857Z"/>
  </g>
  <defs>
  </defs>
  <g stroke-linejoin="miter" stroke-opacity="1.0" fill-opacity="1.0" stroke="rgb(0,0,0)" stroke-width="1.9999999999999996" fill="rgb(0,0,255)" stroke-linecap="butt" stroke-miterlimit="10.0">
    <path d="M 118.2540,350.0411 c 0.0000,-3.9449 -3.1980,-7.1429 -7.1429 -7.1429c -3.9449,-0.0000 -7.1429,3.1980 -7.1429 7.1429c -0.0000,3.9449 3.1980,7.1429 7.1429 7.1429c 3.9449,0.0000 7.1429,-3.1980 7.1429 -7.1429Z"/>
  </g>
  <defs>
  </defs>
  <g stroke-linejoin="miter" stroke-opacity="1.0" fill-opacity="1.0" stroke="rgb(0,0,0)" stroke-width="0.0" fill="rgb(255,0,0)" stroke-linecap="butt" stroke-miterlimit="10.0">
    <path d="M 111.3968,350.0411 c 0.0000,-0.1578 -0.1279,-0.2857 -0.2857 -0.2857c -0.1578,-0.0000 -0.2857,0.1279 -0.2857 0.2857c -0.0000,0.1578 0.1279,0.2857 0.2857 0.2857c 0.1578,0.0000 0.2857,-0.1279 0.2857 -0.2857Z"/>
  </g>
  <defs>
  </defs>
  <g stroke-linejoin="miter" stroke-opacity="1.0" fill-opacity="1.0" stroke="rgb(0,0,0)" stroke-width="1.9999999999999996" fill="rgb(0,0,255)" stroke-linecap="butt" stroke-miterlimit="10.0">
    <path d="M 78.5714,362.3563 c 0.0000,-3.9449 -3.1980,-7.1429 -7.1429 -7.1429c -3.9449,-0.0000 -7.1429,3.1980 -7.1429 7.1429c -0.0000,3.9449 3.1980,7.1429 7.1429 7.1429c 3.9449,0.0000 7.1429,-3.1980 7.1429 -7.1429Z"/>
  </g>
  <defs>
  </defs>
  <g stroke-linejoin="miter" stroke-opacity="1.0" fill-opacity="1.0" stroke="rgb(0,0,0)" stroke-width="0.0" fill="rgb(255,0,0)" stroke-linecap="butt" stroke-miterlimit="10.0">
    <path d="M 71.7143,362.3563 c 0.0000,-0.1578 -0.1279,-0.2857 -0.2857 -0.2857c -0.1578,-0.0000 -0.2857,0.1279 -0.2857 0.2857c -0.0000,0.1578 0.1279,0.2857 0.2857 0.2857c 0.1578,0.0000 0.2857,-0.1279 0.2857 -0.2857Z"/>
  </g>
  <defs>
  </defs>
  <g stroke-linejoin="miter" stroke-opacity="1.0" fill-opacity="0.0" stroke="rgb(0,0,0)" stroke-width="0.5" fill="rgb(0,0,0)" stroke-linecap="butt" stroke-miterlimit="10.0">
    <path d="M 71.4286,399.3021 v -357.1429 "/>
  </g>
  <defs>
  </defs>
  <g stroke-linejoin="miter" stroke-opacity="1.0" fill-opacity="0.0" stroke="rgb(0,0,0)" stroke-width="0.5" fill="rgb(0,0,0)" stroke-linecap="butt" stroke-miterlimit="10.0">
    <path d="M 71.4286,399.3021 h 357.1429 "/>
  </g>
</svg>