<?xml version="1.0" encoding="UTF-8"?>
<!DOCTYPE svg PUBLIC "-//W3C//DTD SVG 1.1//EN"
    "http://www.w3.org/Graphics/SVG/1.1/DTD/svg11.dtd">
<svg xmlns="http://www.w3.org/2000/svg" height="100.0000" stroke-opacity="1" viewBox="0 0 100 100" font-size="1" width="100.0000" xmlns:xlink="http://www.w3.org/1999/xlink" stroke="rgb(0,0,0)" version="1.1">
  <defs>
  </defs>
  <defs>
  </defs>
  <g stroke-linejoin="miter" stroke-opacity="1.0" fill-opacity="0.0" stroke="rgb(0,0,0)" stroke-width="0.5" fill="rgb(0,0,0)" stroke-linecap="butt" stroke-miterlimit="10.0">
    <path d="M 1.9231,98.0769 l 9.6154,-12.0192 l 9.6154,-12.0192 l 9.6154,-12.0192 l 9.6154,-24.0385 l 9.6154,-36.0577 l 9.6154,72.1154 l 9.6154,-12.0192 l 9.6154,-12.0192 l 9.6154,-24.0385 l 9.6154,60.0962 "/>
  </g>
  <defs>
  </defs>
  <g stroke-linejoin="miter" stroke-opacity="1.0" fill-opacity="0.0" stroke="rgb(0,0,0)" stroke-width="0.5" fill="rgb(0,0,0)" stroke-linecap="butt" stroke-miterlimit="10.0">
    <path d="M 98.0769,98.0769 l -0.0000,-96.1538 h -96.1538 l -0.0000,96.1538 Z"/>
  </g>
  <defs>
  </defs>
  <g stroke-linejoin="miter" stroke-opacity="1.0" fill-opacity="1.0" stroke="rgb(0,0,0)" stroke-width="0.5" fill="rgb(0,0,255)" stroke-linecap="butt" stroke-miterlimit="10.0">
    <path d="M 100.0000,86.0577 c 0.0000,-1.0621 -0.8610,-1.9231 -1.9231 -1.9231c -1.0621,-0.0000 -1.9231,0.8610 -1.9231 1.9231c -0.0000,1.0621 0.8610,1.9231 1.9231 1.9231c 1.0621,0.0000 1.9231,-0.8610 1.9231 -1.9231Z"/>
  </g>
  <defs>
  </defs>
  <g stroke-linejoin="miter" stroke-opacity="1.0" fill-opacity="1.0" stroke="rgb(0,0,0)" stroke-width="0.0" fill="rgb(255,0,0)" stroke-linecap="butt" stroke-miterlimit="10.0">
    <path d="M 98.1538,86.0577 c 0.0000,-0.0425 -0.0344,-0.0769 -0.0769 -0.0769c -0.0425,-0.0000 -0.0769,0.0344 -0.0769 0.0769c -0.0000,0.0425 0.0344,0.0769 0.0769 0.0769c 0.0425,0.0000 0.0769,-0.0344 0.0769 -0.0769Z"/>
  </g>
  <defs>
  </defs>
  <g stroke-linejoin="miter" stroke-opacity="1.0" fill-opacity="1.0" stroke="rgb(0,0,0)" stroke-width="0.5" fill="rgb(0,0,255)" stroke-linecap="butt" stroke-miterlimit="10.0">
    <path d="M 90.3846,25.9615 c 0.0000,-1.0621 -0.8610,-1.9231 -1.9231 -1.9231c -1.0621,-0.0000 -1.9231,0.8610 -1.9231 1.9231c -0.0000,1.0621 0.8610,1.9231 1.9231 1.9231c 1.0621,0.0000 1.9231,-0.8610 1.9231 -1.9231Z"/>
  </g>
  <defs>
  </defs>
  <g stroke-linejoin="miter" stroke-opacity="1.0" fill-opacity="1.0" stroke="rgb(0,0,0)" stroke-width="0.0" fill="rgb(255,0,0)" stroke-linecap="butt" stroke-miterlimit="10.0">
    <path d="M 88.5385,25.9615 c 0.0000,-0.0425 -0.0344,-0.0769 -0.0769 -0.0769c -0.0425,-0.0000 -0.0769,0.0344 -0.0769 0.0769c -0.0000,0.0425 0.0344,0.0769 0.0769 0.0769c 0.0425,0.0000 0.0769,-0.0344 0.0769 -0.0769Z"/>
  </g>
  <defs>
  </defs>
  <g stroke-linejoin="miter" stroke-opacity="1.0" fill-opacity="1.0" stroke="rgb(0,0,0)" stroke-width="0.5" fill="rgb(0,0,255)" stroke-linecap="butt" stroke-miterlimit="10.0">
    <path d="M 80.7692,50.0000 c 0.0000,-1.0621 -0.8610,-1.9231 -1.9231 -1.9231c -1.0621,-0.0000 -1.9231,0.8610 -1.9231 1.9231c -0.0000,1.0621 0.8610,1.9231 1.9231 1.9231c 1.0621,0.0000 1.9231,-0.8610 1.9231 -1.9231Z"/>
  </g>
  <defs>
  </defs>
  <g stroke-linejoin="miter" stroke-opacity="1.0" fill-opacity="1.0" stroke="rgb(0,0,0)" stroke-width="0.0" fill="rgb(255,0,0)" stroke-linecap="butt" stroke-miterlimit="10.0">
    <path d="M 78.9231,50.0000 c 0.0000,-0.0425 -0.0344,-0.0769 -0.0769 -0.0769c -0.0425,-0.0000 -0.0769,0.0344 -0.0769 0.0769c -0.0000,0.0425 0.0344,0.0769 0.0769 0.0769c 0.0425,0.0000 0.0769,-0.0344 0.0769 -0.0769Z"/>
  </g>
  <defs>
  </defs>
  <g stroke-linejoin="miter" stroke-opacity="1.0" fill-opacity="1.0" stroke="rgb(0,0,0)" stroke-width="0.5" fill="rgb(0,0,255)" stroke-linecap="butt" stroke-miterlimit="10.0">
    <path d="M 71.1538,62.0192 c 0.0000,-1.0621 -0.8610,-1.9231 -1.9231 -1.9231c -1.0621,-0.0000 -1.9231,0.8610 -1.9231 1.9231c -0.0000,1.0621 0.8610,1.9231 1.9231 1.9231c 1.0621,0.0000 1.9231,-0.8610 1.9231 -1.9231Z"/>
  </g>
  <defs>
  </defs>
  <g stroke-linejoin="miter" stroke-opacity="1.0" fill-opacity="1.0" stroke="rgb(0,0,0)" stroke-width="0.0" fill="rgb(255,0,0)" stroke-linecap="butt" stroke-miterlimit="10.0">
    <path d="M 69.3077,62.0192 c 0.0000,-0.0425 -0.0344,-0.0769 -0.0769 -0.0769c -0.0425,-0.0000 -0.0769,0.0344 -0.0769 0.0769c -0.0000,0.0425 0.0344,0.0769 0.0769 0.0769c 0.0425,0.0000 0.0769,-0.0344 0.0769 -0.0769Z"/>
  </g>
  <defs>
  </defs>
  <g stroke-linejoin="miter" stroke-opacity="1.0" fill-opacity="1.0" stroke="rgb(0,0,0)" stroke-width="0.5" fill="rgb(0,0,255)" stroke-linecap="butt" stroke-miterlimit="10.0">
    <path d="M 61.5385,74.0385 c 0.0000,-1.0621 -0.8610,-1.9231 -1.9231 -1.9231c -1.0621,-0.0000 -1.9231,0.8610 -1.9231 1.9231c -0.0000,1.0621 0.8610,1.9231 1.9231 1.9231c 1.0621,0.0000 1.9231,-0.8610 1.9231 -1.9231Z"/>
  </g>
  <defs>
  </defs>
  <g stroke-linejoin="miter" stroke-opacity="1.0" fill-opacity="1.0" stroke="rgb(0,0,0)" stroke-width="0.0" fill="rgb(255,0,0)" stroke-linecap="butt" stroke-miterlimit="10.0">
    <path d="M 59.6923,74.0385 c 0.0000,-0.0425 -0.0344,-0.0769 -0.0769 -0.0769c -0.0425,-0.0000 -0.0769,0.0344 -0.0769 0.0769c -0.0000,0.0425 0.0344,0.0769 0.0769 0.0769c 0.0425,0.0000 0.0769,-0.0344 0.0769 -0.0769Z"/>
  </g>
  <defs>
  </defs>
  <g stroke-linejoin="miter" stroke-opacity="1.0" fill-opacity="1.0" stroke="rgb(0,0,0)" stroke-width="0.5" fill="rgb(0,0,255)" stroke-linecap="butt" stroke-miterlimit="10.0">
    <path d="M 51.9231,1.9231 c 0.0000,-1.0621 -0.8610,-1.9231 -1.9231 -1.9231c -1.0621,-0.0000 -1.9231,0.8610 -1.9231 1.9231c -0.0000,1.0621 0.8610,1.9231 1.9231 1.9231c 1.0621,0.0000 1.9231,-0.8610 1.9231 -1.9231Z"/>
  </g>
  <defs>
  </defs>
  <g stroke-linejoin="miter" stroke-opacity="1.0" fill-opacity="1.0" stroke="rgb(0,0,0)" stroke-width="0.0" fill="rgb(255,0,0)" stroke-linecap="butt" stroke-miterlimit="10.0">
    <path d="M 50.0769,1.9231 c 0.0000,-0.0425 -0.0344,-0.0769 -0.0769 -0.0769c -0.0425,-0.0000 -0.0769,0.0344 -0.0769 0.0769c -0.0000,0.0425 0.0344,0.0769 0.0769 0.0769c 0.0425,0.0000 0.0769,-0.0344 0.0769 -0.0769Z"/>
  </g>
  <defs>
  </defs>
  <g stroke-linejoin="miter" stroke-opacity="1.0" fill-opacity="1.0" stroke="rgb(0,0,0)" stroke-width="0.5" fill="rgb(0,0,255)" stroke-linecap="butt" stroke-miterlimit="10.0">
    <path d="M 42.3077,37.9808 c 0.0000,-1.0621 -0.8610,-1.9231 -1.9231 -1.9231c -1.0621,-0.0000 -1.9231,0.8610 -1.9231 1.9231c -0.0000,1.0621 0.8610,1.9231 1.9231 1.9231c 1.0621,0.0000 1.9231,-0.8610 1.9231 -1.9231Z"/>
  </g>
  <defs>
  </defs>
  <g stroke-linejoin="miter" stroke-opacity="1.0" fill-opacity="1.0" stroke="rgb(0,0,0)" stroke-width="0.0" fill="rgb(255,0,0)" stroke-linecap="butt" stroke-miterlimit="10.0">
    <path d="M 40.4615,37.9808 c 0.0000,-0.0425 -0.0344,-0.0769 -0.0769 -0.0769c -0.0425,-0.0000 -0.0769,0.0344 -0.0769 0.0769c -0.0000,0.0425 0.0344,0.0769 0.0769 0.0769c 0.0425,0.0000 0.0769,-0.0344 0.0769 -0.0769Z"/>
  </g>
  <defs>
  </defs>
  <g stroke-linejoin="miter" stroke-opacity="1.0" fill-opacity="1.0" stroke="rgb(0,0,0)" stroke-width="0.5" fill="rgb(0,0,255)" stroke-linecap="butt" stroke-miterlimit="10.0">
    <path d="M 32.6923,62.0192 c 0.0000,-1.0621 -0.8610,-1.9231 -1.9231 -1.9231c -1.0621,-0.0000 -1.9231,0.8610 -1.9231 1.9231c -0.0000,1.0621 0.8610,1.9231 1.9231 1.9231c 1.0621,0.0000 1.9231,-0.8610 1.9231 -1.9231Z"/>
  </g>
  <defs>
  </defs>
  <g stroke-linejoin="miter" stroke-opacity="1.0" fill-opacity="1.0" stroke="rgb(0,0,0)" stroke-width="0.0" fill="rgb(255,0,0)" stroke-linecap="butt" stroke-miterlimit="10.0">
    <path d="M 30.8462,62.0192 c 0.0000,-0.0425 -0.0344,-0.0769 -0.0769 -0.0769c -0.0425,-0.0000 -0.0769,0.0344 -0.0769 0.0769c -0.0000,0.0425 0.0344,0.0769 0.0769 0.0769c 0.0425,0.0000 0.0769,-0.0344 0.0769 -0.0769Z"/>
  </g>
  <defs>
  </defs>
  <g stroke-linejoin="miter" stroke-opacity="1.0" fill-opacity="1.0" stroke="rgb(0,0,0)" stroke-width="0.5" fill="rgb(0,0,255)" stroke-linecap="butt" stroke-miterlimit="10.0">
    <path d="M 23.0769,74.0385 c 0.0000,-1.0621 -0.8610,-1.9231 -1.9231 -1.9231c -1.0621,-0.0000 -1.9231,0.8610 -1.9231 1.9231c -0.0000,1.0621 0.8610,1.9231 1.9231 1.9231c 1.0621,0.0000 1.9231,-0.8610 1.9231 -1.9231Z"/>
  </g>
  <defs>
  </defs>
  <g stroke-linejoin="miter" stroke-opacity="1.0" fill-opacity="1.0" stroke="rgb(0,0,0)" stroke-width="0.0" fill="rgb(255,0,0)" stroke-linecap="butt" stroke-miterlimit="10.0">
    <path d="M 21.2308,74.0385 c 0.0000,-0.0425 -0.0344,-0.0769 -0.0769 -0.0769c -0.0425,-0.0000 -0.0769,0.0344 -0.0769 0.0769c -0.0000,0.0425 0.0344,0.0769 0.0769 0.0769c 0.0425,0.0000 0.0769,-0.0344 0.0769 -0.0769Z"/>
  </g>
  <defs>
  </defs>
  <g stroke-linejoin="miter" stroke-opacity="1.0" fill-opacity="1.0" stroke="rgb(0,0,0)" stroke-width="0.5" fill="rgb(0,0,255)" stroke-linecap="butt" stroke-miterlimit="10.0">
    <path d="M 13.4615,86.0577 c 0.0000,-1.0621 -0.8610,-1.9231 -1.9231 -1.9231c -1.0621,-0.0000 -1.9231,0.8610 -1.9231 1.9231c -0.0000,1.0621 0.8610,1.9231 1.9231 1.9231c 1.0621,0.0000 1.9231,-0.8610 1.9231 -1.9231Z"/>
  </g>
  <defs>
  </defs>
  <g stroke-linejoin="miter" stroke-opacity="1.0" fill-opacity="1.0" stroke="rgb(0,0,0)" stroke-width="0.0" fill="rgb(255,0,0)" stroke-linecap="butt" stroke-miterlimit="10.0">
    <path d="M 11.6154,86.0577 c 0.0000,-0.0425 -0.0344,-0.0769 -0.0769 -0.0769c -0.0425,-0.0000 -0.0769,0.0344 -0.0769 0.0769c -0.0000,0.0425 0.0344,0.0769 0.0769 0.0769c 0.0425,0.0000 0.0769,-0.0344 0.0769 -0.0769Z"/>
  </g>
  <defs>
  </defs>
  <g stroke-linejoin="miter" stroke-opacity="1.0" fill-opacity="1.0" stroke="rgb(0,0,0)" stroke-width="0.5" fill="rgb(0,0,255)" stroke-linecap="butt" stroke-miterlimit="10.0">
    <path d="M 3.8462,98.0769 c 0.0000,-1.0621 -0.8610,-1.9231 -1.9231 -1.9231c -1.0621,-0.0000 -1.9231,0.8610 -1.9231 1.9231c -0.0000,1.0621 0.8610,1.9231 1.9231 1.9231c 1.0621,0.0000 1.9231,-0.8610 1.9231 -1.9231Z"/>
  </g>
  <defs>
  </defs>
  <g stroke-linejoin="miter" stroke-opacity="1.0" fill-opacity="1.0" stroke="rgb(0,0,0)" stroke-width="0.0" fill="rgb(255,0,0)" stroke-linecap="butt" stroke-miterlimit="10.0">
    <path d="M 2.0000,98.0769 c 0.0000,-0.0425 -0.0344,-0.0769 -0.0769 -0.0769c -0.0425,-0.0000 -0.0769,0.0344 -0.0769 0.0769c -0.0000,0.0425 0.0344,0.0769 0.0769 0.0769c 0.0425,0.0000 0.0769,-0.0344 0.0769 -0.0769Z"/>
  </g>
</svg>