<?xml version="1.0" encoding="UTF-8"?>
<!DOCTYPE svg PUBLIC "-//W3C//DTD SVG 1.1//EN"
    "http://www.w3.org/Graphics/SVG/1.1/DTD/svg11.dtd">
<svg xmlns="http://www.w3.org/2000/svg" height="100.0000" stroke-opacity="1" viewBox="0 0 100 100" font-size="1" width="100.0000" xmlns:xlink="http://www.w3.org/1999/xlink" stroke="rgb(0,0,0)" version="1.1">
  <defs>
  </defs>
  <defs>
  </defs>
  <g stroke-linejoin="miter" stroke-opacity="1.0" fill-opacity="0.0" stroke="rgb(0,0,0)" stroke-width="0.5" fill="rgb(0,0,0)" stroke-linecap="butt" stroke-miterlimit="10.0">
    <path d="M 14.2857,85.7143 l 7.1429,-8.9286 l 7.1429,-8.9286 l 7.1429,-8.9286 l 7.1429,-17.8571 l 7.1429,-26.7857 l 7.1429,53.5714 l 7.1429,-8.9286 l 7.1429,-8.9286 l 7.1429,-17.8571 l 7.1429,44.6429 "/>
  </g>
  <defs>
  </defs>
  <g stroke-linejoin="miter" stroke-opacity="1.0" fill-opacity="0.0" stroke="rgb(0,0,0)" stroke-width="0.5" fill="rgb(0,0,0)" stroke-linecap="butt" stroke-miterlimit="10.0">
    <path d="M 100.0000,100.0000 l -0.0000,-100.0000 h -100.0000 l -0.0000,100.0000 Z"/>
  </g>
  <defs>
  </defs>
  <g stroke-linejoin="miter" stroke-opacity="1.0" fill-opacity="1.0" stroke="rgb(0,0,0)" stroke-width="0.5" fill="rgb(0,0,255)" stroke-linecap="butt" stroke-miterlimit="10.0">
    <path d="M 87.1429,76.7857 c 0.0000,-0.7890 -0.6396,-1.4286 -1.4286 -1.4286c -0.7890,-0.0000 -1.4286,0.6396 -1.4286 1.4286c -0.0000,0.7890 0.6396,1.4286 1.4286 1.4286c 0.7890,0.0000 1.4286,-0.6396 1.4286 -1.4286Z"/>
  </g>
  <defs>
  </defs>
  <g stroke-linejoin="miter" stroke-opacity="1.0" fill-opacity="1.0" stroke="rgb(0,0,0)" stroke-width="0.0" fill="rgb(255,0,0)" stroke-linecap="butt" stroke-miterlimit="10.0">
    <path d="M 85.7714,76.7857 c 0.0000,-0.0316 -0.0256,-0.0571 -0.0571 -0.0571c -0.0316,-0.0000 -0.0571,0.0256 -0.0571 0.0571c -0.0000,0.0316 0.0256,0.0571 0.0571 0.0571c 0.0316,0.0000 0.0571,-0.0256 0.0571 -0.0571Z"/>
  </g>
  <defs>
  </defs>
  <g stroke-linejoin="miter" stroke-opacity="1.0" fill-opacity="1.0" stroke="rgb(0,0,0)" stroke-width="0.5" fill="rgb(0,0,255)" stroke-linecap="butt" stroke-miterlimit="10.0">
    <path d="M 80.0000,32.1429 c 0.0000,-0.7890 -0.6396,-1.4286 -1.4286 -1.4286c -0.7890,-0.0000 -1.4286,0.6396 -1.4286 1.4286c -0.0000,0.7890 0.6396,1.4286 1.4286 1.4286c 0.7890,0.0000 1.4286,-0.6396 1.4286 -1.4286Z"/>
  </g>
  <defs>
  </defs>
  <g stroke-linejoin="miter" stroke-opacity="1.0" fill-opacity="1.0" stroke="rgb(0,0,0)" stroke-width="0.0" fill="rgb(255,0,0)" stroke-linecap="butt" stroke-miterlimit="10.0">
    <path d="M 78.6286,32.1429 c 0.0000,-0.0316 -0.0256,-0.0571 -0.0571 -0.0571c -0.0316,-0.0000 -0.0571,0.0256 -0.0571 0.0571c -0.0000,0.0316 0.0256,0.0571 0.0571 0.0571c 0.0316,0.0000 0.0571,-0.0256 0.0571 -0.0571Z"/>
  </g>
  <defs>
  </defs>
  <g stroke-linejoin="miter" stroke-opacity="1.0" fill-opacity="1.0" stroke="rgb(0,0,0)" stroke-width="0.5" fill="rgb(0,0,255)" stroke-linecap="butt" stroke-miterlimit="10.0">
    <path d="M 72.8571,50.0000 c 0.0000,-0.7890 -0.6396,-1.4286 -1.4286 -1.4286c -0.7890,-0.0000 -1.4286,0.6396 -1.4286 1.4286c -0.0000,0.7890 0.6396,1.4286 1.4286 1.4286c 0.7890,0.0000 1.4286,-0.6396 1.4286 -1.4286Z"/>
  </g>
  <defs>
  </defs>
  <g stroke-linejoin="miter" stroke-opacity="1.0" fill-opacity="1.0" stroke="rgb(0,0,0)" stroke-width="0.0" fill="rgb(255,0,0)" stroke-linecap="butt" stroke-miterlimit="10.0">
    <path d="M 71.4857,50.0000 c 0.0000,-0.0316 -0.0256,-0.0571 -0.0571 -0.0571c -0.0316,-0.0000 -0.0571,0.0256 -0.0571 0.0571c -0.0000,0.0316 0.0256,0.0571 0.0571 0.0571c 0.0316,0.0000 0.0571,-0.0256 0.0571 -0.0571Z"/>
  </g>
  <defs>
  </defs>
  <g stroke-linejoin="miter" stroke-opacity="1.0" fill-opacity="1.0" stroke="rgb(0,0,0)" stroke-width="0.5" fill="rgb(0,0,255)" stroke-linecap="butt" stroke-miterlimit="10.0">
    <path d="M 65.7143,58.9286 c 0.0000,-0.7890 -0.6396,-1.4286 -1.4286 -1.4286c -0.7890,-0.0000 -1.4286,0.6396 -1.4286 1.4286c -0.0000,0.7890 0.6396,1.4286 1.4286 1.4286c 0.7890,0.0000 1.4286,-0.6396 1.4286 -1.4286Z"/>
  </g>
  <defs>
  </defs>
  <g stroke-linejoin="miter" stroke-opacity="1.0" fill-opacity="1.0" stroke="rgb(0,0,0)" stroke-width="0.0" fill="rgb(255,0,0)" stroke-linecap="butt" stroke-miterlimit="10.0">
    <path d="M 64.3429,58.9286 c 0.0000,-0.0316 -0.0256,-0.0571 -0.0571 -0.0571c -0.0316,-0.0000 -0.0571,0.0256 -0.0571 0.0571c -0.0000,0.0316 0.0256,0.0571 0.0571 0.0571c 0.0316,0.0000 0.0571,-0.0256 0.0571 -0.0571Z"/>
  </g>
  <defs>
  </defs>
  <g stroke-linejoin="miter" stroke-opacity="1.0" fill-opacity="1.0" stroke="rgb(0,0,0)" stroke-width="0.5" fill="rgb(0,0,255)" stroke-linecap="butt" stroke-miterlimit="10.0">
    <path d="M 58.5714,67.8571 c 0.0000,-0.7890 -0.6396,-1.4286 -1.4286 -1.4286c -0.7890,-0.0000 -1.4286,0.6396 -1.4286 1.4286c -0.0000,0.7890 0.6396,1.4286 1.4286 1.4286c 0.7890,0.0000 1.4286,-0.6396 1.4286 -1.4286Z"/>
  </g>
  <defs>
  </defs>
  <g stroke-linejoin="miter" stroke-opacity="1.0" fill-opacity="1.0" stroke="rgb(0,0,0)" stroke-width="0.0" fill="rgb(255,0,0)" stroke-linecap="butt" stroke-miterlimit="10.0">
    <path d="M 57.2000,67.8571 c 0.0000,-0.0316 -0.0256,-0.0571 -0.0571 -0.0571c -0.0316,-0.0000 -0.0571,0.0256 -0.0571 0.0571c -0.0000,0.0316 0.0256,0.0571 0.0571 0.0571c 0.0316,0.0000 0.0571,-0.0256 0.0571 -0.0571Z"/>
  </g>
  <defs>
  </defs>
  <g stroke-linejoin="miter" stroke-opacity="1.0" fill-opacity="1.0" stroke="rgb(0,0,0)" stroke-width="0.5" fill="rgb(0,0,255)" stroke-linecap="butt" stroke-miterlimit="10.0">
    <path d="M 51.4286,14.2857 c 0.0000,-0.7890 -0.6396,-1.4286 -1.4286 -1.4286c -0.7890,-0.0000 -1.4286,0.6396 -1.4286 1.4286c -0.0000,0.7890 0.6396,1.4286 1.4286 1.4286c 0.7890,0.0000 1.4286,-0.6396 1.4286 -1.4286Z"/>
  </g>
  <defs>
  </defs>
  <g stroke-linejoin="miter" stroke-opacity="1.0" fill-opacity="1.0" stroke="rgb(0,0,0)" stroke-width="0.0" fill="rgb(255,0,0)" stroke-linecap="butt" stroke-miterlimit="10.0">
    <path d="M 50.0571,14.2857 c 0.0000,-0.0316 -0.0256,-0.0571 -0.0571 -0.0571c -0.0316,-0.0000 -0.0571,0.0256 -0.0571 0.0571c -0.0000,0.0316 0.0256,0.0571 0.0571 0.0571c 0.0316,0.0000 0.0571,-0.0256 0.0571 -0.0571Z"/>
  </g>
  <defs>
  </defs>
  <g stroke-linejoin="miter" stroke-opacity="1.0" fill-opacity="1.0" stroke="rgb(0,0,0)" stroke-width="0.5" fill="rgb(0,0,255)" stroke-linecap="butt" stroke-miterlimit="10.0">
    <path d="M 44.2857,41.0714 c 0.0000,-0.7890 -0.6396,-1.4286 -1.4286 -1.4286c -0.7890,-0.0000 -1.4286,0.6396 -1.4286 1.4286c -0.0000,0.7890 0.6396,1.4286 1.4286 1.4286c 0.7890,0.0000 1.4286,-0.6396 1.4286 -1.4286Z"/>
  </g>
  <defs>
  </defs>
  <g stroke-linejoin="miter" stroke-opacity="1.0" fill-opacity="1.0" stroke="rgb(0,0,0)" stroke-width="0.0" fill="rgb(255,0,0)" stroke-linecap="butt" stroke-miterlimit="10.0">
    <path d="M 42.9143,41.0714 c 0.0000,-0.0316 -0.0256,-0.0571 -0.0571 -0.0571c -0.0316,-0.0000 -0.0571,0.0256 -0.0571 0.0571c -0.0000,0.0316 0.0256,0.0571 0.0571 0.0571c 0.0316,0.0000 0.0571,-0.0256 0.0571 -0.0571Z"/>
  </g>
  <defs>
  </defs>
  <g stroke-linejoin="miter" stroke-opacity="1.0" fill-opacity="1.0" stroke="rgb(0,0,0)" stroke-width="0.5" fill="rgb(0,0,255)" stroke-linecap="butt" stroke-miterlimit="10.0">
    <path d="M 37.1429,58.9286 c 0.0000,-0.7890 -0.6396,-1.4286 -1.4286 -1.4286c -0.7890,-0.0000 -1.4286,0.6396 -1.4286 1.4286c -0.0000,0.7890 0.6396,1.4286 1.4286 1.4286c 0.7890,0.0000 1.4286,-0.6396 1.4286 -1.4286Z"/>
  </g>
  <defs>
  </defs>
  <g stroke-linejoin="miter" stroke-opacity="1.0" fill-opacity="1.0" stroke="rgb(0,0,0)" stroke-width="0.0" fill="rgb(255,0,0)" stroke-linecap="butt" stroke-miterlimit="10.0">
    <path d="M 35.7714,58.9286 c 0.0000,-0.0316 -0.0256,-0.0571 -0.0571 -0.0571c -0.0316,-0.0000 -0.0571,0.0256 -0.0571 0.0571c -0.0000,0.0316 0.0256,0.0571 0.0571 0.0571c 0.0316,0.0000 0.0571,-0.0256 0.0571 -0.0571Z"/>
  </g>
  <defs>
  </defs>
  <g stroke-linejoin="miter" stroke-opacity="1.0" fill-opacity="1.0" stroke="rgb(0,0,0)" stroke-width="0.5" fill="rgb(0,0,255)" stroke-linecap="butt" stroke-miterlimit="10.0">
    <path d="M 30.0000,67.8571 c 0.0000,-0.7890 -0.6396,-1.4286 -1.4286 -1.4286c -0.7890,-0.0000 -1.4286,0.6396 -1.4286 1.4286c -0.0000,0.7890 0.6396,1.4286 1.4286 1.4286c 0.7890,0.0000 1.4286,-0.6396 1.4286 -1.4286Z"/>
  </g>
  <defs>
  </defs>
  <g stroke-linejoin="miter" stroke-opacity="1.0" fill-opacity="1.0" stroke="rgb(0,0,0)" stroke-width="0.0" fill="rgb(255,0,0)" stroke-linecap="butt" stroke-miterlimit="10.0">
    <path d="M 28.6286,67.8571 c 0.0000,-0.0316 -0.0256,-0.0571 -0.0571 -0.0571c -0.0316,-0.0000 -0.0571,0.0256 -0.0571 0.0571c -0.0000,0.0316 0.0256,0.0571 0.0571 0.0571c 0.0316,0.0000 0.0571,-0.0256 0.0571 -0.0571Z"/>
  </g>
  <defs>
  </defs>
  <g stroke-linejoin="miter" stroke-opacity="1.0" fill-opacity="1.0" stroke="rgb(0,0,0)" stroke-width="0.5" fill="rgb(0,0,255)" stroke-linecap="butt" stroke-miterlimit="10.0">
    <path d="M 22.8571,76.7857 c 0.0000,-0.7890 -0.6396,-1.4286 -1.4286 -1.4286c -0.7890,-0.0000 -1.4286,0.6396 -1.4286 1.4286c -0.0000,0.7890 0.6396,1.4286 1.4286 1.4286c 0.7890,0.0000 1.4286,-0.6396 1.4286 -1.4286Z"/>
  </g>
  <defs>
  </defs>
  <g stroke-linejoin="miter" stroke-opacity="1.0" fill-opacity="1.0" stroke="rgb(0,0,0)" stroke-width="0.0" fill="rgb(255,0,0)" stroke-linecap="butt" stroke-miterlimit="10.0">
    <path d="M 21.4857,76.7857 c 0.0000,-0.0316 -0.0256,-0.0571 -0.0571 -0.0571c -0.0316,-0.0000 -0.0571,0.0256 -0.0571 0.0571c -0.0000,0.0316 0.0256,0.0571 0.0571 0.0571c 0.0316,0.0000 0.0571,-0.0256 0.0571 -0.0571Z"/>
  </g>
  <defs>
  </defs>
  <g stroke-linejoin="miter" stroke-opacity="1.0" fill-opacity="1.0" stroke="rgb(0,0,0)" stroke-width="0.5" fill="rgb(0,0,255)" stroke-linecap="butt" stroke-miterlimit="10.0">
    <path d="M 15.7143,85.7143 c 0.0000,-0.7890 -0.6396,-1.4286 -1.4286 -1.4286c -0.7890,-0.0000 -1.4286,0.6396 -1.4286 1.4286c -0.0000,0.7890 0.6396,1.4286 1.4286 1.4286c 0.7890,0.0000 1.4286,-0.6396 1.4286 -1.4286Z"/>
  </g>
  <defs>
  </defs>
  <g stroke-linejoin="miter" stroke-opacity="1.0" fill-opacity="1.0" stroke="rgb(0,0,0)" stroke-width="0.0" fill="rgb(255,0,0)" stroke-linecap="butt" stroke-miterlimit="10.0">
    <path d="M 14.3429,85.7143 c 0.0000,-0.0316 -0.0256,-0.0571 -0.0571 -0.0571c -0.0316,-0.0000 -0.0571,0.0256 -0.0571 0.0571c -0.0000,0.0316 0.0256,0.0571 0.0571 0.0571c 0.0316,0.0000 0.0571,-0.0256 0.0571 -0.0571Z"/>
  </g>
  <defs>
  </defs>
  <g stroke-linejoin="miter" stroke-opacity="1.0" fill-opacity="0.0" stroke="rgb(0,0,0)" stroke-width="0.5" fill="rgb(0,0,0)" stroke-linecap="butt" stroke-miterlimit="10.0">
    <path d="M 14.2857,85.7143 v -71.4286 "/>
  </g>
  <defs>
  </defs>
  <g stroke-linejoin="miter" stroke-opacity="1.0" fill-opacity="0.0" stroke="rgb(0,0,0)" stroke-width="0.5" fill="rgb(0,0,0)" stroke-linecap="butt" stroke-miterlimit="10.0">
    <path d="M 14.2857,85.7143 h 71.4286 "/>
  </g>
</svg>