<?xml version="1.0" encoding="UTF-8"?>
<!DOCTYPE svg PUBLIC "-//W3C//DTD SVG 1.1//EN"
    "http://www.w3.org/Graphics/SVG/1.1/DTD/svg11.dtd">
<svg xmlns="http://www.w3.org/2000/svg" height="100.0000" stroke-opacity="1" viewBox="0 0 100 100" font-size="1" width="100.0000" xmlns:xlink="http://www.w3.org/1999/xlink" stroke="rgb(0,0,0)" version="1.1">
  <defs>
  </defs>
  <defs>
  </defs>
  <g stroke-linejoin="miter" stroke-opacity="1.0" fill-opacity="0.0" stroke="rgb(0,0,0)" stroke-width="0.5" fill="rgb(0,0,0)" stroke-linecap="butt" stroke-miterlimit="10.0">
    <path d="M 100.0000,100.0000 l -0.0000,-100.0000 h -100.0000 l -0.0000,100.0000 Z"/>
  </g>
  <defs>
  </defs>
  <g stroke-linejoin="miter" stroke-opacity="1.0" fill-opacity="1.0" stroke="rgb(0,0,0)" stroke-width="0.5" fill="rgb(0,0,255)" stroke-linecap="butt" stroke-miterlimit="10.0">
    <path d="M 62.0000,60.0000 c 0.0000,-1.1046 -0.8954,-2.0000 -2.0000 -2.0000c -1.1046,-0.0000 -2.0000,0.8954 -2.0000 2.0000c -0.0000,1.1046 0.8954,2.0000 2.0000 2.0000c 1.1046,0.0000 2.0000,-0.8954 2.0000 -2.0000Z"/>
  </g>
  <defs>
  </defs>
  <g stroke-linejoin="miter" stroke-opacity="1.0" fill-opacity="1.0" stroke="rgb(0,0,0)" stroke-width="0.0" fill="rgb(255,0,0)" stroke-linecap="butt" stroke-miterlimit="10.0">
    <path d="M 60.0800,60.0000 c 0.0000,-0.0442 -0.0358,-0.0800 -0.0800 -0.0800c -0.0442,-0.0000 -0.0800,0.0358 -0.0800 0.0800c -0.0000,0.0442 0.0358,0.0800 0.0800 0.0800c 0.0442,0.0000 0.0800,-0.0358 0.0800 -0.0800Z"/>
  </g>
  <defs>
  </defs>
  <g stroke-linejoin="miter" stroke-opacity="1.0" fill-opacity="1.0" stroke="rgb(0,0,0)" stroke-width="0.5" fill="rgb(0,0,255)" stroke-linecap="butt" stroke-miterlimit="10.0">
    <path d="M 52.0000,40.0000 c 0.0000,-1.1046 -0.8954,-2.0000 -2.0000 -2.0000c -1.1046,-0.0000 -2.0000,0.8954 -2.0000 2.0000c -0.0000,1.1046 0.8954,2.0000 2.0000 2.0000c 1.1046,0.0000 2.0000,-0.8954 2.0000 -2.0000Z"/>
  </g>
  <defs>
  </defs>
  <g stroke-linejoin="miter" stroke-opacity="1.0" fill-opacity="1.0" stroke="rgb(0,0,0)" stroke-width="0.0" fill="rgb(255,0,0)" stroke-linecap="butt" stroke-miterlimit="10.0">
    <path d="M 50.0800,40.0000 c 0.0000,-0.0442 -0.0358,-0.0800 -0.0800 -0.0800c -0.0442,-0.0000 -0.0800,0.0358 -0.0800 0.0800c -0.0000,0.0442 0.0358,0.0800 0.0800 0.0800c 0.0442,0.0000 0.0800,-0.0358 0.0800 -0.0800Z"/>
  </g>
  <defs>
  </defs>
  <g stroke-linejoin="miter" stroke-opacity="1.0" fill-opacity="1.0" stroke="rgb(0,0,0)" stroke-width="0.5" fill="rgb(0,0,255)" stroke-linecap="butt" stroke-miterlimit="10.0">
    <path d="M 42.0000,40.0000 c 0.0000,-1.1046 -0.8954,-2.0000 -2.0000 -2.0000c -1.1046,-0.0000 -2.0000,0.8954 -2.0000 2.0000c -0.0000,1.1046 0.8954,2.0000 2.0000 2.0000c 1.1046,0.0000 2.0000,-0.8954 2.0000 -2.0000Z"/>
  </g>
  <defs>
  </defs>
  <g stroke-linejoin="miter" stroke-opacity="1.0" fill-opacity="1.0" stroke="rgb(0,0,0)" stroke-width="0.0" fill="rgb(255,0,0)" stroke-linecap="butt" stroke-miterlimit="10.0">
    <path d="M 40.0800,40.0000 c 0.0000,-0.0442 -0.0358,-0.0800 -0.0800 -0.0800c -0.0442,-0.0000 -0.0800,0.0358 -0.0800 0.0800c -0.0000,0.0442 0.0358,0.0800 0.0800 0.0800c 0.0442,0.0000 0.0800,-0.0358 0.0800 -0.0800Z"/>
  </g>
  <defs>
  </defs>
  <g stroke-linejoin="miter" stroke-opacity="1.0" fill-opacity="1.0" stroke="rgb(0,0,0)" stroke-width="0.5" fill="rgb(0,0,255)" stroke-linecap="butt" stroke-miterlimit="10.0">
    <path d="M 32.0000,60.0000 c 0.0000,-1.1046 -0.8954,-2.0000 -2.0000 -2.0000c -1.1046,-0.0000 -2.0000,0.8954 -2.0000 2.0000c -0.0000,1.1046 0.8954,2.0000 2.0000 2.0000c 1.1046,0.0000 2.0000,-0.8954 2.0000 -2.0000Z"/>
  </g>
  <defs>
  </defs>
  <g stroke-linejoin="miter" stroke-opacity="1.0" fill-opacity="1.0" stroke="rgb(0,0,0)" stroke-width="0.0" fill="rgb(255,0,0)" stroke-linecap="butt" stroke-miterlimit="10.0">
    <path d="M 30.0800,60.0000 c 0.0000,-0.0442 -0.0358,-0.0800 -0.0800 -0.0800c -0.0442,-0.0000 -0.0800,0.0358 -0.0800 0.0800c -0.0000,0.0442 0.0358,0.0800 0.0800 0.0800c 0.0442,0.0000 0.0800,-0.0358 0.0800 -0.0800Z"/>
  </g>
  <defs>
  </defs>
  <g stroke-linejoin="miter" stroke-opacity="1.0" fill-opacity="1.0" stroke="rgb(0,0,0)" stroke-width="0.5" fill="rgb(0,0,255)" stroke-linecap="butt" stroke-miterlimit="10.0">
    <path d="M 22.0000,80.0000 c 0.0000,-1.1046 -0.8954,-2.0000 -2.0000 -2.0000c -1.1046,-0.0000 -2.0000,0.8954 -2.0000 2.0000c -0.0000,1.1046 0.8954,2.0000 2.0000 2.0000c 1.1046,0.0000 2.0000,-0.8954 2.0000 -2.0000Z"/>
  </g>
  <defs>
  </defs>
  <g stroke-linejoin="miter" stroke-opacity="1.0" fill-opacity="1.0" stroke="rgb(0,0,0)" stroke-width="0.0" fill="rgb(255,0,0)" stroke-linecap="butt" stroke-miterlimit="10.0">
    <path d="M 20.0800,80.0000 c 0.0000,-0.0442 -0.0358,-0.0800 -0.0800 -0.0800c -0.0442,-0.0000 -0.0800,0.0358 -0.0800 0.0800c -0.0000,0.0442 0.0358,0.0800 0.0800 0.0800c 0.0442,0.0000 0.0800,-0.0358 0.0800 -0.0800Z"/>
  </g>
</svg>