<?xml version="1.0" encoding="UTF-8"?>
<!DOCTYPE svg PUBLIC "-//W3C//DTD SVG 1.1//EN"
    "http://www.w3.org/Graphics/SVG/1.1/DTD/svg11.dtd">
<svg xmlns="http://www.w3.org/2000/svg" height="500.0000" stroke-opacity="1" viewBox="0 0 500 500" font-size="1" width="500.0000" xmlns:xlink="http://www.w3.org/1999/xlink" stroke="rgb(0,0,0)" version="1.1">
  <defs>
  </defs>
  <defs>
  </defs>
  <g stroke-linejoin="miter" stroke-opacity="1.0" fill-opacity="0.0" stroke="rgb(0,0,0)" stroke-width="0.5" fill="rgb(0,0,0)" stroke-linecap="butt" stroke-miterlimit="10.0">
    <path d="M 488.6364,477.2727 l -22.7273,0.0000 "/>
  </g>
  <defs>
  </defs>
  <g stroke-linejoin="miter" stroke-opacity="1.0" fill-opacity="1.0" stroke="rgb(0,0,0)" stroke-width="0.0" fill="rgb(255,0,0)" stroke-linecap="butt" stroke-miterlimit="10.0">
    <path d="M 477.2727,477.7273 c 0.2510,-0.0000 0.4545,-0.2035 0.4545 -0.4545c 0.0000,-0.2510 -0.2035,-0.4545 -0.4545 -0.4545c -0.2510,-0.0000 -0.4545,0.2035 -0.4545 0.4545c -0.0000,0.2510 0.2035,0.4545 0.4545 0.4545Z"/>
  </g>
  <defs>
  </defs>
  <g stroke-linejoin="miter" stroke-opacity="1.0" fill-opacity="0.0" stroke="rgb(0,0,0)" stroke-width="0.5" fill="rgb(0,0,0)" stroke-linecap="butt" stroke-miterlimit="10.0">
    <path d="M 488.6364,431.8182 l -22.7273,0.0000 "/>
  </g>
  <defs>
  </defs>
  <g stroke-linejoin="miter" stroke-opacity="1.0" fill-opacity="1.0" stroke="rgb(0,0,0)" stroke-width="0.0" fill="rgb(255,0,0)" stroke-linecap="butt" stroke-miterlimit="10.0">
    <path d="M 477.2727,432.2727 c 0.2510,-0.0000 0.4545,-0.2035 0.4545 -0.4545c 0.0000,-0.2510 -0.2035,-0.4545 -0.4545 -0.4545c -0.2510,-0.0000 -0.4545,0.2035 -0.4545 0.4545c -0.0000,0.2510 0.2035,0.4545 0.4545 0.4545Z"/>
  </g>
  <defs>
  </defs>
  <g stroke-linejoin="miter" stroke-opacity="1.0" fill-opacity="0.0" stroke="rgb(0,0,0)" stroke-width="0.5" fill="rgb(0,0,0)" stroke-linecap="butt" stroke-miterlimit="10.0">
    <path d="M 488.6364,386.3636 l -22.7273,0.0000 "/>
  </g>
  <defs>
  </defs>
  <g stroke-linejoin="miter" stroke-opacity="1.0" fill-opacity="1.0" stroke="rgb(0,0,0)" stroke-width="0.0" fill="rgb(255,0,0)" stroke-linecap="butt" stroke-miterlimit="10.0">
    <path d="M 477.2727,386.8182 c 0.2510,-0.0000 0.4545,-0.2035 0.4545 -0.4545c 0.0000,-0.2510 -0.2035,-0.4545 -0.4545 -0.4545c -0.2510,-0.0000 -0.4545,0.2035 -0.4545 0.4545c -0.0000,0.2510 0.2035,0.4545 0.4545 0.4545Z"/>
  </g>
  <defs>
  </defs>
  <g stroke-linejoin="miter" stroke-opacity="1.0" fill-opacity="0.0" stroke="rgb(0,0,0)" stroke-width="0.5" fill="rgb(0,0,0)" stroke-linecap="butt" stroke-miterlimit="10.0">
    <path d="M 488.6364,340.9091 l -22.7273,0.0000 "/>
  </g>
  <defs>
  </defs>
  <g stroke-linejoin="miter" stroke-opacity="1.0" fill-opacity="1.0" stroke="rgb(0,0,0)" stroke-width="0.0" fill="rgb(255,0,0)" stroke-linecap="butt" stroke-miterlimit="10.0">
    <path d="M 477.2727,341.3636 c 0.2510,-0.0000 0.4545,-0.2035 0.4545 -0.4545c 0.0000,-0.2510 -0.2035,-0.4545 -0.4545 -0.4545c -0.2510,-0.0000 -0.4545,0.2035 -0.4545 0.4545c -0.0000,0.2510 0.2035,0.4545 0.4545 0.4545Z"/>
  </g>
  <defs>
  </defs>
  <g stroke-linejoin="miter" stroke-opacity="1.0" fill-opacity="0.0" stroke="rgb(0,0,0)" stroke-width="0.5" fill="rgb(0,0,0)" stroke-linecap="butt" stroke-miterlimit="10.0">
    <path d="M 488.6364,295.4545 l -22.7273,0.0000 "/>
  </g>
  <defs>
  </defs>
  <g stroke-linejoin="miter" stroke-opacity="1.0" fill-opacity="1.0" stroke="rgb(0,0,0)" stroke-width="0.0" fill="rgb(255,0,0)" stroke-linecap="butt" stroke-miterlimit="10.0">
    <path d="M 477.2727,295.9091 c 0.2510,-0.0000 0.4545,-0.2035 0.4545 -0.4545c 0.0000,-0.2510 -0.2035,-0.4545 -0.4545 -0.4545c -0.2510,-0.0000 -0.4545,0.2035 -0.4545 0.4545c -0.0000,0.2510 0.2035,0.4545 0.4545 0.4545Z"/>
  </g>
  <defs>
  </defs>
  <g stroke-linejoin="miter" stroke-opacity="1.0" fill-opacity="0.0" stroke="rgb(0,0,0)" stroke-width="0.5" fill="rgb(0,0,0)" stroke-linecap="butt" stroke-miterlimit="10.0">
    <path d="M 488.6364,250.0000 l -22.7273,0.0000 "/>
  </g>
  <defs>
  </defs>
  <g stroke-linejoin="miter" stroke-opacity="1.0" fill-opacity="1.0" stroke="rgb(0,0,0)" stroke-width="0.0" fill="rgb(255,0,0)" stroke-linecap="butt" stroke-miterlimit="10.0">
    <path d="M 477.2727,250.4545 c 0.2510,-0.0000 0.4545,-0.2035 0.4545 -0.4545c 0.0000,-0.2510 -0.2035,-0.4545 -0.4545 -0.4545c -0.2510,-0.0000 -0.4545,0.2035 -0.4545 0.4545c -0.0000,0.2510 0.2035,0.4545 0.4545 0.4545Z"/>
  </g>
  <defs>
  </defs>
  <g stroke-linejoin="miter" stroke-opacity="1.0" fill-opacity="0.0" stroke="rgb(0,0,0)" stroke-width="0.5" fill="rgb(0,0,0)" stroke-linecap="butt" stroke-miterlimit="10.0">
    <path d="M 488.6364,204.5455 l -22.7273,0.0000 "/>
  </g>
  <defs>
  </defs>
  <g stroke-linejoin="miter" stroke-opacity="1.0" fill-opacity="1.0" stroke="rgb(0,0,0)" stroke-width="0.0" fill="rgb(255,0,0)" stroke-linecap="butt" stroke-miterlimit="10.0">
    <path d="M 477.2727,205.0000 c 0.2510,-0.0000 0.4545,-0.2035 0.4545 -0.4545c 0.0000,-0.2510 -0.2035,-0.4545 -0.4545 -0.4545c -0.2510,-0.0000 -0.4545,0.2035 -0.4545 0.4545c -0.0000,0.2510 0.2035,0.4545 0.4545 0.4545Z"/>
  </g>
  <defs>
  </defs>
  <g stroke-linejoin="miter" stroke-opacity="1.0" fill-opacity="0.0" stroke="rgb(0,0,0)" stroke-width="0.5" fill="rgb(0,0,0)" stroke-linecap="butt" stroke-miterlimit="10.0">
    <path d="M 488.6364,159.0909 l -22.7273,0.0000 "/>
  </g>
  <defs>
  </defs>
  <g stroke-linejoin="miter" stroke-opacity="1.0" fill-opacity="1.0" stroke="rgb(0,0,0)" stroke-width="0.0" fill="rgb(255,0,0)" stroke-linecap="butt" stroke-miterlimit="10.0">
    <path d="M 477.2727,159.5455 c 0.2510,-0.0000 0.4545,-0.2035 0.4545 -0.4545c 0.0000,-0.2510 -0.2035,-0.4545 -0.4545 -0.4545c -0.2510,-0.0000 -0.4545,0.2035 -0.4545 0.4545c -0.0000,0.2510 0.2035,0.4545 0.4545 0.4545Z"/>
  </g>
  <defs>
  </defs>
  <g stroke-linejoin="miter" stroke-opacity="1.0" fill-opacity="0.0" stroke="rgb(0,0,0)" stroke-width="0.5" fill="rgb(0,0,0)" stroke-linecap="butt" stroke-miterlimit="10.0">
    <path d="M 488.6364,113.6364 l -22.7273,0.0000 "/>
  </g>
  <defs>
  </defs>
  <g stroke-linejoin="miter" stroke-opacity="1.0" fill-opacity="1.0" stroke="rgb(0,0,0)" stroke-width="0.0" fill="rgb(255,0,0)" stroke-linecap="butt" stroke-miterlimit="10.0">
    <path d="M 477.2727,114.0909 c 0.2510,-0.0000 0.4545,-0.2035 0.4545 -0.4545c 0.0000,-0.2510 -0.2035,-0.4545 -0.4545 -0.4545c -0.2510,-0.0000 -0.4545,0.2035 -0.4545 0.4545c -0.0000,0.2510 0.2035,0.4545 0.4545 0.4545Z"/>
  </g>
  <defs>
  </defs>
  <g stroke-linejoin="miter" stroke-opacity="1.0" fill-opacity="0.0" stroke="rgb(0,0,0)" stroke-width="0.5" fill="rgb(0,0,0)" stroke-linecap="butt" stroke-miterlimit="10.0">
    <path d="M 488.6364,68.1818 l -22.7273,0.0000 "/>
  </g>
  <defs>
  </defs>
  <g stroke-linejoin="miter" stroke-opacity="1.0" fill-opacity="1.0" stroke="rgb(0,0,0)" stroke-width="0.0" fill="rgb(255,0,0)" stroke-linecap="butt" stroke-miterlimit="10.0">
    <path d="M 477.2727,68.6364 c 0.2510,-0.0000 0.4545,-0.2035 0.4545 -0.4545c 0.0000,-0.2510 -0.2035,-0.4545 -0.4545 -0.4545c -0.2510,-0.0000 -0.4545,0.2035 -0.4545 0.4545c -0.0000,0.2510 0.2035,0.4545 0.4545 0.4545Z"/>
  </g>
  <defs>
  </defs>
  <g stroke-linejoin="miter" stroke-opacity="1.0" fill-opacity="0.0" stroke="rgb(0,0,0)" stroke-width="0.5" fill="rgb(0,0,0)" stroke-linecap="butt" stroke-miterlimit="10.0">
    <path d="M 488.6364,22.7273 l -22.7273,0.0000 "/>
  </g>
  <defs>
  </defs>
  <g stroke-linejoin="miter" stroke-opacity="1.0" fill-opacity="1.0" stroke="rgb(0,0,0)" stroke-width="0.0" fill="rgb(255,0,0)" stroke-linecap="butt" stroke-miterlimit="10.0">
    <path d="M 477.2727,23.1818 c 0.2510,-0.0000 0.4545,-0.2035 0.4545 -0.4545c 0.0000,-0.2510 -0.2035,-0.4545 -0.4545 -0.4545c -0.2510,-0.0000 -0.4545,0.2035 -0.4545 0.4545c -0.0000,0.2510 0.2035,0.4545 0.4545 0.4545Z"/>
  </g>
  <defs>
  </defs>
  <g stroke-linejoin="miter" stroke-opacity="1.0" fill-opacity="0.0" stroke="rgb(0,0,0)" stroke-width="0.5" fill="rgb(0,0,0)" stroke-linecap="butt" stroke-miterlimit="10.0">
    <path d="M 500.0000,477.2727 l -45.4545,0.0000 "/>
  </g>
  <defs>
  </defs>
  <g stroke-linejoin="miter" stroke-opacity="1.0" fill-opacity="1.0" stroke="rgb(0,0,0)" stroke-width="0.0" fill="rgb(255,0,0)" stroke-linecap="butt" stroke-miterlimit="10.0">
    <path d="M 477.2727,478.1818 c 0.5021,-0.0000 0.9091,-0.4070 0.9091 -0.9091c 0.0000,-0.5021 -0.4070,-0.9091 -0.9091 -0.9091c -0.5021,-0.0000 -0.9091,0.4070 -0.9091 0.9091c -0.0000,0.5021 0.4070,0.9091 0.9091 0.9091Z"/>
  </g>
  <defs>
  </defs>
  <g stroke-linejoin="miter" stroke-opacity="1.0" fill-opacity="0.0" stroke="rgb(0,0,0)" stroke-width="0.5" fill="rgb(0,0,0)" stroke-linecap="butt" stroke-miterlimit="10.0">
    <path d="M 500.0000,22.7273 l -45.4545,0.0000 "/>
  </g>
  <defs>
  </defs>
  <g stroke-linejoin="miter" stroke-opacity="1.0" fill-opacity="1.0" stroke="rgb(0,0,0)" stroke-width="0.0" fill="rgb(255,0,0)" stroke-linecap="butt" stroke-miterlimit="10.0">
    <path d="M 477.2727,23.6364 c 0.5021,-0.0000 0.9091,-0.4070 0.9091 -0.9091c 0.0000,-0.5021 -0.4070,-0.9091 -0.9091 -0.9091c -0.5021,-0.0000 -0.9091,0.4070 -0.9091 0.9091c -0.0000,0.5021 0.4070,0.9091 0.9091 0.9091Z"/>
  </g>
  <defs>
  </defs>
  <g stroke-linejoin="miter" stroke-opacity="1.0" fill-opacity="0.0" stroke="rgb(0,0,0)" stroke-width="0.5" fill="rgb(0,0,0)" stroke-linecap="butt" stroke-miterlimit="10.0">
    <path d="M 477.2727,22.7273 l 0.0000,454.5455 "/>
  </g>
  <defs>
  </defs>
  <g stroke-linejoin="miter" stroke-opacity="1.0" fill-opacity="1.0" stroke="rgb(0,0,0)" stroke-width="0.0" fill="rgb(255,0,0)" stroke-linecap="butt" stroke-miterlimit="10.0">
    <path d="M 477.2727,259.0909 c 5.0208,-0.0000 9.0909,-4.0701 9.0909 -9.0909c 0.0000,-5.0208 -4.0701,-9.0909 -9.0909 -9.0909c -5.0208,-0.0000 -9.0909,4.0701 -9.0909 9.0909c -0.0000,5.0208 4.0701,9.0909 9.0909 9.0909Z"/>
  </g>
  <defs>
  </defs>
  <g stroke-linejoin="miter" stroke-opacity="1.0" fill-opacity="1.0" stroke="rgb(0,0,0)" stroke-width="0.0" fill="rgb(255,0,0)" stroke-linecap="butt" stroke-miterlimit="10.0">
    <path d="M 486.4000,250.0000 c 0.0000,-5.0409 -4.0864,-9.1273 -9.1273 -9.1273c -5.0409,-0.0000 -9.1273,4.0864 -9.1273 9.1273c -0.0000,5.0409 4.0864,9.1273 9.1273 9.1273c 5.0409,0.0000 9.1273,-4.0864 9.1273 -9.1273Z"/>
  </g>
  <defs>
  </defs>
  <g stroke-linejoin="miter" stroke-opacity="1.0" fill-opacity="0.0" stroke="rgb(0,0,0)" stroke-width="0.5" fill="rgb(0,0,0)" stroke-linecap="butt" stroke-miterlimit="10.0">
    <path d="M 11.3636,22.7273 l 22.7273,0.0000 "/>
  </g>
  <defs>
  </defs>
  <g stroke-linejoin="miter" stroke-opacity="1.0" fill-opacity="1.0" stroke="rgb(0,0,0)" stroke-width="0.0" fill="rgb(255,0,0)" stroke-linecap="butt" stroke-miterlimit="10.0">
    <path d="M 22.7273,22.2727 c -0.2510,-0.0000 -0.4545,0.2035 -0.4545 0.4545c -0.0000,0.2510 0.2035,0.4545 0.4545 0.4545c 0.2510,0.0000 0.4545,-0.2035 0.4545 -0.4545c 0.0000,-0.2510 -0.2035,-0.4545 -0.4545 -0.4545Z"/>
  </g>
  <defs>
  </defs>
  <g stroke-linejoin="miter" stroke-opacity="1.0" fill-opacity="0.0" stroke="rgb(0,0,0)" stroke-width="0.5" fill="rgb(0,0,0)" stroke-linecap="butt" stroke-miterlimit="10.0">
    <path d="M 11.3636,68.1818 l 22.7273,0.0000 "/>
  </g>
  <defs>
  </defs>
  <g stroke-linejoin="miter" stroke-opacity="1.0" fill-opacity="1.0" stroke="rgb(0,0,0)" stroke-width="0.0" fill="rgb(255,0,0)" stroke-linecap="butt" stroke-miterlimit="10.0">
    <path d="M 22.7273,67.7273 c -0.2510,-0.0000 -0.4545,0.2035 -0.4545 0.4545c -0.0000,0.2510 0.2035,0.4545 0.4545 0.4545c 0.2510,0.0000 0.4545,-0.2035 0.4545 -0.4545c 0.0000,-0.2510 -0.2035,-0.4545 -0.4545 -0.4545Z"/>
  </g>
  <defs>
  </defs>
  <g stroke-linejoin="miter" stroke-opacity="1.0" fill-opacity="0.0" stroke="rgb(0,0,0)" stroke-width="0.5" fill="rgb(0,0,0)" stroke-linecap="butt" stroke-miterlimit="10.0">
    <path d="M 11.3636,113.6364 l 22.7273,0.0000 "/>
  </g>
  <defs>
  </defs>
  <g stroke-linejoin="miter" stroke-opacity="1.0" fill-opacity="1.0" stroke="rgb(0,0,0)" stroke-width="0.0" fill="rgb(255,0,0)" stroke-linecap="butt" stroke-miterlimit="10.0">
    <path d="M 22.7273,113.1818 c -0.2510,-0.0000 -0.4545,0.2035 -0.4545 0.4545c -0.0000,0.2510 0.2035,0.4545 0.4545 0.4545c 0.2510,0.0000 0.4545,-0.2035 0.4545 -0.4545c 0.0000,-0.2510 -0.2035,-0.4545 -0.4545 -0.4545Z"/>
  </g>
  <defs>
  </defs>
  <g stroke-linejoin="miter" stroke-opacity="1.0" fill-opacity="0.0" stroke="rgb(0,0,0)" stroke-width="0.5" fill="rgb(0,0,0)" stroke-linecap="butt" stroke-miterlimit="10.0">
    <path d="M 11.3636,159.0909 l 22.7273,0.0000 "/>
  </g>
  <defs>
  </defs>
  <g stroke-linejoin="miter" stroke-opacity="1.0" fill-opacity="1.0" stroke="rgb(0,0,0)" stroke-width="0.0" fill="rgb(255,0,0)" stroke-linecap="butt" stroke-miterlimit="10.0">
    <path d="M 22.7273,158.6364 c -0.2510,-0.0000 -0.4545,0.2035 -0.4545 0.4545c -0.0000,0.2510 0.2035,0.4545 0.4545 0.4545c 0.2510,0.0000 0.4545,-0.2035 0.4545 -0.4545c 0.0000,-0.2510 -0.2035,-0.4545 -0.4545 -0.4545Z"/>
  </g>
  <defs>
  </defs>
  <g stroke-linejoin="miter" stroke-opacity="1.0" fill-opacity="0.0" stroke="rgb(0,0,0)" stroke-width="0.5" fill="rgb(0,0,0)" stroke-linecap="butt" stroke-miterlimit="10.0">
    <path d="M 11.3636,204.5455 l 22.7273,0.0000 "/>
  </g>
  <defs>
  </defs>
  <g stroke-linejoin="miter" stroke-opacity="1.0" fill-opacity="1.0" stroke="rgb(0,0,0)" stroke-width="0.0" fill="rgb(255,0,0)" stroke-linecap="butt" stroke-miterlimit="10.0">
    <path d="M 22.7273,204.0909 c -0.2510,-0.0000 -0.4545,0.2035 -0.4545 0.4545c -0.0000,0.2510 0.2035,0.4545 0.4545 0.4545c 0.2510,0.0000 0.4545,-0.2035 0.4545 -0.4545c 0.0000,-0.2510 -0.2035,-0.4545 -0.4545 -0.4545Z"/>
  </g>
  <defs>
  </defs>
  <g stroke-linejoin="miter" stroke-opacity="1.0" fill-opacity="0.0" stroke="rgb(0,0,0)" stroke-width="0.5" fill="rgb(0,0,0)" stroke-linecap="butt" stroke-miterlimit="10.0">
    <path d="M 11.3636,250.0000 l 22.7273,0.0000 "/>
  </g>
  <defs>
  </defs>
  <g stroke-linejoin="miter" stroke-opacity="1.0" fill-opacity="1.0" stroke="rgb(0,0,0)" stroke-width="0.0" fill="rgb(255,0,0)" stroke-linecap="butt" stroke-miterlimit="10.0">
    <path d="M 22.7273,249.5455 c -0.2510,-0.0000 -0.4545,0.2035 -0.4545 0.4545c -0.0000,0.2510 0.2035,0.4545 0.4545 0.4545c 0.2510,0.0000 0.4545,-0.2035 0.4545 -0.4545c 0.0000,-0.2510 -0.2035,-0.4545 -0.4545 -0.4545Z"/>
  </g>
  <defs>
  </defs>
  <g stroke-linejoin="miter" stroke-opacity="1.0" fill-opacity="0.0" stroke="rgb(0,0,0)" stroke-width="0.5" fill="rgb(0,0,0)" stroke-linecap="butt" stroke-miterlimit="10.0">
    <path d="M 11.3636,295.4545 l 22.7273,0.0000 "/>
  </g>
  <defs>
  </defs>
  <g stroke-linejoin="miter" stroke-opacity="1.0" fill-opacity="1.0" stroke="rgb(0,0,0)" stroke-width="0.0" fill="rgb(255,0,0)" stroke-linecap="butt" stroke-miterlimit="10.0">
    <path d="M 22.7273,295.0000 c -0.2510,-0.0000 -0.4545,0.2035 -0.4545 0.4545c -0.0000,0.2510 0.2035,0.4545 0.4545 0.4545c 0.2510,0.0000 0.4545,-0.2035 0.4545 -0.4545c 0.0000,-0.2510 -0.2035,-0.4545 -0.4545 -0.4545Z"/>
  </g>
  <defs>
  </defs>
  <g stroke-linejoin="miter" stroke-opacity="1.0" fill-opacity="0.0" stroke="rgb(0,0,0)" stroke-width="0.5" fill="rgb(0,0,0)" stroke-linecap="butt" stroke-miterlimit="10.0">
    <path d="M 11.3636,340.9091 l 22.7273,0.0000 "/>
  </g>
  <defs>
  </defs>
  <g stroke-linejoin="miter" stroke-opacity="1.0" fill-opacity="1.0" stroke="rgb(0,0,0)" stroke-width="0.0" fill="rgb(255,0,0)" stroke-linecap="butt" stroke-miterlimit="10.0">
    <path d="M 22.7273,340.4545 c -0.2510,-0.0000 -0.4545,0.2035 -0.4545 0.4545c -0.0000,0.2510 0.2035,0.4545 0.4545 0.4545c 0.2510,0.0000 0.4545,-0.2035 0.4545 -0.4545c 0.0000,-0.2510 -0.2035,-0.4545 -0.4545 -0.4545Z"/>
  </g>
  <defs>
  </defs>
  <g stroke-linejoin="miter" stroke-opacity="1.0" fill-opacity="0.0" stroke="rgb(0,0,0)" stroke-width="0.5" fill="rgb(0,0,0)" stroke-linecap="butt" stroke-miterlimit="10.0">
    <path d="M 11.3636,386.3636 l 22.7273,0.0000 "/>
  </g>
  <defs>
  </defs>
  <g stroke-linejoin="miter" stroke-opacity="1.0" fill-opacity="1.0" stroke="rgb(0,0,0)" stroke-width="0.0" fill="rgb(255,0,0)" stroke-linecap="butt" stroke-miterlimit="10.0">
    <path d="M 22.7273,385.9091 c -0.2510,-0.0000 -0.4545,0.2035 -0.4545 0.4545c -0.0000,0.2510 0.2035,0.4545 0.4545 0.4545c 0.2510,0.0000 0.4545,-0.2035 0.4545 -0.4545c 0.0000,-0.2510 -0.2035,-0.4545 -0.4545 -0.4545Z"/>
  </g>
  <defs>
  </defs>
  <g stroke-linejoin="miter" stroke-opacity="1.0" fill-opacity="0.0" stroke="rgb(0,0,0)" stroke-width="0.5" fill="rgb(0,0,0)" stroke-linecap="butt" stroke-miterlimit="10.0">
    <path d="M 11.3636,431.8182 l 22.7273,0.0000 "/>
  </g>
  <defs>
  </defs>
  <g stroke-linejoin="miter" stroke-opacity="1.0" fill-opacity="1.0" stroke="rgb(0,0,0)" stroke-width="0.0" fill="rgb(255,0,0)" stroke-linecap="butt" stroke-miterlimit="10.0">
    <path d="M 22.7273,431.3636 c -0.2510,-0.0000 -0.4545,0.2035 -0.4545 0.4545c -0.0000,0.2510 0.2035,0.4545 0.4545 0.4545c 0.2510,0.0000 0.4545,-0.2035 0.4545 -0.4545c 0.0000,-0.2510 -0.2035,-0.4545 -0.4545 -0.4545Z"/>
  </g>
  <defs>
  </defs>
  <g stroke-linejoin="miter" stroke-opacity="1.0" fill-opacity="0.0" stroke="rgb(0,0,0)" stroke-width="0.5" fill="rgb(0,0,0)" stroke-linecap="butt" stroke-miterlimit="10.0">
    <path d="M 11.3636,477.2727 l 22.7273,0.0000 "/>
  </g>
  <defs>
  </defs>
  <g stroke-linejoin="miter" stroke-opacity="1.0" fill-opacity="1.0" stroke="rgb(0,0,0)" stroke-width="0.0" fill="rgb(255,0,0)" stroke-linecap="butt" stroke-miterlimit="10.0">
    <path d="M 22.7273,476.8182 c -0.2510,-0.0000 -0.4545,0.2035 -0.4545 0.4545c -0.0000,0.2510 0.2035,0.4545 0.4545 0.4545c 0.2510,0.0000 0.4545,-0.2035 0.4545 -0.4545c 0.0000,-0.2510 -0.2035,-0.4545 -0.4545 -0.4545Z"/>
  </g>
  <defs>
  </defs>
  <g stroke-linejoin="miter" stroke-opacity="1.0" fill-opacity="0.0" stroke="rgb(0,0,0)" stroke-width="0.5" fill="rgb(0,0,0)" stroke-linecap="butt" stroke-miterlimit="10.0">
    <path d="M 0.0000,22.7273 l 45.4545,0.0000 "/>
  </g>
  <defs>
  </defs>
  <g stroke-linejoin="miter" stroke-opacity="1.0" fill-opacity="1.0" stroke="rgb(0,0,0)" stroke-width="0.0" fill="rgb(255,0,0)" stroke-linecap="butt" stroke-miterlimit="10.0">
    <path d="M 22.7273,21.8182 c -0.5021,-0.0000 -0.9091,0.4070 -0.9091 0.9091c -0.0000,0.5021 0.4070,0.9091 0.9091 0.9091c 0.5021,0.0000 0.9091,-0.4070 0.9091 -0.9091c 0.0000,-0.5021 -0.4070,-0.9091 -0.9091 -0.9091Z"/>
  </g>
  <defs>
  </defs>
  <g stroke-linejoin="miter" stroke-opacity="1.0" fill-opacity="0.0" stroke="rgb(0,0,0)" stroke-width="0.5" fill="rgb(0,0,0)" stroke-linecap="butt" stroke-miterlimit="10.0">
    <path d="M 0.0000,477.2727 l 45.4545,0.0000 "/>
  </g>
  <defs>
  </defs>
  <g stroke-linejoin="miter" stroke-opacity="1.0" fill-opacity="1.0" stroke="rgb(0,0,0)" stroke-width="0.0" fill="rgb(255,0,0)" stroke-linecap="butt" stroke-miterlimit="10.0">
    <path d="M 22.7273,476.3636 c -0.5021,-0.0000 -0.9091,0.4070 -0.9091 0.9091c -0.0000,0.5021 0.4070,0.9091 0.9091 0.9091c 0.5021,0.0000 0.9091,-0.4070 0.9091 -0.9091c 0.0000,-0.5021 -0.4070,-0.9091 -0.9091 -0.9091Z"/>
  </g>
  <defs>
  </defs>
  <g stroke-linejoin="miter" stroke-opacity="1.0" fill-opacity="0.0" stroke="rgb(0,0,0)" stroke-width="0.5" fill="rgb(0,0,0)" stroke-linecap="butt" stroke-miterlimit="10.0">
    <path d="M 22.7273,477.2727 l 0.0000,-454.5455 "/>
  </g>
  <defs>
  </defs>
  <g stroke-linejoin="miter" stroke-opacity="1.0" fill-opacity="1.0" stroke="rgb(0,0,0)" stroke-width="0.0" fill="rgb(255,0,0)" stroke-linecap="butt" stroke-miterlimit="10.0">
    <path d="M 22.7273,240.9091 c -5.0208,-0.0000 -9.0909,4.0701 -9.0909 9.0909c -0.0000,5.0208 4.0701,9.0909 9.0909 9.0909c 5.0208,0.0000 9.0909,-4.0701 9.0909 -9.0909c 0.0000,-5.0208 -4.0701,-9.0909 -9.0909 -9.0909Z"/>
  </g>
  <defs>
  </defs>
  <g stroke-linejoin="miter" stroke-opacity="1.0" fill-opacity="1.0" stroke="rgb(0,0,0)" stroke-width="0.0" fill="rgb(255,0,0)" stroke-linecap="butt" stroke-miterlimit="10.0">
    <path d="M 31.8545,250.0000 c 0.0000,-5.0409 -4.0864,-9.1273 -9.1273 -9.1273c -5.0409,-0.0000 -9.1273,4.0864 -9.1273 9.1273c -0.0000,5.0409 4.0864,9.1273 9.1273 9.1273c 5.0409,0.0000 9.1273,-4.0864 9.1273 -9.1273Z"/>
  </g>
  <defs>
  </defs>
  <g stroke-linejoin="miter" stroke-opacity="1.0" fill-opacity="0.0" stroke="rgb(0,0,0)" stroke-width="0.5" fill="rgb(0,0,0)" stroke-linecap="butt" stroke-miterlimit="10.0">
    <path d="M 22.7273,34.0909 l 0.0000,-22.7273 "/>
  </g>
  <defs>
  </defs>
  <g stroke-linejoin="miter" stroke-opacity="1.0" fill-opacity="1.0" stroke="rgb(0,0,0)" stroke-width="0.0" fill="rgb(255,0,0)" stroke-linecap="butt" stroke-miterlimit="10.0">
    <path d="M 22.2727,22.7273 c -0.0000,0.2510 0.2035,0.4545 0.4545 0.4545c 0.2510,0.0000 0.4545,-0.2035 0.4545 -0.4545c 0.0000,-0.2510 -0.2035,-0.4545 -0.4545 -0.4545c -0.2510,-0.0000 -0.4545,0.2035 -0.4545 0.4545Z"/>
  </g>
  <defs>
  </defs>
  <g stroke-linejoin="miter" stroke-opacity="1.0" fill-opacity="0.0" stroke="rgb(0,0,0)" stroke-width="0.5" fill="rgb(0,0,0)" stroke-linecap="butt" stroke-miterlimit="10.0">
    <path d="M 68.1818,34.0909 l 0.0000,-22.7273 "/>
  </g>
  <defs>
  </defs>
  <g stroke-linejoin="miter" stroke-opacity="1.0" fill-opacity="1.0" stroke="rgb(0,0,0)" stroke-width="0.0" fill="rgb(255,0,0)" stroke-linecap="butt" stroke-miterlimit="10.0">
    <path d="M 67.7273,22.7273 c -0.0000,0.2510 0.2035,0.4545 0.4545 0.4545c 0.2510,0.0000 0.4545,-0.2035 0.4545 -0.4545c 0.0000,-0.2510 -0.2035,-0.4545 -0.4545 -0.4545c -0.2510,-0.0000 -0.4545,0.2035 -0.4545 0.4545Z"/>
  </g>
  <defs>
  </defs>
  <g stroke-linejoin="miter" stroke-opacity="1.0" fill-opacity="0.0" stroke="rgb(0,0,0)" stroke-width="0.5" fill="rgb(0,0,0)" stroke-linecap="butt" stroke-miterlimit="10.0">
    <path d="M 113.6364,34.0909 l 0.0000,-22.7273 "/>
  </g>
  <defs>
  </defs>
  <g stroke-linejoin="miter" stroke-opacity="1.0" fill-opacity="1.0" stroke="rgb(0,0,0)" stroke-width="0.0" fill="rgb(255,0,0)" stroke-linecap="butt" stroke-miterlimit="10.0">
    <path d="M 113.1818,22.7273 c -0.0000,0.2510 0.2035,0.4545 0.4545 0.4545c 0.2510,0.0000 0.4545,-0.2035 0.4545 -0.4545c 0.0000,-0.2510 -0.2035,-0.4545 -0.4545 -0.4545c -0.2510,-0.0000 -0.4545,0.2035 -0.4545 0.4545Z"/>
  </g>
  <defs>
  </defs>
  <g stroke-linejoin="miter" stroke-opacity="1.0" fill-opacity="0.0" stroke="rgb(0,0,0)" stroke-width="0.5" fill="rgb(0,0,0)" stroke-linecap="butt" stroke-miterlimit="10.0">
    <path d="M 159.0909,34.0909 l 0.0000,-22.7273 "/>
  </g>
  <defs>
  </defs>
  <g stroke-linejoin="miter" stroke-opacity="1.0" fill-opacity="1.0" stroke="rgb(0,0,0)" stroke-width="0.0" fill="rgb(255,0,0)" stroke-linecap="butt" stroke-miterlimit="10.0">
    <path d="M 158.6364,22.7273 c -0.0000,0.2510 0.2035,0.4545 0.4545 0.4545c 0.2510,0.0000 0.4545,-0.2035 0.4545 -0.4545c 0.0000,-0.2510 -0.2035,-0.4545 -0.4545 -0.4545c -0.2510,-0.0000 -0.4545,0.2035 -0.4545 0.4545Z"/>
  </g>
  <defs>
  </defs>
  <g stroke-linejoin="miter" stroke-opacity="1.0" fill-opacity="0.0" stroke="rgb(0,0,0)" stroke-width="0.5" fill="rgb(0,0,0)" stroke-linecap="butt" stroke-miterlimit="10.0">
    <path d="M 204.5455,34.0909 l 0.0000,-22.7273 "/>
  </g>
  <defs>
  </defs>
  <g stroke-linejoin="miter" stroke-opacity="1.0" fill-opacity="1.0" stroke="rgb(0,0,0)" stroke-width="0.0" fill="rgb(255,0,0)" stroke-linecap="butt" stroke-miterlimit="10.0">
    <path d="M 204.0909,22.7273 c -0.0000,0.2510 0.2035,0.4545 0.4545 0.4545c 0.2510,0.0000 0.4545,-0.2035 0.4545 -0.4545c 0.0000,-0.2510 -0.2035,-0.4545 -0.4545 -0.4545c -0.2510,-0.0000 -0.4545,0.2035 -0.4545 0.4545Z"/>
  </g>
  <defs>
  </defs>
  <g stroke-linejoin="miter" stroke-opacity="1.0" fill-opacity="0.0" stroke="rgb(0,0,0)" stroke-width="0.5" fill="rgb(0,0,0)" stroke-linecap="butt" stroke-miterlimit="10.0">
    <path d="M 250.0000,34.0909 l 0.0000,-22.7273 "/>
  </g>
  <defs>
  </defs>
  <g stroke-linejoin="miter" stroke-opacity="1.0" fill-opacity="1.0" stroke="rgb(0,0,0)" stroke-width="0.0" fill="rgb(255,0,0)" stroke-linecap="butt" stroke-miterlimit="10.0">
    <path d="M 249.5455,22.7273 c -0.0000,0.2510 0.2035,0.4545 0.4545 0.4545c 0.2510,0.0000 0.4545,-0.2035 0.4545 -0.4545c 0.0000,-0.2510 -0.2035,-0.4545 -0.4545 -0.4545c -0.2510,-0.0000 -0.4545,0.2035 -0.4545 0.4545Z"/>
  </g>
  <defs>
  </defs>
  <g stroke-linejoin="miter" stroke-opacity="1.0" fill-opacity="0.0" stroke="rgb(0,0,0)" stroke-width="0.5" fill="rgb(0,0,0)" stroke-linecap="butt" stroke-miterlimit="10.0">
    <path d="M 295.4545,34.0909 l 0.0000,-22.7273 "/>
  </g>
  <defs>
  </defs>
  <g stroke-linejoin="miter" stroke-opacity="1.0" fill-opacity="1.0" stroke="rgb(0,0,0)" stroke-width="0.0" fill="rgb(255,0,0)" stroke-linecap="butt" stroke-miterlimit="10.0">
    <path d="M 295.0000,22.7273 c -0.0000,0.2510 0.2035,0.4545 0.4545 0.4545c 0.2510,0.0000 0.4545,-0.2035 0.4545 -0.4545c 0.0000,-0.2510 -0.2035,-0.4545 -0.4545 -0.4545c -0.2510,-0.0000 -0.4545,0.2035 -0.4545 0.4545Z"/>
  </g>
  <defs>
  </defs>
  <g stroke-linejoin="miter" stroke-opacity="1.0" fill-opacity="0.0" stroke="rgb(0,0,0)" stroke-width="0.5" fill="rgb(0,0,0)" stroke-linecap="butt" stroke-miterlimit="10.0">
    <path d="M 340.9091,34.0909 l 0.0000,-22.7273 "/>
  </g>
  <defs>
  </defs>
  <g stroke-linejoin="miter" stroke-opacity="1.0" fill-opacity="1.0" stroke="rgb(0,0,0)" stroke-width="0.0" fill="rgb(255,0,0)" stroke-linecap="butt" stroke-miterlimit="10.0">
    <path d="M 340.4545,22.7273 c -0.0000,0.2510 0.2035,0.4545 0.4545 0.4545c 0.2510,0.0000 0.4545,-0.2035 0.4545 -0.4545c 0.0000,-0.2510 -0.2035,-0.4545 -0.4545 -0.4545c -0.2510,-0.0000 -0.4545,0.2035 -0.4545 0.4545Z"/>
  </g>
  <defs>
  </defs>
  <g stroke-linejoin="miter" stroke-opacity="1.0" fill-opacity="0.0" stroke="rgb(0,0,0)" stroke-width="0.5" fill="rgb(0,0,0)" stroke-linecap="butt" stroke-miterlimit="10.0">
    <path d="M 386.3636,34.0909 l 0.0000,-22.7273 "/>
  </g>
  <defs>
  </defs>
  <g stroke-linejoin="miter" stroke-opacity="1.0" fill-opacity="1.0" stroke="rgb(0,0,0)" stroke-width="0.0" fill="rgb(255,0,0)" stroke-linecap="butt" stroke-miterlimit="10.0">
    <path d="M 385.9091,22.7273 c -0.0000,0.2510 0.2035,0.4545 0.4545 0.4545c 0.2510,0.0000 0.4545,-0.2035 0.4545 -0.4545c 0.0000,-0.2510 -0.2035,-0.4545 -0.4545 -0.4545c -0.2510,-0.0000 -0.4545,0.2035 -0.4545 0.4545Z"/>
  </g>
  <defs>
  </defs>
  <g stroke-linejoin="miter" stroke-opacity="1.0" fill-opacity="0.0" stroke="rgb(0,0,0)" stroke-width="0.5" fill="rgb(0,0,0)" stroke-linecap="butt" stroke-miterlimit="10.0">
    <path d="M 431.8182,34.0909 l 0.0000,-22.7273 "/>
  </g>
  <defs>
  </defs>
  <g stroke-linejoin="miter" stroke-opacity="1.0" fill-opacity="1.0" stroke="rgb(0,0,0)" stroke-width="0.0" fill="rgb(255,0,0)" stroke-linecap="butt" stroke-miterlimit="10.0">
    <path d="M 431.3636,22.7273 c -0.0000,0.2510 0.2035,0.4545 0.4545 0.4545c 0.2510,0.0000 0.4545,-0.2035 0.4545 -0.4545c 0.0000,-0.2510 -0.2035,-0.4545 -0.4545 -0.4545c -0.2510,-0.0000 -0.4545,0.2035 -0.4545 0.4545Z"/>
  </g>
  <defs>
  </defs>
  <g stroke-linejoin="miter" stroke-opacity="1.0" fill-opacity="0.0" stroke="rgb(0,0,0)" stroke-width="0.5" fill="rgb(0,0,0)" stroke-linecap="butt" stroke-miterlimit="10.0">
    <path d="M 477.2727,34.0909 l 0.0000,-22.7273 "/>
  </g>
  <defs>
  </defs>
  <g stroke-linejoin="miter" stroke-opacity="1.0" fill-opacity="1.0" stroke="rgb(0,0,0)" stroke-width="0.0" fill="rgb(255,0,0)" stroke-linecap="butt" stroke-miterlimit="10.0">
    <path d="M 476.8182,22.7273 c -0.0000,0.2510 0.2035,0.4545 0.4545 0.4545c 0.2510,0.0000 0.4545,-0.2035 0.4545 -0.4545c 0.0000,-0.2510 -0.2035,-0.4545 -0.4545 -0.4545c -0.2510,-0.0000 -0.4545,0.2035 -0.4545 0.4545Z"/>
  </g>
  <defs>
  </defs>
  <g stroke-linejoin="miter" stroke-opacity="1.0" fill-opacity="0.0" stroke="rgb(0,0,0)" stroke-width="0.5" fill="rgb(0,0,0)" stroke-linecap="butt" stroke-miterlimit="10.0">
    <path d="M 22.7273,45.4545 l 0.0000,-45.4545 "/>
  </g>
  <defs>
  </defs>
  <g stroke-linejoin="miter" stroke-opacity="1.0" fill-opacity="1.0" stroke="rgb(0,0,0)" stroke-width="0.0" fill="rgb(255,0,0)" stroke-linecap="butt" stroke-miterlimit="10.0">
    <path d="M 21.8182,22.7273 c -0.0000,0.5021 0.4070,0.9091 0.9091 0.9091c 0.5021,0.0000 0.9091,-0.4070 0.9091 -0.9091c 0.0000,-0.5021 -0.4070,-0.9091 -0.9091 -0.9091c -0.5021,-0.0000 -0.9091,0.4070 -0.9091 0.9091Z"/>
  </g>
  <defs>
  </defs>
  <g stroke-linejoin="miter" stroke-opacity="1.0" fill-opacity="0.0" stroke="rgb(0,0,0)" stroke-width="0.5" fill="rgb(0,0,0)" stroke-linecap="butt" stroke-miterlimit="10.0">
    <path d="M 477.2727,45.4545 l 0.0000,-45.4545 "/>
  </g>
  <defs>
  </defs>
  <g stroke-linejoin="miter" stroke-opacity="1.0" fill-opacity="1.0" stroke="rgb(0,0,0)" stroke-width="0.0" fill="rgb(255,0,0)" stroke-linecap="butt" stroke-miterlimit="10.0">
    <path d="M 476.3636,22.7273 c -0.0000,0.5021 0.4070,0.9091 0.9091 0.9091c 0.5021,0.0000 0.9091,-0.4070 0.9091 -0.9091c 0.0000,-0.5021 -0.4070,-0.9091 -0.9091 -0.9091c -0.5021,-0.0000 -0.9091,0.4070 -0.9091 0.9091Z"/>
  </g>
  <defs>
  </defs>
  <g stroke-linejoin="miter" stroke-opacity="1.0" fill-opacity="0.0" stroke="rgb(0,0,0)" stroke-width="0.5" fill="rgb(0,0,0)" stroke-linecap="butt" stroke-miterlimit="10.0">
    <path d="M 477.2727,22.7273 l -454.5455,-0.0000 "/>
  </g>
  <defs>
  </defs>
  <g stroke-linejoin="miter" stroke-opacity="1.0" fill-opacity="1.0" stroke="rgb(0,0,0)" stroke-width="0.0" fill="rgb(255,0,0)" stroke-linecap="butt" stroke-miterlimit="10.0">
    <path d="M 240.9091,22.7273 c -0.0000,5.0208 4.0701,9.0909 9.0909 9.0909c 5.0208,0.0000 9.0909,-4.0701 9.0909 -9.0909c 0.0000,-5.0208 -4.0701,-9.0909 -9.0909 -9.0909c -5.0208,-0.0000 -9.0909,4.0701 -9.0909 9.0909Z"/>
  </g>
  <defs>
  </defs>
  <g stroke-linejoin="miter" stroke-opacity="1.0" fill-opacity="1.0" stroke="rgb(0,0,0)" stroke-width="0.0" fill="rgb(255,0,0)" stroke-linecap="butt" stroke-miterlimit="10.0">
    <path d="M 259.1273,22.7273 c 0.0000,-5.0409 -4.0864,-9.1273 -9.1273 -9.1273c -5.0409,-0.0000 -9.1273,4.0864 -9.1273 9.1273c -0.0000,5.0409 4.0864,9.1273 9.1273 9.1273c 5.0409,0.0000 9.1273,-4.0864 9.1273 -9.1273Z"/>
  </g>
  <defs>
  </defs>
  <g stroke-linejoin="miter" stroke-opacity="1.0" fill-opacity="0.0" stroke="rgb(0,0,0)" stroke-width="0.5" fill="rgb(0,0,0)" stroke-linecap="butt" stroke-miterlimit="10.0">
    <path d="M 477.2727,465.9091 v 22.7273 "/>
  </g>
  <defs>
  </defs>
  <g stroke-linejoin="miter" stroke-opacity="1.0" fill-opacity="1.0" stroke="rgb(0,0,0)" stroke-width="0.0" fill="rgb(255,0,0)" stroke-linecap="butt" stroke-miterlimit="10.0">
    <path d="M 477.7273,477.2727 c 0.0000,-0.2510 -0.2035,-0.4545 -0.4545 -0.4545c -0.2510,-0.0000 -0.4545,0.2035 -0.4545 0.4545c -0.0000,0.2510 0.2035,0.4545 0.4545 0.4545c 0.2510,0.0000 0.4545,-0.2035 0.4545 -0.4545Z"/>
  </g>
  <defs>
  </defs>
  <g stroke-linejoin="miter" stroke-opacity="1.0" fill-opacity="0.0" stroke="rgb(0,0,0)" stroke-width="0.5" fill="rgb(0,0,0)" stroke-linecap="butt" stroke-miterlimit="10.0">
    <path d="M 431.8182,465.9091 v 22.7273 "/>
  </g>
  <defs>
  </defs>
  <g stroke-linejoin="miter" stroke-opacity="1.0" fill-opacity="1.0" stroke="rgb(0,0,0)" stroke-width="0.0" fill="rgb(255,0,0)" stroke-linecap="butt" stroke-miterlimit="10.0">
    <path d="M 432.2727,477.2727 c 0.0000,-0.2510 -0.2035,-0.4545 -0.4545 -0.4545c -0.2510,-0.0000 -0.4545,0.2035 -0.4545 0.4545c -0.0000,0.2510 0.2035,0.4545 0.4545 0.4545c 0.2510,0.0000 0.4545,-0.2035 0.4545 -0.4545Z"/>
  </g>
  <defs>
  </defs>
  <g stroke-linejoin="miter" stroke-opacity="1.0" fill-opacity="0.0" stroke="rgb(0,0,0)" stroke-width="0.5" fill="rgb(0,0,0)" stroke-linecap="butt" stroke-miterlimit="10.0">
    <path d="M 386.3636,465.9091 v 22.7273 "/>
  </g>
  <defs>
  </defs>
  <g stroke-linejoin="miter" stroke-opacity="1.0" fill-opacity="1.0" stroke="rgb(0,0,0)" stroke-width="0.0" fill="rgb(255,0,0)" stroke-linecap="butt" stroke-miterlimit="10.0">
    <path d="M 386.8182,477.2727 c 0.0000,-0.2510 -0.2035,-0.4545 -0.4545 -0.4545c -0.2510,-0.0000 -0.4545,0.2035 -0.4545 0.4545c -0.0000,0.2510 0.2035,0.4545 0.4545 0.4545c 0.2510,0.0000 0.4545,-0.2035 0.4545 -0.4545Z"/>
  </g>
  <defs>
  </defs>
  <g stroke-linejoin="miter" stroke-opacity="1.0" fill-opacity="0.0" stroke="rgb(0,0,0)" stroke-width="0.5" fill="rgb(0,0,0)" stroke-linecap="butt" stroke-miterlimit="10.0">
    <path d="M 340.9091,465.9091 v 22.7273 "/>
  </g>
  <defs>
  </defs>
  <g stroke-linejoin="miter" stroke-opacity="1.0" fill-opacity="1.0" stroke="rgb(0,0,0)" stroke-width="0.0" fill="rgb(255,0,0)" stroke-linecap="butt" stroke-miterlimit="10.0">
    <path d="M 341.3636,477.2727 c 0.0000,-0.2510 -0.2035,-0.4545 -0.4545 -0.4545c -0.2510,-0.0000 -0.4545,0.2035 -0.4545 0.4545c -0.0000,0.2510 0.2035,0.4545 0.4545 0.4545c 0.2510,0.0000 0.4545,-0.2035 0.4545 -0.4545Z"/>
  </g>
  <defs>
  </defs>
  <g stroke-linejoin="miter" stroke-opacity="1.0" fill-opacity="0.0" stroke="rgb(0,0,0)" stroke-width="0.5" fill="rgb(0,0,0)" stroke-linecap="butt" stroke-miterlimit="10.0">
    <path d="M 295.4545,465.9091 v 22.7273 "/>
  </g>
  <defs>
  </defs>
  <g stroke-linejoin="miter" stroke-opacity="1.0" fill-opacity="1.0" stroke="rgb(0,0,0)" stroke-width="0.0" fill="rgb(255,0,0)" stroke-linecap="butt" stroke-miterlimit="10.0">
    <path d="M 295.9091,477.2727 c 0.0000,-0.2510 -0.2035,-0.4545 -0.4545 -0.4545c -0.2510,-0.0000 -0.4545,0.2035 -0.4545 0.4545c -0.0000,0.2510 0.2035,0.4545 0.4545 0.4545c 0.2510,0.0000 0.4545,-0.2035 0.4545 -0.4545Z"/>
  </g>
  <defs>
  </defs>
  <g stroke-linejoin="miter" stroke-opacity="1.0" fill-opacity="0.0" stroke="rgb(0,0,0)" stroke-width="0.5" fill="rgb(0,0,0)" stroke-linecap="butt" stroke-miterlimit="10.0">
    <path d="M 250.0000,465.9091 v 22.7273 "/>
  </g>
  <defs>
  </defs>
  <g stroke-linejoin="miter" stroke-opacity="1.0" fill-opacity="1.0" stroke="rgb(0,0,0)" stroke-width="0.0" fill="rgb(255,0,0)" stroke-linecap="butt" stroke-miterlimit="10.0">
    <path d="M 250.4545,477.2727 c 0.0000,-0.2510 -0.2035,-0.4545 -0.4545 -0.4545c -0.2510,-0.0000 -0.4545,0.2035 -0.4545 0.4545c -0.0000,0.2510 0.2035,0.4545 0.4545 0.4545c 0.2510,0.0000 0.4545,-0.2035 0.4545 -0.4545Z"/>
  </g>
  <defs>
  </defs>
  <g stroke-linejoin="miter" stroke-opacity="1.0" fill-opacity="0.0" stroke="rgb(0,0,0)" stroke-width="0.5" fill="rgb(0,0,0)" stroke-linecap="butt" stroke-miterlimit="10.0">
    <path d="M 204.5455,465.9091 v 22.7273 "/>
  </g>
  <defs>
  </defs>
  <g stroke-linejoin="miter" stroke-opacity="1.0" fill-opacity="1.0" stroke="rgb(0,0,0)" stroke-width="0.0" fill="rgb(255,0,0)" stroke-linecap="butt" stroke-miterlimit="10.0">
    <path d="M 205.0000,477.2727 c 0.0000,-0.2510 -0.2035,-0.4545 -0.4545 -0.4545c -0.2510,-0.0000 -0.4545,0.2035 -0.4545 0.4545c -0.0000,0.2510 0.2035,0.4545 0.4545 0.4545c 0.2510,0.0000 0.4545,-0.2035 0.4545 -0.4545Z"/>
  </g>
  <defs>
  </defs>
  <g stroke-linejoin="miter" stroke-opacity="1.0" fill-opacity="0.0" stroke="rgb(0,0,0)" stroke-width="0.5" fill="rgb(0,0,0)" stroke-linecap="butt" stroke-miterlimit="10.0">
    <path d="M 159.0909,465.9091 v 22.7273 "/>
  </g>
  <defs>
  </defs>
  <g stroke-linejoin="miter" stroke-opacity="1.0" fill-opacity="1.0" stroke="rgb(0,0,0)" stroke-width="0.0" fill="rgb(255,0,0)" stroke-linecap="butt" stroke-miterlimit="10.0">
    <path d="M 159.5455,477.2727 c 0.0000,-0.2510 -0.2035,-0.4545 -0.4545 -0.4545c -0.2510,-0.0000 -0.4545,0.2035 -0.4545 0.4545c -0.0000,0.2510 0.2035,0.4545 0.4545 0.4545c 0.2510,0.0000 0.4545,-0.2035 0.4545 -0.4545Z"/>
  </g>
  <defs>
  </defs>
  <g stroke-linejoin="miter" stroke-opacity="1.0" fill-opacity="0.0" stroke="rgb(0,0,0)" stroke-width="0.5" fill="rgb(0,0,0)" stroke-linecap="butt" stroke-miterlimit="10.0">
    <path d="M 113.6364,465.9091 v 22.7273 "/>
  </g>
  <defs>
  </defs>
  <g stroke-linejoin="miter" stroke-opacity="1.0" fill-opacity="1.0" stroke="rgb(0,0,0)" stroke-width="0.0" fill="rgb(255,0,0)" stroke-linecap="butt" stroke-miterlimit="10.0">
    <path d="M 114.0909,477.2727 c 0.0000,-0.2510 -0.2035,-0.4545 -0.4545 -0.4545c -0.2510,-0.0000 -0.4545,0.2035 -0.4545 0.4545c -0.0000,0.2510 0.2035,0.4545 0.4545 0.4545c 0.2510,0.0000 0.4545,-0.2035 0.4545 -0.4545Z"/>
  </g>
  <defs>
  </defs>
  <g stroke-linejoin="miter" stroke-opacity="1.0" fill-opacity="0.0" stroke="rgb(0,0,0)" stroke-width="0.5" fill="rgb(0,0,0)" stroke-linecap="butt" stroke-miterlimit="10.0">
    <path d="M 68.1818,465.9091 v 22.7273 "/>
  </g>
  <defs>
  </defs>
  <g stroke-linejoin="miter" stroke-opacity="1.0" fill-opacity="1.0" stroke="rgb(0,0,0)" stroke-width="0.0" fill="rgb(255,0,0)" stroke-linecap="butt" stroke-miterlimit="10.0">
    <path d="M 68.6364,477.2727 c 0.0000,-0.2510 -0.2035,-0.4545 -0.4545 -0.4545c -0.2510,-0.0000 -0.4545,0.2035 -0.4545 0.4545c -0.0000,0.2510 0.2035,0.4545 0.4545 0.4545c 0.2510,0.0000 0.4545,-0.2035 0.4545 -0.4545Z"/>
  </g>
  <defs>
  </defs>
  <g stroke-linejoin="miter" stroke-opacity="1.0" fill-opacity="0.0" stroke="rgb(0,0,0)" stroke-width="0.5" fill="rgb(0,0,0)" stroke-linecap="butt" stroke-miterlimit="10.0">
    <path d="M 22.7273,465.9091 v 22.7273 "/>
  </g>
  <defs>
  </defs>
  <g stroke-linejoin="miter" stroke-opacity="1.0" fill-opacity="1.0" stroke="rgb(0,0,0)" stroke-width="0.0" fill="rgb(255,0,0)" stroke-linecap="butt" stroke-miterlimit="10.0">
    <path d="M 23.1818,477.2727 c 0.0000,-0.2510 -0.2035,-0.4545 -0.4545 -0.4545c -0.2510,-0.0000 -0.4545,0.2035 -0.4545 0.4545c -0.0000,0.2510 0.2035,0.4545 0.4545 0.4545c 0.2510,0.0000 0.4545,-0.2035 0.4545 -0.4545Z"/>
  </g>
  <defs>
  </defs>
  <g stroke-linejoin="miter" stroke-opacity="1.0" fill-opacity="0.0" stroke="rgb(0,0,0)" stroke-width="0.5" fill="rgb(0,0,0)" stroke-linecap="butt" stroke-miterlimit="10.0">
    <path d="M 477.2727,454.5455 v 45.4545 "/>
  </g>
  <defs>
  </defs>
  <g stroke-linejoin="miter" stroke-opacity="1.0" fill-opacity="1.0" stroke="rgb(0,0,0)" stroke-width="0.0" fill="rgb(255,0,0)" stroke-linecap="butt" stroke-miterlimit="10.0">
    <path d="M 478.1818,477.2727 c 0.0000,-0.5021 -0.4070,-0.9091 -0.9091 -0.9091c -0.5021,-0.0000 -0.9091,0.4070 -0.9091 0.9091c -0.0000,0.5021 0.4070,0.9091 0.9091 0.9091c 0.5021,0.0000 0.9091,-0.4070 0.9091 -0.9091Z"/>
  </g>
  <defs>
  </defs>
  <g stroke-linejoin="miter" stroke-opacity="1.0" fill-opacity="0.0" stroke="rgb(0,0,0)" stroke-width="0.5" fill="rgb(0,0,0)" stroke-linecap="butt" stroke-miterlimit="10.0">
    <path d="M 22.7273,454.5455 v 45.4545 "/>
  </g>
  <defs>
  </defs>
  <g stroke-linejoin="miter" stroke-opacity="1.0" fill-opacity="1.0" stroke="rgb(0,0,0)" stroke-width="0.0" fill="rgb(255,0,0)" stroke-linecap="butt" stroke-miterlimit="10.0">
    <path d="M 23.6364,477.2727 c 0.0000,-0.5021 -0.4070,-0.9091 -0.9091 -0.9091c -0.5021,-0.0000 -0.9091,0.4070 -0.9091 0.9091c -0.0000,0.5021 0.4070,0.9091 0.9091 0.9091c 0.5021,0.0000 0.9091,-0.4070 0.9091 -0.9091Z"/>
  </g>
  <defs>
  </defs>
  <g stroke-linejoin="miter" stroke-opacity="1.0" fill-opacity="0.0" stroke="rgb(0,0,0)" stroke-width="0.5" fill="rgb(0,0,0)" stroke-linecap="butt" stroke-miterlimit="10.0">
    <path d="M 22.7273,477.2727 h 454.5455 "/>
  </g>
  <defs>
  </defs>
  <g stroke-linejoin="miter" stroke-opacity="1.0" fill-opacity="1.0" stroke="rgb(0,0,0)" stroke-width="0.0" fill="rgb(255,0,0)" stroke-linecap="butt" stroke-miterlimit="10.0">
    <path d="M 259.0909,477.2727 c 0.0000,-5.0208 -4.0701,-9.0909 -9.0909 -9.0909c -5.0208,-0.0000 -9.0909,4.0701 -9.0909 9.0909c -0.0000,5.0208 4.0701,9.0909 9.0909 9.0909c 5.0208,0.0000 9.0909,-4.0701 9.0909 -9.0909Z"/>
  </g>
  <defs>
  </defs>
  <g stroke-linejoin="miter" stroke-opacity="1.0" fill-opacity="1.0" stroke="rgb(0,0,0)" stroke-width="0.0" fill="rgb(255,0,0)" stroke-linecap="butt" stroke-miterlimit="10.0">
    <path d="M 259.1273,477.2727 c 0.0000,-5.0409 -4.0864,-9.1273 -9.1273 -9.1273c -5.0409,-0.0000 -9.1273,4.0864 -9.1273 9.1273c -0.0000,5.0409 4.0864,9.1273 9.1273 9.1273c 5.0409,0.0000 9.1273,-4.0864 9.1273 -9.1273Z"/>
  </g>
  <defs>
  </defs>
  <g stroke-linejoin="miter" stroke-opacity="1.0" fill-opacity="0.0" stroke="rgb(0,0,0)" stroke-width="0.5" fill="rgb(0,0,0)" stroke-linecap="butt" stroke-miterlimit="10.0">
    <path d="M 495.4545,495.4545 l -0.0000,-490.9091 h -490.9091 l -0.0000,490.9091 Z"/>
  </g>
  <defs>
  </defs>
  <g stroke-linejoin="miter" stroke-opacity="1.0" fill-opacity="1.0" stroke="rgb(0,0,0)" stroke-width="0.0" fill="rgb(255,0,0)" stroke-linecap="butt" stroke-miterlimit="10.0">
    <path d="M 259.8182,250.0000 c 0.0000,-5.4224 -4.3957,-9.8182 -9.8182 -9.8182c -5.4224,-0.0000 -9.8182,4.3957 -9.8182 9.8182c -0.0000,5.4224 4.3957,9.8182 9.8182 9.8182c 5.4224,0.0000 9.8182,-4.3957 9.8182 -9.8182Z"/>
  </g>
</svg>