<?xml version="1.0" encoding="UTF-8"?>
<!DOCTYPE svg PUBLIC "-//W3C//DTD SVG 1.1//EN"
    "http://www.w3.org/Graphics/SVG/1.1/DTD/svg11.dtd">
<svg xmlns="http://www.w3.org/2000/svg" height="500.0000" stroke-opacity="1" viewBox="0 0 500 500" font-size="1" width="500.0000" xmlns:xlink="http://www.w3.org/1999/xlink" stroke="rgb(0,0,0)" version="1.1">
  <defs>
  </defs>
  <defs>
  </defs>
  <g stroke-linejoin="miter" stroke-opacity="1.0" fill-opacity="0.0" stroke="rgb(0,0,0)" stroke-width="0.5" fill="rgb(0,0,0)" stroke-linecap="butt" stroke-miterlimit="10.0">
    <path d="M 500.0000,500.0000 l -0.0000,-500.0000 h -500.0000 l -0.0000,500.0000 Z"/>
  </g>
  <defs>
  </defs>
  <g stroke-linejoin="miter" stroke-opacity="1.0" fill-opacity="0.0" stroke="rgb(0,0,0)" stroke-width="1.9999999999999996" fill="rgb(0,0,0)" stroke-linecap="butt" stroke-miterlimit="10.0">
    <path d="M 71.4286,362.8900 l 39.6825,-4.1051 l 39.6825,-41.0509 l 39.6825,-41.0509 l 39.6825,-205.2545 l 39.6825,123.1527 l 39.6825,41.0509 l 39.6825,82.1018 l 39.6825,49.2611 l 39.6825,41.0509 "/>
  </g>
  <defs>
  </defs>
  <g stroke-linejoin="miter" stroke-opacity="1.0" fill-opacity="0.0" stroke="rgb(0,0,0)" stroke-width="1.9999999999999996" fill="rgb(0,0,0)" stroke-linecap="butt" stroke-miterlimit="10.0">
    <path d="M 71.4286,391.6256 l 39.6825,-12.3153 l 39.6825,-20.5255 l 39.6825,-41.0509 l 39.6825,-123.1527 l 39.6825,41.0509 l 39.6825,41.0509 l 39.6825,82.1018 l 39.6825,41.0509 l 39.6825,28.7356 "/>
  </g>
  <defs>
  </defs>
  <g stroke-linejoin="miter" stroke-opacity="1.0" fill-opacity="1.0" stroke="rgb(0,0,0)" stroke-width="1.9999999999999996" fill="rgb(0,0,255)" stroke-linecap="butt" stroke-miterlimit="10.0">
    <path d="M 435.7143,408.0460 c 0.0000,-3.9449 -3.1980,-7.1429 -7.1429 -7.1429c -3.9449,-0.0000 -7.1429,3.1980 -7.1429 7.1429c -0.0000,3.9449 3.1980,7.1429 7.1429 7.1429c 3.9449,0.0000 7.1429,-3.1980 7.1429 -7.1429Z"/>
  </g>
  <defs>
  </defs>
  <g stroke-linejoin="miter" stroke-opacity="1.0" fill-opacity="1.0" stroke="rgb(0,0,0)" stroke-width="0.0" fill="rgb(255,0,0)" stroke-linecap="butt" stroke-miterlimit="10.0">
    <path d="M 428.8571,408.0460 c 0.0000,-0.1578 -0.1279,-0.2857 -0.2857 -0.2857c -0.1578,-0.0000 -0.2857,0.1279 -0.2857 0.2857c -0.0000,0.1578 0.1279,0.2857 0.2857 0.2857c 0.1578,0.0000 0.2857,-0.1279 0.2857 -0.2857Z"/>
  </g>
  <defs>
  </defs>
  <g stroke-linejoin="miter" stroke-opacity="1.0" fill-opacity="1.0" stroke="rgb(0,0,0)" stroke-width="1.9999999999999996" fill="rgb(0,0,255)" stroke-linecap="butt" stroke-miterlimit="10.0">
    <path d="M 396.0317,366.9951 c 0.0000,-3.9449 -3.1980,-7.1429 -7.1429 -7.1429c -3.9449,-0.0000 -7.1429,3.1980 -7.1429 7.1429c -0.0000,3.9449 3.1980,7.1429 7.1429 7.1429c 3.9449,0.0000 7.1429,-3.1980 7.1429 -7.1429Z"/>
  </g>
  <defs>
  </defs>
  <g stroke-linejoin="miter" stroke-opacity="1.0" fill-opacity="1.0" stroke="rgb(0,0,0)" stroke-width="0.0" fill="rgb(255,0,0)" stroke-linecap="butt" stroke-miterlimit="10.0">
    <path d="M 389.1746,366.9951 c 0.0000,-0.1578 -0.1279,-0.2857 -0.2857 -0.2857c -0.1578,-0.0000 -0.2857,0.1279 -0.2857 0.2857c -0.0000,0.1578 0.1279,0.2857 0.2857 0.2857c 0.1578,0.0000 0.2857,-0.1279 0.2857 -0.2857Z"/>
  </g>
  <defs>
  </defs>
  <g stroke-linejoin="miter" stroke-opacity="1.0" fill-opacity="1.0" stroke="rgb(0,0,0)" stroke-width="1.9999999999999996" fill="rgb(0,0,255)" stroke-linecap="butt" stroke-miterlimit="10.0">
    <path d="M 356.3492,317.7340 c 0.0000,-3.9449 -3.1980,-7.1429 -7.1429 -7.1429c -3.9449,-0.0000 -7.1429,3.1980 -7.1429 7.1429c -0.0000,3.9449 3.1980,7.1429 7.1429 7.1429c 3.9449,0.0000 7.1429,-3.1980 7.1429 -7.1429Z"/>
  </g>
  <defs>
  </defs>
  <g stroke-linejoin="miter" stroke-opacity="1.0" fill-opacity="1.0" stroke="rgb(0,0,0)" stroke-width="0.0" fill="rgb(255,0,0)" stroke-linecap="butt" stroke-miterlimit="10.0">
    <path d="M 349.4921,317.7340 c 0.0000,-0.1578 -0.1279,-0.2857 -0.2857 -0.2857c -0.1578,-0.0000 -0.2857,0.1279 -0.2857 0.2857c -0.0000,0.1578 0.1279,0.2857 0.2857 0.2857c 0.1578,0.0000 0.2857,-0.1279 0.2857 -0.2857Z"/>
  </g>
  <defs>
  </defs>
  <g stroke-linejoin="miter" stroke-opacity="1.0" fill-opacity="1.0" stroke="rgb(0,0,0)" stroke-width="1.9999999999999996" fill="rgb(0,0,255)" stroke-linecap="butt" stroke-miterlimit="10.0">
    <path d="M 316.6667,235.6322 c 0.0000,-3.9449 -3.1980,-7.1429 -7.1429 -7.1429c -3.9449,-0.0000 -7.1429,3.1980 -7.1429 7.1429c -0.0000,3.9449 3.1980,7.1429 7.1429 7.1429c 3.9449,0.0000 7.1429,-3.1980 7.1429 -7.1429Z"/>
  </g>
  <defs>
  </defs>
  <g stroke-linejoin="miter" stroke-opacity="1.0" fill-opacity="1.0" stroke="rgb(0,0,0)" stroke-width="0.0" fill="rgb(255,0,0)" stroke-linecap="butt" stroke-miterlimit="10.0">
    <path d="M 309.8095,235.6322 c 0.0000,-0.1578 -0.1279,-0.2857 -0.2857 -0.2857c -0.1578,-0.0000 -0.2857,0.1279 -0.2857 0.2857c -0.0000,0.1578 0.1279,0.2857 0.2857 0.2857c 0.1578,0.0000 0.2857,-0.1279 0.2857 -0.2857Z"/>
  </g>
  <defs>
  </defs>
  <g stroke-linejoin="miter" stroke-opacity="1.0" fill-opacity="1.0" stroke="rgb(0,0,0)" stroke-width="1.9999999999999996" fill="rgb(0,0,255)" stroke-linecap="butt" stroke-miterlimit="10.0">
    <path d="M 276.9841,194.5813 c 0.0000,-3.9449 -3.1980,-7.1429 -7.1429 -7.1429c -3.9449,-0.0000 -7.1429,3.1980 -7.1429 7.1429c -0.0000,3.9449 3.1980,7.1429 7.1429 7.1429c 3.9449,0.0000 7.1429,-3.1980 7.1429 -7.1429Z"/>
  </g>
  <defs>
  </defs>
  <g stroke-linejoin="miter" stroke-opacity="1.0" fill-opacity="1.0" stroke="rgb(0,0,0)" stroke-width="0.0" fill="rgb(255,0,0)" stroke-linecap="butt" stroke-miterlimit="10.0">
    <path d="M 270.1270,194.5813 c 0.0000,-0.1578 -0.1279,-0.2857 -0.2857 -0.2857c -0.1578,-0.0000 -0.2857,0.1279 -0.2857 0.2857c -0.0000,0.1578 0.1279,0.2857 0.2857 0.2857c 0.1578,0.0000 0.2857,-0.1279 0.2857 -0.2857Z"/>
  </g>
  <defs>
  </defs>
  <g stroke-linejoin="miter" stroke-opacity="1.0" fill-opacity="1.0" stroke="rgb(0,0,0)" stroke-width="1.9999999999999996" fill="rgb(0,0,255)" stroke-linecap="butt" stroke-miterlimit="10.0">
    <path d="M 237.3016,71.4286 c 0.0000,-3.9449 -3.1980,-7.1429 -7.1429 -7.1429c -3.9449,-0.0000 -7.1429,3.1980 -7.1429 7.1429c -0.0000,3.9449 3.1980,7.1429 7.1429 7.1429c 3.9449,0.0000 7.1429,-3.1980 7.1429 -7.1429Z"/>
  </g>
  <defs>
  </defs>
  <g stroke-linejoin="miter" stroke-opacity="1.0" fill-opacity="1.0" stroke="rgb(0,0,0)" stroke-width="0.0" fill="rgb(255,0,0)" stroke-linecap="butt" stroke-miterlimit="10.0">
    <path d="M 230.4444,71.4286 c 0.0000,-0.1578 -0.1279,-0.2857 -0.2857 -0.2857c -0.1578,-0.0000 -0.2857,0.1279 -0.2857 0.2857c -0.0000,0.1578 0.1279,0.2857 0.2857 0.2857c 0.1578,0.0000 0.2857,-0.1279 0.2857 -0.2857Z"/>
  </g>
  <defs>
  </defs>
  <g stroke-linejoin="miter" stroke-opacity="1.0" fill-opacity="1.0" stroke="rgb(0,0,0)" stroke-width="1.9999999999999996" fill="rgb(0,0,255)" stroke-linecap="butt" stroke-miterlimit="10.0">
    <path d="M 197.6190,276.6831 c 0.0000,-3.9449 -3.1980,-7.1429 -7.1429 -7.1429c -3.9449,-0.0000 -7.1429,3.1980 -7.1429 7.1429c -0.0000,3.9449 3.1980,7.1429 7.1429 7.1429c 3.9449,0.0000 7.1429,-3.1980 7.1429 -7.1429Z"/>
  </g>
  <defs>
  </defs>
  <g stroke-linejoin="miter" stroke-opacity="1.0" fill-opacity="1.0" stroke="rgb(0,0,0)" stroke-width="0.0" fill="rgb(255,0,0)" stroke-linecap="butt" stroke-miterlimit="10.0">
    <path d="M 190.7619,276.6831 c 0.0000,-0.1578 -0.1279,-0.2857 -0.2857 -0.2857c -0.1578,-0.0000 -0.2857,0.1279 -0.2857 0.2857c -0.0000,0.1578 0.1279,0.2857 0.2857 0.2857c 0.1578,0.0000 0.2857,-0.1279 0.2857 -0.2857Z"/>
  </g>
  <defs>
  </defs>
  <g stroke-linejoin="miter" stroke-opacity="1.0" fill-opacity="1.0" stroke="rgb(0,0,0)" stroke-width="1.9999999999999996" fill="rgb(0,0,255)" stroke-linecap="butt" stroke-miterlimit="10.0">
    <path d="M 157.9365,317.7340 c 0.0000,-3.9449 -3.1980,-7.1429 -7.1429 -7.1429c -3.9449,-0.0000 -7.1429,3.1980 -7.1429 7.1429c -0.0000,3.9449 3.1980,7.1429 7.1429 7.1429c 3.9449,0.0000 7.1429,-3.1980 7.1429 -7.1429Z"/>
  </g>
  <defs>
  </defs>
  <g stroke-linejoin="miter" stroke-opacity="1.0" fill-opacity="1.0" stroke="rgb(0,0,0)" stroke-width="0.0" fill="rgb(255,0,0)" stroke-linecap="butt" stroke-miterlimit="10.0">
    <path d="M 151.0794,317.7340 c 0.0000,-0.1578 -0.1279,-0.2857 -0.2857 -0.2857c -0.1578,-0.0000 -0.2857,0.1279 -0.2857 0.2857c -0.0000,0.1578 0.1279,0.2857 0.2857 0.2857c 0.1578,0.0000 0.2857,-0.1279 0.2857 -0.2857Z"/>
  </g>
  <defs>
  </defs>
  <g stroke-linejoin="miter" stroke-opacity="1.0" fill-opacity="1.0" stroke="rgb(0,0,0)" stroke-width="1.9999999999999996" fill="rgb(0,0,255)" stroke-linecap="butt" stroke-miterlimit="10.0">
    <path d="M 118.2540,358.7849 c 0.0000,-3.9449 -3.1980,-7.1429 -7.1429 -7.1429c -3.9449,-0.0000 -7.1429,3.1980 -7.1429 7.1429c -0.0000,3.9449 3.1980,7.1429 7.1429 7.1429c 3.9449,0.0000 7.1429,-3.1980 7.1429 -7.1429Z"/>
  </g>
  <defs>
  </defs>
  <g stroke-linejoin="miter" stroke-opacity="1.0" fill-opacity="1.0" stroke="rgb(0,0,0)" stroke-width="0.0" fill="rgb(255,0,0)" stroke-linecap="butt" stroke-miterlimit="10.0">
    <path d="M 111.3968,358.7849 c 0.0000,-0.1578 -0.1279,-0.2857 -0.2857 -0.2857c -0.1578,-0.0000 -0.2857,0.1279 -0.2857 0.2857c -0.0000,0.1578 0.1279,0.2857 0.2857 0.2857c 0.1578,0.0000 0.2857,-0.1279 0.2857 -0.2857Z"/>
  </g>
  <defs>
  </defs>
  <g stroke-linejoin="miter" stroke-opacity="1.0" fill-opacity="1.0" stroke="rgb(0,0,0)" stroke-width="1.9999999999999996" fill="rgb(0,0,255)" stroke-linecap="butt" stroke-miterlimit="10.0">
    <path d="M 78.5714,362.8900 c 0.0000,-3.9449 -3.1980,-7.1429 -7.1429 -7.1429c -3.9449,-0.0000 -7.1429,3.1980 -7.1429 7.1429c -0.0000,3.9449 3.1980,7.1429 7.1429 7.1429c 3.9449,0.0000 7.1429,-3.1980 7.1429 -7.1429Z"/>
  </g>
  <defs>
  </defs>
  <g stroke-linejoin="miter" stroke-opacity="1.0" fill-opacity="1.0" stroke="rgb(0,0,0)" stroke-width="0.0" fill="rgb(255,0,0)" stroke-linecap="butt" stroke-miterlimit="10.0">
    <path d="M 71.7143,362.8900 c 0.0000,-0.1578 -0.1279,-0.2857 -0.2857 -0.2857c -0.1578,-0.0000 -0.2857,0.1279 -0.2857 0.2857c -0.0000,0.1578 0.1279,0.2857 0.2857 0.2857c 0.1578,0.0000 0.2857,-0.1279 0.2857 -0.2857Z"/>
  </g>
  <defs>
  </defs>
  <g stroke-linejoin="miter" stroke-opacity="1.0" fill-opacity="1.0" stroke="rgb(0,0,0)" stroke-width="1.9999999999999996" fill="rgb(0,0,255)" stroke-linecap="butt" stroke-miterlimit="10.0">
    <path d="M 435.7143,428.5714 c 0.0000,-3.9449 -3.1980,-7.1429 -7.1429 -7.1429c -3.9449,-0.0000 -7.1429,3.1980 -7.1429 7.1429c -0.0000,3.9449 3.1980,7.1429 7.1429 7.1429c 3.9449,0.0000 7.1429,-3.1980 7.1429 -7.1429Z"/>
  </g>
  <defs>
  </defs>
  <g stroke-linejoin="miter" stroke-opacity="1.0" fill-opacity="1.0" stroke="rgb(0,0,0)" stroke-width="0.0" fill="rgb(255,0,0)" stroke-linecap="butt" stroke-miterlimit="10.0">
    <path d="M 428.8571,428.5714 c 0.0000,-0.1578 -0.1279,-0.2857 -0.2857 -0.2857c -0.1578,-0.0000 -0.2857,0.1279 -0.2857 0.2857c -0.0000,0.1578 0.1279,0.2857 0.2857 0.2857c 0.1578,0.0000 0.2857,-0.1279 0.2857 -0.2857Z"/>
  </g>
  <defs>
  </defs>
  <g stroke-linejoin="miter" stroke-opacity="1.0" fill-opacity="1.0" stroke="rgb(0,0,0)" stroke-width="1.9999999999999996" fill="rgb(0,0,255)" stroke-linecap="butt" stroke-miterlimit="10.0">
    <path d="M 396.0317,399.8358 c 0.0000,-3.9449 -3.1980,-7.1429 -7.1429 -7.1429c -3.9449,-0.0000 -7.1429,3.1980 -7.1429 7.1429c -0.0000,3.9449 3.1980,7.1429 7.1429 7.1429c 3.9449,0.0000 7.1429,-3.1980 7.1429 -7.1429Z"/>
  </g>
  <defs>
  </defs>
  <g stroke-linejoin="miter" stroke-opacity="1.0" fill-opacity="1.0" stroke="rgb(0,0,0)" stroke-width="0.0" fill="rgb(255,0,0)" stroke-linecap="butt" stroke-miterlimit="10.0">
    <path d="M 389.1746,399.8358 c 0.0000,-0.1578 -0.1279,-0.2857 -0.2857 -0.2857c -0.1578,-0.0000 -0.2857,0.1279 -0.2857 0.2857c -0.0000,0.1578 0.1279,0.2857 0.2857 0.2857c 0.1578,0.0000 0.2857,-0.1279 0.2857 -0.2857Z"/>
  </g>
  <defs>
  </defs>
  <g stroke-linejoin="miter" stroke-opacity="1.0" fill-opacity="1.0" stroke="rgb(0,0,0)" stroke-width="1.9999999999999996" fill="rgb(0,0,255)" stroke-linecap="butt" stroke-miterlimit="10.0">
    <path d="M 356.3492,358.7849 c 0.0000,-3.9449 -3.1980,-7.1429 -7.1429 -7.1429c -3.9449,-0.0000 -7.1429,3.1980 -7.1429 7.1429c -0.0000,3.9449 3.1980,7.1429 7.1429 7.1429c 3.9449,0.0000 7.1429,-3.1980 7.1429 -7.1429Z"/>
  </g>
  <defs>
  </defs>
  <g stroke-linejoin="miter" stroke-opacity="1.0" fill-opacity="1.0" stroke="rgb(0,0,0)" stroke-width="0.0" fill="rgb(255,0,0)" stroke-linecap="butt" stroke-miterlimit="10.0">
    <path d="M 349.4921,358.7849 c 0.0000,-0.1578 -0.1279,-0.2857 -0.2857 -0.2857c -0.1578,-0.0000 -0.2857,0.1279 -0.2857 0.2857c -0.0000,0.1578 0.1279,0.2857 0.2857 0.2857c 0.1578,0.0000 0.2857,-0.1279 0.2857 -0.2857Z"/>
  </g>
  <defs>
  </defs>
  <g stroke-linejoin="miter" stroke-opacity="1.0" fill-opacity="1.0" stroke="rgb(0,0,0)" stroke-width="1.9999999999999996" fill="rgb(0,0,255)" stroke-linecap="butt" stroke-miterlimit="10.0">
    <path d="M 316.6667,276.6831 c 0.0000,-3.9449 -3.1980,-7.1429 -7.1429 -7.1429c -3.9449,-0.0000 -7.1429,3.1980 -7.1429 7.1429c -0.0000,3.9449 3.1980,7.1429 7.1429 7.1429c 3.9449,0.0000 7.1429,-3.1980 7.1429 -7.1429Z"/>
  </g>
  <defs>
  </defs>
  <g stroke-linejoin="miter" stroke-opacity="1.0" fill-opacity="1.0" stroke="rgb(0,0,0)" stroke-width="0.0" fill="rgb(255,0,0)" stroke-linecap="butt" stroke-miterlimit="10.0">
    <path d="M 309.8095,276.6831 c 0.0000,-0.1578 -0.1279,-0.2857 -0.2857 -0.2857c -0.1578,-0.0000 -0.2857,0.1279 -0.2857 0.2857c -0.0000,0.1578 0.1279,0.2857 0.2857 0.2857c 0.1578,0.0000 0.2857,-0.1279 0.2857 -0.2857Z"/>
  </g>
  <defs>
  </defs>
  <g stroke-linejoin="miter" stroke-opacity="1.0" fill-opacity="1.0" stroke="rgb(0,0,0)" stroke-width="1.9999999999999996" fill="rgb(0,0,255)" stroke-linecap="butt" stroke-miterlimit="10.0">
    <path d="M 276.9841,235.6322 c 0.0000,-3.9449 -3.1980,-7.1429 -7.1429 -7.1429c -3.9449,-0.0000 -7.1429,3.1980 -7.1429 7.1429c -0.0000,3.9449 3.1980,7.1429 7.1429 7.1429c 3.9449,0.0000 7.1429,-3.1980 7.1429 -7.1429Z"/>
  </g>
  <defs>
  </defs>
  <g stroke-linejoin="miter" stroke-opacity="1.0" fill-opacity="1.0" stroke="rgb(0,0,0)" stroke-width="0.0" fill="rgb(255,0,0)" stroke-linecap="butt" stroke-miterlimit="10.0">
    <path d="M 270.1270,235.6322 c 0.0000,-0.1578 -0.1279,-0.2857 -0.2857 -0.2857c -0.1578,-0.0000 -0.2857,0.1279 -0.2857 0.2857c -0.0000,0.1578 0.1279,0.2857 0.2857 0.2857c 0.1578,0.0000 0.2857,-0.1279 0.2857 -0.2857Z"/>
  </g>
  <defs>
  </defs>
  <g stroke-linejoin="miter" stroke-opacity="1.0" fill-opacity="1.0" stroke="rgb(0,0,0)" stroke-width="1.9999999999999996" fill="rgb(0,0,255)" stroke-linecap="butt" stroke-miterlimit="10.0">
    <path d="M 237.3016,194.5813 c 0.0000,-3.9449 -3.1980,-7.1429 -7.1429 -7.1429c -3.9449,-0.0000 -7.1429,3.1980 -7.1429 7.1429c -0.0000,3.9449 3.1980,7.1429 7.1429 7.1429c 3.9449,0.0000 7.1429,-3.1980 7.1429 -7.1429Z"/>
  </g>
  <defs>
  </defs>
  <g stroke-linejoin="miter" stroke-opacity="1.0" fill-opacity="1.0" stroke="rgb(0,0,0)" stroke-width="0.0" fill="rgb(255,0,0)" stroke-linecap="butt" stroke-miterlimit="10.0">
    <path d="M 230.4444,194.5813 c 0.0000,-0.1578 -0.1279,-0.2857 -0.2857 -0.2857c -0.1578,-0.0000 -0.2857,0.1279 -0.2857 0.2857c -0.0000,0.1578 0.1279,0.2857 0.2857 0.2857c 0.1578,0.0000 0.2857,-0.1279 0.2857 -0.2857Z"/>
  </g>
  <defs>
  </defs>
  <g stroke-linejoin="miter" stroke-opacity="1.0" fill-opacity="1.0" stroke="rgb(0,0,0)" stroke-width="1.9999999999999996" fill="rgb(0,0,255)" stroke-linecap="butt" stroke-miterlimit="10.0">
    <path d="M 197.6190,317.7340 c 0.0000,-3.9449 -3.1980,-7.1429 -7.1429 -7.1429c -3.9449,-0.0000 -7.1429,3.1980 -7.1429 7.1429c -0.0000,3.9449 3.1980,7.1429 7.1429 7.1429c 3.9449,0.0000 7.1429,-3.1980 7.1429 -7.1429Z"/>
  </g>
  <defs>
  </defs>
  <g stroke-linejoin="miter" stroke-opacity="1.0" fill-opacity="1.0" stroke="rgb(0,0,0)" stroke-width="0.0" fill="rgb(255,0,0)" stroke-linecap="butt" stroke-miterlimit="10.0">
    <path d="M 190.7619,317.7340 c 0.0000,-0.1578 -0.1279,-0.2857 -0.2857 -0.2857c -0.1578,-0.0000 -0.2857,0.1279 -0.2857 0.2857c -0.0000,0.1578 0.1279,0.2857 0.2857 0.2857c 0.1578,0.0000 0.2857,-0.1279 0.2857 -0.2857Z"/>
  </g>
  <defs>
  </defs>
  <g stroke-linejoin="miter" stroke-opacity="1.0" fill-opacity="1.0" stroke="rgb(0,0,0)" stroke-width="1.9999999999999996" fill="rgb(0,0,255)" stroke-linecap="butt" stroke-miterlimit="10.0">
    <path d="M 157.9365,358.7849 c 0.0000,-3.9449 -3.1980,-7.1429 -7.1429 -7.1429c -3.9449,-0.0000 -7.1429,3.1980 -7.1429 7.1429c -0.0000,3.9449 3.1980,7.1429 7.1429 7.1429c 3.9449,0.0000 7.1429,-3.1980 7.1429 -7.1429Z"/>
  </g>
  <defs>
  </defs>
  <g stroke-linejoin="miter" stroke-opacity="1.0" fill-opacity="1.0" stroke="rgb(0,0,0)" stroke-width="0.0" fill="rgb(255,0,0)" stroke-linecap="butt" stroke-miterlimit="10.0">
    <path d="M 151.0794,358.7849 c 0.0000,-0.1578 -0.1279,-0.2857 -0.2857 -0.2857c -0.1578,-0.0000 -0.2857,0.1279 -0.2857 0.2857c -0.0000,0.1578 0.1279,0.2857 0.2857 0.2857c 0.1578,0.0000 0.2857,-0.1279 0.2857 -0.2857Z"/>
  </g>
  <defs>
  </defs>
  <g stroke-linejoin="miter" stroke-opacity="1.0" fill-opacity="1.0" stroke="rgb(0,0,0)" stroke-width="1.9999999999999996" fill="rgb(0,0,255)" stroke-linecap="butt" stroke-miterlimit="10.0">
    <path d="M 118.2540,379.3103 c 0.0000,-3.9449 -3.1980,-7.1429 -7.1429 -7.1429c -3.9449,-0.0000 -7.1429,3.1980 -7.1429 7.1429c -0.0000,3.9449 3.1980,7.1429 7.1429 7.1429c 3.9449,0.0000 7.1429,-3.1980 7.1429 -7.1429Z"/>
  </g>
  <defs>
  </defs>
  <g stroke-linejoin="miter" stroke-opacity="1.0" fill-opacity="1.0" stroke="rgb(0,0,0)" stroke-width="0.0" fill="rgb(255,0,0)" stroke-linecap="butt" stroke-miterlimit="10.0">
    <path d="M 111.3968,379.3103 c 0.0000,-0.1578 -0.1279,-0.2857 -0.2857 -0.2857c -0.1578,-0.0000 -0.2857,0.1279 -0.2857 0.2857c -0.0000,0.1578 0.1279,0.2857 0.2857 0.2857c 0.1578,0.0000 0.2857,-0.1279 0.2857 -0.2857Z"/>
  </g>
  <defs>
  </defs>
  <g stroke-linejoin="miter" stroke-opacity="1.0" fill-opacity="1.0" stroke="rgb(0,0,0)" stroke-width="1.9999999999999996" fill="rgb(0,0,255)" stroke-linecap="butt" stroke-miterlimit="10.0">
    <path d="M 78.5714,391.6256 c 0.0000,-3.9449 -3.1980,-7.1429 -7.1429 -7.1429c -3.9449,-0.0000 -7.1429,3.1980 -7.1429 7.1429c -0.0000,3.9449 3.1980,7.1429 7.1429 7.1429c 3.9449,0.0000 7.1429,-3.1980 7.1429 -7.1429Z"/>
  </g>
  <defs>
  </defs>
  <g stroke-linejoin="miter" stroke-opacity="1.0" fill-opacity="1.0" stroke="rgb(0,0,0)" stroke-width="0.0" fill="rgb(255,0,0)" stroke-linecap="butt" stroke-miterlimit="10.0">
    <path d="M 71.7143,391.6256 c 0.0000,-0.1578 -0.1279,-0.2857 -0.2857 -0.2857c -0.1578,-0.0000 -0.2857,0.1279 -0.2857 0.2857c -0.0000,0.1578 0.1279,0.2857 0.2857 0.2857c 0.1578,0.0000 0.2857,-0.1279 0.2857 -0.2857Z"/>
  </g>
  <defs>
  </defs>
  <g stroke-linejoin="miter" stroke-opacity="1.0" fill-opacity="0.0" stroke="rgb(0,0,0)" stroke-width="1.9999999999999996" fill="rgb(0,0,0)" stroke-linecap="butt" stroke-miterlimit="10.0">
    <path d="M 71.4286,428.5714 v -357.1429 "/>
  </g>
  <defs>
  </defs>
  <g stroke-linejoin="miter" stroke-opacity="1.0" fill-opacity="0.0" stroke="rgb(0,0,0)" stroke-width="1.9999999999999996" fill="rgb(0,0,0)" stroke-linecap="butt" stroke-miterlimit="10.0">
    <path d="M 71.4286,428.5714 h 357.1429 "/>
  </g>
</svg>