<?xml version="1.0" encoding="UTF-8"?>
<!DOCTYPE svg PUBLIC "-//W3C//DTD SVG 1.1//EN"
    "http://www.w3.org/Graphics/SVG/1.1/DTD/svg11.dtd">
<svg xmlns="http://www.w3.org/2000/svg" height="500.0000" stroke-opacity="1" viewBox="0 0 500 500" font-size="1" width="500.0000" xmlns:xlink="http://www.w3.org/1999/xlink" stroke="rgb(0,0,0)" version="1.1">
  <defs>
  </defs>
  <defs>
  </defs>
  <g stroke-linejoin="miter" stroke-opacity="1.0" fill-opacity="0.0" stroke="rgb(0,0,0)" stroke-width="0.5" fill="rgb(0,0,0)" stroke-linecap="butt" stroke-miterlimit="10.0">
    <path d="M 500.0000,500.0000 l -0.0000,-500.0000 h -500.0000 l -0.0000,500.0000 Z"/>
  </g>
  <defs>
  </defs>
  <g stroke-linejoin="miter" stroke-opacity="1.0" fill-opacity="1.0" stroke="rgb(253,208,162)" stroke-width="1.9999999999999996" fill="rgb(253,208,162)" stroke-linecap="butt" stroke-miterlimit="10.0">
    <path d="M 71.4286,391.6256 l 39.6825,-12.3153 l 39.6825,-20.5255 l 39.6825,-41.0509 l 39.6825,-123.1527 l 39.6825,41.0509 l 39.6825,41.0509 l 39.6825,82.1018 l 39.6825,41.0509 l 39.6825,28.7356 v -20.5255 l -39.6825,-41.0509 l -39.6825,-49.2611 l -39.6825,-82.1018 l -39.6825,-41.0509 l -39.6825,-123.1527 l -39.6825,205.2545 l -39.6825,41.0509 l -39.6825,41.0509 l -39.6825,4.1051 Z"/>
  </g>
  <defs>
  </defs>
  <g stroke-linejoin="miter" stroke-opacity="1.0" fill-opacity="1.0" stroke="rgb(0,0,0)" stroke-width="1.9999999999999996" fill="rgb(0,0,255)" stroke-linecap="butt" stroke-miterlimit="10.0">
    <path d="M 428.8214,408.0460 c 0.0000,-0.1381 -0.1119,-0.2500 -0.2500 -0.2500c -0.1381,-0.0000 -0.2500,0.1119 -0.2500 0.2500c -0.0000,0.1381 0.1119,0.2500 0.2500 0.2500c 0.1381,0.0000 0.2500,-0.1119 0.2500 -0.2500Z"/>
  </g>
  <defs>
  </defs>
  <g stroke-linejoin="miter" stroke-opacity="1.0" fill-opacity="1.0" stroke="rgb(0,0,0)" stroke-width="0.0" fill="rgb(255,0,0)" stroke-linecap="butt" stroke-miterlimit="10.0">
    <path d="M 428.5814,408.0460 c 0.0000,-0.0055 -0.0045,-0.0100 -0.0100 -0.0100c -0.0055,-0.0000 -0.0100,0.0045 -0.0100 0.0100c -0.0000,0.0055 0.0045,0.0100 0.0100 0.0100c 0.0055,0.0000 0.0100,-0.0045 0.0100 -0.0100Z"/>
  </g>
  <defs>
  </defs>
  <g stroke-linejoin="miter" stroke-opacity="1.0" fill-opacity="1.0" stroke="rgb(0,0,0)" stroke-width="1.9999999999999996" fill="rgb(0,0,255)" stroke-linecap="butt" stroke-miterlimit="10.0">
    <path d="M 389.1389,366.9951 c 0.0000,-0.1381 -0.1119,-0.2500 -0.2500 -0.2500c -0.1381,-0.0000 -0.2500,0.1119 -0.2500 0.2500c -0.0000,0.1381 0.1119,0.2500 0.2500 0.2500c 0.1381,0.0000 0.2500,-0.1119 0.2500 -0.2500Z"/>
  </g>
  <defs>
  </defs>
  <g stroke-linejoin="miter" stroke-opacity="1.0" fill-opacity="1.0" stroke="rgb(0,0,0)" stroke-width="0.0" fill="rgb(255,0,0)" stroke-linecap="butt" stroke-miterlimit="10.0">
    <path d="M 388.8989,366.9951 c 0.0000,-0.0055 -0.0045,-0.0100 -0.0100 -0.0100c -0.0055,-0.0000 -0.0100,0.0045 -0.0100 0.0100c -0.0000,0.0055 0.0045,0.0100 0.0100 0.0100c 0.0055,0.0000 0.0100,-0.0045 0.0100 -0.0100Z"/>
  </g>
  <defs>
  </defs>
  <g stroke-linejoin="miter" stroke-opacity="1.0" fill-opacity="1.0" stroke="rgb(0,0,0)" stroke-width="1.9999999999999996" fill="rgb(0,0,255)" stroke-linecap="butt" stroke-miterlimit="10.0">
    <path d="M 349.4563,317.7340 c 0.0000,-0.1381 -0.1119,-0.2500 -0.2500 -0.2500c -0.1381,-0.0000 -0.2500,0.1119 -0.2500 0.2500c -0.0000,0.1381 0.1119,0.2500 0.2500 0.2500c 0.1381,0.0000 0.2500,-0.1119 0.2500 -0.2500Z"/>
  </g>
  <defs>
  </defs>
  <g stroke-linejoin="miter" stroke-opacity="1.0" fill-opacity="1.0" stroke="rgb(0,0,0)" stroke-width="0.0" fill="rgb(255,0,0)" stroke-linecap="butt" stroke-miterlimit="10.0">
    <path d="M 349.2163,317.7340 c 0.0000,-0.0055 -0.0045,-0.0100 -0.0100 -0.0100c -0.0055,-0.0000 -0.0100,0.0045 -0.0100 0.0100c -0.0000,0.0055 0.0045,0.0100 0.0100 0.0100c 0.0055,0.0000 0.0100,-0.0045 0.0100 -0.0100Z"/>
  </g>
  <defs>
  </defs>
  <g stroke-linejoin="miter" stroke-opacity="1.0" fill-opacity="1.0" stroke="rgb(0,0,0)" stroke-width="1.9999999999999996" fill="rgb(0,0,255)" stroke-linecap="butt" stroke-miterlimit="10.0">
    <path d="M 309.7738,235.6322 c 0.0000,-0.1381 -0.1119,-0.2500 -0.2500 -0.2500c -0.1381,-0.0000 -0.2500,0.1119 -0.2500 0.2500c -0.0000,0.1381 0.1119,0.2500 0.2500 0.2500c 0.1381,0.0000 0.2500,-0.1119 0.2500 -0.2500Z"/>
  </g>
  <defs>
  </defs>
  <g stroke-linejoin="miter" stroke-opacity="1.0" fill-opacity="1.0" stroke="rgb(0,0,0)" stroke-width="0.0" fill="rgb(255,0,0)" stroke-linecap="butt" stroke-miterlimit="10.0">
    <path d="M 309.5338,235.6322 c 0.0000,-0.0055 -0.0045,-0.0100 -0.0100 -0.0100c -0.0055,-0.0000 -0.0100,0.0045 -0.0100 0.0100c -0.0000,0.0055 0.0045,0.0100 0.0100 0.0100c 0.0055,0.0000 0.0100,-0.0045 0.0100 -0.0100Z"/>
  </g>
  <defs>
  </defs>
  <g stroke-linejoin="miter" stroke-opacity="1.0" fill-opacity="1.0" stroke="rgb(0,0,0)" stroke-width="1.9999999999999996" fill="rgb(0,0,255)" stroke-linecap="butt" stroke-miterlimit="10.0">
    <path d="M 270.0913,194.5813 c 0.0000,-0.1381 -0.1119,-0.2500 -0.2500 -0.2500c -0.1381,-0.0000 -0.2500,0.1119 -0.2500 0.2500c -0.0000,0.1381 0.1119,0.2500 0.2500 0.2500c 0.1381,0.0000 0.2500,-0.1119 0.2500 -0.2500Z"/>
  </g>
  <defs>
  </defs>
  <g stroke-linejoin="miter" stroke-opacity="1.0" fill-opacity="1.0" stroke="rgb(0,0,0)" stroke-width="0.0" fill="rgb(255,0,0)" stroke-linecap="butt" stroke-miterlimit="10.0">
    <path d="M 269.8513,194.5813 c 0.0000,-0.0055 -0.0045,-0.0100 -0.0100 -0.0100c -0.0055,-0.0000 -0.0100,0.0045 -0.0100 0.0100c -0.0000,0.0055 0.0045,0.0100 0.0100 0.0100c 0.0055,0.0000 0.0100,-0.0045 0.0100 -0.0100Z"/>
  </g>
  <defs>
  </defs>
  <g stroke-linejoin="miter" stroke-opacity="1.0" fill-opacity="1.0" stroke="rgb(0,0,0)" stroke-width="1.9999999999999996" fill="rgb(0,0,255)" stroke-linecap="butt" stroke-miterlimit="10.0">
    <path d="M 230.4087,71.4286 c 0.0000,-0.1381 -0.1119,-0.2500 -0.2500 -0.2500c -0.1381,-0.0000 -0.2500,0.1119 -0.2500 0.2500c -0.0000,0.1381 0.1119,0.2500 0.2500 0.2500c 0.1381,0.0000 0.2500,-0.1119 0.2500 -0.2500Z"/>
  </g>
  <defs>
  </defs>
  <g stroke-linejoin="miter" stroke-opacity="1.0" fill-opacity="1.0" stroke="rgb(0,0,0)" stroke-width="0.0" fill="rgb(255,0,0)" stroke-linecap="butt" stroke-miterlimit="10.0">
    <path d="M 230.1687,71.4286 c 0.0000,-0.0055 -0.0045,-0.0100 -0.0100 -0.0100c -0.0055,-0.0000 -0.0100,0.0045 -0.0100 0.0100c -0.0000,0.0055 0.0045,0.0100 0.0100 0.0100c 0.0055,0.0000 0.0100,-0.0045 0.0100 -0.0100Z"/>
  </g>
  <defs>
  </defs>
  <g stroke-linejoin="miter" stroke-opacity="1.0" fill-opacity="1.0" stroke="rgb(0,0,0)" stroke-width="1.9999999999999996" fill="rgb(0,0,255)" stroke-linecap="butt" stroke-miterlimit="10.0">
    <path d="M 190.7262,276.6831 c 0.0000,-0.1381 -0.1119,-0.2500 -0.2500 -0.2500c -0.1381,-0.0000 -0.2500,0.1119 -0.2500 0.2500c -0.0000,0.1381 0.1119,0.2500 0.2500 0.2500c 0.1381,0.0000 0.2500,-0.1119 0.2500 -0.2500Z"/>
  </g>
  <defs>
  </defs>
  <g stroke-linejoin="miter" stroke-opacity="1.0" fill-opacity="1.0" stroke="rgb(0,0,0)" stroke-width="0.0" fill="rgb(255,0,0)" stroke-linecap="butt" stroke-miterlimit="10.0">
    <path d="M 190.4862,276.6831 c 0.0000,-0.0055 -0.0045,-0.0100 -0.0100 -0.0100c -0.0055,-0.0000 -0.0100,0.0045 -0.0100 0.0100c -0.0000,0.0055 0.0045,0.0100 0.0100 0.0100c 0.0055,0.0000 0.0100,-0.0045 0.0100 -0.0100Z"/>
  </g>
  <defs>
  </defs>
  <g stroke-linejoin="miter" stroke-opacity="1.0" fill-opacity="1.0" stroke="rgb(0,0,0)" stroke-width="1.9999999999999996" fill="rgb(0,0,255)" stroke-linecap="butt" stroke-miterlimit="10.0">
    <path d="M 151.0437,317.7340 c 0.0000,-0.1381 -0.1119,-0.2500 -0.2500 -0.2500c -0.1381,-0.0000 -0.2500,0.1119 -0.2500 0.2500c -0.0000,0.1381 0.1119,0.2500 0.2500 0.2500c 0.1381,0.0000 0.2500,-0.1119 0.2500 -0.2500Z"/>
  </g>
  <defs>
  </defs>
  <g stroke-linejoin="miter" stroke-opacity="1.0" fill-opacity="1.0" stroke="rgb(0,0,0)" stroke-width="0.0" fill="rgb(255,0,0)" stroke-linecap="butt" stroke-miterlimit="10.0">
    <path d="M 150.8037,317.7340 c 0.0000,-0.0055 -0.0045,-0.0100 -0.0100 -0.0100c -0.0055,-0.0000 -0.0100,0.0045 -0.0100 0.0100c -0.0000,0.0055 0.0045,0.0100 0.0100 0.0100c 0.0055,0.0000 0.0100,-0.0045 0.0100 -0.0100Z"/>
  </g>
  <defs>
  </defs>
  <g stroke-linejoin="miter" stroke-opacity="1.0" fill-opacity="1.0" stroke="rgb(0,0,0)" stroke-width="1.9999999999999996" fill="rgb(0,0,255)" stroke-linecap="butt" stroke-miterlimit="10.0">
    <path d="M 111.3611,358.7849 c 0.0000,-0.1381 -0.1119,-0.2500 -0.2500 -0.2500c -0.1381,-0.0000 -0.2500,0.1119 -0.2500 0.2500c -0.0000,0.1381 0.1119,0.2500 0.2500 0.2500c 0.1381,0.0000 0.2500,-0.1119 0.2500 -0.2500Z"/>
  </g>
  <defs>
  </defs>
  <g stroke-linejoin="miter" stroke-opacity="1.0" fill-opacity="1.0" stroke="rgb(0,0,0)" stroke-width="0.0" fill="rgb(255,0,0)" stroke-linecap="butt" stroke-miterlimit="10.0">
    <path d="M 111.1211,358.7849 c 0.0000,-0.0055 -0.0045,-0.0100 -0.0100 -0.0100c -0.0055,-0.0000 -0.0100,0.0045 -0.0100 0.0100c -0.0000,0.0055 0.0045,0.0100 0.0100 0.0100c 0.0055,0.0000 0.0100,-0.0045 0.0100 -0.0100Z"/>
  </g>
  <defs>
  </defs>
  <g stroke-linejoin="miter" stroke-opacity="1.0" fill-opacity="1.0" stroke="rgb(0,0,0)" stroke-width="1.9999999999999996" fill="rgb(0,0,255)" stroke-linecap="butt" stroke-miterlimit="10.0">
    <path d="M 71.6786,362.8900 c 0.0000,-0.1381 -0.1119,-0.2500 -0.2500 -0.2500c -0.1381,-0.0000 -0.2500,0.1119 -0.2500 0.2500c -0.0000,0.1381 0.1119,0.2500 0.2500 0.2500c 0.1381,0.0000 0.2500,-0.1119 0.2500 -0.2500Z"/>
  </g>
  <defs>
  </defs>
  <g stroke-linejoin="miter" stroke-opacity="1.0" fill-opacity="1.0" stroke="rgb(0,0,0)" stroke-width="0.0" fill="rgb(255,0,0)" stroke-linecap="butt" stroke-miterlimit="10.0">
    <path d="M 71.4386,362.8900 c 0.0000,-0.0055 -0.0045,-0.0100 -0.0100 -0.0100c -0.0055,-0.0000 -0.0100,0.0045 -0.0100 0.0100c -0.0000,0.0055 0.0045,0.0100 0.0100 0.0100c 0.0055,0.0000 0.0100,-0.0045 0.0100 -0.0100Z"/>
  </g>
  <defs>
  </defs>
  <g stroke-linejoin="miter" stroke-opacity="1.0" fill-opacity="1.0" stroke="rgb(0,0,0)" stroke-width="1.9999999999999996" fill="rgb(0,0,255)" stroke-linecap="butt" stroke-miterlimit="10.0">
    <path d="M 428.8214,428.5714 c 0.0000,-0.1381 -0.1119,-0.2500 -0.2500 -0.2500c -0.1381,-0.0000 -0.2500,0.1119 -0.2500 0.2500c -0.0000,0.1381 0.1119,0.2500 0.2500 0.2500c 0.1381,0.0000 0.2500,-0.1119 0.2500 -0.2500Z"/>
  </g>
  <defs>
  </defs>
  <g stroke-linejoin="miter" stroke-opacity="1.0" fill-opacity="1.0" stroke="rgb(0,0,0)" stroke-width="0.0" fill="rgb(255,0,0)" stroke-linecap="butt" stroke-miterlimit="10.0">
    <path d="M 428.5814,428.5714 c 0.0000,-0.0055 -0.0045,-0.0100 -0.0100 -0.0100c -0.0055,-0.0000 -0.0100,0.0045 -0.0100 0.0100c -0.0000,0.0055 0.0045,0.0100 0.0100 0.0100c 0.0055,0.0000 0.0100,-0.0045 0.0100 -0.0100Z"/>
  </g>
  <defs>
  </defs>
  <g stroke-linejoin="miter" stroke-opacity="1.0" fill-opacity="1.0" stroke="rgb(0,0,0)" stroke-width="1.9999999999999996" fill="rgb(0,0,255)" stroke-linecap="butt" stroke-miterlimit="10.0">
    <path d="M 389.1389,399.8358 c 0.0000,-0.1381 -0.1119,-0.2500 -0.2500 -0.2500c -0.1381,-0.0000 -0.2500,0.1119 -0.2500 0.2500c -0.0000,0.1381 0.1119,0.2500 0.2500 0.2500c 0.1381,0.0000 0.2500,-0.1119 0.2500 -0.2500Z"/>
  </g>
  <defs>
  </defs>
  <g stroke-linejoin="miter" stroke-opacity="1.0" fill-opacity="1.0" stroke="rgb(0,0,0)" stroke-width="0.0" fill="rgb(255,0,0)" stroke-linecap="butt" stroke-miterlimit="10.0">
    <path d="M 388.8989,399.8358 c 0.0000,-0.0055 -0.0045,-0.0100 -0.0100 -0.0100c -0.0055,-0.0000 -0.0100,0.0045 -0.0100 0.0100c -0.0000,0.0055 0.0045,0.0100 0.0100 0.0100c 0.0055,0.0000 0.0100,-0.0045 0.0100 -0.0100Z"/>
  </g>
  <defs>
  </defs>
  <g stroke-linejoin="miter" stroke-opacity="1.0" fill-opacity="1.0" stroke="rgb(0,0,0)" stroke-width="1.9999999999999996" fill="rgb(0,0,255)" stroke-linecap="butt" stroke-miterlimit="10.0">
    <path d="M 349.4563,358.7849 c 0.0000,-0.1381 -0.1119,-0.2500 -0.2500 -0.2500c -0.1381,-0.0000 -0.2500,0.1119 -0.2500 0.2500c -0.0000,0.1381 0.1119,0.2500 0.2500 0.2500c 0.1381,0.0000 0.2500,-0.1119 0.2500 -0.2500Z"/>
  </g>
  <defs>
  </defs>
  <g stroke-linejoin="miter" stroke-opacity="1.0" fill-opacity="1.0" stroke="rgb(0,0,0)" stroke-width="0.0" fill="rgb(255,0,0)" stroke-linecap="butt" stroke-miterlimit="10.0">
    <path d="M 349.2163,358.7849 c 0.0000,-0.0055 -0.0045,-0.0100 -0.0100 -0.0100c -0.0055,-0.0000 -0.0100,0.0045 -0.0100 0.0100c -0.0000,0.0055 0.0045,0.0100 0.0100 0.0100c 0.0055,0.0000 0.0100,-0.0045 0.0100 -0.0100Z"/>
  </g>
  <defs>
  </defs>
  <g stroke-linejoin="miter" stroke-opacity="1.0" fill-opacity="1.0" stroke="rgb(0,0,0)" stroke-width="1.9999999999999996" fill="rgb(0,0,255)" stroke-linecap="butt" stroke-miterlimit="10.0">
    <path d="M 309.7738,276.6831 c 0.0000,-0.1381 -0.1119,-0.2500 -0.2500 -0.2500c -0.1381,-0.0000 -0.2500,0.1119 -0.2500 0.2500c -0.0000,0.1381 0.1119,0.2500 0.2500 0.2500c 0.1381,0.0000 0.2500,-0.1119 0.2500 -0.2500Z"/>
  </g>
  <defs>
  </defs>
  <g stroke-linejoin="miter" stroke-opacity="1.0" fill-opacity="1.0" stroke="rgb(0,0,0)" stroke-width="0.0" fill="rgb(255,0,0)" stroke-linecap="butt" stroke-miterlimit="10.0">
    <path d="M 309.5338,276.6831 c 0.0000,-0.0055 -0.0045,-0.0100 -0.0100 -0.0100c -0.0055,-0.0000 -0.0100,0.0045 -0.0100 0.0100c -0.0000,0.0055 0.0045,0.0100 0.0100 0.0100c 0.0055,0.0000 0.0100,-0.0045 0.0100 -0.0100Z"/>
  </g>
  <defs>
  </defs>
  <g stroke-linejoin="miter" stroke-opacity="1.0" fill-opacity="1.0" stroke="rgb(0,0,0)" stroke-width="1.9999999999999996" fill="rgb(0,0,255)" stroke-linecap="butt" stroke-miterlimit="10.0">
    <path d="M 270.0913,235.6322 c 0.0000,-0.1381 -0.1119,-0.2500 -0.2500 -0.2500c -0.1381,-0.0000 -0.2500,0.1119 -0.2500 0.2500c -0.0000,0.1381 0.1119,0.2500 0.2500 0.2500c 0.1381,0.0000 0.2500,-0.1119 0.2500 -0.2500Z"/>
  </g>
  <defs>
  </defs>
  <g stroke-linejoin="miter" stroke-opacity="1.0" fill-opacity="1.0" stroke="rgb(0,0,0)" stroke-width="0.0" fill="rgb(255,0,0)" stroke-linecap="butt" stroke-miterlimit="10.0">
    <path d="M 269.8513,235.6322 c 0.0000,-0.0055 -0.0045,-0.0100 -0.0100 -0.0100c -0.0055,-0.0000 -0.0100,0.0045 -0.0100 0.0100c -0.0000,0.0055 0.0045,0.0100 0.0100 0.0100c 0.0055,0.0000 0.0100,-0.0045 0.0100 -0.0100Z"/>
  </g>
  <defs>
  </defs>
  <g stroke-linejoin="miter" stroke-opacity="1.0" fill-opacity="1.0" stroke="rgb(0,0,0)" stroke-width="1.9999999999999996" fill="rgb(0,0,255)" stroke-linecap="butt" stroke-miterlimit="10.0">
    <path d="M 230.4087,194.5813 c 0.0000,-0.1381 -0.1119,-0.2500 -0.2500 -0.2500c -0.1381,-0.0000 -0.2500,0.1119 -0.2500 0.2500c -0.0000,0.1381 0.1119,0.2500 0.2500 0.2500c 0.1381,0.0000 0.2500,-0.1119 0.2500 -0.2500Z"/>
  </g>
  <defs>
  </defs>
  <g stroke-linejoin="miter" stroke-opacity="1.0" fill-opacity="1.0" stroke="rgb(0,0,0)" stroke-width="0.0" fill="rgb(255,0,0)" stroke-linecap="butt" stroke-miterlimit="10.0">
    <path d="M 230.1687,194.5813 c 0.0000,-0.0055 -0.0045,-0.0100 -0.0100 -0.0100c -0.0055,-0.0000 -0.0100,0.0045 -0.0100 0.0100c -0.0000,0.0055 0.0045,0.0100 0.0100 0.0100c 0.0055,0.0000 0.0100,-0.0045 0.0100 -0.0100Z"/>
  </g>
  <defs>
  </defs>
  <g stroke-linejoin="miter" stroke-opacity="1.0" fill-opacity="1.0" stroke="rgb(0,0,0)" stroke-width="1.9999999999999996" fill="rgb(0,0,255)" stroke-linecap="butt" stroke-miterlimit="10.0">
    <path d="M 190.7262,317.7340 c 0.0000,-0.1381 -0.1119,-0.2500 -0.2500 -0.2500c -0.1381,-0.0000 -0.2500,0.1119 -0.2500 0.2500c -0.0000,0.1381 0.1119,0.2500 0.2500 0.2500c 0.1381,0.0000 0.2500,-0.1119 0.2500 -0.2500Z"/>
  </g>
  <defs>
  </defs>
  <g stroke-linejoin="miter" stroke-opacity="1.0" fill-opacity="1.0" stroke="rgb(0,0,0)" stroke-width="0.0" fill="rgb(255,0,0)" stroke-linecap="butt" stroke-miterlimit="10.0">
    <path d="M 190.4862,317.7340 c 0.0000,-0.0055 -0.0045,-0.0100 -0.0100 -0.0100c -0.0055,-0.0000 -0.0100,0.0045 -0.0100 0.0100c -0.0000,0.0055 0.0045,0.0100 0.0100 0.0100c 0.0055,0.0000 0.0100,-0.0045 0.0100 -0.0100Z"/>
  </g>
  <defs>
  </defs>
  <g stroke-linejoin="miter" stroke-opacity="1.0" fill-opacity="1.0" stroke="rgb(0,0,0)" stroke-width="1.9999999999999996" fill="rgb(0,0,255)" stroke-linecap="butt" stroke-miterlimit="10.0">
    <path d="M 151.0437,358.7849 c 0.0000,-0.1381 -0.1119,-0.2500 -0.2500 -0.2500c -0.1381,-0.0000 -0.2500,0.1119 -0.2500 0.2500c -0.0000,0.1381 0.1119,0.2500 0.2500 0.2500c 0.1381,0.0000 0.2500,-0.1119 0.2500 -0.2500Z"/>
  </g>
  <defs>
  </defs>
  <g stroke-linejoin="miter" stroke-opacity="1.0" fill-opacity="1.0" stroke="rgb(0,0,0)" stroke-width="0.0" fill="rgb(255,0,0)" stroke-linecap="butt" stroke-miterlimit="10.0">
    <path d="M 150.8037,358.7849 c 0.0000,-0.0055 -0.0045,-0.0100 -0.0100 -0.0100c -0.0055,-0.0000 -0.0100,0.0045 -0.0100 0.0100c -0.0000,0.0055 0.0045,0.0100 0.0100 0.0100c 0.0055,0.0000 0.0100,-0.0045 0.0100 -0.0100Z"/>
  </g>
  <defs>
  </defs>
  <g stroke-linejoin="miter" stroke-opacity="1.0" fill-opacity="1.0" stroke="rgb(0,0,0)" stroke-width="1.9999999999999996" fill="rgb(0,0,255)" stroke-linecap="butt" stroke-miterlimit="10.0">
    <path d="M 111.3611,379.3103 c 0.0000,-0.1381 -0.1119,-0.2500 -0.2500 -0.2500c -0.1381,-0.0000 -0.2500,0.1119 -0.2500 0.2500c -0.0000,0.1381 0.1119,0.2500 0.2500 0.2500c 0.1381,0.0000 0.2500,-0.1119 0.2500 -0.2500Z"/>
  </g>
  <defs>
  </defs>
  <g stroke-linejoin="miter" stroke-opacity="1.0" fill-opacity="1.0" stroke="rgb(0,0,0)" stroke-width="0.0" fill="rgb(255,0,0)" stroke-linecap="butt" stroke-miterlimit="10.0">
    <path d="M 111.1211,379.3103 c 0.0000,-0.0055 -0.0045,-0.0100 -0.0100 -0.0100c -0.0055,-0.0000 -0.0100,0.0045 -0.0100 0.0100c -0.0000,0.0055 0.0045,0.0100 0.0100 0.0100c 0.0055,0.0000 0.0100,-0.0045 0.0100 -0.0100Z"/>
  </g>
  <defs>
  </defs>
  <g stroke-linejoin="miter" stroke-opacity="1.0" fill-opacity="1.0" stroke="rgb(0,0,0)" stroke-width="1.9999999999999996" fill="rgb(0,0,255)" stroke-linecap="butt" stroke-miterlimit="10.0">
    <path d="M 71.6786,391.6256 c 0.0000,-0.1381 -0.1119,-0.2500 -0.2500 -0.2500c -0.1381,-0.0000 -0.2500,0.1119 -0.2500 0.2500c -0.0000,0.1381 0.1119,0.2500 0.2500 0.2500c 0.1381,0.0000 0.2500,-0.1119 0.2500 -0.2500Z"/>
  </g>
  <defs>
  </defs>
  <g stroke-linejoin="miter" stroke-opacity="1.0" fill-opacity="1.0" stroke="rgb(0,0,0)" stroke-width="0.0" fill="rgb(255,0,0)" stroke-linecap="butt" stroke-miterlimit="10.0">
    <path d="M 71.4386,391.6256 c 0.0000,-0.0055 -0.0045,-0.0100 -0.0100 -0.0100c -0.0055,-0.0000 -0.0100,0.0045 -0.0100 0.0100c -0.0000,0.0055 0.0045,0.0100 0.0100 0.0100c 0.0055,0.0000 0.0100,-0.0045 0.0100 -0.0100Z"/>
  </g>
  <defs>
  </defs>
  <g stroke-linejoin="miter" stroke-opacity="1.0" fill-opacity="0.0" stroke="rgb(0,0,0)" stroke-width="0.5" fill="rgb(0,0,0)" stroke-linecap="butt" stroke-miterlimit="10.0">
    <path d="M 71.4286,428.5714 v -357.1429 "/>
  </g>
  <defs>
  </defs>
  <g stroke-linejoin="miter" stroke-opacity="1.0" fill-opacity="0.0" stroke="rgb(0,0,0)" stroke-width="0.5" fill="rgb(0,0,0)" stroke-linecap="butt" stroke-miterlimit="10.0">
    <path d="M 71.4286,428.5714 h 357.1429 "/>
  </g>
</svg>