<?xml version="1.0" encoding="UTF-8"?>
<!DOCTYPE svg PUBLIC "-//W3C//DTD SVG 1.1//EN"
    "http://www.w3.org/Graphics/SVG/1.1/DTD/svg11.dtd">
<svg xmlns="http://www.w3.org/2000/svg" height="500.0000" stroke-opacity="1" viewBox="0 0 500 500" font-size="1" width="500.0000" xmlns:xlink="http://www.w3.org/1999/xlink" stroke="rgb(0,0,0)" version="1.1">
  <defs>
  </defs>
  <defs>
  </defs>
  <g stroke-linejoin="miter" stroke-opacity="1.0" fill-opacity="0.0" stroke="rgb(0,0,0)" stroke-width="0.5" fill="rgb(0,0,0)" stroke-linecap="butt" stroke-miterlimit="10.0">
    <path d="M 253.4986,253.4986 l -0.0000,-6.9972 h -6.9972 l -0.0000,6.9972 Z"/>
  </g>
  <defs>
  </defs>
  <g stroke-linejoin="miter" stroke-opacity="1.0" fill-opacity="0.0" stroke="rgb(0,0,0)" stroke-width="2.0" fill="rgb(0,0,0)" stroke-linecap="butt" stroke-miterlimit="10.0">
    <path d="M 0.1000,407.9828 l 55.5333,-5.7448 l 55.5333,-57.4483 l 55.5333,-57.4483 l 55.5333,-287.2414 l 55.5333,172.3449 l 55.5333,57.4483 l 55.5333,114.8966 l 55.5333,68.9379 l 55.5333,57.4483 "/>
  </g>
  <defs>
  </defs>
  <g stroke-linejoin="miter" stroke-opacity="1.0" fill-opacity="0.0" stroke="rgb(0,0,0)" stroke-width="2.0" fill="rgb(0,0,0)" stroke-linecap="butt" stroke-miterlimit="10.0">
    <path d="M 0.1000,448.1966 l 55.5333,-17.2345 l 55.5333,-28.7241 l 55.5333,-57.4483 l 55.5333,-172.3449 l 55.5333,57.4483 l 55.5333,57.4483 l 55.5333,114.8966 l 55.5333,57.4483 l 55.5333,40.2138 "/>
  </g>
  <defs>
  </defs>
  <g stroke-linejoin="miter" stroke-opacity="1.0" fill-opacity="1.0" stroke="rgb(0,0,0)" stroke-width="2.0" fill="rgb(0,0,255)" stroke-linecap="butt" stroke-miterlimit="10.0">
    <path d="M 500.0000,471.1759 c 0.0000,-0.0552 -0.0448,-0.1000 -0.1000 -0.1000c -0.0552,-0.0000 -0.1000,0.0448 -0.1000 0.1000c -0.0000,0.0552 0.0448,0.1000 0.1000 0.1000c 0.0552,0.0000 0.1000,-0.0448 0.1000 -0.1000Z"/>
  </g>
  <defs>
  </defs>
  <g stroke-linejoin="miter" stroke-opacity="1.0" fill-opacity="1.0" stroke="rgb(0,0,0)" stroke-width="0.0" fill="rgb(255,0,0)" stroke-linecap="butt" stroke-miterlimit="10.0">
    <path d="M 499.9040,471.1759 c 0.0000,-0.0022 -0.0018,-0.0040 -0.0040 -0.0040c -0.0022,-0.0000 -0.0040,0.0018 -0.0040 0.0040c -0.0000,0.0022 0.0018,0.0040 0.0040 0.0040c 0.0022,0.0000 0.0040,-0.0018 0.0040 -0.0040Z"/>
  </g>
  <defs>
  </defs>
  <g stroke-linejoin="miter" stroke-opacity="1.0" fill-opacity="1.0" stroke="rgb(0,0,0)" stroke-width="2.0" fill="rgb(0,0,255)" stroke-linecap="butt" stroke-miterlimit="10.0">
    <path d="M 444.4667,413.7276 c 0.0000,-0.0552 -0.0448,-0.1000 -0.1000 -0.1000c -0.0552,-0.0000 -0.1000,0.0448 -0.1000 0.1000c -0.0000,0.0552 0.0448,0.1000 0.1000 0.1000c 0.0552,0.0000 0.1000,-0.0448 0.1000 -0.1000Z"/>
  </g>
  <defs>
  </defs>
  <g stroke-linejoin="miter" stroke-opacity="1.0" fill-opacity="1.0" stroke="rgb(0,0,0)" stroke-width="0.0" fill="rgb(255,0,0)" stroke-linecap="butt" stroke-miterlimit="10.0">
    <path d="M 444.3707,413.7276 c 0.0000,-0.0022 -0.0018,-0.0040 -0.0040 -0.0040c -0.0022,-0.0000 -0.0040,0.0018 -0.0040 0.0040c -0.0000,0.0022 0.0018,0.0040 0.0040 0.0040c 0.0022,0.0000 0.0040,-0.0018 0.0040 -0.0040Z"/>
  </g>
  <defs>
  </defs>
  <g stroke-linejoin="miter" stroke-opacity="1.0" fill-opacity="1.0" stroke="rgb(0,0,0)" stroke-width="2.0" fill="rgb(0,0,255)" stroke-linecap="butt" stroke-miterlimit="10.0">
    <path d="M 388.9333,344.7897 c 0.0000,-0.0552 -0.0448,-0.1000 -0.1000 -0.1000c -0.0552,-0.0000 -0.1000,0.0448 -0.1000 0.1000c -0.0000,0.0552 0.0448,0.1000 0.1000 0.1000c 0.0552,0.0000 0.1000,-0.0448 0.1000 -0.1000Z"/>
  </g>
  <defs>
  </defs>
  <g stroke-linejoin="miter" stroke-opacity="1.0" fill-opacity="1.0" stroke="rgb(0,0,0)" stroke-width="0.0" fill="rgb(255,0,0)" stroke-linecap="butt" stroke-miterlimit="10.0">
    <path d="M 388.8374,344.7897 c 0.0000,-0.0022 -0.0018,-0.0040 -0.0040 -0.0040c -0.0022,-0.0000 -0.0040,0.0018 -0.0040 0.0040c -0.0000,0.0022 0.0018,0.0040 0.0040 0.0040c 0.0022,0.0000 0.0040,-0.0018 0.0040 -0.0040Z"/>
  </g>
  <defs>
  </defs>
  <g stroke-linejoin="miter" stroke-opacity="1.0" fill-opacity="1.0" stroke="rgb(0,0,0)" stroke-width="2.0" fill="rgb(0,0,255)" stroke-linecap="butt" stroke-miterlimit="10.0">
    <path d="M 333.4000,229.8931 c 0.0000,-0.0552 -0.0448,-0.1000 -0.1000 -0.1000c -0.0552,-0.0000 -0.1000,0.0448 -0.1000 0.1000c -0.0000,0.0552 0.0448,0.1000 0.1000 0.1000c 0.0552,0.0000 0.1000,-0.0448 0.1000 -0.1000Z"/>
  </g>
  <defs>
  </defs>
  <g stroke-linejoin="miter" stroke-opacity="1.0" fill-opacity="1.0" stroke="rgb(0,0,0)" stroke-width="0.0" fill="rgb(255,0,0)" stroke-linecap="butt" stroke-miterlimit="10.0">
    <path d="M 333.3040,229.8931 c 0.0000,-0.0022 -0.0018,-0.0040 -0.0040 -0.0040c -0.0022,-0.0000 -0.0040,0.0018 -0.0040 0.0040c -0.0000,0.0022 0.0018,0.0040 0.0040 0.0040c 0.0022,0.0000 0.0040,-0.0018 0.0040 -0.0040Z"/>
  </g>
  <defs>
  </defs>
  <g stroke-linejoin="miter" stroke-opacity="1.0" fill-opacity="1.0" stroke="rgb(0,0,0)" stroke-width="2.0" fill="rgb(0,0,255)" stroke-linecap="butt" stroke-miterlimit="10.0">
    <path d="M 277.8666,172.4448 c 0.0000,-0.0552 -0.0448,-0.1000 -0.1000 -0.1000c -0.0552,-0.0000 -0.1000,0.0448 -0.1000 0.1000c -0.0000,0.0552 0.0448,0.1000 0.1000 0.1000c 0.0552,0.0000 0.1000,-0.0448 0.1000 -0.1000Z"/>
  </g>
  <defs>
  </defs>
  <g stroke-linejoin="miter" stroke-opacity="1.0" fill-opacity="1.0" stroke="rgb(0,0,0)" stroke-width="0.0" fill="rgb(255,0,0)" stroke-linecap="butt" stroke-miterlimit="10.0">
    <path d="M 277.7707,172.4448 c 0.0000,-0.0022 -0.0018,-0.0040 -0.0040 -0.0040c -0.0022,-0.0000 -0.0040,0.0018 -0.0040 0.0040c -0.0000,0.0022 0.0018,0.0040 0.0040 0.0040c 0.0022,0.0000 0.0040,-0.0018 0.0040 -0.0040Z"/>
  </g>
  <defs>
  </defs>
  <g stroke-linejoin="miter" stroke-opacity="1.0" fill-opacity="1.0" stroke="rgb(0,0,0)" stroke-width="2.0" fill="rgb(0,0,255)" stroke-linecap="butt" stroke-miterlimit="10.0">
    <path d="M 222.3333,0.1000 c 0.0000,-0.0552 -0.0448,-0.1000 -0.1000 -0.1000c -0.0552,-0.0000 -0.1000,0.0448 -0.1000 0.1000c -0.0000,0.0552 0.0448,0.1000 0.1000 0.1000c 0.0552,0.0000 0.1000,-0.0448 0.1000 -0.1000Z"/>
  </g>
  <defs>
  </defs>
  <g stroke-linejoin="miter" stroke-opacity="1.0" fill-opacity="1.0" stroke="rgb(0,0,0)" stroke-width="0.0" fill="rgb(255,0,0)" stroke-linecap="butt" stroke-miterlimit="10.0">
    <path d="M 222.2373,0.1000 c 0.0000,-0.0022 -0.0018,-0.0040 -0.0040 -0.0040c -0.0022,-0.0000 -0.0040,0.0018 -0.0040 0.0040c -0.0000,0.0022 0.0018,0.0040 0.0040 0.0040c 0.0022,0.0000 0.0040,-0.0018 0.0040 -0.0040Z"/>
  </g>
  <defs>
  </defs>
  <g stroke-linejoin="miter" stroke-opacity="1.0" fill-opacity="1.0" stroke="rgb(0,0,0)" stroke-width="2.0" fill="rgb(0,0,255)" stroke-linecap="butt" stroke-miterlimit="10.0">
    <path d="M 166.7999,287.3414 c 0.0000,-0.0552 -0.0448,-0.1000 -0.1000 -0.1000c -0.0552,-0.0000 -0.1000,0.0448 -0.1000 0.1000c -0.0000,0.0552 0.0448,0.1000 0.1000 0.1000c 0.0552,0.0000 0.1000,-0.0448 0.1000 -0.1000Z"/>
  </g>
  <defs>
  </defs>
  <g stroke-linejoin="miter" stroke-opacity="1.0" fill-opacity="1.0" stroke="rgb(0,0,0)" stroke-width="0.0" fill="rgb(255,0,0)" stroke-linecap="butt" stroke-miterlimit="10.0">
    <path d="M 166.7040,287.3414 c 0.0000,-0.0022 -0.0018,-0.0040 -0.0040 -0.0040c -0.0022,-0.0000 -0.0040,0.0018 -0.0040 0.0040c -0.0000,0.0022 0.0018,0.0040 0.0040 0.0040c 0.0022,0.0000 0.0040,-0.0018 0.0040 -0.0040Z"/>
  </g>
  <defs>
  </defs>
  <g stroke-linejoin="miter" stroke-opacity="1.0" fill-opacity="1.0" stroke="rgb(0,0,0)" stroke-width="2.0" fill="rgb(0,0,255)" stroke-linecap="butt" stroke-miterlimit="10.0">
    <path d="M 111.2666,344.7897 c 0.0000,-0.0552 -0.0448,-0.1000 -0.1000 -0.1000c -0.0552,-0.0000 -0.1000,0.0448 -0.1000 0.1000c -0.0000,0.0552 0.0448,0.1000 0.1000 0.1000c 0.0552,0.0000 0.1000,-0.0448 0.1000 -0.1000Z"/>
  </g>
  <defs>
  </defs>
  <g stroke-linejoin="miter" stroke-opacity="1.0" fill-opacity="1.0" stroke="rgb(0,0,0)" stroke-width="0.0" fill="rgb(255,0,0)" stroke-linecap="butt" stroke-miterlimit="10.0">
    <path d="M 111.1706,344.7897 c 0.0000,-0.0022 -0.0018,-0.0040 -0.0040 -0.0040c -0.0022,-0.0000 -0.0040,0.0018 -0.0040 0.0040c -0.0000,0.0022 0.0018,0.0040 0.0040 0.0040c 0.0022,0.0000 0.0040,-0.0018 0.0040 -0.0040Z"/>
  </g>
  <defs>
  </defs>
  <g stroke-linejoin="miter" stroke-opacity="1.0" fill-opacity="1.0" stroke="rgb(0,0,0)" stroke-width="2.0" fill="rgb(0,0,255)" stroke-linecap="butt" stroke-miterlimit="10.0">
    <path d="M 55.7333,402.2380 c 0.0000,-0.0552 -0.0448,-0.1000 -0.1000 -0.1000c -0.0552,-0.0000 -0.1000,0.0448 -0.1000 0.1000c -0.0000,0.0552 0.0448,0.1000 0.1000 0.1000c 0.0552,0.0000 0.1000,-0.0448 0.1000 -0.1000Z"/>
  </g>
  <defs>
  </defs>
  <g stroke-linejoin="miter" stroke-opacity="1.0" fill-opacity="1.0" stroke="rgb(0,0,0)" stroke-width="0.0" fill="rgb(255,0,0)" stroke-linecap="butt" stroke-miterlimit="10.0">
    <path d="M 55.6373,402.2380 c 0.0000,-0.0022 -0.0018,-0.0040 -0.0040 -0.0040c -0.0022,-0.0000 -0.0040,0.0018 -0.0040 0.0040c -0.0000,0.0022 0.0018,0.0040 0.0040 0.0040c 0.0022,0.0000 0.0040,-0.0018 0.0040 -0.0040Z"/>
  </g>
  <defs>
  </defs>
  <g stroke-linejoin="miter" stroke-opacity="1.0" fill-opacity="1.0" stroke="rgb(0,0,0)" stroke-width="2.0" fill="rgb(0,0,255)" stroke-linecap="butt" stroke-miterlimit="10.0">
    <path d="M 0.1999,407.9828 c 0.0000,-0.0552 -0.0448,-0.1000 -0.1000 -0.1000c -0.0552,-0.0000 -0.1000,0.0448 -0.1000 0.1000c -0.0000,0.0552 0.0448,0.1000 0.1000 0.1000c 0.0552,0.0000 0.1000,-0.0448 0.1000 -0.1000Z"/>
  </g>
  <defs>
  </defs>
  <g stroke-linejoin="miter" stroke-opacity="1.0" fill-opacity="1.0" stroke="rgb(0,0,0)" stroke-width="0.0" fill="rgb(255,0,0)" stroke-linecap="butt" stroke-miterlimit="10.0">
    <path d="M 0.1040,407.9828 c 0.0000,-0.0022 -0.0018,-0.0040 -0.0040 -0.0040c -0.0022,-0.0000 -0.0040,0.0018 -0.0040 0.0040c -0.0000,0.0022 0.0018,0.0040 0.0040 0.0040c 0.0022,0.0000 0.0040,-0.0018 0.0040 -0.0040Z"/>
  </g>
  <defs>
  </defs>
  <g stroke-linejoin="miter" stroke-opacity="1.0" fill-opacity="1.0" stroke="rgb(0,0,0)" stroke-width="2.0" fill="rgb(0,0,255)" stroke-linecap="butt" stroke-miterlimit="10.0">
    <path d="M 500.0000,499.9000 c 0.0000,-0.0552 -0.0448,-0.1000 -0.1000 -0.1000c -0.0552,-0.0000 -0.1000,0.0448 -0.1000 0.1000c -0.0000,0.0552 0.0448,0.1000 0.1000 0.1000c 0.0552,0.0000 0.1000,-0.0448 0.1000 -0.1000Z"/>
  </g>
  <defs>
  </defs>
  <g stroke-linejoin="miter" stroke-opacity="1.0" fill-opacity="1.0" stroke="rgb(0,0,0)" stroke-width="0.0" fill="rgb(255,0,0)" stroke-linecap="butt" stroke-miterlimit="10.0">
    <path d="M 499.9040,499.9000 c 0.0000,-0.0022 -0.0018,-0.0040 -0.0040 -0.0040c -0.0022,-0.0000 -0.0040,0.0018 -0.0040 0.0040c -0.0000,0.0022 0.0018,0.0040 0.0040 0.0040c 0.0022,0.0000 0.0040,-0.0018 0.0040 -0.0040Z"/>
  </g>
  <defs>
  </defs>
  <g stroke-linejoin="miter" stroke-opacity="1.0" fill-opacity="1.0" stroke="rgb(0,0,0)" stroke-width="2.0" fill="rgb(0,0,255)" stroke-linecap="butt" stroke-miterlimit="10.0">
    <path d="M 444.4667,459.6862 c 0.0000,-0.0552 -0.0448,-0.1000 -0.1000 -0.1000c -0.0552,-0.0000 -0.1000,0.0448 -0.1000 0.1000c -0.0000,0.0552 0.0448,0.1000 0.1000 0.1000c 0.0552,0.0000 0.1000,-0.0448 0.1000 -0.1000Z"/>
  </g>
  <defs>
  </defs>
  <g stroke-linejoin="miter" stroke-opacity="1.0" fill-opacity="1.0" stroke="rgb(0,0,0)" stroke-width="0.0" fill="rgb(255,0,0)" stroke-linecap="butt" stroke-miterlimit="10.0">
    <path d="M 444.3707,459.6862 c 0.0000,-0.0022 -0.0018,-0.0040 -0.0040 -0.0040c -0.0022,-0.0000 -0.0040,0.0018 -0.0040 0.0040c -0.0000,0.0022 0.0018,0.0040 0.0040 0.0040c 0.0022,0.0000 0.0040,-0.0018 0.0040 -0.0040Z"/>
  </g>
  <defs>
  </defs>
  <g stroke-linejoin="miter" stroke-opacity="1.0" fill-opacity="1.0" stroke="rgb(0,0,0)" stroke-width="2.0" fill="rgb(0,0,255)" stroke-linecap="butt" stroke-miterlimit="10.0">
    <path d="M 388.9333,402.2380 c 0.0000,-0.0552 -0.0448,-0.1000 -0.1000 -0.1000c -0.0552,-0.0000 -0.1000,0.0448 -0.1000 0.1000c -0.0000,0.0552 0.0448,0.1000 0.1000 0.1000c 0.0552,0.0000 0.1000,-0.0448 0.1000 -0.1000Z"/>
  </g>
  <defs>
  </defs>
  <g stroke-linejoin="miter" stroke-opacity="1.0" fill-opacity="1.0" stroke="rgb(0,0,0)" stroke-width="0.0" fill="rgb(255,0,0)" stroke-linecap="butt" stroke-miterlimit="10.0">
    <path d="M 388.8374,402.2380 c 0.0000,-0.0022 -0.0018,-0.0040 -0.0040 -0.0040c -0.0022,-0.0000 -0.0040,0.0018 -0.0040 0.0040c -0.0000,0.0022 0.0018,0.0040 0.0040 0.0040c 0.0022,0.0000 0.0040,-0.0018 0.0040 -0.0040Z"/>
  </g>
  <defs>
  </defs>
  <g stroke-linejoin="miter" stroke-opacity="1.0" fill-opacity="1.0" stroke="rgb(0,0,0)" stroke-width="2.0" fill="rgb(0,0,255)" stroke-linecap="butt" stroke-miterlimit="10.0">
    <path d="M 333.4000,287.3414 c 0.0000,-0.0552 -0.0448,-0.1000 -0.1000 -0.1000c -0.0552,-0.0000 -0.1000,0.0448 -0.1000 0.1000c -0.0000,0.0552 0.0448,0.1000 0.1000 0.1000c 0.0552,0.0000 0.1000,-0.0448 0.1000 -0.1000Z"/>
  </g>
  <defs>
  </defs>
  <g stroke-linejoin="miter" stroke-opacity="1.0" fill-opacity="1.0" stroke="rgb(0,0,0)" stroke-width="0.0" fill="rgb(255,0,0)" stroke-linecap="butt" stroke-miterlimit="10.0">
    <path d="M 333.3040,287.3414 c 0.0000,-0.0022 -0.0018,-0.0040 -0.0040 -0.0040c -0.0022,-0.0000 -0.0040,0.0018 -0.0040 0.0040c -0.0000,0.0022 0.0018,0.0040 0.0040 0.0040c 0.0022,0.0000 0.0040,-0.0018 0.0040 -0.0040Z"/>
  </g>
  <defs>
  </defs>
  <g stroke-linejoin="miter" stroke-opacity="1.0" fill-opacity="1.0" stroke="rgb(0,0,0)" stroke-width="2.0" fill="rgb(0,0,255)" stroke-linecap="butt" stroke-miterlimit="10.0">
    <path d="M 277.8666,229.8931 c 0.0000,-0.0552 -0.0448,-0.1000 -0.1000 -0.1000c -0.0552,-0.0000 -0.1000,0.0448 -0.1000 0.1000c -0.0000,0.0552 0.0448,0.1000 0.1000 0.1000c 0.0552,0.0000 0.1000,-0.0448 0.1000 -0.1000Z"/>
  </g>
  <defs>
  </defs>
  <g stroke-linejoin="miter" stroke-opacity="1.0" fill-opacity="1.0" stroke="rgb(0,0,0)" stroke-width="0.0" fill="rgb(255,0,0)" stroke-linecap="butt" stroke-miterlimit="10.0">
    <path d="M 277.7707,229.8931 c 0.0000,-0.0022 -0.0018,-0.0040 -0.0040 -0.0040c -0.0022,-0.0000 -0.0040,0.0018 -0.0040 0.0040c -0.0000,0.0022 0.0018,0.0040 0.0040 0.0040c 0.0022,0.0000 0.0040,-0.0018 0.0040 -0.0040Z"/>
  </g>
  <defs>
  </defs>
  <g stroke-linejoin="miter" stroke-opacity="1.0" fill-opacity="1.0" stroke="rgb(0,0,0)" stroke-width="2.0" fill="rgb(0,0,255)" stroke-linecap="butt" stroke-miterlimit="10.0">
    <path d="M 222.3333,172.4448 c 0.0000,-0.0552 -0.0448,-0.1000 -0.1000 -0.1000c -0.0552,-0.0000 -0.1000,0.0448 -0.1000 0.1000c -0.0000,0.0552 0.0448,0.1000 0.1000 0.1000c 0.0552,0.0000 0.1000,-0.0448 0.1000 -0.1000Z"/>
  </g>
  <defs>
  </defs>
  <g stroke-linejoin="miter" stroke-opacity="1.0" fill-opacity="1.0" stroke="rgb(0,0,0)" stroke-width="0.0" fill="rgb(255,0,0)" stroke-linecap="butt" stroke-miterlimit="10.0">
    <path d="M 222.2373,172.4448 c 0.0000,-0.0022 -0.0018,-0.0040 -0.0040 -0.0040c -0.0022,-0.0000 -0.0040,0.0018 -0.0040 0.0040c -0.0000,0.0022 0.0018,0.0040 0.0040 0.0040c 0.0022,0.0000 0.0040,-0.0018 0.0040 -0.0040Z"/>
  </g>
  <defs>
  </defs>
  <g stroke-linejoin="miter" stroke-opacity="1.0" fill-opacity="1.0" stroke="rgb(0,0,0)" stroke-width="2.0" fill="rgb(0,0,255)" stroke-linecap="butt" stroke-miterlimit="10.0">
    <path d="M 166.7999,344.7897 c 0.0000,-0.0552 -0.0448,-0.1000 -0.1000 -0.1000c -0.0552,-0.0000 -0.1000,0.0448 -0.1000 0.1000c -0.0000,0.0552 0.0448,0.1000 0.1000 0.1000c 0.0552,0.0000 0.1000,-0.0448 0.1000 -0.1000Z"/>
  </g>
  <defs>
  </defs>
  <g stroke-linejoin="miter" stroke-opacity="1.0" fill-opacity="1.0" stroke="rgb(0,0,0)" stroke-width="0.0" fill="rgb(255,0,0)" stroke-linecap="butt" stroke-miterlimit="10.0">
    <path d="M 166.7040,344.7897 c 0.0000,-0.0022 -0.0018,-0.0040 -0.0040 -0.0040c -0.0022,-0.0000 -0.0040,0.0018 -0.0040 0.0040c -0.0000,0.0022 0.0018,0.0040 0.0040 0.0040c 0.0022,0.0000 0.0040,-0.0018 0.0040 -0.0040Z"/>
  </g>
  <defs>
  </defs>
  <g stroke-linejoin="miter" stroke-opacity="1.0" fill-opacity="1.0" stroke="rgb(0,0,0)" stroke-width="2.0" fill="rgb(0,0,255)" stroke-linecap="butt" stroke-miterlimit="10.0">
    <path d="M 111.2666,402.2380 c 0.0000,-0.0552 -0.0448,-0.1000 -0.1000 -0.1000c -0.0552,-0.0000 -0.1000,0.0448 -0.1000 0.1000c -0.0000,0.0552 0.0448,0.1000 0.1000 0.1000c 0.0552,0.0000 0.1000,-0.0448 0.1000 -0.1000Z"/>
  </g>
  <defs>
  </defs>
  <g stroke-linejoin="miter" stroke-opacity="1.0" fill-opacity="1.0" stroke="rgb(0,0,0)" stroke-width="0.0" fill="rgb(255,0,0)" stroke-linecap="butt" stroke-miterlimit="10.0">
    <path d="M 111.1706,402.2380 c 0.0000,-0.0022 -0.0018,-0.0040 -0.0040 -0.0040c -0.0022,-0.0000 -0.0040,0.0018 -0.0040 0.0040c -0.0000,0.0022 0.0018,0.0040 0.0040 0.0040c 0.0022,0.0000 0.0040,-0.0018 0.0040 -0.0040Z"/>
  </g>
  <defs>
  </defs>
  <g stroke-linejoin="miter" stroke-opacity="1.0" fill-opacity="1.0" stroke="rgb(0,0,0)" stroke-width="2.0" fill="rgb(0,0,255)" stroke-linecap="butt" stroke-miterlimit="10.0">
    <path d="M 55.7333,430.9621 c 0.0000,-0.0552 -0.0448,-0.1000 -0.1000 -0.1000c -0.0552,-0.0000 -0.1000,0.0448 -0.1000 0.1000c -0.0000,0.0552 0.0448,0.1000 0.1000 0.1000c 0.0552,0.0000 0.1000,-0.0448 0.1000 -0.1000Z"/>
  </g>
  <defs>
  </defs>
  <g stroke-linejoin="miter" stroke-opacity="1.0" fill-opacity="1.0" stroke="rgb(0,0,0)" stroke-width="0.0" fill="rgb(255,0,0)" stroke-linecap="butt" stroke-miterlimit="10.0">
    <path d="M 55.6373,430.9621 c 0.0000,-0.0022 -0.0018,-0.0040 -0.0040 -0.0040c -0.0022,-0.0000 -0.0040,0.0018 -0.0040 0.0040c -0.0000,0.0022 0.0018,0.0040 0.0040 0.0040c 0.0022,0.0000 0.0040,-0.0018 0.0040 -0.0040Z"/>
  </g>
  <defs>
  </defs>
  <g stroke-linejoin="miter" stroke-opacity="1.0" fill-opacity="1.0" stroke="rgb(0,0,0)" stroke-width="2.0" fill="rgb(0,0,255)" stroke-linecap="butt" stroke-miterlimit="10.0">
    <path d="M 0.1999,448.1966 c 0.0000,-0.0552 -0.0448,-0.1000 -0.1000 -0.1000c -0.0552,-0.0000 -0.1000,0.0448 -0.1000 0.1000c -0.0000,0.0552 0.0448,0.1000 0.1000 0.1000c 0.0552,0.0000 0.1000,-0.0448 0.1000 -0.1000Z"/>
  </g>
  <defs>
  </defs>
  <g stroke-linejoin="miter" stroke-opacity="1.0" fill-opacity="1.0" stroke="rgb(0,0,0)" stroke-width="0.0" fill="rgb(255,0,0)" stroke-linecap="butt" stroke-miterlimit="10.0">
    <path d="M 0.1040,448.1966 c 0.0000,-0.0022 -0.0018,-0.0040 -0.0040 -0.0040c -0.0022,-0.0000 -0.0040,0.0018 -0.0040 0.0040c -0.0000,0.0022 0.0018,0.0040 0.0040 0.0040c 0.0022,0.0000 0.0040,-0.0018 0.0040 -0.0040Z"/>
  </g>
  <defs>
  </defs>
  <g stroke-linejoin="miter" stroke-opacity="1.0" fill-opacity="0.0" stroke="rgb(0,0,0)" stroke-width="2.0" fill="rgb(0,0,0)" stroke-linecap="butt" stroke-miterlimit="10.0">
    <path d="M 0.1000,499.9000 v -4.9980 "/>
  </g>
  <defs>
  </defs>
  <g stroke-linejoin="miter" stroke-opacity="1.0" fill-opacity="0.0" stroke="rgb(0,0,0)" stroke-width="2.0" fill="rgb(0,0,0)" stroke-linecap="butt" stroke-miterlimit="10.0">
    <path d="M 0.1000,499.9000 h 4.9980 "/>
  </g>
</svg>