<?xml version="1.0" encoding="UTF-8"?>
<!DOCTYPE svg PUBLIC "-//W3C//DTD SVG 1.1//EN"
    "http://www.w3.org/Graphics/SVG/1.1/DTD/svg11.dtd">
<svg xmlns="http://www.w3.org/2000/svg" height="500.0000" stroke-opacity="1" viewBox="0 0 500 500" font-size="1" width="500.0000" xmlns:xlink="http://www.w3.org/1999/xlink" stroke="rgb(0,0,0)" version="1.1">
  <defs>
  </defs>
  <defs>
  </defs>
  <g stroke-linejoin="miter" stroke-opacity="1.0" fill-opacity="1.0" stroke="rgb(0,0,0)" stroke-width="1.9999999999999993" fill="rgb(0,0,255)" stroke-linecap="butt" stroke-miterlimit="10.0">
    <path d="M 472.2260,455.4246 c 0.0000,-0.1753 -0.1421,-0.3174 -0.3174 -0.3174c -0.1753,-0.0000 -0.3174,0.1421 -0.3174 0.3174c -0.0000,0.1753 0.1421,0.3174 0.3174 0.3174c 0.1753,0.0000 0.3174,-0.1421 0.3174 -0.3174Z"/>
  </g>
  <defs>
  </defs>
  <g stroke-linejoin="miter" stroke-opacity="1.0" fill-opacity="1.0" stroke="rgb(0,0,0)" stroke-width="0.0" fill="rgb(255,0,0)" stroke-linecap="butt" stroke-miterlimit="10.0">
    <path d="M 471.9213,455.4246 c 0.0000,-0.0070 -0.0057,-0.0127 -0.0127 -0.0127c -0.0070,-0.0000 -0.0127,0.0057 -0.0127 0.0127c -0.0000,0.0070 0.0057,0.0127 0.0127 0.0127c 0.0070,0.0000 0.0127,-0.0057 0.0127 -0.0127Z"/>
  </g>
  <defs>
  </defs>
  <g stroke-linejoin="miter" stroke-opacity="1.0" fill-opacity="1.0" stroke="rgb(0,0,0)" stroke-width="1.9999999999999993" fill="rgb(0,0,255)" stroke-linecap="butt" stroke-miterlimit="10.0">
    <path d="M 421.8493,403.3108 c 0.0000,-0.1753 -0.1421,-0.3174 -0.3174 -0.3174c -0.1753,-0.0000 -0.3174,0.1421 -0.3174 0.3174c -0.0000,0.1753 0.1421,0.3174 0.3174 0.3174c 0.1753,0.0000 0.3174,-0.1421 0.3174 -0.3174Z"/>
  </g>
  <defs>
  </defs>
  <g stroke-linejoin="miter" stroke-opacity="1.0" fill-opacity="1.0" stroke="rgb(0,0,0)" stroke-width="0.0" fill="rgb(255,0,0)" stroke-linecap="butt" stroke-miterlimit="10.0">
    <path d="M 421.5446,403.3108 c 0.0000,-0.0070 -0.0057,-0.0127 -0.0127 -0.0127c -0.0070,-0.0000 -0.0127,0.0057 -0.0127 0.0127c -0.0000,0.0070 0.0057,0.0127 0.0127 0.0127c 0.0070,0.0000 0.0127,-0.0057 0.0127 -0.0127Z"/>
  </g>
  <defs>
  </defs>
  <g stroke-linejoin="miter" stroke-opacity="1.0" fill-opacity="1.0" stroke="rgb(0,0,0)" stroke-width="1.9999999999999993" fill="rgb(0,0,255)" stroke-linecap="butt" stroke-miterlimit="10.0">
    <path d="M 371.4726,340.7742 c 0.0000,-0.1753 -0.1421,-0.3174 -0.3174 -0.3174c -0.1753,-0.0000 -0.3174,0.1421 -0.3174 0.3174c -0.0000,0.1753 0.1421,0.3174 0.3174 0.3174c 0.1753,0.0000 0.3174,-0.1421 0.3174 -0.3174Z"/>
  </g>
  <defs>
  </defs>
  <g stroke-linejoin="miter" stroke-opacity="1.0" fill-opacity="1.0" stroke="rgb(0,0,0)" stroke-width="0.0" fill="rgb(255,0,0)" stroke-linecap="butt" stroke-miterlimit="10.0">
    <path d="M 371.1679,340.7742 c 0.0000,-0.0070 -0.0057,-0.0127 -0.0127 -0.0127c -0.0070,-0.0000 -0.0127,0.0057 -0.0127 0.0127c -0.0000,0.0070 0.0057,0.0127 0.0127 0.0127c 0.0070,0.0000 0.0127,-0.0057 0.0127 -0.0127Z"/>
  </g>
  <defs>
  </defs>
  <g stroke-linejoin="miter" stroke-opacity="1.0" fill-opacity="1.0" stroke="rgb(0,0,0)" stroke-width="1.9999999999999993" fill="rgb(0,0,255)" stroke-linecap="butt" stroke-miterlimit="10.0">
    <path d="M 321.0959,236.5466 c 0.0000,-0.1753 -0.1421,-0.3174 -0.3174 -0.3174c -0.1753,-0.0000 -0.3174,0.1421 -0.3174 0.3174c -0.0000,0.1753 0.1421,0.3174 0.3174 0.3174c 0.1753,0.0000 0.3174,-0.1421 0.3174 -0.3174Z"/>
  </g>
  <defs>
  </defs>
  <g stroke-linejoin="miter" stroke-opacity="1.0" fill-opacity="1.0" stroke="rgb(0,0,0)" stroke-width="0.0" fill="rgb(255,0,0)" stroke-linecap="butt" stroke-miterlimit="10.0">
    <path d="M 320.7913,236.5466 c 0.0000,-0.0070 -0.0057,-0.0127 -0.0127 -0.0127c -0.0070,-0.0000 -0.0127,0.0057 -0.0127 0.0127c -0.0000,0.0070 0.0057,0.0127 0.0127 0.0127c 0.0070,0.0000 0.0127,-0.0057 0.0127 -0.0127Z"/>
  </g>
  <defs>
  </defs>
  <g stroke-linejoin="miter" stroke-opacity="1.0" fill-opacity="1.0" stroke="rgb(0,0,0)" stroke-width="1.9999999999999993" fill="rgb(0,0,255)" stroke-linecap="butt" stroke-miterlimit="10.0">
    <path d="M 270.7193,184.4328 c 0.0000,-0.1753 -0.1421,-0.3174 -0.3174 -0.3174c -0.1753,-0.0000 -0.3174,0.1421 -0.3174 0.3174c -0.0000,0.1753 0.1421,0.3174 0.3174 0.3174c 0.1753,0.0000 0.3174,-0.1421 0.3174 -0.3174Z"/>
  </g>
  <defs>
  </defs>
  <g stroke-linejoin="miter" stroke-opacity="1.0" fill-opacity="1.0" stroke="rgb(0,0,0)" stroke-width="0.0" fill="rgb(255,0,0)" stroke-linecap="butt" stroke-miterlimit="10.0">
    <path d="M 270.4146,184.4328 c 0.0000,-0.0070 -0.0057,-0.0127 -0.0127 -0.0127c -0.0070,-0.0000 -0.0127,0.0057 -0.0127 0.0127c -0.0000,0.0070 0.0057,0.0127 0.0127 0.0127c 0.0070,0.0000 0.0127,-0.0057 0.0127 -0.0127Z"/>
  </g>
  <defs>
  </defs>
  <g stroke-linejoin="miter" stroke-opacity="1.0" fill-opacity="1.0" stroke="rgb(0,0,0)" stroke-width="1.9999999999999993" fill="rgb(0,0,255)" stroke-linecap="butt" stroke-miterlimit="10.0">
    <path d="M 220.3426,28.0914 c 0.0000,-0.1753 -0.1421,-0.3174 -0.3174 -0.3174c -0.1753,-0.0000 -0.3174,0.1421 -0.3174 0.3174c -0.0000,0.1753 0.1421,0.3174 0.3174 0.3174c 0.1753,0.0000 0.3174,-0.1421 0.3174 -0.3174Z"/>
  </g>
  <defs>
  </defs>
  <g stroke-linejoin="miter" stroke-opacity="1.0" fill-opacity="1.0" stroke="rgb(0,0,0)" stroke-width="0.0" fill="rgb(255,0,0)" stroke-linecap="butt" stroke-miterlimit="10.0">
    <path d="M 220.0379,28.0914 c 0.0000,-0.0070 -0.0057,-0.0127 -0.0127 -0.0127c -0.0070,-0.0000 -0.0127,0.0057 -0.0127 0.0127c -0.0000,0.0070 0.0057,0.0127 0.0127 0.0127c 0.0070,0.0000 0.0127,-0.0057 0.0127 -0.0127Z"/>
  </g>
  <defs>
  </defs>
  <g stroke-linejoin="miter" stroke-opacity="1.0" fill-opacity="1.0" stroke="rgb(0,0,0)" stroke-width="1.9999999999999993" fill="rgb(0,0,255)" stroke-linecap="butt" stroke-miterlimit="10.0">
    <path d="M 169.9659,288.6604 c 0.0000,-0.1753 -0.1421,-0.3174 -0.3174 -0.3174c -0.1753,-0.0000 -0.3174,0.1421 -0.3174 0.3174c -0.0000,0.1753 0.1421,0.3174 0.3174 0.3174c 0.1753,0.0000 0.3174,-0.1421 0.3174 -0.3174Z"/>
  </g>
  <defs>
  </defs>
  <g stroke-linejoin="miter" stroke-opacity="1.0" fill-opacity="1.0" stroke="rgb(0,0,0)" stroke-width="0.0" fill="rgb(255,0,0)" stroke-linecap="butt" stroke-miterlimit="10.0">
    <path d="M 169.6612,288.6604 c 0.0000,-0.0070 -0.0057,-0.0127 -0.0127 -0.0127c -0.0070,-0.0000 -0.0127,0.0057 -0.0127 0.0127c -0.0000,0.0070 0.0057,0.0127 0.0127 0.0127c 0.0070,0.0000 0.0127,-0.0057 0.0127 -0.0127Z"/>
  </g>
  <defs>
  </defs>
  <g stroke-linejoin="miter" stroke-opacity="1.0" fill-opacity="1.0" stroke="rgb(0,0,0)" stroke-width="1.9999999999999993" fill="rgb(0,0,255)" stroke-linecap="butt" stroke-miterlimit="10.0">
    <path d="M 119.5892,340.7742 c 0.0000,-0.1753 -0.1421,-0.3174 -0.3174 -0.3174c -0.1753,-0.0000 -0.3174,0.1421 -0.3174 0.3174c -0.0000,0.1753 0.1421,0.3174 0.3174 0.3174c 0.1753,0.0000 0.3174,-0.1421 0.3174 -0.3174Z"/>
  </g>
  <defs>
  </defs>
  <g stroke-linejoin="miter" stroke-opacity="1.0" fill-opacity="1.0" stroke="rgb(0,0,0)" stroke-width="0.0" fill="rgb(255,0,0)" stroke-linecap="butt" stroke-miterlimit="10.0">
    <path d="M 119.2846,340.7742 c 0.0000,-0.0070 -0.0057,-0.0127 -0.0127 -0.0127c -0.0070,-0.0000 -0.0127,0.0057 -0.0127 0.0127c -0.0000,0.0070 0.0057,0.0127 0.0127 0.0127c 0.0070,0.0000 0.0127,-0.0057 0.0127 -0.0127Z"/>
  </g>
  <defs>
  </defs>
  <g stroke-linejoin="miter" stroke-opacity="1.0" fill-opacity="1.0" stroke="rgb(0,0,0)" stroke-width="1.9999999999999993" fill="rgb(0,0,255)" stroke-linecap="butt" stroke-miterlimit="10.0">
    <path d="M 69.2126,392.8880 c 0.0000,-0.1753 -0.1421,-0.3174 -0.3174 -0.3174c -0.1753,-0.0000 -0.3174,0.1421 -0.3174 0.3174c -0.0000,0.1753 0.1421,0.3174 0.3174 0.3174c 0.1753,0.0000 0.3174,-0.1421 0.3174 -0.3174Z"/>
  </g>
  <defs>
  </defs>
  <g stroke-linejoin="miter" stroke-opacity="1.0" fill-opacity="1.0" stroke="rgb(0,0,0)" stroke-width="0.0" fill="rgb(255,0,0)" stroke-linecap="butt" stroke-miterlimit="10.0">
    <path d="M 68.9079,392.8880 c 0.0000,-0.0070 -0.0057,-0.0127 -0.0127 -0.0127c -0.0070,-0.0000 -0.0127,0.0057 -0.0127 0.0127c -0.0000,0.0070 0.0057,0.0127 0.0127 0.0127c 0.0070,0.0000 0.0127,-0.0057 0.0127 -0.0127Z"/>
  </g>
  <defs>
  </defs>
  <g stroke-linejoin="miter" stroke-opacity="1.0" fill-opacity="1.0" stroke="rgb(0,0,0)" stroke-width="1.9999999999999993" fill="rgb(0,0,255)" stroke-linecap="butt" stroke-miterlimit="10.0">
    <path d="M 18.8359,398.0994 c 0.0000,-0.1753 -0.1421,-0.3174 -0.3174 -0.3174c -0.1753,-0.0000 -0.3174,0.1421 -0.3174 0.3174c -0.0000,0.1753 0.1421,0.3174 0.3174 0.3174c 0.1753,0.0000 0.3174,-0.1421 0.3174 -0.3174Z"/>
  </g>
  <defs>
  </defs>
  <g stroke-linejoin="miter" stroke-opacity="1.0" fill-opacity="1.0" stroke="rgb(0,0,0)" stroke-width="0.0" fill="rgb(255,0,0)" stroke-linecap="butt" stroke-miterlimit="10.0">
    <path d="M 18.5312,398.0994 c 0.0000,-0.0070 -0.0057,-0.0127 -0.0127 -0.0127c -0.0070,-0.0000 -0.0127,0.0057 -0.0127 0.0127c -0.0000,0.0070 0.0057,0.0127 0.0127 0.0127c 0.0070,0.0000 0.0127,-0.0057 0.0127 -0.0127Z"/>
  </g>
  <defs>
  </defs>
  <g stroke-linejoin="miter" stroke-opacity="1.0" fill-opacity="1.0" stroke="rgb(0,0,0)" stroke-width="1.9999999999999993" fill="rgb(0,0,255)" stroke-linecap="butt" stroke-miterlimit="10.0">
    <path d="M 472.2260,481.4815 c 0.0000,-0.1753 -0.1421,-0.3174 -0.3174 -0.3174c -0.1753,-0.0000 -0.3174,0.1421 -0.3174 0.3174c -0.0000,0.1753 0.1421,0.3174 0.3174 0.3174c 0.1753,0.0000 0.3174,-0.1421 0.3174 -0.3174Z"/>
  </g>
  <defs>
  </defs>
  <g stroke-linejoin="miter" stroke-opacity="1.0" fill-opacity="1.0" stroke="rgb(0,0,0)" stroke-width="0.0" fill="rgb(255,0,0)" stroke-linecap="butt" stroke-miterlimit="10.0">
    <path d="M 471.9213,481.4815 c 0.0000,-0.0070 -0.0057,-0.0127 -0.0127 -0.0127c -0.0070,-0.0000 -0.0127,0.0057 -0.0127 0.0127c -0.0000,0.0070 0.0057,0.0127 0.0127 0.0127c 0.0070,0.0000 0.0127,-0.0057 0.0127 -0.0127Z"/>
  </g>
  <defs>
  </defs>
  <g stroke-linejoin="miter" stroke-opacity="1.0" fill-opacity="1.0" stroke="rgb(0,0,0)" stroke-width="1.9999999999999993" fill="rgb(0,0,255)" stroke-linecap="butt" stroke-miterlimit="10.0">
    <path d="M 421.8493,445.0018 c 0.0000,-0.1753 -0.1421,-0.3174 -0.3174 -0.3174c -0.1753,-0.0000 -0.3174,0.1421 -0.3174 0.3174c -0.0000,0.1753 0.1421,0.3174 0.3174 0.3174c 0.1753,0.0000 0.3174,-0.1421 0.3174 -0.3174Z"/>
  </g>
  <defs>
  </defs>
  <g stroke-linejoin="miter" stroke-opacity="1.0" fill-opacity="1.0" stroke="rgb(0,0,0)" stroke-width="0.0" fill="rgb(255,0,0)" stroke-linecap="butt" stroke-miterlimit="10.0">
    <path d="M 421.5446,445.0018 c 0.0000,-0.0070 -0.0057,-0.0127 -0.0127 -0.0127c -0.0070,-0.0000 -0.0127,0.0057 -0.0127 0.0127c -0.0000,0.0070 0.0057,0.0127 0.0127 0.0127c 0.0070,0.0000 0.0127,-0.0057 0.0127 -0.0127Z"/>
  </g>
  <defs>
  </defs>
  <g stroke-linejoin="miter" stroke-opacity="1.0" fill-opacity="1.0" stroke="rgb(0,0,0)" stroke-width="1.9999999999999993" fill="rgb(0,0,255)" stroke-linecap="butt" stroke-miterlimit="10.0">
    <path d="M 371.4726,392.8880 c 0.0000,-0.1753 -0.1421,-0.3174 -0.3174 -0.3174c -0.1753,-0.0000 -0.3174,0.1421 -0.3174 0.3174c -0.0000,0.1753 0.1421,0.3174 0.3174 0.3174c 0.1753,0.0000 0.3174,-0.1421 0.3174 -0.3174Z"/>
  </g>
  <defs>
  </defs>
  <g stroke-linejoin="miter" stroke-opacity="1.0" fill-opacity="1.0" stroke="rgb(0,0,0)" stroke-width="0.0" fill="rgb(255,0,0)" stroke-linecap="butt" stroke-miterlimit="10.0">
    <path d="M 371.1679,392.8880 c 0.0000,-0.0070 -0.0057,-0.0127 -0.0127 -0.0127c -0.0070,-0.0000 -0.0127,0.0057 -0.0127 0.0127c -0.0000,0.0070 0.0057,0.0127 0.0127 0.0127c 0.0070,0.0000 0.0127,-0.0057 0.0127 -0.0127Z"/>
  </g>
  <defs>
  </defs>
  <g stroke-linejoin="miter" stroke-opacity="1.0" fill-opacity="1.0" stroke="rgb(0,0,0)" stroke-width="1.9999999999999993" fill="rgb(0,0,255)" stroke-linecap="butt" stroke-miterlimit="10.0">
    <path d="M 321.0959,288.6604 c 0.0000,-0.1753 -0.1421,-0.3174 -0.3174 -0.3174c -0.1753,-0.0000 -0.3174,0.1421 -0.3174 0.3174c -0.0000,0.1753 0.1421,0.3174 0.3174 0.3174c 0.1753,0.0000 0.3174,-0.1421 0.3174 -0.3174Z"/>
  </g>
  <defs>
  </defs>
  <g stroke-linejoin="miter" stroke-opacity="1.0" fill-opacity="1.0" stroke="rgb(0,0,0)" stroke-width="0.0" fill="rgb(255,0,0)" stroke-linecap="butt" stroke-miterlimit="10.0">
    <path d="M 320.7913,288.6604 c 0.0000,-0.0070 -0.0057,-0.0127 -0.0127 -0.0127c -0.0070,-0.0000 -0.0127,0.0057 -0.0127 0.0127c -0.0000,0.0070 0.0057,0.0127 0.0127 0.0127c 0.0070,0.0000 0.0127,-0.0057 0.0127 -0.0127Z"/>
  </g>
  <defs>
  </defs>
  <g stroke-linejoin="miter" stroke-opacity="1.0" fill-opacity="1.0" stroke="rgb(0,0,0)" stroke-width="1.9999999999999993" fill="rgb(0,0,255)" stroke-linecap="butt" stroke-miterlimit="10.0">
    <path d="M 270.7193,236.5466 c 0.0000,-0.1753 -0.1421,-0.3174 -0.3174 -0.3174c -0.1753,-0.0000 -0.3174,0.1421 -0.3174 0.3174c -0.0000,0.1753 0.1421,0.3174 0.3174 0.3174c 0.1753,0.0000 0.3174,-0.1421 0.3174 -0.3174Z"/>
  </g>
  <defs>
  </defs>
  <g stroke-linejoin="miter" stroke-opacity="1.0" fill-opacity="1.0" stroke="rgb(0,0,0)" stroke-width="0.0" fill="rgb(255,0,0)" stroke-linecap="butt" stroke-miterlimit="10.0">
    <path d="M 270.4146,236.5466 c 0.0000,-0.0070 -0.0057,-0.0127 -0.0127 -0.0127c -0.0070,-0.0000 -0.0127,0.0057 -0.0127 0.0127c -0.0000,0.0070 0.0057,0.0127 0.0127 0.0127c 0.0070,0.0000 0.0127,-0.0057 0.0127 -0.0127Z"/>
  </g>
  <defs>
  </defs>
  <g stroke-linejoin="miter" stroke-opacity="1.0" fill-opacity="1.0" stroke="rgb(0,0,0)" stroke-width="1.9999999999999993" fill="rgb(0,0,255)" stroke-linecap="butt" stroke-miterlimit="10.0">
    <path d="M 220.3426,184.4328 c 0.0000,-0.1753 -0.1421,-0.3174 -0.3174 -0.3174c -0.1753,-0.0000 -0.3174,0.1421 -0.3174 0.3174c -0.0000,0.1753 0.1421,0.3174 0.3174 0.3174c 0.1753,0.0000 0.3174,-0.1421 0.3174 -0.3174Z"/>
  </g>
  <defs>
  </defs>
  <g stroke-linejoin="miter" stroke-opacity="1.0" fill-opacity="1.0" stroke="rgb(0,0,0)" stroke-width="0.0" fill="rgb(255,0,0)" stroke-linecap="butt" stroke-miterlimit="10.0">
    <path d="M 220.0379,184.4328 c 0.0000,-0.0070 -0.0057,-0.0127 -0.0127 -0.0127c -0.0070,-0.0000 -0.0127,0.0057 -0.0127 0.0127c -0.0000,0.0070 0.0057,0.0127 0.0127 0.0127c 0.0070,0.0000 0.0127,-0.0057 0.0127 -0.0127Z"/>
  </g>
  <defs>
  </defs>
  <g stroke-linejoin="miter" stroke-opacity="1.0" fill-opacity="1.0" stroke="rgb(0,0,0)" stroke-width="1.9999999999999993" fill="rgb(0,0,255)" stroke-linecap="butt" stroke-miterlimit="10.0">
    <path d="M 169.9659,340.7742 c 0.0000,-0.1753 -0.1421,-0.3174 -0.3174 -0.3174c -0.1753,-0.0000 -0.3174,0.1421 -0.3174 0.3174c -0.0000,0.1753 0.1421,0.3174 0.3174 0.3174c 0.1753,0.0000 0.3174,-0.1421 0.3174 -0.3174Z"/>
  </g>
  <defs>
  </defs>
  <g stroke-linejoin="miter" stroke-opacity="1.0" fill-opacity="1.0" stroke="rgb(0,0,0)" stroke-width="0.0" fill="rgb(255,0,0)" stroke-linecap="butt" stroke-miterlimit="10.0">
    <path d="M 169.6612,340.7742 c 0.0000,-0.0070 -0.0057,-0.0127 -0.0127 -0.0127c -0.0070,-0.0000 -0.0127,0.0057 -0.0127 0.0127c -0.0000,0.0070 0.0057,0.0127 0.0127 0.0127c 0.0070,0.0000 0.0127,-0.0057 0.0127 -0.0127Z"/>
  </g>
  <defs>
  </defs>
  <g stroke-linejoin="miter" stroke-opacity="1.0" fill-opacity="1.0" stroke="rgb(0,0,0)" stroke-width="1.9999999999999993" fill="rgb(0,0,255)" stroke-linecap="butt" stroke-miterlimit="10.0">
    <path d="M 119.5892,392.8880 c 0.0000,-0.1753 -0.1421,-0.3174 -0.3174 -0.3174c -0.1753,-0.0000 -0.3174,0.1421 -0.3174 0.3174c -0.0000,0.1753 0.1421,0.3174 0.3174 0.3174c 0.1753,0.0000 0.3174,-0.1421 0.3174 -0.3174Z"/>
  </g>
  <defs>
  </defs>
  <g stroke-linejoin="miter" stroke-opacity="1.0" fill-opacity="1.0" stroke="rgb(0,0,0)" stroke-width="0.0" fill="rgb(255,0,0)" stroke-linecap="butt" stroke-miterlimit="10.0">
    <path d="M 119.2846,392.8880 c 0.0000,-0.0070 -0.0057,-0.0127 -0.0127 -0.0127c -0.0070,-0.0000 -0.0127,0.0057 -0.0127 0.0127c -0.0000,0.0070 0.0057,0.0127 0.0127 0.0127c 0.0070,0.0000 0.0127,-0.0057 0.0127 -0.0127Z"/>
  </g>
  <defs>
  </defs>
  <g stroke-linejoin="miter" stroke-opacity="1.0" fill-opacity="1.0" stroke="rgb(0,0,0)" stroke-width="1.9999999999999993" fill="rgb(0,0,255)" stroke-linecap="butt" stroke-miterlimit="10.0">
    <path d="M 69.2126,418.9449 c 0.0000,-0.1753 -0.1421,-0.3174 -0.3174 -0.3174c -0.1753,-0.0000 -0.3174,0.1421 -0.3174 0.3174c -0.0000,0.1753 0.1421,0.3174 0.3174 0.3174c 0.1753,0.0000 0.3174,-0.1421 0.3174 -0.3174Z"/>
  </g>
  <defs>
  </defs>
  <g stroke-linejoin="miter" stroke-opacity="1.0" fill-opacity="1.0" stroke="rgb(0,0,0)" stroke-width="0.0" fill="rgb(255,0,0)" stroke-linecap="butt" stroke-miterlimit="10.0">
    <path d="M 68.9079,418.9449 c 0.0000,-0.0070 -0.0057,-0.0127 -0.0127 -0.0127c -0.0070,-0.0000 -0.0127,0.0057 -0.0127 0.0127c -0.0000,0.0070 0.0057,0.0127 0.0127 0.0127c 0.0070,0.0000 0.0127,-0.0057 0.0127 -0.0127Z"/>
  </g>
  <defs>
  </defs>
  <g stroke-linejoin="miter" stroke-opacity="1.0" fill-opacity="1.0" stroke="rgb(0,0,0)" stroke-width="1.9999999999999993" fill="rgb(0,0,255)" stroke-linecap="butt" stroke-miterlimit="10.0">
    <path d="M 18.8359,434.5791 c 0.0000,-0.1753 -0.1421,-0.3174 -0.3174 -0.3174c -0.1753,-0.0000 -0.3174,0.1421 -0.3174 0.3174c -0.0000,0.1753 0.1421,0.3174 0.3174 0.3174c 0.1753,0.0000 0.3174,-0.1421 0.3174 -0.3174Z"/>
  </g>
  <defs>
  </defs>
  <g stroke-linejoin="miter" stroke-opacity="1.0" fill-opacity="1.0" stroke="rgb(0,0,0)" stroke-width="0.0" fill="rgb(255,0,0)" stroke-linecap="butt" stroke-miterlimit="10.0">
    <path d="M 18.5312,434.5791 c 0.0000,-0.0070 -0.0057,-0.0127 -0.0127 -0.0127c -0.0070,-0.0000 -0.0127,0.0057 -0.0127 0.0127c -0.0000,0.0070 0.0057,0.0127 0.0127 0.0127c 0.0070,0.0000 0.0127,-0.0057 0.0127 -0.0127Z"/>
  </g>
  <defs>
  </defs>
  <g stroke-linejoin="miter" stroke-opacity="1.0" fill-opacity="1.0" stroke="rgb(255,182,193)" stroke-width="1.9999999999999993" fill="rgb(255,182,193)" stroke-linecap="butt" stroke-miterlimit="10.0">
    <path d="M 18.5185,434.5791 l 50.3767,-15.6341 l 50.3767,-26.0569 l 50.3767,-52.1138 l 50.3767,-156.3414 l 50.3767,52.1138 l 50.3767,52.1138 l 50.3767,104.2276 l 50.3767,52.1138 l 50.3767,36.4797 v -26.0569 l -50.3767,-52.1138 l -50.3767,-62.5366 l -50.3767,-104.2276 l -50.3767,-52.1138 l -50.3767,-156.3414 l -50.3767,260.5690 l -50.3767,52.1138 l -50.3767,52.1138 l -50.3767,5.2114 Z"/>
  </g>
  <defs>
  </defs>
  <g stroke-linejoin="miter" stroke-opacity="1.0" fill-opacity="1.0" stroke="rgb(0,0,0)" stroke-width="0.0" fill="rgb(255,0,0)" stroke-linecap="butt" stroke-miterlimit="10.0">
    <path d="M 27.5863,434.5791 c 0.0000,-5.0080 -4.0598,-9.0678 -9.0678 -9.0678c -5.0080,-0.0000 -9.0678,4.0598 -9.0678 9.0678c -0.0000,5.0080 4.0598,9.0678 9.0678 9.0678c 5.0080,0.0000 9.0678,-4.0598 9.0678 -9.0678Z"/>
  </g>
  <defs>
  </defs>
  <g stroke-linejoin="miter" stroke-opacity="1.0" fill-opacity="0.0" stroke="rgb(0,0,0)" stroke-width="0.5" fill="rgb(0,0,0)" stroke-linecap="butt" stroke-miterlimit="10.0">
    <path d="M 18.5185,28.0914 v 453.3901 "/>
  </g>
  <defs>
  </defs>
  <g stroke-linejoin="miter" stroke-opacity="1.0" fill-opacity="1.0" stroke="rgb(0,0,0)" stroke-width="0.0" fill="rgb(255,0,0)" stroke-linecap="butt" stroke-miterlimit="10.0">
    <path d="M 27.5863,254.7864 c 0.0000,-5.0080 -4.0598,-9.0678 -9.0678 -9.0678c -5.0080,-0.0000 -9.0678,4.0598 -9.0678 9.0678c -0.0000,5.0080 4.0598,9.0678 9.0678 9.0678c 5.0080,0.0000 9.0678,-4.0598 9.0678 -9.0678Z"/>
  </g>
  <defs>
  </defs>
  <g stroke-linejoin="miter" stroke-opacity="1.0" fill-opacity="0.0" stroke="rgb(0,0,0)" stroke-width="0.5" fill="rgb(0,0,0)" stroke-linecap="butt" stroke-miterlimit="10.0">
    <path d="M 18.5185,481.4815 h 453.3901 "/>
  </g>
  <defs>
  </defs>
  <g stroke-linejoin="miter" stroke-opacity="1.0" fill-opacity="1.0" stroke="rgb(0,0,0)" stroke-width="0.0" fill="rgb(255,0,0)" stroke-linecap="butt" stroke-miterlimit="10.0">
    <path d="M 254.2814,481.4815 c 0.0000,-5.0080 -4.0598,-9.0678 -9.0678 -9.0678c -5.0080,-0.0000 -9.0678,4.0598 -9.0678 9.0678c -0.0000,5.0080 4.0598,9.0678 9.0678 9.0678c 5.0080,0.0000 9.0678,-4.0598 9.0678 -9.0678Z"/>
  </g>
  <defs>
  </defs>
  <g stroke-linejoin="miter" stroke-opacity="1.0" fill-opacity="1.0" stroke="rgb(0,0,0)" stroke-width="0.0" fill="rgb(255,0,0)" stroke-linecap="butt" stroke-miterlimit="10.0">
    <path d="M 27.7740,481.4815 c 0.0000,-5.1117 -4.1438,-9.2555 -9.2555 -9.2555c -5.1117,-0.0000 -9.2555,4.1438 -9.2555 9.2555c -0.0000,5.1117 4.1438,9.2555 9.2555 9.2555c 5.1117,0.0000 9.2555,-4.1438 9.2555 -9.2555Z"/>
  </g>
  <defs>
  </defs>
  <g stroke-linejoin="miter" stroke-opacity="1.0" fill-opacity="0.0" stroke="rgb(0,0,0)" stroke-width="0.5" fill="rgb(0,0,0)" stroke-linecap="butt" stroke-miterlimit="10.0">
    <path d="M 500.0000,500.0000 l -0.0000,-500.0000 h -500.0000 l -0.0000,500.0000 Z"/>
  </g>
  <defs>
  </defs>
  <g stroke-linejoin="miter" stroke-opacity="1.0" fill-opacity="1.0" stroke="rgb(0,0,0)" stroke-width="0.0" fill="rgb(255,0,0)" stroke-linecap="butt" stroke-miterlimit="10.0">
    <path d="M 260.0000,250.0000 c 0.0000,-5.5228 -4.4772,-10.0000 -10.0000 -10.0000c -5.5228,-0.0000 -10.0000,4.4772 -10.0000 10.0000c -0.0000,5.5228 4.4772,10.0000 10.0000 10.0000c 5.5228,0.0000 10.0000,-4.4772 10.0000 -10.0000Z"/>
  </g>
</svg>