<?xml version="1.0" encoding="UTF-8"?>
<!DOCTYPE svg PUBLIC "-//W3C//DTD SVG 1.1//EN"
    "http://www.w3.org/Graphics/SVG/1.1/DTD/svg11.dtd">
<svg xmlns="http://www.w3.org/2000/svg" height="500.0000" stroke-opacity="1" viewBox="0 0 500 500" font-size="1" width="500.0000" xmlns:xlink="http://www.w3.org/1999/xlink" stroke="rgb(0,0,0)" version="1.1">
  <defs>
  </defs>
  <defs>
  </defs>
  <g stroke-linejoin="miter" stroke-opacity="1.0" fill-opacity="1.0" stroke="rgb(0,0,0)" stroke-width="0.0" fill="rgb(211,211,211)" stroke-linecap="butt" stroke-miterlimit="10.0">
    <path d="M 429.1458,340.1547 h -0.0000 h -6.3305 h -0.0000 Z"/>
  </g>
  <defs>
  </defs>
  <g stroke-linejoin="miter" stroke-opacity="1.0" fill-opacity="1.0" stroke="rgb(0,0,0)" stroke-width="0.0" fill="rgb(255,0,0)" stroke-linecap="butt" stroke-miterlimit="10.0">
    <path d="M 426.1072,340.1547 c 0.0000,-0.0699 -0.0567,-0.1266 -0.1266 -0.1266c -0.0699,-0.0000 -0.1266,0.0567 -0.1266 0.1266c -0.0000,0.0699 0.0567,0.1266 0.1266 0.1266c 0.0699,0.0000 0.1266,-0.0567 0.1266 -0.1266Z"/>
  </g>
  <defs>
  </defs>
  <g stroke-linejoin="miter" stroke-opacity="1.0" fill-opacity="1.0" stroke="rgb(0,0,0)" stroke-width="0.0" fill="rgb(211,211,211)" stroke-linecap="butt" stroke-miterlimit="10.0">
    <path d="M 393.9764,340.1547 l -0.0000,-126.6100 h -6.3305 l -0.0000,126.6100 Z"/>
  </g>
  <defs>
  </defs>
  <g stroke-linejoin="miter" stroke-opacity="1.0" fill-opacity="1.0" stroke="rgb(0,0,0)" stroke-width="0.0" fill="rgb(255,0,0)" stroke-linecap="butt" stroke-miterlimit="10.0">
    <path d="M 393.3433,276.8497 c 0.0000,-1.3985 -1.1337,-2.5322 -2.5322 -2.5322c -1.3985,-0.0000 -2.5322,1.1337 -2.5322 2.5322c -0.0000,1.3985 1.1337,2.5322 2.5322 2.5322c 1.3985,0.0000 2.5322,-1.1337 2.5322 -2.5322Z"/>
  </g>
  <defs>
  </defs>
  <g stroke-linejoin="miter" stroke-opacity="1.0" fill-opacity="1.0" stroke="rgb(0,0,0)" stroke-width="0.0" fill="rgb(211,211,211)" stroke-linecap="butt" stroke-miterlimit="10.0">
    <path d="M 358.8069,340.1547 l -0.0000,-12.6610 h -6.3305 l -0.0000,12.6610 Z"/>
  </g>
  <defs>
  </defs>
  <g stroke-linejoin="miter" stroke-opacity="1.0" fill-opacity="1.0" stroke="rgb(0,0,0)" stroke-width="0.0" fill="rgb(255,0,0)" stroke-linecap="butt" stroke-miterlimit="10.0">
    <path d="M 355.8949,333.8242 c 0.0000,-0.1398 -0.1134,-0.2532 -0.2532 -0.2532c -0.1398,-0.0000 -0.2532,0.1134 -0.2532 0.2532c -0.0000,0.1398 0.1134,0.2532 0.2532 0.2532c 0.1398,0.0000 0.2532,-0.1134 0.2532 -0.2532Z"/>
  </g>
  <defs>
  </defs>
  <g stroke-linejoin="miter" stroke-opacity="1.0" fill-opacity="1.0" stroke="rgb(0,0,0)" stroke-width="0.0" fill="rgb(211,211,211)" stroke-linecap="butt" stroke-miterlimit="10.0">
    <path d="M 323.6375,340.1547 l -0.0000,-25.3220 h -6.3305 l -0.0000,25.3220 Z"/>
  </g>
  <defs>
  </defs>
  <g stroke-linejoin="miter" stroke-opacity="1.0" fill-opacity="1.0" stroke="rgb(0,0,0)" stroke-width="0.0" fill="rgb(255,0,0)" stroke-linecap="butt" stroke-miterlimit="10.0">
    <path d="M 320.9787,327.4937 c 0.0000,-0.2797 -0.2267,-0.5064 -0.5064 -0.5064c -0.2797,-0.0000 -0.5064,0.2267 -0.5064 0.5064c -0.0000,0.2797 0.2267,0.5064 0.5064 0.5064c 0.2797,0.0000 0.5064,-0.2267 0.5064 -0.5064Z"/>
  </g>
  <defs>
  </defs>
  <g stroke-linejoin="miter" stroke-opacity="1.0" fill-opacity="1.0" stroke="rgb(0,0,0)" stroke-width="0.0" fill="rgb(211,211,211)" stroke-linecap="butt" stroke-miterlimit="10.0">
    <path d="M 288.4680,340.1547 l -0.0000,-25.3220 h -6.3305 l -0.0000,25.3220 Z"/>
  </g>
  <defs>
  </defs>
  <g stroke-linejoin="miter" stroke-opacity="1.0" fill-opacity="1.0" stroke="rgb(0,0,0)" stroke-width="0.0" fill="rgb(255,0,0)" stroke-linecap="butt" stroke-miterlimit="10.0">
    <path d="M 285.8092,327.4937 c 0.0000,-0.2797 -0.2267,-0.5064 -0.5064 -0.5064c -0.2797,-0.0000 -0.5064,0.2267 -0.5064 0.5064c -0.0000,0.2797 0.2267,0.5064 0.5064 0.5064c 0.2797,0.0000 0.5064,-0.2267 0.5064 -0.5064Z"/>
  </g>
  <defs>
  </defs>
  <g stroke-linejoin="miter" stroke-opacity="1.0" fill-opacity="1.0" stroke="rgb(0,0,0)" stroke-width="0.0" fill="rgb(211,211,211)" stroke-linecap="butt" stroke-miterlimit="10.0">
    <path d="M 253.2986,340.1547 l -0.0000,-75.9660 h -6.3305 l -0.0000,75.9660 Z"/>
  </g>
  <defs>
  </defs>
  <g stroke-linejoin="miter" stroke-opacity="1.0" fill-opacity="1.0" stroke="rgb(0,0,0)" stroke-width="0.0" fill="rgb(255,0,0)" stroke-linecap="butt" stroke-miterlimit="10.0">
    <path d="M 251.6526,302.1717 c 0.0000,-0.8391 -0.6802,-1.5193 -1.5193 -1.5193c -0.8391,-0.0000 -1.5193,0.6802 -1.5193 1.5193c -0.0000,0.8391 0.6802,1.5193 1.5193 1.5193c 0.8391,0.0000 1.5193,-0.6802 1.5193 -1.5193Z"/>
  </g>
  <defs>
  </defs>
  <g stroke-linejoin="miter" stroke-opacity="1.0" fill-opacity="1.0" stroke="rgb(0,0,0)" stroke-width="0.0" fill="rgb(211,211,211)" stroke-linecap="butt" stroke-miterlimit="10.0">
    <path d="M 218.1291,340.1547 h -0.0000 h -6.3305 h -0.0000 Z"/>
  </g>
  <defs>
  </defs>
  <g stroke-linejoin="miter" stroke-opacity="1.0" fill-opacity="1.0" stroke="rgb(0,0,0)" stroke-width="0.0" fill="rgb(255,0,0)" stroke-linecap="butt" stroke-miterlimit="10.0">
    <path d="M 215.0905,340.1547 c 0.0000,-0.0699 -0.0567,-0.1266 -0.1266 -0.1266c -0.0699,-0.0000 -0.1266,0.0567 -0.1266 0.1266c -0.0000,0.0699 0.0567,0.1266 0.1266 0.1266c 0.0699,0.0000 0.1266,-0.0567 0.1266 -0.1266Z"/>
  </g>
  <defs>
  </defs>
  <g stroke-linejoin="miter" stroke-opacity="1.0" fill-opacity="1.0" stroke="rgb(0,0,0)" stroke-width="0.0" fill="rgb(211,211,211)" stroke-linecap="butt" stroke-miterlimit="10.0">
    <path d="M 182.9597,340.1547 l -0.0000,-25.3220 h -6.3305 l -0.0000,25.3220 Z"/>
  </g>
  <defs>
  </defs>
  <g stroke-linejoin="miter" stroke-opacity="1.0" fill-opacity="1.0" stroke="rgb(0,0,0)" stroke-width="0.0" fill="rgb(255,0,0)" stroke-linecap="butt" stroke-miterlimit="10.0">
    <path d="M 180.3008,327.4937 c 0.0000,-0.2797 -0.2267,-0.5064 -0.5064 -0.5064c -0.2797,-0.0000 -0.5064,0.2267 -0.5064 0.5064c -0.0000,0.2797 0.2267,0.5064 0.5064 0.5064c 0.2797,0.0000 0.5064,-0.2267 0.5064 -0.5064Z"/>
  </g>
  <defs>
  </defs>
  <g stroke-linejoin="miter" stroke-opacity="1.0" fill-opacity="1.0" stroke="rgb(0,0,0)" stroke-width="0.0" fill="rgb(211,211,211)" stroke-linecap="butt" stroke-miterlimit="10.0">
    <path d="M 147.7902,340.1547 l -0.0000,-50.6440 h -6.3305 l -0.0000,50.6440 Z"/>
  </g>
  <defs>
  </defs>
  <g stroke-linejoin="miter" stroke-opacity="1.0" fill-opacity="1.0" stroke="rgb(0,0,0)" stroke-width="0.0" fill="rgb(255,0,0)" stroke-linecap="butt" stroke-miterlimit="10.0">
    <path d="M 145.6378,314.8327 c 0.0000,-0.5594 -0.4535,-1.0129 -1.0129 -1.0129c -0.5594,-0.0000 -1.0129,0.4535 -1.0129 1.0129c -0.0000,0.5594 0.4535,1.0129 1.0129 1.0129c 0.5594,0.0000 1.0129,-0.4535 1.0129 -1.0129Z"/>
  </g>
  <defs>
  </defs>
  <g stroke-linejoin="miter" stroke-opacity="1.0" fill-opacity="1.0" stroke="rgb(0,0,0)" stroke-width="0.0" fill="rgb(211,211,211)" stroke-linecap="butt" stroke-miterlimit="10.0">
    <path d="M 112.6207,340.1547 l -0.0000,-25.3220 h -6.3305 l -0.0000,25.3220 Z"/>
  </g>
  <defs>
  </defs>
  <g stroke-linejoin="miter" stroke-opacity="1.0" fill-opacity="1.0" stroke="rgb(0,0,0)" stroke-width="0.0" fill="rgb(255,0,0)" stroke-linecap="butt" stroke-miterlimit="10.0">
    <path d="M 109.9619,327.4937 c 0.0000,-0.2797 -0.2267,-0.5064 -0.5064 -0.5064c -0.2797,-0.0000 -0.5064,0.2267 -0.5064 0.5064c -0.0000,0.2797 0.2267,0.5064 0.5064 0.5064c 0.2797,0.0000 0.5064,-0.2267 0.5064 -0.5064Z"/>
  </g>
  <defs>
  </defs>
  <g stroke-linejoin="miter" stroke-opacity="1.0" fill-opacity="1.0" stroke="rgb(0,0,0)" stroke-width="1.7373155385595611" fill="rgb(0,0,255)" stroke-linecap="butt" stroke-miterlimit="10.0">
    <path d="M 426.0249,340.1547 c 0.0000,-0.0245 -0.0198,-0.0443 -0.0443 -0.0443c -0.0245,-0.0000 -0.0443,0.0198 -0.0443 0.0443c -0.0000,0.0245 0.0198,0.0443 0.0443 0.0443c 0.0245,0.0000 0.0443,-0.0198 0.0443 -0.0443Z"/>
  </g>
  <defs>
  </defs>
  <g stroke-linejoin="miter" stroke-opacity="1.0" fill-opacity="1.0" stroke="rgb(0,0,0)" stroke-width="0.0" fill="rgb(255,0,0)" stroke-linecap="butt" stroke-miterlimit="10.0">
    <path d="M 425.9823,340.1547 c 0.0000,-0.0010 -0.0008,-0.0018 -0.0018 -0.0018c -0.0010,-0.0000 -0.0018,0.0008 -0.0018 0.0018c -0.0000,0.0010 0.0008,0.0018 0.0018 0.0018c 0.0010,0.0000 0.0018,-0.0008 0.0018 -0.0018Z"/>
  </g>
  <defs>
  </defs>
  <g stroke-linejoin="miter" stroke-opacity="1.0" fill-opacity="1.0" stroke="rgb(0,0,0)" stroke-width="1.7373155385595611" fill="rgb(0,0,255)" stroke-linecap="butt" stroke-miterlimit="10.0">
    <path d="M 390.8554,213.5447 c 0.0000,-0.0245 -0.0198,-0.0443 -0.0443 -0.0443c -0.0245,-0.0000 -0.0443,0.0198 -0.0443 0.0443c -0.0000,0.0245 0.0198,0.0443 0.0443 0.0443c 0.0245,0.0000 0.0443,-0.0198 0.0443 -0.0443Z"/>
  </g>
  <defs>
  </defs>
  <g stroke-linejoin="miter" stroke-opacity="1.0" fill-opacity="1.0" stroke="rgb(0,0,0)" stroke-width="0.0" fill="rgb(255,0,0)" stroke-linecap="butt" stroke-miterlimit="10.0">
    <path d="M 390.8129,213.5447 c 0.0000,-0.0010 -0.0008,-0.0018 -0.0018 -0.0018c -0.0010,-0.0000 -0.0018,0.0008 -0.0018 0.0018c -0.0000,0.0010 0.0008,0.0018 0.0018 0.0018c 0.0010,0.0000 0.0018,-0.0008 0.0018 -0.0018Z"/>
  </g>
  <defs>
  </defs>
  <g stroke-linejoin="miter" stroke-opacity="1.0" fill-opacity="1.0" stroke="rgb(0,0,0)" stroke-width="1.7373155385595611" fill="rgb(0,0,255)" stroke-linecap="butt" stroke-miterlimit="10.0">
    <path d="M 355.6860,327.4937 c 0.0000,-0.0245 -0.0198,-0.0443 -0.0443 -0.0443c -0.0245,-0.0000 -0.0443,0.0198 -0.0443 0.0443c -0.0000,0.0245 0.0198,0.0443 0.0443 0.0443c 0.0245,0.0000 0.0443,-0.0198 0.0443 -0.0443Z"/>
  </g>
  <defs>
  </defs>
  <g stroke-linejoin="miter" stroke-opacity="1.0" fill-opacity="1.0" stroke="rgb(0,0,0)" stroke-width="0.0" fill="rgb(255,0,0)" stroke-linecap="butt" stroke-miterlimit="10.0">
    <path d="M 355.6434,327.4937 c 0.0000,-0.0010 -0.0008,-0.0018 -0.0018 -0.0018c -0.0010,-0.0000 -0.0018,0.0008 -0.0018 0.0018c -0.0000,0.0010 0.0008,0.0018 0.0018 0.0018c 0.0010,0.0000 0.0018,-0.0008 0.0018 -0.0018Z"/>
  </g>
  <defs>
  </defs>
  <g stroke-linejoin="miter" stroke-opacity="1.0" fill-opacity="1.0" stroke="rgb(0,0,0)" stroke-width="1.7373155385595611" fill="rgb(0,0,255)" stroke-linecap="butt" stroke-miterlimit="10.0">
    <path d="M 320.5165,314.8327 c 0.0000,-0.0245 -0.0198,-0.0443 -0.0443 -0.0443c -0.0245,-0.0000 -0.0443,0.0198 -0.0443 0.0443c -0.0000,0.0245 0.0198,0.0443 0.0443 0.0443c 0.0245,0.0000 0.0443,-0.0198 0.0443 -0.0443Z"/>
  </g>
  <defs>
  </defs>
  <g stroke-linejoin="miter" stroke-opacity="1.0" fill-opacity="1.0" stroke="rgb(0,0,0)" stroke-width="0.0" fill="rgb(255,0,0)" stroke-linecap="butt" stroke-miterlimit="10.0">
    <path d="M 320.4740,314.8327 c 0.0000,-0.0010 -0.0008,-0.0018 -0.0018 -0.0018c -0.0010,-0.0000 -0.0018,0.0008 -0.0018 0.0018c -0.0000,0.0010 0.0008,0.0018 0.0018 0.0018c 0.0010,0.0000 0.0018,-0.0008 0.0018 -0.0018Z"/>
  </g>
  <defs>
  </defs>
  <g stroke-linejoin="miter" stroke-opacity="1.0" fill-opacity="1.0" stroke="rgb(0,0,0)" stroke-width="1.7373155385595611" fill="rgb(0,0,255)" stroke-linecap="butt" stroke-miterlimit="10.0">
    <path d="M 285.3471,314.8327 c 0.0000,-0.0245 -0.0198,-0.0443 -0.0443 -0.0443c -0.0245,-0.0000 -0.0443,0.0198 -0.0443 0.0443c -0.0000,0.0245 0.0198,0.0443 0.0443 0.0443c 0.0245,0.0000 0.0443,-0.0198 0.0443 -0.0443Z"/>
  </g>
  <defs>
  </defs>
  <g stroke-linejoin="miter" stroke-opacity="1.0" fill-opacity="1.0" stroke="rgb(0,0,0)" stroke-width="0.0" fill="rgb(255,0,0)" stroke-linecap="butt" stroke-miterlimit="10.0">
    <path d="M 285.3045,314.8327 c 0.0000,-0.0010 -0.0008,-0.0018 -0.0018 -0.0018c -0.0010,-0.0000 -0.0018,0.0008 -0.0018 0.0018c -0.0000,0.0010 0.0008,0.0018 0.0018 0.0018c 0.0010,0.0000 0.0018,-0.0008 0.0018 -0.0018Z"/>
  </g>
  <defs>
  </defs>
  <g stroke-linejoin="miter" stroke-opacity="1.0" fill-opacity="1.0" stroke="rgb(0,0,0)" stroke-width="1.7373155385595611" fill="rgb(0,0,255)" stroke-linecap="butt" stroke-miterlimit="10.0">
    <path d="M 250.1776,264.1887 c 0.0000,-0.0245 -0.0198,-0.0443 -0.0443 -0.0443c -0.0245,-0.0000 -0.0443,0.0198 -0.0443 0.0443c -0.0000,0.0245 0.0198,0.0443 0.0443 0.0443c 0.0245,0.0000 0.0443,-0.0198 0.0443 -0.0443Z"/>
  </g>
  <defs>
  </defs>
  <g stroke-linejoin="miter" stroke-opacity="1.0" fill-opacity="1.0" stroke="rgb(0,0,0)" stroke-width="0.0" fill="rgb(255,0,0)" stroke-linecap="butt" stroke-miterlimit="10.0">
    <path d="M 250.1351,264.1887 c 0.0000,-0.0010 -0.0008,-0.0018 -0.0018 -0.0018c -0.0010,-0.0000 -0.0018,0.0008 -0.0018 0.0018c -0.0000,0.0010 0.0008,0.0018 0.0018 0.0018c 0.0010,0.0000 0.0018,-0.0008 0.0018 -0.0018Z"/>
  </g>
  <defs>
  </defs>
  <g stroke-linejoin="miter" stroke-opacity="1.0" fill-opacity="1.0" stroke="rgb(0,0,0)" stroke-width="1.7373155385595611" fill="rgb(0,0,255)" stroke-linecap="butt" stroke-miterlimit="10.0">
    <path d="M 215.0082,340.1547 c 0.0000,-0.0245 -0.0198,-0.0443 -0.0443 -0.0443c -0.0245,-0.0000 -0.0443,0.0198 -0.0443 0.0443c -0.0000,0.0245 0.0198,0.0443 0.0443 0.0443c 0.0245,0.0000 0.0443,-0.0198 0.0443 -0.0443Z"/>
  </g>
  <defs>
  </defs>
  <g stroke-linejoin="miter" stroke-opacity="1.0" fill-opacity="1.0" stroke="rgb(0,0,0)" stroke-width="0.0" fill="rgb(255,0,0)" stroke-linecap="butt" stroke-miterlimit="10.0">
    <path d="M 214.9656,340.1547 c 0.0000,-0.0010 -0.0008,-0.0018 -0.0018 -0.0018c -0.0010,-0.0000 -0.0018,0.0008 -0.0018 0.0018c -0.0000,0.0010 0.0008,0.0018 0.0018 0.0018c 0.0010,0.0000 0.0018,-0.0008 0.0018 -0.0018Z"/>
  </g>
  <defs>
  </defs>
  <g stroke-linejoin="miter" stroke-opacity="1.0" fill-opacity="1.0" stroke="rgb(0,0,0)" stroke-width="1.7373155385595611" fill="rgb(0,0,255)" stroke-linecap="butt" stroke-miterlimit="10.0">
    <path d="M 179.8387,314.8327 c 0.0000,-0.0245 -0.0198,-0.0443 -0.0443 -0.0443c -0.0245,-0.0000 -0.0443,0.0198 -0.0443 0.0443c -0.0000,0.0245 0.0198,0.0443 0.0443 0.0443c 0.0245,0.0000 0.0443,-0.0198 0.0443 -0.0443Z"/>
  </g>
  <defs>
  </defs>
  <g stroke-linejoin="miter" stroke-opacity="1.0" fill-opacity="1.0" stroke="rgb(0,0,0)" stroke-width="0.0" fill="rgb(255,0,0)" stroke-linecap="butt" stroke-miterlimit="10.0">
    <path d="M 179.7962,314.8327 c 0.0000,-0.0010 -0.0008,-0.0018 -0.0018 -0.0018c -0.0010,-0.0000 -0.0018,0.0008 -0.0018 0.0018c -0.0000,0.0010 0.0008,0.0018 0.0018 0.0018c 0.0010,0.0000 0.0018,-0.0008 0.0018 -0.0018Z"/>
  </g>
  <defs>
  </defs>
  <g stroke-linejoin="miter" stroke-opacity="1.0" fill-opacity="1.0" stroke="rgb(0,0,0)" stroke-width="1.7373155385595611" fill="rgb(0,0,255)" stroke-linecap="butt" stroke-miterlimit="10.0">
    <path d="M 144.6693,289.5107 c 0.0000,-0.0245 -0.0198,-0.0443 -0.0443 -0.0443c -0.0245,-0.0000 -0.0443,0.0198 -0.0443 0.0443c -0.0000,0.0245 0.0198,0.0443 0.0443 0.0443c 0.0245,0.0000 0.0443,-0.0198 0.0443 -0.0443Z"/>
  </g>
  <defs>
  </defs>
  <g stroke-linejoin="miter" stroke-opacity="1.0" fill-opacity="1.0" stroke="rgb(0,0,0)" stroke-width="0.0" fill="rgb(255,0,0)" stroke-linecap="butt" stroke-miterlimit="10.0">
    <path d="M 144.6267,289.5107 c 0.0000,-0.0010 -0.0008,-0.0018 -0.0018 -0.0018c -0.0010,-0.0000 -0.0018,0.0008 -0.0018 0.0018c -0.0000,0.0010 0.0008,0.0018 0.0018 0.0018c 0.0010,0.0000 0.0018,-0.0008 0.0018 -0.0018Z"/>
  </g>
  <defs>
  </defs>
  <g stroke-linejoin="miter" stroke-opacity="1.0" fill-opacity="1.0" stroke="rgb(0,0,0)" stroke-width="1.7373155385595611" fill="rgb(0,0,255)" stroke-linecap="butt" stroke-miterlimit="10.0">
    <path d="M 109.4998,314.8327 c 0.0000,-0.0245 -0.0198,-0.0443 -0.0443 -0.0443c -0.0245,-0.0000 -0.0443,0.0198 -0.0443 0.0443c -0.0000,0.0245 0.0198,0.0443 0.0443 0.0443c 0.0245,0.0000 0.0443,-0.0198 0.0443 -0.0443Z"/>
  </g>
  <defs>
  </defs>
  <g stroke-linejoin="miter" stroke-opacity="1.0" fill-opacity="1.0" stroke="rgb(0,0,0)" stroke-width="0.0" fill="rgb(255,0,0)" stroke-linecap="butt" stroke-miterlimit="10.0">
    <path d="M 109.4573,314.8327 c 0.0000,-0.0010 -0.0008,-0.0018 -0.0018 -0.0018c -0.0010,-0.0000 -0.0018,0.0008 -0.0018 0.0018c -0.0000,0.0010 0.0008,0.0018 0.0018 0.0018c 0.0010,0.0000 0.0018,-0.0008 0.0018 -0.0018Z"/>
  </g>
  <defs>
  </defs>
  <g stroke-linejoin="miter" stroke-opacity="1.0" fill-opacity="0.0" stroke="rgb(0,0,0)" stroke-width="0.5" fill="rgb(0,0,0)" stroke-linecap="butt" stroke-miterlimit="10.0">
    <path d="M 109.4555,276.8497 v 63.3050 "/>
  </g>
  <defs>
  </defs>
  <g stroke-linejoin="miter" stroke-opacity="1.0" fill-opacity="1.0" stroke="rgb(0,0,0)" stroke-width="0.0" fill="rgb(255,0,0)" stroke-linecap="butt" stroke-miterlimit="10.0">
    <path d="M 110.7216,308.5022 c 0.0000,-0.6992 -0.5669,-1.2661 -1.2661 -1.2661c -0.6992,-0.0000 -1.2661,0.5669 -1.2661 1.2661c -0.0000,0.6992 0.5669,1.2661 1.2661 1.2661c 0.6992,0.0000 1.2661,-0.5669 1.2661 -1.2661Z"/>
  </g>
  <defs>
  </defs>
  <g stroke-linejoin="miter" stroke-opacity="1.0" fill-opacity="0.0" stroke="rgb(0,0,0)" stroke-width="0.5" fill="rgb(0,0,0)" stroke-linecap="butt" stroke-miterlimit="10.0">
    <path d="M 109.4555,340.1547 h 63.3050 "/>
  </g>
  <defs>
  </defs>
  <g stroke-linejoin="miter" stroke-opacity="1.0" fill-opacity="1.0" stroke="rgb(0,0,0)" stroke-width="0.0" fill="rgb(255,0,0)" stroke-linecap="butt" stroke-miterlimit="10.0">
    <path d="M 142.3741,340.1547 c 0.0000,-0.6992 -0.5669,-1.2661 -1.2661 -1.2661c -0.6992,-0.0000 -1.2661,0.5669 -1.2661 1.2661c -0.0000,0.6992 0.5669,1.2661 1.2661 1.2661c 0.6992,0.0000 1.2661,-0.5669 1.2661 -1.2661Z"/>
  </g>
  <defs>
  </defs>
  <g stroke-linejoin="miter" stroke-opacity="1.0" fill-opacity="1.0" stroke="rgb(0,0,0)" stroke-width="0.0" fill="rgb(255,0,0)" stroke-linecap="butt" stroke-miterlimit="10.0">
    <path d="M 115.9126,340.1547 c 0.0000,-3.5662 -2.8909,-6.4571 -6.4571 -6.4571c -3.5662,-0.0000 -6.4571,2.8909 -6.4571 6.4571c -0.0000,3.5662 2.8909,6.4571 6.4571 6.4571c 3.5662,0.0000 6.4571,-2.8909 6.4571 -6.4571Z"/>
  </g>
  <defs>
  </defs>
  <g stroke-linejoin="miter" stroke-opacity="1.0" fill-opacity="0.0" stroke="rgb(255,0,0)" stroke-width="1.7373155385595611" fill="rgb(0,0,0)" stroke-linecap="butt" stroke-miterlimit="10.0">
    <path d="M 429.1458,340.1547 c -0.5835,-20.7579 -6.3394,-41.2330 -12.1675 -61.1701c -5.8281,-19.9371 -11.7286,-39.3361 -19.9057 -57.9648c -8.1771,-18.6288 -18.6308,-36.4873 -32.4298 -51.3758c -13.7990,-14.8885 -30.9431,-26.8070 -49.6219 -35.0547c -18.6788,-8.2477 -38.8921,-12.8247 -59.2595 -13.3968c -20.3674,-0.5721 -40.8890,2.8607 -59.8754 10.3006c -18.9864,7.4399 -36.4378,18.8869 -51.3758 32.4298c -14.9380,13.5429 -27.3626,29.1819 -35.0547 49.5776c -7.6921,20.3957 -10.6517,45.5482 -13.6378 58.0925c -2.9861,12.5443 -5.9988,12.4804 -8.7439 14.5276c -2.7451,2.0472 -5.2228,6.2056 -6.8614 10.2688c -1.6386,4.0632 -2.4382,8.0312 -2.4094 12.1129c 0.0288,4.0817 0.8859,8.2772 2.4094 12.1129c 1.5235,3.8357 3.7133,7.3117 6.8614 10.2688c 3.1481,2.9571 7.2544,5.3953 10.2688 6.8614c 3.0145,1.4661 4.9371,1.9603 5.6558 2.4094c 0.7187,0.4491 0.2335,0.8533 0.1229 1.2600c -0.1107,0.4067 0.1532,0.8160 0.3671 1.2117c 0.2139,0.3957 0.3778,0.7779 0.5977 1.1161c 0.2199,0.3381 0.4959,0.6322 0.8036 0.9781c 0.3076,0.3459 0.6469,0.7437 0.9781 0.8036c 0.3312,0.0599 0.6543,-0.2181 1.1161 0.5977c 0.4618,0.8158 1.0624,2.7255 1.2117 0.3671c 0.1493,-2.3584 -0.1527,-8.9848 1.2600 0.1229c 1.4126,9.1077 4.5399,33.9495 12.1675 54.7130c 7.6276,20.7635 19.7556,37.4487 34.6501 51.8575c 14.8945,14.4088 32.5555,26.5412 51.8575 34.6501c 19.3020,8.1089 40.2450,12.1943 61.1701 12.1675c 20.9251,-0.0268 41.8325,-4.1657 61.1701 -12.1675c 19.3376,-8.0018 37.1056,-19.8665 51.8575 -34.6501c 14.7519,-14.7836 26.4878,-32.4860 34.6501 -51.8575c 8.1623,-19.3715 12.7510,-40.4122 12.1675 -61.1701Z"/>
  </g>
  <defs>
  </defs>
  <g stroke-linejoin="miter" stroke-opacity="1.0" fill-opacity="1.0" stroke="rgb(0,0,0)" stroke-width="1.7373155385595611" fill="rgb(0,0,255)" stroke-linecap="butt" stroke-miterlimit="10.0">
    <path d="M 426.6136,202.6300 c 0.0000,-0.3496 -0.2834,-0.6331 -0.6331 -0.6331c -0.3496,-0.0000 -0.6331,0.2834 -0.6331 0.6331c -0.0000,0.3496 0.2834,0.6331 0.6331 0.6331c 0.3496,0.0000 0.6331,-0.2834 0.6331 -0.6331Z"/>
  </g>
  <defs>
  </defs>
  <g stroke-linejoin="miter" stroke-opacity="1.0" fill-opacity="1.0" stroke="rgb(0,0,0)" stroke-width="0.0" fill="rgb(255,0,0)" stroke-linecap="butt" stroke-miterlimit="10.0">
    <path d="M 426.0059,202.6300 c 0.0000,-0.0140 -0.0113,-0.0253 -0.0253 -0.0253c -0.0140,-0.0000 -0.0253,0.0113 -0.0253 0.0253c -0.0000,0.0140 0.0113,0.0253 0.0253 0.0253c 0.0140,0.0000 0.0253,-0.0113 0.0253 -0.0253Z"/>
  </g>
  <defs>
  </defs>
  <g stroke-linejoin="miter" stroke-opacity="1.0" fill-opacity="1.0" stroke="rgb(0,0,0)" stroke-width="1.7373155385595611" fill="rgb(0,0,255)" stroke-linecap="butt" stroke-miterlimit="10.0">
    <path d="M 391.4442,180.8007 c 0.0000,-0.3496 -0.2834,-0.6331 -0.6331 -0.6331c -0.3496,-0.0000 -0.6331,0.2834 -0.6331 0.6331c -0.0000,0.3496 0.2834,0.6331 0.6331 0.6331c 0.3496,0.0000 0.6331,-0.2834 0.6331 -0.6331Z"/>
  </g>
  <defs>
  </defs>
  <g stroke-linejoin="miter" stroke-opacity="1.0" fill-opacity="1.0" stroke="rgb(0,0,0)" stroke-width="0.0" fill="rgb(255,0,0)" stroke-linecap="butt" stroke-miterlimit="10.0">
    <path d="M 390.8364,180.8007 c 0.0000,-0.0140 -0.0113,-0.0253 -0.0253 -0.0253c -0.0140,-0.0000 -0.0253,0.0113 -0.0253 0.0253c -0.0000,0.0140 0.0113,0.0253 0.0253 0.0253c 0.0140,0.0000 0.0253,-0.0113 0.0253 -0.0253Z"/>
  </g>
  <defs>
  </defs>
  <g stroke-linejoin="miter" stroke-opacity="1.0" fill-opacity="1.0" stroke="rgb(0,0,0)" stroke-width="1.7373155385595611" fill="rgb(0,0,255)" stroke-linecap="butt" stroke-miterlimit="10.0">
    <path d="M 356.2747,154.6055 c 0.0000,-0.3496 -0.2834,-0.6331 -0.6331 -0.6331c -0.3496,-0.0000 -0.6331,0.2834 -0.6331 0.6331c -0.0000,0.3496 0.2834,0.6331 0.6331 0.6331c 0.3496,0.0000 0.6331,-0.2834 0.6331 -0.6331Z"/>
  </g>
  <defs>
  </defs>
  <g stroke-linejoin="miter" stroke-opacity="1.0" fill-opacity="1.0" stroke="rgb(0,0,0)" stroke-width="0.0" fill="rgb(255,0,0)" stroke-linecap="butt" stroke-miterlimit="10.0">
    <path d="M 355.6670,154.6055 c 0.0000,-0.0140 -0.0113,-0.0253 -0.0253 -0.0253c -0.0140,-0.0000 -0.0253,0.0113 -0.0253 0.0253c -0.0000,0.0140 0.0113,0.0253 0.0253 0.0253c 0.0140,0.0000 0.0253,-0.0113 0.0253 -0.0253Z"/>
  </g>
  <defs>
  </defs>
  <g stroke-linejoin="miter" stroke-opacity="1.0" fill-opacity="1.0" stroke="rgb(0,0,0)" stroke-width="1.7373155385595611" fill="rgb(0,0,255)" stroke-linecap="butt" stroke-miterlimit="10.0">
    <path d="M 321.1053,110.9469 c 0.0000,-0.3496 -0.2834,-0.6331 -0.6331 -0.6331c -0.3496,-0.0000 -0.6331,0.2834 -0.6331 0.6331c -0.0000,0.3496 0.2834,0.6331 0.6331 0.6331c 0.3496,0.0000 0.6331,-0.2834 0.6331 -0.6331Z"/>
  </g>
  <defs>
  </defs>
  <g stroke-linejoin="miter" stroke-opacity="1.0" fill-opacity="1.0" stroke="rgb(0,0,0)" stroke-width="0.0" fill="rgb(255,0,0)" stroke-linecap="butt" stroke-miterlimit="10.0">
    <path d="M 320.4975,110.9469 c 0.0000,-0.0140 -0.0113,-0.0253 -0.0253 -0.0253c -0.0140,-0.0000 -0.0253,0.0113 -0.0253 0.0253c -0.0000,0.0140 0.0113,0.0253 0.0253 0.0253c 0.0140,0.0000 0.0253,-0.0113 0.0253 -0.0253Z"/>
  </g>
  <defs>
  </defs>
  <g stroke-linejoin="miter" stroke-opacity="1.0" fill-opacity="1.0" stroke="rgb(0,0,0)" stroke-width="1.7373155385595611" fill="rgb(0,0,255)" stroke-linecap="butt" stroke-miterlimit="10.0">
    <path d="M 285.9358,89.1176 c 0.0000,-0.3496 -0.2834,-0.6331 -0.6331 -0.6331c -0.3496,-0.0000 -0.6331,0.2834 -0.6331 0.6331c -0.0000,0.3496 0.2834,0.6331 0.6331 0.6331c 0.3496,0.0000 0.6331,-0.2834 0.6331 -0.6331Z"/>
  </g>
  <defs>
  </defs>
  <g stroke-linejoin="miter" stroke-opacity="1.0" fill-opacity="1.0" stroke="rgb(0,0,0)" stroke-width="0.0" fill="rgb(255,0,0)" stroke-linecap="butt" stroke-miterlimit="10.0">
    <path d="M 285.3281,89.1176 c 0.0000,-0.0140 -0.0113,-0.0253 -0.0253 -0.0253c -0.0140,-0.0000 -0.0253,0.0113 -0.0253 0.0253c -0.0000,0.0140 0.0113,0.0253 0.0253 0.0253c 0.0140,0.0000 0.0253,-0.0113 0.0253 -0.0253Z"/>
  </g>
  <defs>
  </defs>
  <g stroke-linejoin="miter" stroke-opacity="1.0" fill-opacity="1.0" stroke="rgb(0,0,0)" stroke-width="1.7373155385595611" fill="rgb(0,0,255)" stroke-linecap="butt" stroke-miterlimit="10.0">
    <path d="M 250.7664,23.6296 c 0.0000,-0.3496 -0.2834,-0.6331 -0.6331 -0.6331c -0.3496,-0.0000 -0.6331,0.2834 -0.6331 0.6331c -0.0000,0.3496 0.2834,0.6331 0.6331 0.6331c 0.3496,0.0000 0.6331,-0.2834 0.6331 -0.6331Z"/>
  </g>
  <defs>
  </defs>
  <g stroke-linejoin="miter" stroke-opacity="1.0" fill-opacity="1.0" stroke="rgb(0,0,0)" stroke-width="0.0" fill="rgb(255,0,0)" stroke-linecap="butt" stroke-miterlimit="10.0">
    <path d="M 250.1586,23.6296 c 0.0000,-0.0140 -0.0113,-0.0253 -0.0253 -0.0253c -0.0140,-0.0000 -0.0253,0.0113 -0.0253 0.0253c -0.0000,0.0140 0.0113,0.0253 0.0253 0.0253c 0.0140,0.0000 0.0253,-0.0113 0.0253 -0.0253Z"/>
  </g>
  <defs>
  </defs>
  <g stroke-linejoin="miter" stroke-opacity="1.0" fill-opacity="1.0" stroke="rgb(0,0,0)" stroke-width="1.7373155385595611" fill="rgb(0,0,255)" stroke-linecap="butt" stroke-miterlimit="10.0">
    <path d="M 215.5969,132.7762 c 0.0000,-0.3496 -0.2834,-0.6331 -0.6331 -0.6331c -0.3496,-0.0000 -0.6331,0.2834 -0.6331 0.6331c -0.0000,0.3496 0.2834,0.6331 0.6331 0.6331c 0.3496,0.0000 0.6331,-0.2834 0.6331 -0.6331Z"/>
  </g>
  <defs>
  </defs>
  <g stroke-linejoin="miter" stroke-opacity="1.0" fill-opacity="1.0" stroke="rgb(0,0,0)" stroke-width="0.0" fill="rgb(255,0,0)" stroke-linecap="butt" stroke-miterlimit="10.0">
    <path d="M 214.9892,132.7762 c 0.0000,-0.0140 -0.0113,-0.0253 -0.0253 -0.0253c -0.0140,-0.0000 -0.0253,0.0113 -0.0253 0.0253c -0.0000,0.0140 0.0113,0.0253 0.0253 0.0253c 0.0140,0.0000 0.0253,-0.0113 0.0253 -0.0253Z"/>
  </g>
  <defs>
  </defs>
  <g stroke-linejoin="miter" stroke-opacity="1.0" fill-opacity="1.0" stroke="rgb(0,0,0)" stroke-width="1.7373155385595611" fill="rgb(0,0,255)" stroke-linecap="butt" stroke-miterlimit="10.0">
    <path d="M 180.4275,154.6055 c 0.0000,-0.3496 -0.2834,-0.6331 -0.6331 -0.6331c -0.3496,-0.0000 -0.6331,0.2834 -0.6331 0.6331c -0.0000,0.3496 0.2834,0.6331 0.6331 0.6331c 0.3496,0.0000 0.6331,-0.2834 0.6331 -0.6331Z"/>
  </g>
  <defs>
  </defs>
  <g stroke-linejoin="miter" stroke-opacity="1.0" fill-opacity="1.0" stroke="rgb(0,0,0)" stroke-width="0.0" fill="rgb(255,0,0)" stroke-linecap="butt" stroke-miterlimit="10.0">
    <path d="M 179.8197,154.6055 c 0.0000,-0.0140 -0.0113,-0.0253 -0.0253 -0.0253c -0.0140,-0.0000 -0.0253,0.0113 -0.0253 0.0253c -0.0000,0.0140 0.0113,0.0253 0.0253 0.0253c 0.0140,0.0000 0.0253,-0.0113 0.0253 -0.0253Z"/>
  </g>
  <defs>
  </defs>
  <g stroke-linejoin="miter" stroke-opacity="1.0" fill-opacity="1.0" stroke="rgb(0,0,0)" stroke-width="1.7373155385595611" fill="rgb(0,0,255)" stroke-linecap="butt" stroke-miterlimit="10.0">
    <path d="M 145.2580,176.4348 c 0.0000,-0.3496 -0.2834,-0.6331 -0.6331 -0.6331c -0.3496,-0.0000 -0.6331,0.2834 -0.6331 0.6331c -0.0000,0.3496 0.2834,0.6331 0.6331 0.6331c 0.3496,0.0000 0.6331,-0.2834 0.6331 -0.6331Z"/>
  </g>
  <defs>
  </defs>
  <g stroke-linejoin="miter" stroke-opacity="1.0" fill-opacity="1.0" stroke="rgb(0,0,0)" stroke-width="0.0" fill="rgb(255,0,0)" stroke-linecap="butt" stroke-miterlimit="10.0">
    <path d="M 144.6503,176.4348 c 0.0000,-0.0140 -0.0113,-0.0253 -0.0253 -0.0253c -0.0140,-0.0000 -0.0253,0.0113 -0.0253 0.0253c -0.0000,0.0140 0.0113,0.0253 0.0253 0.0253c 0.0140,0.0000 0.0253,-0.0113 0.0253 -0.0253Z"/>
  </g>
  <defs>
  </defs>
  <g stroke-linejoin="miter" stroke-opacity="1.0" fill-opacity="1.0" stroke="rgb(0,0,0)" stroke-width="1.7373155385595611" fill="rgb(0,0,255)" stroke-linecap="butt" stroke-miterlimit="10.0">
    <path d="M 110.0885,178.6178 c 0.0000,-0.3496 -0.2834,-0.6331 -0.6331 -0.6331c -0.3496,-0.0000 -0.6331,0.2834 -0.6331 0.6331c -0.0000,0.3496 0.2834,0.6331 0.6331 0.6331c 0.3496,0.0000 0.6331,-0.2834 0.6331 -0.6331Z"/>
  </g>
  <defs>
  </defs>
  <g stroke-linejoin="miter" stroke-opacity="1.0" fill-opacity="1.0" stroke="rgb(0,0,0)" stroke-width="0.0" fill="rgb(255,0,0)" stroke-linecap="butt" stroke-miterlimit="10.0">
    <path d="M 109.4808,178.6178 c 0.0000,-0.0140 -0.0113,-0.0253 -0.0253 -0.0253c -0.0140,-0.0000 -0.0253,0.0113 -0.0253 0.0253c -0.0000,0.0140 0.0113,0.0253 0.0253 0.0253c 0.0140,0.0000 0.0253,-0.0113 0.0253 -0.0253Z"/>
  </g>
  <defs>
  </defs>
  <g stroke-linejoin="miter" stroke-opacity="1.0" fill-opacity="1.0" stroke="rgb(0,0,0)" stroke-width="1.7373155385595611" fill="rgb(0,0,255)" stroke-linecap="butt" stroke-miterlimit="10.0">
    <path d="M 426.6136,213.5447 c 0.0000,-0.3496 -0.2834,-0.6331 -0.6331 -0.6331c -0.3496,-0.0000 -0.6331,0.2834 -0.6331 0.6331c -0.0000,0.3496 0.2834,0.6331 0.6331 0.6331c 0.3496,0.0000 0.6331,-0.2834 0.6331 -0.6331Z"/>
  </g>
  <defs>
  </defs>
  <g stroke-linejoin="miter" stroke-opacity="1.0" fill-opacity="1.0" stroke="rgb(0,0,0)" stroke-width="0.0" fill="rgb(255,0,0)" stroke-linecap="butt" stroke-miterlimit="10.0">
    <path d="M 426.0059,213.5447 c 0.0000,-0.0140 -0.0113,-0.0253 -0.0253 -0.0253c -0.0140,-0.0000 -0.0253,0.0113 -0.0253 0.0253c -0.0000,0.0140 0.0113,0.0253 0.0253 0.0253c 0.0140,0.0000 0.0253,-0.0113 0.0253 -0.0253Z"/>
  </g>
  <defs>
  </defs>
  <g stroke-linejoin="miter" stroke-opacity="1.0" fill-opacity="1.0" stroke="rgb(0,0,0)" stroke-width="1.7373155385595611" fill="rgb(0,0,255)" stroke-linecap="butt" stroke-miterlimit="10.0">
    <path d="M 391.4442,198.2641 c 0.0000,-0.3496 -0.2834,-0.6331 -0.6331 -0.6331c -0.3496,-0.0000 -0.6331,0.2834 -0.6331 0.6331c -0.0000,0.3496 0.2834,0.6331 0.6331 0.6331c 0.3496,0.0000 0.6331,-0.2834 0.6331 -0.6331Z"/>
  </g>
  <defs>
  </defs>
  <g stroke-linejoin="miter" stroke-opacity="1.0" fill-opacity="1.0" stroke="rgb(0,0,0)" stroke-width="0.0" fill="rgb(255,0,0)" stroke-linecap="butt" stroke-miterlimit="10.0">
    <path d="M 390.8364,198.2641 c 0.0000,-0.0140 -0.0113,-0.0253 -0.0253 -0.0253c -0.0140,-0.0000 -0.0253,0.0113 -0.0253 0.0253c -0.0000,0.0140 0.0113,0.0253 0.0253 0.0253c 0.0140,0.0000 0.0253,-0.0113 0.0253 -0.0253Z"/>
  </g>
  <defs>
  </defs>
  <g stroke-linejoin="miter" stroke-opacity="1.0" fill-opacity="1.0" stroke="rgb(0,0,0)" stroke-width="1.7373155385595611" fill="rgb(0,0,255)" stroke-linecap="butt" stroke-miterlimit="10.0">
    <path d="M 356.2747,176.4348 c 0.0000,-0.3496 -0.2834,-0.6331 -0.6331 -0.6331c -0.3496,-0.0000 -0.6331,0.2834 -0.6331 0.6331c -0.0000,0.3496 0.2834,0.6331 0.6331 0.6331c 0.3496,0.0000 0.6331,-0.2834 0.6331 -0.6331Z"/>
  </g>
  <defs>
  </defs>
  <g stroke-linejoin="miter" stroke-opacity="1.0" fill-opacity="1.0" stroke="rgb(0,0,0)" stroke-width="0.0" fill="rgb(255,0,0)" stroke-linecap="butt" stroke-miterlimit="10.0">
    <path d="M 355.6670,176.4348 c 0.0000,-0.0140 -0.0113,-0.0253 -0.0253 -0.0253c -0.0140,-0.0000 -0.0253,0.0113 -0.0253 0.0253c -0.0000,0.0140 0.0113,0.0253 0.0253 0.0253c 0.0140,0.0000 0.0253,-0.0113 0.0253 -0.0253Z"/>
  </g>
  <defs>
  </defs>
  <g stroke-linejoin="miter" stroke-opacity="1.0" fill-opacity="1.0" stroke="rgb(0,0,0)" stroke-width="1.7373155385595611" fill="rgb(0,0,255)" stroke-linecap="butt" stroke-miterlimit="10.0">
    <path d="M 321.1053,132.7762 c 0.0000,-0.3496 -0.2834,-0.6331 -0.6331 -0.6331c -0.3496,-0.0000 -0.6331,0.2834 -0.6331 0.6331c -0.0000,0.3496 0.2834,0.6331 0.6331 0.6331c 0.3496,0.0000 0.6331,-0.2834 0.6331 -0.6331Z"/>
  </g>
  <defs>
  </defs>
  <g stroke-linejoin="miter" stroke-opacity="1.0" fill-opacity="1.0" stroke="rgb(0,0,0)" stroke-width="0.0" fill="rgb(255,0,0)" stroke-linecap="butt" stroke-miterlimit="10.0">
    <path d="M 320.4975,132.7762 c 0.0000,-0.0140 -0.0113,-0.0253 -0.0253 -0.0253c -0.0140,-0.0000 -0.0253,0.0113 -0.0253 0.0253c -0.0000,0.0140 0.0113,0.0253 0.0253 0.0253c 0.0140,0.0000 0.0253,-0.0113 0.0253 -0.0253Z"/>
  </g>
  <defs>
  </defs>
  <g stroke-linejoin="miter" stroke-opacity="1.0" fill-opacity="1.0" stroke="rgb(0,0,0)" stroke-width="1.7373155385595611" fill="rgb(0,0,255)" stroke-linecap="butt" stroke-miterlimit="10.0">
    <path d="M 285.9358,110.9469 c 0.0000,-0.3496 -0.2834,-0.6331 -0.6331 -0.6331c -0.3496,-0.0000 -0.6331,0.2834 -0.6331 0.6331c -0.0000,0.3496 0.2834,0.6331 0.6331 0.6331c 0.3496,0.0000 0.6331,-0.2834 0.6331 -0.6331Z"/>
  </g>
  <defs>
  </defs>
  <g stroke-linejoin="miter" stroke-opacity="1.0" fill-opacity="1.0" stroke="rgb(0,0,0)" stroke-width="0.0" fill="rgb(255,0,0)" stroke-linecap="butt" stroke-miterlimit="10.0">
    <path d="M 285.3281,110.9469 c 0.0000,-0.0140 -0.0113,-0.0253 -0.0253 -0.0253c -0.0140,-0.0000 -0.0253,0.0113 -0.0253 0.0253c -0.0000,0.0140 0.0113,0.0253 0.0253 0.0253c 0.0140,0.0000 0.0253,-0.0113 0.0253 -0.0253Z"/>
  </g>
  <defs>
  </defs>
  <g stroke-linejoin="miter" stroke-opacity="1.0" fill-opacity="1.0" stroke="rgb(0,0,0)" stroke-width="1.7373155385595611" fill="rgb(0,0,255)" stroke-linecap="butt" stroke-miterlimit="10.0">
    <path d="M 250.7664,89.1176 c 0.0000,-0.3496 -0.2834,-0.6331 -0.6331 -0.6331c -0.3496,-0.0000 -0.6331,0.2834 -0.6331 0.6331c -0.0000,0.3496 0.2834,0.6331 0.6331 0.6331c 0.3496,0.0000 0.6331,-0.2834 0.6331 -0.6331Z"/>
  </g>
  <defs>
  </defs>
  <g stroke-linejoin="miter" stroke-opacity="1.0" fill-opacity="1.0" stroke="rgb(0,0,0)" stroke-width="0.0" fill="rgb(255,0,0)" stroke-linecap="butt" stroke-miterlimit="10.0">
    <path d="M 250.1586,89.1176 c 0.0000,-0.0140 -0.0113,-0.0253 -0.0253 -0.0253c -0.0140,-0.0000 -0.0253,0.0113 -0.0253 0.0253c -0.0000,0.0140 0.0113,0.0253 0.0253 0.0253c 0.0140,0.0000 0.0253,-0.0113 0.0253 -0.0253Z"/>
  </g>
  <defs>
  </defs>
  <g stroke-linejoin="miter" stroke-opacity="1.0" fill-opacity="1.0" stroke="rgb(0,0,0)" stroke-width="1.7373155385595611" fill="rgb(0,0,255)" stroke-linecap="butt" stroke-miterlimit="10.0">
    <path d="M 215.5969,154.6055 c 0.0000,-0.3496 -0.2834,-0.6331 -0.6331 -0.6331c -0.3496,-0.0000 -0.6331,0.2834 -0.6331 0.6331c -0.0000,0.3496 0.2834,0.6331 0.6331 0.6331c 0.3496,0.0000 0.6331,-0.2834 0.6331 -0.6331Z"/>
  </g>
  <defs>
  </defs>
  <g stroke-linejoin="miter" stroke-opacity="1.0" fill-opacity="1.0" stroke="rgb(0,0,0)" stroke-width="0.0" fill="rgb(255,0,0)" stroke-linecap="butt" stroke-miterlimit="10.0">
    <path d="M 214.9892,154.6055 c 0.0000,-0.0140 -0.0113,-0.0253 -0.0253 -0.0253c -0.0140,-0.0000 -0.0253,0.0113 -0.0253 0.0253c -0.0000,0.0140 0.0113,0.0253 0.0253 0.0253c 0.0140,0.0000 0.0253,-0.0113 0.0253 -0.0253Z"/>
  </g>
  <defs>
  </defs>
  <g stroke-linejoin="miter" stroke-opacity="1.0" fill-opacity="1.0" stroke="rgb(0,0,0)" stroke-width="1.7373155385595611" fill="rgb(0,0,255)" stroke-linecap="butt" stroke-miterlimit="10.0">
    <path d="M 180.4275,176.4348 c 0.0000,-0.3496 -0.2834,-0.6331 -0.6331 -0.6331c -0.3496,-0.0000 -0.6331,0.2834 -0.6331 0.6331c -0.0000,0.3496 0.2834,0.6331 0.6331 0.6331c 0.3496,0.0000 0.6331,-0.2834 0.6331 -0.6331Z"/>
  </g>
  <defs>
  </defs>
  <g stroke-linejoin="miter" stroke-opacity="1.0" fill-opacity="1.0" stroke="rgb(0,0,0)" stroke-width="0.0" fill="rgb(255,0,0)" stroke-linecap="butt" stroke-miterlimit="10.0">
    <path d="M 179.8197,176.4348 c 0.0000,-0.0140 -0.0113,-0.0253 -0.0253 -0.0253c -0.0140,-0.0000 -0.0253,0.0113 -0.0253 0.0253c -0.0000,0.0140 0.0113,0.0253 0.0253 0.0253c 0.0140,0.0000 0.0253,-0.0113 0.0253 -0.0253Z"/>
  </g>
  <defs>
  </defs>
  <g stroke-linejoin="miter" stroke-opacity="1.0" fill-opacity="1.0" stroke="rgb(0,0,0)" stroke-width="1.7373155385595611" fill="rgb(0,0,255)" stroke-linecap="butt" stroke-miterlimit="10.0">
    <path d="M 145.2580,187.3495 c 0.0000,-0.3496 -0.2834,-0.6331 -0.6331 -0.6331c -0.3496,-0.0000 -0.6331,0.2834 -0.6331 0.6331c -0.0000,0.3496 0.2834,0.6331 0.6331 0.6331c 0.3496,0.0000 0.6331,-0.2834 0.6331 -0.6331Z"/>
  </g>
  <defs>
  </defs>
  <g stroke-linejoin="miter" stroke-opacity="1.0" fill-opacity="1.0" stroke="rgb(0,0,0)" stroke-width="0.0" fill="rgb(255,0,0)" stroke-linecap="butt" stroke-miterlimit="10.0">
    <path d="M 144.6503,187.3495 c 0.0000,-0.0140 -0.0113,-0.0253 -0.0253 -0.0253c -0.0140,-0.0000 -0.0253,0.0113 -0.0253 0.0253c -0.0000,0.0140 0.0113,0.0253 0.0253 0.0253c 0.0140,0.0000 0.0253,-0.0113 0.0253 -0.0253Z"/>
  </g>
  <defs>
  </defs>
  <g stroke-linejoin="miter" stroke-opacity="1.0" fill-opacity="1.0" stroke="rgb(0,0,0)" stroke-width="1.7373155385595611" fill="rgb(0,0,255)" stroke-linecap="butt" stroke-miterlimit="10.0">
    <path d="M 110.0885,193.8983 c 0.0000,-0.3496 -0.2834,-0.6331 -0.6331 -0.6331c -0.3496,-0.0000 -0.6331,0.2834 -0.6331 0.6331c -0.0000,0.3496 0.2834,0.6331 0.6331 0.6331c 0.3496,0.0000 0.6331,-0.2834 0.6331 -0.6331Z"/>
  </g>
  <defs>
  </defs>
  <g stroke-linejoin="miter" stroke-opacity="1.0" fill-opacity="1.0" stroke="rgb(0,0,0)" stroke-width="0.0" fill="rgb(255,0,0)" stroke-linecap="butt" stroke-miterlimit="10.0">
    <path d="M 109.4808,193.8983 c 0.0000,-0.0140 -0.0113,-0.0253 -0.0253 -0.0253c -0.0140,-0.0000 -0.0253,0.0113 -0.0253 0.0253c -0.0000,0.0140 0.0113,0.0253 0.0253 0.0253c 0.0140,0.0000 0.0253,-0.0113 0.0253 -0.0253Z"/>
  </g>
  <defs>
  </defs>
  <g stroke-linejoin="miter" stroke-opacity="1.0" fill-opacity="1.0" stroke="rgb(255,182,193)" stroke-width="1.7373155385595611" fill="rgb(255,182,193)" stroke-linecap="butt" stroke-miterlimit="10.0">
    <path d="M 109.4555,193.8983 l 35.1695,-6.5488 l 35.1695,-10.9147 l 35.1695,-21.8293 l 35.1695,-65.4879 l 35.1695,21.8293 l 35.1695,21.8293 l 35.1695,43.6586 l 35.1695,21.8293 l 35.1695,15.2805 v -10.9147 l -35.1695,-21.8293 l -35.1695,-26.1952 l -35.1695,-43.6586 l -35.1695,-21.8293 l -35.1695,-65.4879 l -35.1695,109.1466 l -35.1695,21.8293 l -35.1695,21.8293 l -35.1695,2.1829 Z"/>
  </g>
  <defs>
  </defs>
  <g stroke-linejoin="miter" stroke-opacity="1.0" fill-opacity="1.0" stroke="rgb(0,0,0)" stroke-width="0.0" fill="rgb(255,0,0)" stroke-linecap="butt" stroke-miterlimit="10.0">
    <path d="M 115.7860,193.8983 c 0.0000,-3.4962 -2.8343,-6.3305 -6.3305 -6.3305c -3.4962,-0.0000 -6.3305,2.8343 -6.3305 6.3305c -0.0000,3.4962 2.8343,6.3305 6.3305 6.3305c 3.4962,0.0000 6.3305,-2.8343 6.3305 -6.3305Z"/>
  </g>
  <defs>
  </defs>
  <g stroke-linejoin="miter" stroke-opacity="1.0" fill-opacity="0.0" stroke="rgb(0,0,0)" stroke-width="0.5" fill="rgb(0,0,0)" stroke-linecap="butt" stroke-miterlimit="10.0">
    <path d="M 109.4555,150.2397 v 63.3050 "/>
  </g>
  <defs>
  </defs>
  <g stroke-linejoin="miter" stroke-opacity="1.0" fill-opacity="1.0" stroke="rgb(0,0,0)" stroke-width="0.0" fill="rgb(255,0,0)" stroke-linecap="butt" stroke-miterlimit="10.0">
    <path d="M 110.7216,181.8922 c 0.0000,-0.6992 -0.5669,-1.2661 -1.2661 -1.2661c -0.6992,-0.0000 -1.2661,0.5669 -1.2661 1.2661c -0.0000,0.6992 0.5669,1.2661 1.2661 1.2661c 0.6992,0.0000 1.2661,-0.5669 1.2661 -1.2661Z"/>
  </g>
  <defs>
  </defs>
  <g stroke-linejoin="miter" stroke-opacity="1.0" fill-opacity="0.0" stroke="rgb(0,0,0)" stroke-width="0.5" fill="rgb(0,0,0)" stroke-linecap="butt" stroke-miterlimit="10.0">
    <path d="M 109.4555,213.5447 h 63.3050 "/>
  </g>
  <defs>
  </defs>
  <g stroke-linejoin="miter" stroke-opacity="1.0" fill-opacity="1.0" stroke="rgb(0,0,0)" stroke-width="0.0" fill="rgb(255,0,0)" stroke-linecap="butt" stroke-miterlimit="10.0">
    <path d="M 142.3741,213.5447 c 0.0000,-0.6992 -0.5669,-1.2661 -1.2661 -1.2661c -0.6992,-0.0000 -1.2661,0.5669 -1.2661 1.2661c -0.0000,0.6992 0.5669,1.2661 1.2661 1.2661c 0.6992,0.0000 1.2661,-0.5669 1.2661 -1.2661Z"/>
  </g>
  <defs>
  </defs>
  <g stroke-linejoin="miter" stroke-opacity="1.0" fill-opacity="1.0" stroke="rgb(0,0,0)" stroke-width="0.0" fill="rgb(255,0,0)" stroke-linecap="butt" stroke-miterlimit="10.0">
    <path d="M 115.9253,213.5447 c 0.0000,-3.5732 -2.8966,-6.4698 -6.4698 -6.4698c -3.5732,-0.0000 -6.4698,2.8966 -6.4698 6.4698c -0.0000,3.5732 2.8966,6.4698 6.4698 6.4698c 3.5732,0.0000 6.4698,-2.8966 6.4698 -6.4698Z"/>
  </g>
  <defs>
  </defs>
  <g stroke-linejoin="miter" stroke-opacity="1.0" fill-opacity="0.0" stroke="rgb(255,0,0)" stroke-width="1.7373155385595611" fill="rgb(0,0,0)" stroke-linecap="butt" stroke-miterlimit="10.0">
    <path d="M 426.6136,213.5447 c 0.3770,-20.8235 -2.7175,-41.7649 -9.9706 -61.1034c -7.2531,-19.3385 -18.6648,-37.0741 -32.5725 -52.6459c -13.9077,-15.5718 -30.3115,-28.9798 -50.2197 -36.1869c -19.9082,-7.2071 -43.3207,-8.2132 -58.6513 -15.8079c -15.3305,-7.5947 -22.5790,-21.7779 -34.2416 -31.0632c -11.6627,-9.2854 -27.7396,-13.6729 -43.5132 -15.6175c -15.7736,-1.9446 -31.2440,-1.4461 -46.1728 2.1994c -14.9288,3.6455 -29.3161,10.4380 -41.8164 19.6773c -12.5003,9.2392 -23.1138,20.9252 -31.1080 34.1578c -7.9942,13.2326 -13.3692,28.0118 -15.6777 43.4398c -2.3085,15.4280 -1.5506,31.5047 2.1260 46.1126c 3.6765,14.6079 10.2717,27.7469 13.0072 35.1854c 2.7355,7.4385 1.6114,9.1766 2.4094 12.1129c 0.7980,2.9363 3.5183,7.0707 6.8614 10.2688c 3.3431,3.1981 7.3091,5.4599 10.2688 6.8614c 2.9597,1.4015 4.9131,1.9426 5.6431 2.4094c 0.7300,0.4668 0.2366,0.8594 0.1231 1.2624c -0.1135,0.4030 0.1528,0.8164 0.3678 1.2141c 0.2150,0.3977 0.3787,0.7798 0.5989 1.1183c 0.2202,0.3385 0.4968,0.6333 0.8052 0.9800c 0.3083,0.3467 0.6483,0.7454 0.9800 0.8052c 0.3317,0.0598 0.6551,-0.2192 1.1183 0.5989c 0.4632,0.8180 1.0662,2.7331 1.2141 0.3678c 0.1479,-2.3653 -0.1595,-9.0110 1.2624 0.1231c 1.4219,9.1341 4.5730,34.0479 12.1705 54.7157c 7.5975,20.6678 19.6414,37.0895 34.4258 51.3081c 14.7844,14.2186 32.3091,26.2341 51.4535 34.2484c 19.1443,8.0143 39.9083,12.0275 60.6603 11.9682c 20.7521,-0.0593 41.4923,-4.1909 60.6432 -12.1429c 19.1509,-7.9520 36.7124,-19.7243 51.4027 -34.4164c 14.6903,-14.6921 26.5093,-32.3041 34.3430 -51.4629c 7.8337,-19.1588 11.6821,-39.8645 12.0591 -60.6880Z"/>
  </g>
  <defs>
  </defs>
  <g stroke-linejoin="miter" stroke-opacity="1.0" fill-opacity="0.0" stroke="rgb(0,0,0)" stroke-width="0.5" fill="rgb(0,0,0)" stroke-linecap="butt" stroke-miterlimit="10.0">
    <path d="M 438.6416,352.8157 l -0.0000,-341.8471 h -341.8471 l -0.0000,341.8471 Z"/>
  </g>
  <defs>
  </defs>
  <g stroke-linejoin="miter" stroke-opacity="1.0" fill-opacity="1.0" stroke="rgb(0,0,0)" stroke-width="0.0" fill="rgb(255,0,0)" stroke-linecap="butt" stroke-miterlimit="10.0">
    <path d="M 274.5550,181.8922 c 0.0000,-3.7759 -3.0610,-6.8369 -6.8369 -6.8369c -3.7759,-0.0000 -6.8369,3.0610 -6.8369 6.8369c -0.0000,3.7759 3.0610,6.8369 6.8369 6.8369c 3.7759,0.0000 6.8369,-3.0610 6.8369 -6.8369Z"/>
  </g>
</svg>